G04 #@! TF.GenerationSoftware,KiCad,Pcbnew,5.1.10*
G04 #@! TF.CreationDate,2021-06-21T19:24:40+02:00*
G04 #@! TF.ProjectId,power-extender,706f7765-722d-4657-9874-656e6465722e,1*
G04 #@! TF.SameCoordinates,Original*
G04 #@! TF.FileFunction,Copper,L2,Bot*
G04 #@! TF.FilePolarity,Positive*
%FSLAX46Y46*%
G04 Gerber Fmt 4.6, Leading zero omitted, Abs format (unit mm)*
G04 Created by KiCad (PCBNEW 5.1.10) date 2021-06-21 19:24:40*
%MOMM*%
%LPD*%
G01*
G04 APERTURE LIST*
G04 #@! TA.AperFunction,ComponentPad*
%ADD10O,1.700000X1.950000*%
G04 #@! TD*
G04 #@! TA.AperFunction,ComponentPad*
%ADD11C,3.000000*%
G04 #@! TD*
G04 #@! TA.AperFunction,ComponentPad*
%ADD12C,2.500000*%
G04 #@! TD*
G04 #@! TA.AperFunction,ComponentPad*
%ADD13C,2.600000*%
G04 #@! TD*
G04 #@! TA.AperFunction,ComponentPad*
%ADD14R,2.600000X2.600000*%
G04 #@! TD*
G04 #@! TA.AperFunction,ViaPad*
%ADD15C,0.800000*%
G04 #@! TD*
G04 #@! TA.AperFunction,Conductor*
%ADD16C,0.250000*%
G04 #@! TD*
G04 #@! TA.AperFunction,Conductor*
%ADD17C,1.000000*%
G04 #@! TD*
G04 #@! TA.AperFunction,Conductor*
%ADD18C,0.500000*%
G04 #@! TD*
G04 #@! TA.AperFunction,Conductor*
%ADD19C,3.000000*%
G04 #@! TD*
G04 #@! TA.AperFunction,Conductor*
%ADD20C,0.254000*%
G04 #@! TD*
G04 #@! TA.AperFunction,Conductor*
%ADD21C,0.150000*%
G04 #@! TD*
G04 APERTURE END LIST*
D10*
X143240000Y-70950000D03*
X145780000Y-70950000D03*
X148320000Y-70950000D03*
X150860000Y-70950000D03*
G04 #@! TA.AperFunction,ComponentPad*
G36*
G01*
X154250000Y-70225000D02*
X154250000Y-71675000D01*
G75*
G02*
X154000000Y-71925000I-250000J0D01*
G01*
X152800000Y-71925000D01*
G75*
G02*
X152550000Y-71675000I0J250000D01*
G01*
X152550000Y-70225000D01*
G75*
G02*
X152800000Y-69975000I250000J0D01*
G01*
X154000000Y-69975000D01*
G75*
G02*
X154250000Y-70225000I0J-250000D01*
G01*
G37*
G04 #@! TD.AperFunction*
X143240000Y-78500000D03*
X145780000Y-78500000D03*
X148320000Y-78500000D03*
X150860000Y-78500000D03*
G04 #@! TA.AperFunction,ComponentPad*
G36*
G01*
X154250000Y-77775000D02*
X154250000Y-79225000D01*
G75*
G02*
X154000000Y-79475000I-250000J0D01*
G01*
X152800000Y-79475000D01*
G75*
G02*
X152550000Y-79225000I0J250000D01*
G01*
X152550000Y-77775000D01*
G75*
G02*
X152800000Y-77525000I250000J0D01*
G01*
X154000000Y-77525000D01*
G75*
G02*
X154250000Y-77775000I0J-250000D01*
G01*
G37*
G04 #@! TD.AperFunction*
X143240000Y-123600000D03*
X145780000Y-123600000D03*
X148320000Y-123600000D03*
X150860000Y-123600000D03*
G04 #@! TA.AperFunction,ComponentPad*
G36*
G01*
X154250000Y-122875000D02*
X154250000Y-124325000D01*
G75*
G02*
X154000000Y-124575000I-250000J0D01*
G01*
X152800000Y-124575000D01*
G75*
G02*
X152550000Y-124325000I0J250000D01*
G01*
X152550000Y-122875000D01*
G75*
G02*
X152800000Y-122625000I250000J0D01*
G01*
X154000000Y-122625000D01*
G75*
G02*
X154250000Y-122875000I0J-250000D01*
G01*
G37*
G04 #@! TD.AperFunction*
X143240000Y-131100000D03*
X145780000Y-131100000D03*
X148320000Y-131100000D03*
X150860000Y-131100000D03*
G04 #@! TA.AperFunction,ComponentPad*
G36*
G01*
X154250000Y-130375000D02*
X154250000Y-131825000D01*
G75*
G02*
X154000000Y-132075000I-250000J0D01*
G01*
X152800000Y-132075000D01*
G75*
G02*
X152550000Y-131825000I0J250000D01*
G01*
X152550000Y-130375000D01*
G75*
G02*
X152800000Y-130125000I250000J0D01*
G01*
X154000000Y-130125000D01*
G75*
G02*
X154250000Y-130375000I0J-250000D01*
G01*
G37*
G04 #@! TD.AperFunction*
D11*
X173150000Y-75000000D03*
D12*
X175100000Y-69050000D03*
D11*
X187350000Y-69000000D03*
X187300000Y-81050000D03*
D12*
X175100000Y-81050000D03*
D13*
X186500000Y-87000000D03*
X186500000Y-92000000D03*
D14*
X186500000Y-97000000D03*
D11*
X173150000Y-126000000D03*
D12*
X175100000Y-120050000D03*
D11*
X187350000Y-120000000D03*
X187300000Y-132050000D03*
D12*
X175100000Y-132050000D03*
D13*
X186550000Y-104000000D03*
X186550000Y-109000000D03*
D14*
X186550000Y-114000000D03*
D11*
X124350000Y-126000000D03*
D12*
X122400000Y-131950000D03*
D11*
X110150000Y-132000000D03*
X110200000Y-119950000D03*
D12*
X122400000Y-119950000D03*
D13*
X111000000Y-114000000D03*
X111000000Y-109000000D03*
D14*
X111000000Y-104000000D03*
D11*
X124350000Y-75000000D03*
D12*
X122400000Y-80950000D03*
D11*
X110150000Y-81000000D03*
X110200000Y-68950000D03*
D12*
X122400000Y-68950000D03*
D13*
X110950000Y-97000000D03*
X110950000Y-92000000D03*
D14*
X110950000Y-87000000D03*
D15*
X136145000Y-87855000D03*
X131750000Y-105750000D03*
X131749994Y-96500000D03*
X134700000Y-112000000D03*
X133600000Y-68000000D03*
X131700000Y-117400000D03*
X165800000Y-83600000D03*
X161355000Y-113145000D03*
X165750006Y-104500000D03*
X163900000Y-133000000D03*
X165750000Y-95250000D03*
X144200000Y-84550000D03*
X150300000Y-84100000D03*
X148500000Y-89000000D03*
X141249993Y-91250007D03*
X161800000Y-89400000D03*
X137900000Y-129100000D03*
X158810000Y-72880000D03*
X154230000Y-89650000D03*
X136690000Y-75420000D03*
X161170000Y-125780000D03*
X140020000Y-83910000D03*
X158525000Y-100475000D03*
X155500000Y-97600000D03*
X154500000Y-90800000D03*
X160070000Y-88500001D03*
X130375000Y-84375000D03*
X129800000Y-105700000D03*
X167125000Y-116625000D03*
X167700000Y-95300000D03*
X155400000Y-114350000D03*
X155750000Y-82500000D03*
X151500000Y-86699998D03*
X160200000Y-84300000D03*
X160200000Y-70900000D03*
X139599996Y-127200000D03*
X148950000Y-111150000D03*
X148950000Y-115650000D03*
X149000000Y-94300000D03*
X138150006Y-94250000D03*
X150200000Y-104800000D03*
X147300000Y-105900000D03*
X146574990Y-86570636D03*
X146600000Y-83600000D03*
X145500000Y-91300000D03*
D16*
X155650000Y-97600000D02*
X155500000Y-97600000D01*
X158525000Y-100475000D02*
X155650000Y-97600000D01*
X154500000Y-90800000D02*
X157770001Y-90800000D01*
X157770001Y-90800000D02*
X160070000Y-88500001D01*
D17*
X129800000Y-105700000D02*
X129800000Y-105700000D01*
X130375000Y-84375000D02*
X129800000Y-84950000D01*
X129800000Y-84950000D02*
X129800000Y-105700000D01*
X167125000Y-116625000D02*
X167700000Y-116050000D01*
X167700000Y-95300000D02*
X167700000Y-95300000D01*
X167700000Y-116050000D02*
X167700000Y-95300000D01*
X155400000Y-114350000D02*
X154400000Y-114350000D01*
X153400000Y-115350000D02*
X153400000Y-123600000D01*
X154400000Y-114350000D02*
X153400000Y-115350000D01*
D16*
X155750000Y-82500000D02*
X151550002Y-86699998D01*
X151550002Y-86699998D02*
X151500000Y-86699998D01*
D17*
X167700000Y-91800000D02*
X160200000Y-84300000D01*
X167700000Y-95300000D02*
X167700000Y-91800000D01*
X160200000Y-84300000D02*
X160200000Y-70900000D01*
X129800000Y-105700000D02*
X129800000Y-117400004D01*
X129800000Y-117400004D02*
X139599996Y-127200000D01*
X152030000Y-127200000D02*
X139599996Y-127200000D01*
X153400000Y-125830000D02*
X152030000Y-127200000D01*
X153400000Y-123600000D02*
X153400000Y-125830000D01*
D18*
X148950000Y-118900000D02*
X148950000Y-111150000D01*
X150900000Y-120850000D02*
X148950000Y-118900000D01*
X150900000Y-123600000D02*
X150900000Y-120850000D01*
D16*
X149000000Y-94300000D02*
X138200006Y-94300000D01*
X138200006Y-94300000D02*
X138150006Y-94250000D01*
X149100000Y-105900000D02*
X147300000Y-105900000D01*
X150200000Y-104800000D02*
X149100000Y-105900000D01*
X146574990Y-83625010D02*
X146600000Y-83600000D01*
X146574990Y-86570636D02*
X146574990Y-83625010D01*
X147250000Y-89550000D02*
X145500000Y-91300000D01*
X147250000Y-87245646D02*
X147250000Y-89550000D01*
X146574990Y-86570636D02*
X147250000Y-87245646D01*
D19*
X116850000Y-94400000D02*
X116850000Y-75600000D01*
X114250000Y-97000000D02*
X116850000Y-94400000D01*
X110950000Y-97000000D02*
X114250000Y-97000000D01*
X116850000Y-75600000D02*
X110200000Y-68950000D01*
X110950000Y-87000000D02*
X110950000Y-81800000D01*
X110950000Y-81800000D02*
X110150000Y-81000000D01*
X116850000Y-106600000D02*
X116850000Y-125400000D01*
X114250000Y-104000000D02*
X116850000Y-106600000D01*
X110950000Y-104000000D02*
X114250000Y-104000000D01*
X116850000Y-125400000D02*
X110200000Y-132050000D01*
X110950000Y-114000000D02*
X110950000Y-119200000D01*
X110950000Y-119200000D02*
X110150000Y-120000000D01*
X180650000Y-106600000D02*
X180650000Y-125400000D01*
X183250000Y-104000000D02*
X180650000Y-106600000D01*
X186550000Y-104000000D02*
X183250000Y-104000000D01*
X180650000Y-125400000D02*
X187300000Y-132050000D01*
X186550000Y-114000000D02*
X186550000Y-119200000D01*
X186550000Y-119200000D02*
X187350000Y-120000000D01*
X186550000Y-87000000D02*
X186550000Y-81800000D01*
X186550000Y-81800000D02*
X187350000Y-81000000D01*
X183250000Y-97000000D02*
X180650000Y-94400000D01*
X180650000Y-94400000D02*
X180650000Y-75600000D01*
X180650000Y-75600000D02*
X187300000Y-68950000D01*
X186550000Y-97000000D02*
X183250000Y-97000000D01*
D20*
X166920189Y-67144376D02*
X167083850Y-67194022D01*
X167234672Y-67274638D01*
X167366870Y-67383130D01*
X167475362Y-67515328D01*
X167555978Y-67666150D01*
X167605624Y-67829811D01*
X167623000Y-68006234D01*
X167623000Y-90117867D01*
X161335000Y-83829869D01*
X161335000Y-70844248D01*
X161318577Y-70677501D01*
X161253676Y-70463553D01*
X161148284Y-70266377D01*
X161006449Y-70093551D01*
X160833623Y-69951716D01*
X160636447Y-69846324D01*
X160422499Y-69781423D01*
X160200000Y-69759509D01*
X159977502Y-69781423D01*
X159763554Y-69846324D01*
X159566378Y-69951716D01*
X159393552Y-70093551D01*
X159251717Y-70266377D01*
X159146325Y-70463553D01*
X159081424Y-70677501D01*
X159065001Y-70844248D01*
X159065000Y-84244249D01*
X159059509Y-84300000D01*
X159066896Y-84375000D01*
X159081423Y-84522498D01*
X159146324Y-84736446D01*
X159251716Y-84933623D01*
X159393551Y-85106449D01*
X159436865Y-85141996D01*
X166565001Y-92270134D01*
X166565000Y-95244248D01*
X166559509Y-95300000D01*
X166565001Y-95355762D01*
X166565000Y-115579869D01*
X166283012Y-115861857D01*
X166176717Y-115991378D01*
X166071324Y-116188554D01*
X166006423Y-116402502D01*
X165984509Y-116625000D01*
X166006423Y-116847498D01*
X166071324Y-117061446D01*
X166176717Y-117258622D01*
X166318552Y-117431448D01*
X166491378Y-117573283D01*
X166688554Y-117678676D01*
X166902502Y-117743577D01*
X167125000Y-117765491D01*
X167347498Y-117743577D01*
X167561446Y-117678676D01*
X167623000Y-117645775D01*
X167623000Y-132993766D01*
X167605624Y-133170189D01*
X167555978Y-133333850D01*
X167475362Y-133484672D01*
X167366870Y-133616870D01*
X167234672Y-133725362D01*
X167083850Y-133805978D01*
X166920189Y-133855624D01*
X166743766Y-133873000D01*
X130756234Y-133873000D01*
X130579811Y-133855624D01*
X130416150Y-133805978D01*
X130265328Y-133725362D01*
X130133130Y-133616870D01*
X130024638Y-133484672D01*
X129944022Y-133333850D01*
X129894376Y-133170189D01*
X129877000Y-132993766D01*
X129877000Y-131459267D01*
X141773680Y-131459267D01*
X141847558Y-131740830D01*
X141974947Y-132002570D01*
X142150951Y-132234429D01*
X142368807Y-132427496D01*
X142620142Y-132574352D01*
X142883110Y-132666476D01*
X143113000Y-132545155D01*
X143113000Y-131227000D01*
X141913835Y-131227000D01*
X141773680Y-131459267D01*
X129877000Y-131459267D01*
X129877000Y-130740733D01*
X141773680Y-130740733D01*
X141913835Y-130973000D01*
X143113000Y-130973000D01*
X143113000Y-129654845D01*
X143367000Y-129654845D01*
X143367000Y-130973000D01*
X143387000Y-130973000D01*
X143387000Y-131227000D01*
X143367000Y-131227000D01*
X143367000Y-132545155D01*
X143596890Y-132666476D01*
X143859858Y-132574352D01*
X144111193Y-132427496D01*
X144329049Y-132234429D01*
X144505053Y-132002570D01*
X144508267Y-131995966D01*
X144539294Y-132054013D01*
X144724866Y-132280134D01*
X144950986Y-132465706D01*
X145208966Y-132603599D01*
X145488889Y-132688513D01*
X145780000Y-132717185D01*
X146071110Y-132688513D01*
X146351033Y-132603599D01*
X146609013Y-132465706D01*
X146835134Y-132280134D01*
X147020706Y-132054014D01*
X147050000Y-131999208D01*
X147079294Y-132054013D01*
X147264866Y-132280134D01*
X147490986Y-132465706D01*
X147748966Y-132603599D01*
X148028889Y-132688513D01*
X148320000Y-132717185D01*
X148611110Y-132688513D01*
X148891033Y-132603599D01*
X149149013Y-132465706D01*
X149375134Y-132280134D01*
X149560706Y-132054014D01*
X149590000Y-131999208D01*
X149619294Y-132054013D01*
X149804866Y-132280134D01*
X150030986Y-132465706D01*
X150288966Y-132603599D01*
X150568889Y-132688513D01*
X150860000Y-132717185D01*
X151151110Y-132688513D01*
X151431033Y-132603599D01*
X151689013Y-132465706D01*
X151915134Y-132280134D01*
X151991446Y-132187147D01*
X152061595Y-132318386D01*
X152172038Y-132452962D01*
X152306614Y-132563405D01*
X152460150Y-132645472D01*
X152626746Y-132696008D01*
X152800000Y-132713072D01*
X154000000Y-132713072D01*
X154173254Y-132696008D01*
X154339850Y-132645472D01*
X154493386Y-132563405D01*
X154627962Y-132452962D01*
X154738405Y-132318386D01*
X154820472Y-132164850D01*
X154871008Y-131998254D01*
X154888072Y-131825000D01*
X154888072Y-130375000D01*
X154871008Y-130201746D01*
X154820472Y-130035150D01*
X154738405Y-129881614D01*
X154627962Y-129747038D01*
X154493386Y-129636595D01*
X154339850Y-129554528D01*
X154173254Y-129503992D01*
X154000000Y-129486928D01*
X152800000Y-129486928D01*
X152626746Y-129503992D01*
X152460150Y-129554528D01*
X152306614Y-129636595D01*
X152172038Y-129747038D01*
X152061595Y-129881614D01*
X151991446Y-130012853D01*
X151915134Y-129919866D01*
X151689014Y-129734294D01*
X151431034Y-129596401D01*
X151151111Y-129511487D01*
X150860000Y-129482815D01*
X150568890Y-129511487D01*
X150288967Y-129596401D01*
X150030987Y-129734294D01*
X149804866Y-129919866D01*
X149619294Y-130145986D01*
X149590000Y-130200791D01*
X149560706Y-130145986D01*
X149375134Y-129919866D01*
X149149014Y-129734294D01*
X148891034Y-129596401D01*
X148611111Y-129511487D01*
X148320000Y-129482815D01*
X148028890Y-129511487D01*
X147748967Y-129596401D01*
X147490987Y-129734294D01*
X147264866Y-129919866D01*
X147079294Y-130145986D01*
X147050000Y-130200791D01*
X147020706Y-130145986D01*
X146835134Y-129919866D01*
X146609014Y-129734294D01*
X146351034Y-129596401D01*
X146071111Y-129511487D01*
X145780000Y-129482815D01*
X145488890Y-129511487D01*
X145208967Y-129596401D01*
X144950987Y-129734294D01*
X144724866Y-129919866D01*
X144539294Y-130145986D01*
X144508267Y-130204034D01*
X144505053Y-130197430D01*
X144329049Y-129965571D01*
X144111193Y-129772504D01*
X143859858Y-129625648D01*
X143596890Y-129533524D01*
X143367000Y-129654845D01*
X143113000Y-129654845D01*
X142883110Y-129533524D01*
X142620142Y-129625648D01*
X142368807Y-129772504D01*
X142150951Y-129965571D01*
X141974947Y-130197430D01*
X141847558Y-130459170D01*
X141773680Y-130740733D01*
X129877000Y-130740733D01*
X129877000Y-119082135D01*
X138758005Y-127963141D01*
X138793547Y-128006449D01*
X138966373Y-128148284D01*
X139163549Y-128253676D01*
X139377497Y-128318577D01*
X139544244Y-128335000D01*
X139544253Y-128335000D01*
X139599995Y-128340490D01*
X139655737Y-128335000D01*
X151974249Y-128335000D01*
X152030000Y-128340491D01*
X152085751Y-128335000D01*
X152085752Y-128335000D01*
X152252499Y-128318577D01*
X152466447Y-128253676D01*
X152663623Y-128148284D01*
X152836449Y-128006449D01*
X152871995Y-127963136D01*
X154163146Y-126671987D01*
X154206449Y-126636449D01*
X154285418Y-126540226D01*
X154348284Y-126463623D01*
X154453676Y-126266447D01*
X154518577Y-126052499D01*
X154540491Y-125830000D01*
X154535000Y-125774248D01*
X154535000Y-125029253D01*
X154627962Y-124952962D01*
X154738405Y-124818386D01*
X154820472Y-124664850D01*
X154871008Y-124498254D01*
X154888072Y-124325000D01*
X154888072Y-122875000D01*
X154871008Y-122701746D01*
X154820472Y-122535150D01*
X154738405Y-122381614D01*
X154627962Y-122247038D01*
X154535000Y-122170747D01*
X154535000Y-115820132D01*
X154870132Y-115485000D01*
X155455752Y-115485000D01*
X155622499Y-115468577D01*
X155836447Y-115403676D01*
X156033623Y-115298284D01*
X156206449Y-115156449D01*
X156348284Y-114983623D01*
X156453676Y-114786447D01*
X156518577Y-114572499D01*
X156540491Y-114350000D01*
X156518577Y-114127501D01*
X156453676Y-113913553D01*
X156348284Y-113716377D01*
X156206449Y-113543551D01*
X156033623Y-113401716D01*
X155836447Y-113296324D01*
X155622499Y-113231423D01*
X155455752Y-113215000D01*
X154455752Y-113215000D01*
X154400000Y-113209509D01*
X154177501Y-113231423D01*
X153963553Y-113296324D01*
X153766377Y-113401716D01*
X153636856Y-113508011D01*
X153636854Y-113508013D01*
X153593551Y-113543551D01*
X153558013Y-113586855D01*
X152636864Y-114508005D01*
X152593551Y-114543551D01*
X152451716Y-114716377D01*
X152348486Y-114909509D01*
X152346324Y-114913554D01*
X152281423Y-115127502D01*
X152259509Y-115350000D01*
X152265000Y-115405752D01*
X152265001Y-122170746D01*
X152172038Y-122247038D01*
X152061595Y-122381614D01*
X151991446Y-122512853D01*
X151915134Y-122419866D01*
X151785000Y-122313068D01*
X151785000Y-120893465D01*
X151789281Y-120849999D01*
X151785000Y-120806533D01*
X151785000Y-120806523D01*
X151772195Y-120676510D01*
X151721589Y-120509687D01*
X151639411Y-120355941D01*
X151528817Y-120221183D01*
X151495049Y-120193470D01*
X149835000Y-118533422D01*
X149835000Y-116188454D01*
X149867205Y-116140256D01*
X149945226Y-115951898D01*
X149985000Y-115751939D01*
X149985000Y-115548061D01*
X149945226Y-115348102D01*
X149867205Y-115159744D01*
X149835000Y-115111546D01*
X149835000Y-111688454D01*
X149867205Y-111640256D01*
X149945226Y-111451898D01*
X149985000Y-111251939D01*
X149985000Y-111048061D01*
X149945226Y-110848102D01*
X149867205Y-110659744D01*
X149753937Y-110490226D01*
X149609774Y-110346063D01*
X149440256Y-110232795D01*
X149251898Y-110154774D01*
X149051939Y-110115000D01*
X148848061Y-110115000D01*
X148648102Y-110154774D01*
X148459744Y-110232795D01*
X148290226Y-110346063D01*
X148146063Y-110490226D01*
X148032795Y-110659744D01*
X147954774Y-110848102D01*
X147915000Y-111048061D01*
X147915000Y-111251939D01*
X147954774Y-111451898D01*
X148032795Y-111640256D01*
X148065001Y-111688456D01*
X148065000Y-115111545D01*
X148032795Y-115159744D01*
X147954774Y-115348102D01*
X147915000Y-115548061D01*
X147915000Y-115751939D01*
X147954774Y-115951898D01*
X148032795Y-116140256D01*
X148065000Y-116188455D01*
X148065000Y-118856531D01*
X148060719Y-118900000D01*
X148065000Y-118943469D01*
X148065000Y-118943476D01*
X148077805Y-119073489D01*
X148128411Y-119240312D01*
X148210589Y-119394058D01*
X148321183Y-119528817D01*
X148354956Y-119556534D01*
X150015001Y-121216580D01*
X150015000Y-122247414D01*
X149804866Y-122419866D01*
X149619294Y-122645986D01*
X149590000Y-122700791D01*
X149560706Y-122645986D01*
X149375134Y-122419866D01*
X149149014Y-122234294D01*
X148891034Y-122096401D01*
X148611111Y-122011487D01*
X148320000Y-121982815D01*
X148028890Y-122011487D01*
X147748967Y-122096401D01*
X147490987Y-122234294D01*
X147264866Y-122419866D01*
X147079294Y-122645986D01*
X147050000Y-122700791D01*
X147020706Y-122645986D01*
X146835134Y-122419866D01*
X146609014Y-122234294D01*
X146351034Y-122096401D01*
X146071111Y-122011487D01*
X145780000Y-121982815D01*
X145488890Y-122011487D01*
X145208967Y-122096401D01*
X144950987Y-122234294D01*
X144724866Y-122419866D01*
X144539294Y-122645986D01*
X144508267Y-122704034D01*
X144505053Y-122697430D01*
X144329049Y-122465571D01*
X144111193Y-122272504D01*
X143859858Y-122125648D01*
X143596890Y-122033524D01*
X143367000Y-122154845D01*
X143367000Y-123473000D01*
X143387000Y-123473000D01*
X143387000Y-123727000D01*
X143367000Y-123727000D01*
X143367000Y-125045155D01*
X143596890Y-125166476D01*
X143859858Y-125074352D01*
X144111193Y-124927496D01*
X144329049Y-124734429D01*
X144505053Y-124502570D01*
X144508267Y-124495966D01*
X144539294Y-124554013D01*
X144724866Y-124780134D01*
X144950986Y-124965706D01*
X145208966Y-125103599D01*
X145488889Y-125188513D01*
X145780000Y-125217185D01*
X146071110Y-125188513D01*
X146351033Y-125103599D01*
X146609013Y-124965706D01*
X146835134Y-124780134D01*
X147020706Y-124554014D01*
X147050000Y-124499208D01*
X147079294Y-124554013D01*
X147264866Y-124780134D01*
X147490986Y-124965706D01*
X147748966Y-125103599D01*
X148028889Y-125188513D01*
X148320000Y-125217185D01*
X148611110Y-125188513D01*
X148891033Y-125103599D01*
X149149013Y-124965706D01*
X149375134Y-124780134D01*
X149560706Y-124554014D01*
X149590000Y-124499208D01*
X149619294Y-124554013D01*
X149804866Y-124780134D01*
X150030986Y-124965706D01*
X150288966Y-125103599D01*
X150568889Y-125188513D01*
X150860000Y-125217185D01*
X151151110Y-125188513D01*
X151431033Y-125103599D01*
X151689013Y-124965706D01*
X151915134Y-124780134D01*
X151991446Y-124687147D01*
X152061595Y-124818386D01*
X152172038Y-124952962D01*
X152265001Y-125029254D01*
X152265001Y-125359867D01*
X151559868Y-126065000D01*
X140070128Y-126065000D01*
X137964395Y-123959267D01*
X141773680Y-123959267D01*
X141847558Y-124240830D01*
X141974947Y-124502570D01*
X142150951Y-124734429D01*
X142368807Y-124927496D01*
X142620142Y-125074352D01*
X142883110Y-125166476D01*
X143113000Y-125045155D01*
X143113000Y-123727000D01*
X141913835Y-123727000D01*
X141773680Y-123959267D01*
X137964395Y-123959267D01*
X137245861Y-123240733D01*
X141773680Y-123240733D01*
X141913835Y-123473000D01*
X143113000Y-123473000D01*
X143113000Y-122154845D01*
X142883110Y-122033524D01*
X142620142Y-122125648D01*
X142368807Y-122272504D01*
X142150951Y-122465571D01*
X141974947Y-122697430D01*
X141847558Y-122959170D01*
X141773680Y-123240733D01*
X137245861Y-123240733D01*
X130935000Y-116929873D01*
X130935000Y-105798061D01*
X146265000Y-105798061D01*
X146265000Y-106001939D01*
X146304774Y-106201898D01*
X146382795Y-106390256D01*
X146496063Y-106559774D01*
X146640226Y-106703937D01*
X146809744Y-106817205D01*
X146998102Y-106895226D01*
X147198061Y-106935000D01*
X147401939Y-106935000D01*
X147601898Y-106895226D01*
X147790256Y-106817205D01*
X147959774Y-106703937D01*
X148003711Y-106660000D01*
X149062678Y-106660000D01*
X149100000Y-106663676D01*
X149137322Y-106660000D01*
X149137333Y-106660000D01*
X149248986Y-106649003D01*
X149392247Y-106605546D01*
X149524276Y-106534974D01*
X149640001Y-106440001D01*
X149663804Y-106410998D01*
X150239802Y-105835000D01*
X150301939Y-105835000D01*
X150501898Y-105795226D01*
X150690256Y-105717205D01*
X150859774Y-105603937D01*
X151003937Y-105459774D01*
X151117205Y-105290256D01*
X151195226Y-105101898D01*
X151235000Y-104901939D01*
X151235000Y-104698061D01*
X151195226Y-104498102D01*
X151117205Y-104309744D01*
X151003937Y-104140226D01*
X150859774Y-103996063D01*
X150690256Y-103882795D01*
X150501898Y-103804774D01*
X150301939Y-103765000D01*
X150098061Y-103765000D01*
X149898102Y-103804774D01*
X149709744Y-103882795D01*
X149540226Y-103996063D01*
X149396063Y-104140226D01*
X149282795Y-104309744D01*
X149204774Y-104498102D01*
X149165000Y-104698061D01*
X149165000Y-104760198D01*
X148785199Y-105140000D01*
X148003711Y-105140000D01*
X147959774Y-105096063D01*
X147790256Y-104982795D01*
X147601898Y-104904774D01*
X147401939Y-104865000D01*
X147198061Y-104865000D01*
X146998102Y-104904774D01*
X146809744Y-104982795D01*
X146640226Y-105096063D01*
X146496063Y-105240226D01*
X146382795Y-105409744D01*
X146304774Y-105598102D01*
X146265000Y-105798061D01*
X130935000Y-105798061D01*
X130935000Y-105755752D01*
X130940491Y-105700000D01*
X130935000Y-105644248D01*
X130935000Y-97498061D01*
X154465000Y-97498061D01*
X154465000Y-97701939D01*
X154504774Y-97901898D01*
X154582795Y-98090256D01*
X154696063Y-98259774D01*
X154840226Y-98403937D01*
X155009744Y-98517205D01*
X155198102Y-98595226D01*
X155398061Y-98635000D01*
X155601939Y-98635000D01*
X155608828Y-98633630D01*
X157490000Y-100514802D01*
X157490000Y-100576939D01*
X157529774Y-100776898D01*
X157607795Y-100965256D01*
X157721063Y-101134774D01*
X157865226Y-101278937D01*
X158034744Y-101392205D01*
X158223102Y-101470226D01*
X158423061Y-101510000D01*
X158626939Y-101510000D01*
X158826898Y-101470226D01*
X159015256Y-101392205D01*
X159184774Y-101278937D01*
X159328937Y-101134774D01*
X159442205Y-100965256D01*
X159520226Y-100776898D01*
X159560000Y-100576939D01*
X159560000Y-100373061D01*
X159520226Y-100173102D01*
X159442205Y-99984744D01*
X159328937Y-99815226D01*
X159184774Y-99671063D01*
X159015256Y-99557795D01*
X158826898Y-99479774D01*
X158626939Y-99440000D01*
X158564802Y-99440000D01*
X156513184Y-97388383D01*
X156495226Y-97298102D01*
X156417205Y-97109744D01*
X156303937Y-96940226D01*
X156159774Y-96796063D01*
X155990256Y-96682795D01*
X155801898Y-96604774D01*
X155601939Y-96565000D01*
X155398061Y-96565000D01*
X155198102Y-96604774D01*
X155009744Y-96682795D01*
X154840226Y-96796063D01*
X154696063Y-96940226D01*
X154582795Y-97109744D01*
X154504774Y-97298102D01*
X154465000Y-97498061D01*
X130935000Y-97498061D01*
X130935000Y-94148061D01*
X137115006Y-94148061D01*
X137115006Y-94351939D01*
X137154780Y-94551898D01*
X137232801Y-94740256D01*
X137346069Y-94909774D01*
X137490232Y-95053937D01*
X137659750Y-95167205D01*
X137848108Y-95245226D01*
X138048067Y-95285000D01*
X138251945Y-95285000D01*
X138451904Y-95245226D01*
X138640262Y-95167205D01*
X138800706Y-95060000D01*
X148296289Y-95060000D01*
X148340226Y-95103937D01*
X148509744Y-95217205D01*
X148698102Y-95295226D01*
X148898061Y-95335000D01*
X149101939Y-95335000D01*
X149301898Y-95295226D01*
X149490256Y-95217205D01*
X149659774Y-95103937D01*
X149803937Y-94959774D01*
X149917205Y-94790256D01*
X149995226Y-94601898D01*
X150035000Y-94401939D01*
X150035000Y-94198061D01*
X149995226Y-93998102D01*
X149917205Y-93809744D01*
X149803937Y-93640226D01*
X149659774Y-93496063D01*
X149490256Y-93382795D01*
X149301898Y-93304774D01*
X149101939Y-93265000D01*
X148898061Y-93265000D01*
X148698102Y-93304774D01*
X148509744Y-93382795D01*
X148340226Y-93496063D01*
X148296289Y-93540000D01*
X138903717Y-93540000D01*
X138809780Y-93446063D01*
X138640262Y-93332795D01*
X138451904Y-93254774D01*
X138251945Y-93215000D01*
X138048067Y-93215000D01*
X137848108Y-93254774D01*
X137659750Y-93332795D01*
X137490232Y-93446063D01*
X137346069Y-93590226D01*
X137232801Y-93759744D01*
X137154780Y-93948102D01*
X137115006Y-94148061D01*
X130935000Y-94148061D01*
X130935000Y-91198061D01*
X144465000Y-91198061D01*
X144465000Y-91401939D01*
X144504774Y-91601898D01*
X144582795Y-91790256D01*
X144696063Y-91959774D01*
X144840226Y-92103937D01*
X145009744Y-92217205D01*
X145198102Y-92295226D01*
X145398061Y-92335000D01*
X145601939Y-92335000D01*
X145801898Y-92295226D01*
X145990256Y-92217205D01*
X146159774Y-92103937D01*
X146303937Y-91959774D01*
X146417205Y-91790256D01*
X146495226Y-91601898D01*
X146535000Y-91401939D01*
X146535000Y-91339801D01*
X147176740Y-90698061D01*
X153465000Y-90698061D01*
X153465000Y-90901939D01*
X153504774Y-91101898D01*
X153582795Y-91290256D01*
X153696063Y-91459774D01*
X153840226Y-91603937D01*
X154009744Y-91717205D01*
X154198102Y-91795226D01*
X154398061Y-91835000D01*
X154601939Y-91835000D01*
X154801898Y-91795226D01*
X154990256Y-91717205D01*
X155159774Y-91603937D01*
X155203711Y-91560000D01*
X157732679Y-91560000D01*
X157770001Y-91563676D01*
X157807323Y-91560000D01*
X157807334Y-91560000D01*
X157918987Y-91549003D01*
X158062248Y-91505546D01*
X158194277Y-91434974D01*
X158310002Y-91340001D01*
X158333805Y-91310997D01*
X160109802Y-89535001D01*
X160171939Y-89535001D01*
X160371898Y-89495227D01*
X160560256Y-89417206D01*
X160729774Y-89303938D01*
X160873937Y-89159775D01*
X160987205Y-88990257D01*
X161065226Y-88801899D01*
X161105000Y-88601940D01*
X161105000Y-88398062D01*
X161065226Y-88198103D01*
X160987205Y-88009745D01*
X160873937Y-87840227D01*
X160729774Y-87696064D01*
X160560256Y-87582796D01*
X160371898Y-87504775D01*
X160171939Y-87465001D01*
X159968061Y-87465001D01*
X159768102Y-87504775D01*
X159579744Y-87582796D01*
X159410226Y-87696064D01*
X159266063Y-87840227D01*
X159152795Y-88009745D01*
X159074774Y-88198103D01*
X159035000Y-88398062D01*
X159035000Y-88460199D01*
X157455200Y-90040000D01*
X155203711Y-90040000D01*
X155159774Y-89996063D01*
X154990256Y-89882795D01*
X154801898Y-89804774D01*
X154601939Y-89765000D01*
X154398061Y-89765000D01*
X154198102Y-89804774D01*
X154009744Y-89882795D01*
X153840226Y-89996063D01*
X153696063Y-90140226D01*
X153582795Y-90309744D01*
X153504774Y-90498102D01*
X153465000Y-90698061D01*
X147176740Y-90698061D01*
X147761003Y-90113799D01*
X147790001Y-90090001D01*
X147884974Y-89974276D01*
X147955546Y-89842247D01*
X147999003Y-89698986D01*
X148010000Y-89587333D01*
X148010000Y-89587325D01*
X148013676Y-89550000D01*
X148010000Y-89512675D01*
X148010000Y-87282968D01*
X148013676Y-87245645D01*
X148010000Y-87208322D01*
X148010000Y-87208313D01*
X147999003Y-87096660D01*
X147955546Y-86953399D01*
X147884974Y-86821370D01*
X147790001Y-86705645D01*
X147761004Y-86681848D01*
X147677215Y-86598059D01*
X150465000Y-86598059D01*
X150465000Y-86801937D01*
X150504774Y-87001896D01*
X150582795Y-87190254D01*
X150696063Y-87359772D01*
X150840226Y-87503935D01*
X151009744Y-87617203D01*
X151198102Y-87695224D01*
X151398061Y-87734998D01*
X151601939Y-87734998D01*
X151801898Y-87695224D01*
X151990256Y-87617203D01*
X152159774Y-87503935D01*
X152303937Y-87359772D01*
X152417205Y-87190254D01*
X152495226Y-87001896D01*
X152535000Y-86801937D01*
X152535000Y-86789801D01*
X155789802Y-83535000D01*
X155851939Y-83535000D01*
X156051898Y-83495226D01*
X156240256Y-83417205D01*
X156409774Y-83303937D01*
X156553937Y-83159774D01*
X156667205Y-82990256D01*
X156745226Y-82801898D01*
X156785000Y-82601939D01*
X156785000Y-82398061D01*
X156745226Y-82198102D01*
X156667205Y-82009744D01*
X156553937Y-81840226D01*
X156409774Y-81696063D01*
X156240256Y-81582795D01*
X156051898Y-81504774D01*
X155851939Y-81465000D01*
X155648061Y-81465000D01*
X155448102Y-81504774D01*
X155259744Y-81582795D01*
X155090226Y-81696063D01*
X154946063Y-81840226D01*
X154832795Y-82009744D01*
X154754774Y-82198102D01*
X154715000Y-82398061D01*
X154715000Y-82460198D01*
X151510201Y-85664998D01*
X151398061Y-85664998D01*
X151198102Y-85704772D01*
X151009744Y-85782793D01*
X150840226Y-85896061D01*
X150696063Y-86040224D01*
X150582795Y-86209742D01*
X150504774Y-86398100D01*
X150465000Y-86598059D01*
X147677215Y-86598059D01*
X147609990Y-86530834D01*
X147609990Y-86468697D01*
X147570216Y-86268738D01*
X147492195Y-86080380D01*
X147378927Y-85910862D01*
X147334990Y-85866925D01*
X147334990Y-84328721D01*
X147403937Y-84259774D01*
X147517205Y-84090256D01*
X147595226Y-83901898D01*
X147635000Y-83701939D01*
X147635000Y-83498061D01*
X147595226Y-83298102D01*
X147517205Y-83109744D01*
X147403937Y-82940226D01*
X147259774Y-82796063D01*
X147090256Y-82682795D01*
X146901898Y-82604774D01*
X146701939Y-82565000D01*
X146498061Y-82565000D01*
X146298102Y-82604774D01*
X146109744Y-82682795D01*
X145940226Y-82796063D01*
X145796063Y-82940226D01*
X145682795Y-83109744D01*
X145604774Y-83298102D01*
X145565000Y-83498061D01*
X145565000Y-83701939D01*
X145604774Y-83901898D01*
X145682795Y-84090256D01*
X145796063Y-84259774D01*
X145814991Y-84278702D01*
X145814990Y-85866925D01*
X145771053Y-85910862D01*
X145657785Y-86080380D01*
X145579764Y-86268738D01*
X145539990Y-86468697D01*
X145539990Y-86672575D01*
X145579764Y-86872534D01*
X145657785Y-87060892D01*
X145771053Y-87230410D01*
X145915216Y-87374573D01*
X146084734Y-87487841D01*
X146273092Y-87565862D01*
X146473051Y-87605636D01*
X146490000Y-87605636D01*
X146490001Y-89235197D01*
X145460199Y-90265000D01*
X145398061Y-90265000D01*
X145198102Y-90304774D01*
X145009744Y-90382795D01*
X144840226Y-90496063D01*
X144696063Y-90640226D01*
X144582795Y-90809744D01*
X144504774Y-90998102D01*
X144465000Y-91198061D01*
X130935000Y-91198061D01*
X130935000Y-85420131D01*
X131216988Y-85138143D01*
X131323284Y-85008622D01*
X131428676Y-84811447D01*
X131493577Y-84597499D01*
X131515491Y-84375000D01*
X131493577Y-84152501D01*
X131428676Y-83938554D01*
X131323284Y-83741378D01*
X131181449Y-83568551D01*
X131008622Y-83426716D01*
X130811446Y-83321324D01*
X130597499Y-83256423D01*
X130375000Y-83234509D01*
X130152501Y-83256423D01*
X129938553Y-83321324D01*
X129877000Y-83354225D01*
X129877000Y-78859267D01*
X141773680Y-78859267D01*
X141847558Y-79140830D01*
X141974947Y-79402570D01*
X142150951Y-79634429D01*
X142368807Y-79827496D01*
X142620142Y-79974352D01*
X142883110Y-80066476D01*
X143113000Y-79945155D01*
X143113000Y-78627000D01*
X141913835Y-78627000D01*
X141773680Y-78859267D01*
X129877000Y-78859267D01*
X129877000Y-78140733D01*
X141773680Y-78140733D01*
X141913835Y-78373000D01*
X143113000Y-78373000D01*
X143113000Y-77054845D01*
X143367000Y-77054845D01*
X143367000Y-78373000D01*
X143387000Y-78373000D01*
X143387000Y-78627000D01*
X143367000Y-78627000D01*
X143367000Y-79945155D01*
X143596890Y-80066476D01*
X143859858Y-79974352D01*
X144111193Y-79827496D01*
X144329049Y-79634429D01*
X144505053Y-79402570D01*
X144508267Y-79395966D01*
X144539294Y-79454013D01*
X144724866Y-79680134D01*
X144950986Y-79865706D01*
X145208966Y-80003599D01*
X145488889Y-80088513D01*
X145780000Y-80117185D01*
X146071110Y-80088513D01*
X146351033Y-80003599D01*
X146609013Y-79865706D01*
X146835134Y-79680134D01*
X147020706Y-79454014D01*
X147050000Y-79399208D01*
X147079294Y-79454013D01*
X147264866Y-79680134D01*
X147490986Y-79865706D01*
X147748966Y-80003599D01*
X148028889Y-80088513D01*
X148320000Y-80117185D01*
X148611110Y-80088513D01*
X148891033Y-80003599D01*
X149149013Y-79865706D01*
X149375134Y-79680134D01*
X149560706Y-79454014D01*
X149590000Y-79399208D01*
X149619294Y-79454013D01*
X149804866Y-79680134D01*
X150030986Y-79865706D01*
X150288966Y-80003599D01*
X150568889Y-80088513D01*
X150860000Y-80117185D01*
X151151110Y-80088513D01*
X151431033Y-80003599D01*
X151689013Y-79865706D01*
X151915134Y-79680134D01*
X151991446Y-79587147D01*
X152061595Y-79718386D01*
X152172038Y-79852962D01*
X152306614Y-79963405D01*
X152460150Y-80045472D01*
X152626746Y-80096008D01*
X152800000Y-80113072D01*
X154000000Y-80113072D01*
X154173254Y-80096008D01*
X154339850Y-80045472D01*
X154493386Y-79963405D01*
X154627962Y-79852962D01*
X154738405Y-79718386D01*
X154820472Y-79564850D01*
X154871008Y-79398254D01*
X154888072Y-79225000D01*
X154888072Y-77775000D01*
X154871008Y-77601746D01*
X154820472Y-77435150D01*
X154738405Y-77281614D01*
X154627962Y-77147038D01*
X154493386Y-77036595D01*
X154339850Y-76954528D01*
X154173254Y-76903992D01*
X154000000Y-76886928D01*
X152800000Y-76886928D01*
X152626746Y-76903992D01*
X152460150Y-76954528D01*
X152306614Y-77036595D01*
X152172038Y-77147038D01*
X152061595Y-77281614D01*
X151991446Y-77412853D01*
X151915134Y-77319866D01*
X151689014Y-77134294D01*
X151431034Y-76996401D01*
X151151111Y-76911487D01*
X150860000Y-76882815D01*
X150568890Y-76911487D01*
X150288967Y-76996401D01*
X150030987Y-77134294D01*
X149804866Y-77319866D01*
X149619294Y-77545986D01*
X149590000Y-77600791D01*
X149560706Y-77545986D01*
X149375134Y-77319866D01*
X149149014Y-77134294D01*
X148891034Y-76996401D01*
X148611111Y-76911487D01*
X148320000Y-76882815D01*
X148028890Y-76911487D01*
X147748967Y-76996401D01*
X147490987Y-77134294D01*
X147264866Y-77319866D01*
X147079294Y-77545986D01*
X147050000Y-77600791D01*
X147020706Y-77545986D01*
X146835134Y-77319866D01*
X146609014Y-77134294D01*
X146351034Y-76996401D01*
X146071111Y-76911487D01*
X145780000Y-76882815D01*
X145488890Y-76911487D01*
X145208967Y-76996401D01*
X144950987Y-77134294D01*
X144724866Y-77319866D01*
X144539294Y-77545986D01*
X144508267Y-77604034D01*
X144505053Y-77597430D01*
X144329049Y-77365571D01*
X144111193Y-77172504D01*
X143859858Y-77025648D01*
X143596890Y-76933524D01*
X143367000Y-77054845D01*
X143113000Y-77054845D01*
X142883110Y-76933524D01*
X142620142Y-77025648D01*
X142368807Y-77172504D01*
X142150951Y-77365571D01*
X141974947Y-77597430D01*
X141847558Y-77859170D01*
X141773680Y-78140733D01*
X129877000Y-78140733D01*
X129877000Y-71309267D01*
X141773680Y-71309267D01*
X141847558Y-71590830D01*
X141974947Y-71852570D01*
X142150951Y-72084429D01*
X142368807Y-72277496D01*
X142620142Y-72424352D01*
X142883110Y-72516476D01*
X143113000Y-72395155D01*
X143113000Y-71077000D01*
X141913835Y-71077000D01*
X141773680Y-71309267D01*
X129877000Y-71309267D01*
X129877000Y-70590733D01*
X141773680Y-70590733D01*
X141913835Y-70823000D01*
X143113000Y-70823000D01*
X143113000Y-69504845D01*
X143367000Y-69504845D01*
X143367000Y-70823000D01*
X143387000Y-70823000D01*
X143387000Y-71077000D01*
X143367000Y-71077000D01*
X143367000Y-72395155D01*
X143596890Y-72516476D01*
X143859858Y-72424352D01*
X144111193Y-72277496D01*
X144329049Y-72084429D01*
X144505053Y-71852570D01*
X144508267Y-71845966D01*
X144539294Y-71904013D01*
X144724866Y-72130134D01*
X144950986Y-72315706D01*
X145208966Y-72453599D01*
X145488889Y-72538513D01*
X145780000Y-72567185D01*
X146071110Y-72538513D01*
X146351033Y-72453599D01*
X146609013Y-72315706D01*
X146835134Y-72130134D01*
X147020706Y-71904014D01*
X147050000Y-71849208D01*
X147079294Y-71904013D01*
X147264866Y-72130134D01*
X147490986Y-72315706D01*
X147748966Y-72453599D01*
X148028889Y-72538513D01*
X148320000Y-72567185D01*
X148611110Y-72538513D01*
X148891033Y-72453599D01*
X149149013Y-72315706D01*
X149375134Y-72130134D01*
X149560706Y-71904014D01*
X149590000Y-71849208D01*
X149619294Y-71904013D01*
X149804866Y-72130134D01*
X150030986Y-72315706D01*
X150288966Y-72453599D01*
X150568889Y-72538513D01*
X150860000Y-72567185D01*
X151151110Y-72538513D01*
X151431033Y-72453599D01*
X151689013Y-72315706D01*
X151915134Y-72130134D01*
X151991446Y-72037147D01*
X152061595Y-72168386D01*
X152172038Y-72302962D01*
X152306614Y-72413405D01*
X152460150Y-72495472D01*
X152626746Y-72546008D01*
X152800000Y-72563072D01*
X154000000Y-72563072D01*
X154173254Y-72546008D01*
X154339850Y-72495472D01*
X154493386Y-72413405D01*
X154627962Y-72302962D01*
X154738405Y-72168386D01*
X154820472Y-72014850D01*
X154871008Y-71848254D01*
X154888072Y-71675000D01*
X154888072Y-70225000D01*
X154871008Y-70051746D01*
X154820472Y-69885150D01*
X154738405Y-69731614D01*
X154627962Y-69597038D01*
X154493386Y-69486595D01*
X154339850Y-69404528D01*
X154173254Y-69353992D01*
X154000000Y-69336928D01*
X152800000Y-69336928D01*
X152626746Y-69353992D01*
X152460150Y-69404528D01*
X152306614Y-69486595D01*
X152172038Y-69597038D01*
X152061595Y-69731614D01*
X151991446Y-69862853D01*
X151915134Y-69769866D01*
X151689014Y-69584294D01*
X151431034Y-69446401D01*
X151151111Y-69361487D01*
X150860000Y-69332815D01*
X150568890Y-69361487D01*
X150288967Y-69446401D01*
X150030987Y-69584294D01*
X149804866Y-69769866D01*
X149619294Y-69995986D01*
X149590000Y-70050791D01*
X149560706Y-69995986D01*
X149375134Y-69769866D01*
X149149014Y-69584294D01*
X148891034Y-69446401D01*
X148611111Y-69361487D01*
X148320000Y-69332815D01*
X148028890Y-69361487D01*
X147748967Y-69446401D01*
X147490987Y-69584294D01*
X147264866Y-69769866D01*
X147079294Y-69995986D01*
X147050000Y-70050791D01*
X147020706Y-69995986D01*
X146835134Y-69769866D01*
X146609014Y-69584294D01*
X146351034Y-69446401D01*
X146071111Y-69361487D01*
X145780000Y-69332815D01*
X145488890Y-69361487D01*
X145208967Y-69446401D01*
X144950987Y-69584294D01*
X144724866Y-69769866D01*
X144539294Y-69995986D01*
X144508267Y-70054034D01*
X144505053Y-70047430D01*
X144329049Y-69815571D01*
X144111193Y-69622504D01*
X143859858Y-69475648D01*
X143596890Y-69383524D01*
X143367000Y-69504845D01*
X143113000Y-69504845D01*
X142883110Y-69383524D01*
X142620142Y-69475648D01*
X142368807Y-69622504D01*
X142150951Y-69815571D01*
X141974947Y-70047430D01*
X141847558Y-70309170D01*
X141773680Y-70590733D01*
X129877000Y-70590733D01*
X129877000Y-68006234D01*
X129894376Y-67829811D01*
X129944022Y-67666150D01*
X130024638Y-67515328D01*
X130133130Y-67383130D01*
X130265328Y-67274638D01*
X130416150Y-67194022D01*
X130579811Y-67144376D01*
X130756234Y-67127000D01*
X166743766Y-67127000D01*
X166920189Y-67144376D01*
G04 #@! TA.AperFunction,Conductor*
D21*
G36*
X166920189Y-67144376D02*
G01*
X167083850Y-67194022D01*
X167234672Y-67274638D01*
X167366870Y-67383130D01*
X167475362Y-67515328D01*
X167555978Y-67666150D01*
X167605624Y-67829811D01*
X167623000Y-68006234D01*
X167623000Y-90117867D01*
X161335000Y-83829869D01*
X161335000Y-70844248D01*
X161318577Y-70677501D01*
X161253676Y-70463553D01*
X161148284Y-70266377D01*
X161006449Y-70093551D01*
X160833623Y-69951716D01*
X160636447Y-69846324D01*
X160422499Y-69781423D01*
X160200000Y-69759509D01*
X159977502Y-69781423D01*
X159763554Y-69846324D01*
X159566378Y-69951716D01*
X159393552Y-70093551D01*
X159251717Y-70266377D01*
X159146325Y-70463553D01*
X159081424Y-70677501D01*
X159065001Y-70844248D01*
X159065000Y-84244249D01*
X159059509Y-84300000D01*
X159066896Y-84375000D01*
X159081423Y-84522498D01*
X159146324Y-84736446D01*
X159251716Y-84933623D01*
X159393551Y-85106449D01*
X159436865Y-85141996D01*
X166565001Y-92270134D01*
X166565000Y-95244248D01*
X166559509Y-95300000D01*
X166565001Y-95355762D01*
X166565000Y-115579869D01*
X166283012Y-115861857D01*
X166176717Y-115991378D01*
X166071324Y-116188554D01*
X166006423Y-116402502D01*
X165984509Y-116625000D01*
X166006423Y-116847498D01*
X166071324Y-117061446D01*
X166176717Y-117258622D01*
X166318552Y-117431448D01*
X166491378Y-117573283D01*
X166688554Y-117678676D01*
X166902502Y-117743577D01*
X167125000Y-117765491D01*
X167347498Y-117743577D01*
X167561446Y-117678676D01*
X167623000Y-117645775D01*
X167623000Y-132993766D01*
X167605624Y-133170189D01*
X167555978Y-133333850D01*
X167475362Y-133484672D01*
X167366870Y-133616870D01*
X167234672Y-133725362D01*
X167083850Y-133805978D01*
X166920189Y-133855624D01*
X166743766Y-133873000D01*
X130756234Y-133873000D01*
X130579811Y-133855624D01*
X130416150Y-133805978D01*
X130265328Y-133725362D01*
X130133130Y-133616870D01*
X130024638Y-133484672D01*
X129944022Y-133333850D01*
X129894376Y-133170189D01*
X129877000Y-132993766D01*
X129877000Y-131459267D01*
X141773680Y-131459267D01*
X141847558Y-131740830D01*
X141974947Y-132002570D01*
X142150951Y-132234429D01*
X142368807Y-132427496D01*
X142620142Y-132574352D01*
X142883110Y-132666476D01*
X143113000Y-132545155D01*
X143113000Y-131227000D01*
X141913835Y-131227000D01*
X141773680Y-131459267D01*
X129877000Y-131459267D01*
X129877000Y-130740733D01*
X141773680Y-130740733D01*
X141913835Y-130973000D01*
X143113000Y-130973000D01*
X143113000Y-129654845D01*
X143367000Y-129654845D01*
X143367000Y-130973000D01*
X143387000Y-130973000D01*
X143387000Y-131227000D01*
X143367000Y-131227000D01*
X143367000Y-132545155D01*
X143596890Y-132666476D01*
X143859858Y-132574352D01*
X144111193Y-132427496D01*
X144329049Y-132234429D01*
X144505053Y-132002570D01*
X144508267Y-131995966D01*
X144539294Y-132054013D01*
X144724866Y-132280134D01*
X144950986Y-132465706D01*
X145208966Y-132603599D01*
X145488889Y-132688513D01*
X145780000Y-132717185D01*
X146071110Y-132688513D01*
X146351033Y-132603599D01*
X146609013Y-132465706D01*
X146835134Y-132280134D01*
X147020706Y-132054014D01*
X147050000Y-131999208D01*
X147079294Y-132054013D01*
X147264866Y-132280134D01*
X147490986Y-132465706D01*
X147748966Y-132603599D01*
X148028889Y-132688513D01*
X148320000Y-132717185D01*
X148611110Y-132688513D01*
X148891033Y-132603599D01*
X149149013Y-132465706D01*
X149375134Y-132280134D01*
X149560706Y-132054014D01*
X149590000Y-131999208D01*
X149619294Y-132054013D01*
X149804866Y-132280134D01*
X150030986Y-132465706D01*
X150288966Y-132603599D01*
X150568889Y-132688513D01*
X150860000Y-132717185D01*
X151151110Y-132688513D01*
X151431033Y-132603599D01*
X151689013Y-132465706D01*
X151915134Y-132280134D01*
X151991446Y-132187147D01*
X152061595Y-132318386D01*
X152172038Y-132452962D01*
X152306614Y-132563405D01*
X152460150Y-132645472D01*
X152626746Y-132696008D01*
X152800000Y-132713072D01*
X154000000Y-132713072D01*
X154173254Y-132696008D01*
X154339850Y-132645472D01*
X154493386Y-132563405D01*
X154627962Y-132452962D01*
X154738405Y-132318386D01*
X154820472Y-132164850D01*
X154871008Y-131998254D01*
X154888072Y-131825000D01*
X154888072Y-130375000D01*
X154871008Y-130201746D01*
X154820472Y-130035150D01*
X154738405Y-129881614D01*
X154627962Y-129747038D01*
X154493386Y-129636595D01*
X154339850Y-129554528D01*
X154173254Y-129503992D01*
X154000000Y-129486928D01*
X152800000Y-129486928D01*
X152626746Y-129503992D01*
X152460150Y-129554528D01*
X152306614Y-129636595D01*
X152172038Y-129747038D01*
X152061595Y-129881614D01*
X151991446Y-130012853D01*
X151915134Y-129919866D01*
X151689014Y-129734294D01*
X151431034Y-129596401D01*
X151151111Y-129511487D01*
X150860000Y-129482815D01*
X150568890Y-129511487D01*
X150288967Y-129596401D01*
X150030987Y-129734294D01*
X149804866Y-129919866D01*
X149619294Y-130145986D01*
X149590000Y-130200791D01*
X149560706Y-130145986D01*
X149375134Y-129919866D01*
X149149014Y-129734294D01*
X148891034Y-129596401D01*
X148611111Y-129511487D01*
X148320000Y-129482815D01*
X148028890Y-129511487D01*
X147748967Y-129596401D01*
X147490987Y-129734294D01*
X147264866Y-129919866D01*
X147079294Y-130145986D01*
X147050000Y-130200791D01*
X147020706Y-130145986D01*
X146835134Y-129919866D01*
X146609014Y-129734294D01*
X146351034Y-129596401D01*
X146071111Y-129511487D01*
X145780000Y-129482815D01*
X145488890Y-129511487D01*
X145208967Y-129596401D01*
X144950987Y-129734294D01*
X144724866Y-129919866D01*
X144539294Y-130145986D01*
X144508267Y-130204034D01*
X144505053Y-130197430D01*
X144329049Y-129965571D01*
X144111193Y-129772504D01*
X143859858Y-129625648D01*
X143596890Y-129533524D01*
X143367000Y-129654845D01*
X143113000Y-129654845D01*
X142883110Y-129533524D01*
X142620142Y-129625648D01*
X142368807Y-129772504D01*
X142150951Y-129965571D01*
X141974947Y-130197430D01*
X141847558Y-130459170D01*
X141773680Y-130740733D01*
X129877000Y-130740733D01*
X129877000Y-119082135D01*
X138758005Y-127963141D01*
X138793547Y-128006449D01*
X138966373Y-128148284D01*
X139163549Y-128253676D01*
X139377497Y-128318577D01*
X139544244Y-128335000D01*
X139544253Y-128335000D01*
X139599995Y-128340490D01*
X139655737Y-128335000D01*
X151974249Y-128335000D01*
X152030000Y-128340491D01*
X152085751Y-128335000D01*
X152085752Y-128335000D01*
X152252499Y-128318577D01*
X152466447Y-128253676D01*
X152663623Y-128148284D01*
X152836449Y-128006449D01*
X152871995Y-127963136D01*
X154163146Y-126671987D01*
X154206449Y-126636449D01*
X154285418Y-126540226D01*
X154348284Y-126463623D01*
X154453676Y-126266447D01*
X154518577Y-126052499D01*
X154540491Y-125830000D01*
X154535000Y-125774248D01*
X154535000Y-125029253D01*
X154627962Y-124952962D01*
X154738405Y-124818386D01*
X154820472Y-124664850D01*
X154871008Y-124498254D01*
X154888072Y-124325000D01*
X154888072Y-122875000D01*
X154871008Y-122701746D01*
X154820472Y-122535150D01*
X154738405Y-122381614D01*
X154627962Y-122247038D01*
X154535000Y-122170747D01*
X154535000Y-115820132D01*
X154870132Y-115485000D01*
X155455752Y-115485000D01*
X155622499Y-115468577D01*
X155836447Y-115403676D01*
X156033623Y-115298284D01*
X156206449Y-115156449D01*
X156348284Y-114983623D01*
X156453676Y-114786447D01*
X156518577Y-114572499D01*
X156540491Y-114350000D01*
X156518577Y-114127501D01*
X156453676Y-113913553D01*
X156348284Y-113716377D01*
X156206449Y-113543551D01*
X156033623Y-113401716D01*
X155836447Y-113296324D01*
X155622499Y-113231423D01*
X155455752Y-113215000D01*
X154455752Y-113215000D01*
X154400000Y-113209509D01*
X154177501Y-113231423D01*
X153963553Y-113296324D01*
X153766377Y-113401716D01*
X153636856Y-113508011D01*
X153636854Y-113508013D01*
X153593551Y-113543551D01*
X153558013Y-113586855D01*
X152636864Y-114508005D01*
X152593551Y-114543551D01*
X152451716Y-114716377D01*
X152348486Y-114909509D01*
X152346324Y-114913554D01*
X152281423Y-115127502D01*
X152259509Y-115350000D01*
X152265000Y-115405752D01*
X152265001Y-122170746D01*
X152172038Y-122247038D01*
X152061595Y-122381614D01*
X151991446Y-122512853D01*
X151915134Y-122419866D01*
X151785000Y-122313068D01*
X151785000Y-120893465D01*
X151789281Y-120849999D01*
X151785000Y-120806533D01*
X151785000Y-120806523D01*
X151772195Y-120676510D01*
X151721589Y-120509687D01*
X151639411Y-120355941D01*
X151528817Y-120221183D01*
X151495049Y-120193470D01*
X149835000Y-118533422D01*
X149835000Y-116188454D01*
X149867205Y-116140256D01*
X149945226Y-115951898D01*
X149985000Y-115751939D01*
X149985000Y-115548061D01*
X149945226Y-115348102D01*
X149867205Y-115159744D01*
X149835000Y-115111546D01*
X149835000Y-111688454D01*
X149867205Y-111640256D01*
X149945226Y-111451898D01*
X149985000Y-111251939D01*
X149985000Y-111048061D01*
X149945226Y-110848102D01*
X149867205Y-110659744D01*
X149753937Y-110490226D01*
X149609774Y-110346063D01*
X149440256Y-110232795D01*
X149251898Y-110154774D01*
X149051939Y-110115000D01*
X148848061Y-110115000D01*
X148648102Y-110154774D01*
X148459744Y-110232795D01*
X148290226Y-110346063D01*
X148146063Y-110490226D01*
X148032795Y-110659744D01*
X147954774Y-110848102D01*
X147915000Y-111048061D01*
X147915000Y-111251939D01*
X147954774Y-111451898D01*
X148032795Y-111640256D01*
X148065001Y-111688456D01*
X148065000Y-115111545D01*
X148032795Y-115159744D01*
X147954774Y-115348102D01*
X147915000Y-115548061D01*
X147915000Y-115751939D01*
X147954774Y-115951898D01*
X148032795Y-116140256D01*
X148065000Y-116188455D01*
X148065000Y-118856531D01*
X148060719Y-118900000D01*
X148065000Y-118943469D01*
X148065000Y-118943476D01*
X148077805Y-119073489D01*
X148128411Y-119240312D01*
X148210589Y-119394058D01*
X148321183Y-119528817D01*
X148354956Y-119556534D01*
X150015001Y-121216580D01*
X150015000Y-122247414D01*
X149804866Y-122419866D01*
X149619294Y-122645986D01*
X149590000Y-122700791D01*
X149560706Y-122645986D01*
X149375134Y-122419866D01*
X149149014Y-122234294D01*
X148891034Y-122096401D01*
X148611111Y-122011487D01*
X148320000Y-121982815D01*
X148028890Y-122011487D01*
X147748967Y-122096401D01*
X147490987Y-122234294D01*
X147264866Y-122419866D01*
X147079294Y-122645986D01*
X147050000Y-122700791D01*
X147020706Y-122645986D01*
X146835134Y-122419866D01*
X146609014Y-122234294D01*
X146351034Y-122096401D01*
X146071111Y-122011487D01*
X145780000Y-121982815D01*
X145488890Y-122011487D01*
X145208967Y-122096401D01*
X144950987Y-122234294D01*
X144724866Y-122419866D01*
X144539294Y-122645986D01*
X144508267Y-122704034D01*
X144505053Y-122697430D01*
X144329049Y-122465571D01*
X144111193Y-122272504D01*
X143859858Y-122125648D01*
X143596890Y-122033524D01*
X143367000Y-122154845D01*
X143367000Y-123473000D01*
X143387000Y-123473000D01*
X143387000Y-123727000D01*
X143367000Y-123727000D01*
X143367000Y-125045155D01*
X143596890Y-125166476D01*
X143859858Y-125074352D01*
X144111193Y-124927496D01*
X144329049Y-124734429D01*
X144505053Y-124502570D01*
X144508267Y-124495966D01*
X144539294Y-124554013D01*
X144724866Y-124780134D01*
X144950986Y-124965706D01*
X145208966Y-125103599D01*
X145488889Y-125188513D01*
X145780000Y-125217185D01*
X146071110Y-125188513D01*
X146351033Y-125103599D01*
X146609013Y-124965706D01*
X146835134Y-124780134D01*
X147020706Y-124554014D01*
X147050000Y-124499208D01*
X147079294Y-124554013D01*
X147264866Y-124780134D01*
X147490986Y-124965706D01*
X147748966Y-125103599D01*
X148028889Y-125188513D01*
X148320000Y-125217185D01*
X148611110Y-125188513D01*
X148891033Y-125103599D01*
X149149013Y-124965706D01*
X149375134Y-124780134D01*
X149560706Y-124554014D01*
X149590000Y-124499208D01*
X149619294Y-124554013D01*
X149804866Y-124780134D01*
X150030986Y-124965706D01*
X150288966Y-125103599D01*
X150568889Y-125188513D01*
X150860000Y-125217185D01*
X151151110Y-125188513D01*
X151431033Y-125103599D01*
X151689013Y-124965706D01*
X151915134Y-124780134D01*
X151991446Y-124687147D01*
X152061595Y-124818386D01*
X152172038Y-124952962D01*
X152265001Y-125029254D01*
X152265001Y-125359867D01*
X151559868Y-126065000D01*
X140070128Y-126065000D01*
X137964395Y-123959267D01*
X141773680Y-123959267D01*
X141847558Y-124240830D01*
X141974947Y-124502570D01*
X142150951Y-124734429D01*
X142368807Y-124927496D01*
X142620142Y-125074352D01*
X142883110Y-125166476D01*
X143113000Y-125045155D01*
X143113000Y-123727000D01*
X141913835Y-123727000D01*
X141773680Y-123959267D01*
X137964395Y-123959267D01*
X137245861Y-123240733D01*
X141773680Y-123240733D01*
X141913835Y-123473000D01*
X143113000Y-123473000D01*
X143113000Y-122154845D01*
X142883110Y-122033524D01*
X142620142Y-122125648D01*
X142368807Y-122272504D01*
X142150951Y-122465571D01*
X141974947Y-122697430D01*
X141847558Y-122959170D01*
X141773680Y-123240733D01*
X137245861Y-123240733D01*
X130935000Y-116929873D01*
X130935000Y-105798061D01*
X146265000Y-105798061D01*
X146265000Y-106001939D01*
X146304774Y-106201898D01*
X146382795Y-106390256D01*
X146496063Y-106559774D01*
X146640226Y-106703937D01*
X146809744Y-106817205D01*
X146998102Y-106895226D01*
X147198061Y-106935000D01*
X147401939Y-106935000D01*
X147601898Y-106895226D01*
X147790256Y-106817205D01*
X147959774Y-106703937D01*
X148003711Y-106660000D01*
X149062678Y-106660000D01*
X149100000Y-106663676D01*
X149137322Y-106660000D01*
X149137333Y-106660000D01*
X149248986Y-106649003D01*
X149392247Y-106605546D01*
X149524276Y-106534974D01*
X149640001Y-106440001D01*
X149663804Y-106410998D01*
X150239802Y-105835000D01*
X150301939Y-105835000D01*
X150501898Y-105795226D01*
X150690256Y-105717205D01*
X150859774Y-105603937D01*
X151003937Y-105459774D01*
X151117205Y-105290256D01*
X151195226Y-105101898D01*
X151235000Y-104901939D01*
X151235000Y-104698061D01*
X151195226Y-104498102D01*
X151117205Y-104309744D01*
X151003937Y-104140226D01*
X150859774Y-103996063D01*
X150690256Y-103882795D01*
X150501898Y-103804774D01*
X150301939Y-103765000D01*
X150098061Y-103765000D01*
X149898102Y-103804774D01*
X149709744Y-103882795D01*
X149540226Y-103996063D01*
X149396063Y-104140226D01*
X149282795Y-104309744D01*
X149204774Y-104498102D01*
X149165000Y-104698061D01*
X149165000Y-104760198D01*
X148785199Y-105140000D01*
X148003711Y-105140000D01*
X147959774Y-105096063D01*
X147790256Y-104982795D01*
X147601898Y-104904774D01*
X147401939Y-104865000D01*
X147198061Y-104865000D01*
X146998102Y-104904774D01*
X146809744Y-104982795D01*
X146640226Y-105096063D01*
X146496063Y-105240226D01*
X146382795Y-105409744D01*
X146304774Y-105598102D01*
X146265000Y-105798061D01*
X130935000Y-105798061D01*
X130935000Y-105755752D01*
X130940491Y-105700000D01*
X130935000Y-105644248D01*
X130935000Y-97498061D01*
X154465000Y-97498061D01*
X154465000Y-97701939D01*
X154504774Y-97901898D01*
X154582795Y-98090256D01*
X154696063Y-98259774D01*
X154840226Y-98403937D01*
X155009744Y-98517205D01*
X155198102Y-98595226D01*
X155398061Y-98635000D01*
X155601939Y-98635000D01*
X155608828Y-98633630D01*
X157490000Y-100514802D01*
X157490000Y-100576939D01*
X157529774Y-100776898D01*
X157607795Y-100965256D01*
X157721063Y-101134774D01*
X157865226Y-101278937D01*
X158034744Y-101392205D01*
X158223102Y-101470226D01*
X158423061Y-101510000D01*
X158626939Y-101510000D01*
X158826898Y-101470226D01*
X159015256Y-101392205D01*
X159184774Y-101278937D01*
X159328937Y-101134774D01*
X159442205Y-100965256D01*
X159520226Y-100776898D01*
X159560000Y-100576939D01*
X159560000Y-100373061D01*
X159520226Y-100173102D01*
X159442205Y-99984744D01*
X159328937Y-99815226D01*
X159184774Y-99671063D01*
X159015256Y-99557795D01*
X158826898Y-99479774D01*
X158626939Y-99440000D01*
X158564802Y-99440000D01*
X156513184Y-97388383D01*
X156495226Y-97298102D01*
X156417205Y-97109744D01*
X156303937Y-96940226D01*
X156159774Y-96796063D01*
X155990256Y-96682795D01*
X155801898Y-96604774D01*
X155601939Y-96565000D01*
X155398061Y-96565000D01*
X155198102Y-96604774D01*
X155009744Y-96682795D01*
X154840226Y-96796063D01*
X154696063Y-96940226D01*
X154582795Y-97109744D01*
X154504774Y-97298102D01*
X154465000Y-97498061D01*
X130935000Y-97498061D01*
X130935000Y-94148061D01*
X137115006Y-94148061D01*
X137115006Y-94351939D01*
X137154780Y-94551898D01*
X137232801Y-94740256D01*
X137346069Y-94909774D01*
X137490232Y-95053937D01*
X137659750Y-95167205D01*
X137848108Y-95245226D01*
X138048067Y-95285000D01*
X138251945Y-95285000D01*
X138451904Y-95245226D01*
X138640262Y-95167205D01*
X138800706Y-95060000D01*
X148296289Y-95060000D01*
X148340226Y-95103937D01*
X148509744Y-95217205D01*
X148698102Y-95295226D01*
X148898061Y-95335000D01*
X149101939Y-95335000D01*
X149301898Y-95295226D01*
X149490256Y-95217205D01*
X149659774Y-95103937D01*
X149803937Y-94959774D01*
X149917205Y-94790256D01*
X149995226Y-94601898D01*
X150035000Y-94401939D01*
X150035000Y-94198061D01*
X149995226Y-93998102D01*
X149917205Y-93809744D01*
X149803937Y-93640226D01*
X149659774Y-93496063D01*
X149490256Y-93382795D01*
X149301898Y-93304774D01*
X149101939Y-93265000D01*
X148898061Y-93265000D01*
X148698102Y-93304774D01*
X148509744Y-93382795D01*
X148340226Y-93496063D01*
X148296289Y-93540000D01*
X138903717Y-93540000D01*
X138809780Y-93446063D01*
X138640262Y-93332795D01*
X138451904Y-93254774D01*
X138251945Y-93215000D01*
X138048067Y-93215000D01*
X137848108Y-93254774D01*
X137659750Y-93332795D01*
X137490232Y-93446063D01*
X137346069Y-93590226D01*
X137232801Y-93759744D01*
X137154780Y-93948102D01*
X137115006Y-94148061D01*
X130935000Y-94148061D01*
X130935000Y-91198061D01*
X144465000Y-91198061D01*
X144465000Y-91401939D01*
X144504774Y-91601898D01*
X144582795Y-91790256D01*
X144696063Y-91959774D01*
X144840226Y-92103937D01*
X145009744Y-92217205D01*
X145198102Y-92295226D01*
X145398061Y-92335000D01*
X145601939Y-92335000D01*
X145801898Y-92295226D01*
X145990256Y-92217205D01*
X146159774Y-92103937D01*
X146303937Y-91959774D01*
X146417205Y-91790256D01*
X146495226Y-91601898D01*
X146535000Y-91401939D01*
X146535000Y-91339801D01*
X147176740Y-90698061D01*
X153465000Y-90698061D01*
X153465000Y-90901939D01*
X153504774Y-91101898D01*
X153582795Y-91290256D01*
X153696063Y-91459774D01*
X153840226Y-91603937D01*
X154009744Y-91717205D01*
X154198102Y-91795226D01*
X154398061Y-91835000D01*
X154601939Y-91835000D01*
X154801898Y-91795226D01*
X154990256Y-91717205D01*
X155159774Y-91603937D01*
X155203711Y-91560000D01*
X157732679Y-91560000D01*
X157770001Y-91563676D01*
X157807323Y-91560000D01*
X157807334Y-91560000D01*
X157918987Y-91549003D01*
X158062248Y-91505546D01*
X158194277Y-91434974D01*
X158310002Y-91340001D01*
X158333805Y-91310997D01*
X160109802Y-89535001D01*
X160171939Y-89535001D01*
X160371898Y-89495227D01*
X160560256Y-89417206D01*
X160729774Y-89303938D01*
X160873937Y-89159775D01*
X160987205Y-88990257D01*
X161065226Y-88801899D01*
X161105000Y-88601940D01*
X161105000Y-88398062D01*
X161065226Y-88198103D01*
X160987205Y-88009745D01*
X160873937Y-87840227D01*
X160729774Y-87696064D01*
X160560256Y-87582796D01*
X160371898Y-87504775D01*
X160171939Y-87465001D01*
X159968061Y-87465001D01*
X159768102Y-87504775D01*
X159579744Y-87582796D01*
X159410226Y-87696064D01*
X159266063Y-87840227D01*
X159152795Y-88009745D01*
X159074774Y-88198103D01*
X159035000Y-88398062D01*
X159035000Y-88460199D01*
X157455200Y-90040000D01*
X155203711Y-90040000D01*
X155159774Y-89996063D01*
X154990256Y-89882795D01*
X154801898Y-89804774D01*
X154601939Y-89765000D01*
X154398061Y-89765000D01*
X154198102Y-89804774D01*
X154009744Y-89882795D01*
X153840226Y-89996063D01*
X153696063Y-90140226D01*
X153582795Y-90309744D01*
X153504774Y-90498102D01*
X153465000Y-90698061D01*
X147176740Y-90698061D01*
X147761003Y-90113799D01*
X147790001Y-90090001D01*
X147884974Y-89974276D01*
X147955546Y-89842247D01*
X147999003Y-89698986D01*
X148010000Y-89587333D01*
X148010000Y-89587325D01*
X148013676Y-89550000D01*
X148010000Y-89512675D01*
X148010000Y-87282968D01*
X148013676Y-87245645D01*
X148010000Y-87208322D01*
X148010000Y-87208313D01*
X147999003Y-87096660D01*
X147955546Y-86953399D01*
X147884974Y-86821370D01*
X147790001Y-86705645D01*
X147761004Y-86681848D01*
X147677215Y-86598059D01*
X150465000Y-86598059D01*
X150465000Y-86801937D01*
X150504774Y-87001896D01*
X150582795Y-87190254D01*
X150696063Y-87359772D01*
X150840226Y-87503935D01*
X151009744Y-87617203D01*
X151198102Y-87695224D01*
X151398061Y-87734998D01*
X151601939Y-87734998D01*
X151801898Y-87695224D01*
X151990256Y-87617203D01*
X152159774Y-87503935D01*
X152303937Y-87359772D01*
X152417205Y-87190254D01*
X152495226Y-87001896D01*
X152535000Y-86801937D01*
X152535000Y-86789801D01*
X155789802Y-83535000D01*
X155851939Y-83535000D01*
X156051898Y-83495226D01*
X156240256Y-83417205D01*
X156409774Y-83303937D01*
X156553937Y-83159774D01*
X156667205Y-82990256D01*
X156745226Y-82801898D01*
X156785000Y-82601939D01*
X156785000Y-82398061D01*
X156745226Y-82198102D01*
X156667205Y-82009744D01*
X156553937Y-81840226D01*
X156409774Y-81696063D01*
X156240256Y-81582795D01*
X156051898Y-81504774D01*
X155851939Y-81465000D01*
X155648061Y-81465000D01*
X155448102Y-81504774D01*
X155259744Y-81582795D01*
X155090226Y-81696063D01*
X154946063Y-81840226D01*
X154832795Y-82009744D01*
X154754774Y-82198102D01*
X154715000Y-82398061D01*
X154715000Y-82460198D01*
X151510201Y-85664998D01*
X151398061Y-85664998D01*
X151198102Y-85704772D01*
X151009744Y-85782793D01*
X150840226Y-85896061D01*
X150696063Y-86040224D01*
X150582795Y-86209742D01*
X150504774Y-86398100D01*
X150465000Y-86598059D01*
X147677215Y-86598059D01*
X147609990Y-86530834D01*
X147609990Y-86468697D01*
X147570216Y-86268738D01*
X147492195Y-86080380D01*
X147378927Y-85910862D01*
X147334990Y-85866925D01*
X147334990Y-84328721D01*
X147403937Y-84259774D01*
X147517205Y-84090256D01*
X147595226Y-83901898D01*
X147635000Y-83701939D01*
X147635000Y-83498061D01*
X147595226Y-83298102D01*
X147517205Y-83109744D01*
X147403937Y-82940226D01*
X147259774Y-82796063D01*
X147090256Y-82682795D01*
X146901898Y-82604774D01*
X146701939Y-82565000D01*
X146498061Y-82565000D01*
X146298102Y-82604774D01*
X146109744Y-82682795D01*
X145940226Y-82796063D01*
X145796063Y-82940226D01*
X145682795Y-83109744D01*
X145604774Y-83298102D01*
X145565000Y-83498061D01*
X145565000Y-83701939D01*
X145604774Y-83901898D01*
X145682795Y-84090256D01*
X145796063Y-84259774D01*
X145814991Y-84278702D01*
X145814990Y-85866925D01*
X145771053Y-85910862D01*
X145657785Y-86080380D01*
X145579764Y-86268738D01*
X145539990Y-86468697D01*
X145539990Y-86672575D01*
X145579764Y-86872534D01*
X145657785Y-87060892D01*
X145771053Y-87230410D01*
X145915216Y-87374573D01*
X146084734Y-87487841D01*
X146273092Y-87565862D01*
X146473051Y-87605636D01*
X146490000Y-87605636D01*
X146490001Y-89235197D01*
X145460199Y-90265000D01*
X145398061Y-90265000D01*
X145198102Y-90304774D01*
X145009744Y-90382795D01*
X144840226Y-90496063D01*
X144696063Y-90640226D01*
X144582795Y-90809744D01*
X144504774Y-90998102D01*
X144465000Y-91198061D01*
X130935000Y-91198061D01*
X130935000Y-85420131D01*
X131216988Y-85138143D01*
X131323284Y-85008622D01*
X131428676Y-84811447D01*
X131493577Y-84597499D01*
X131515491Y-84375000D01*
X131493577Y-84152501D01*
X131428676Y-83938554D01*
X131323284Y-83741378D01*
X131181449Y-83568551D01*
X131008622Y-83426716D01*
X130811446Y-83321324D01*
X130597499Y-83256423D01*
X130375000Y-83234509D01*
X130152501Y-83256423D01*
X129938553Y-83321324D01*
X129877000Y-83354225D01*
X129877000Y-78859267D01*
X141773680Y-78859267D01*
X141847558Y-79140830D01*
X141974947Y-79402570D01*
X142150951Y-79634429D01*
X142368807Y-79827496D01*
X142620142Y-79974352D01*
X142883110Y-80066476D01*
X143113000Y-79945155D01*
X143113000Y-78627000D01*
X141913835Y-78627000D01*
X141773680Y-78859267D01*
X129877000Y-78859267D01*
X129877000Y-78140733D01*
X141773680Y-78140733D01*
X141913835Y-78373000D01*
X143113000Y-78373000D01*
X143113000Y-77054845D01*
X143367000Y-77054845D01*
X143367000Y-78373000D01*
X143387000Y-78373000D01*
X143387000Y-78627000D01*
X143367000Y-78627000D01*
X143367000Y-79945155D01*
X143596890Y-80066476D01*
X143859858Y-79974352D01*
X144111193Y-79827496D01*
X144329049Y-79634429D01*
X144505053Y-79402570D01*
X144508267Y-79395966D01*
X144539294Y-79454013D01*
X144724866Y-79680134D01*
X144950986Y-79865706D01*
X145208966Y-80003599D01*
X145488889Y-80088513D01*
X145780000Y-80117185D01*
X146071110Y-80088513D01*
X146351033Y-80003599D01*
X146609013Y-79865706D01*
X146835134Y-79680134D01*
X147020706Y-79454014D01*
X147050000Y-79399208D01*
X147079294Y-79454013D01*
X147264866Y-79680134D01*
X147490986Y-79865706D01*
X147748966Y-80003599D01*
X148028889Y-80088513D01*
X148320000Y-80117185D01*
X148611110Y-80088513D01*
X148891033Y-80003599D01*
X149149013Y-79865706D01*
X149375134Y-79680134D01*
X149560706Y-79454014D01*
X149590000Y-79399208D01*
X149619294Y-79454013D01*
X149804866Y-79680134D01*
X150030986Y-79865706D01*
X150288966Y-80003599D01*
X150568889Y-80088513D01*
X150860000Y-80117185D01*
X151151110Y-80088513D01*
X151431033Y-80003599D01*
X151689013Y-79865706D01*
X151915134Y-79680134D01*
X151991446Y-79587147D01*
X152061595Y-79718386D01*
X152172038Y-79852962D01*
X152306614Y-79963405D01*
X152460150Y-80045472D01*
X152626746Y-80096008D01*
X152800000Y-80113072D01*
X154000000Y-80113072D01*
X154173254Y-80096008D01*
X154339850Y-80045472D01*
X154493386Y-79963405D01*
X154627962Y-79852962D01*
X154738405Y-79718386D01*
X154820472Y-79564850D01*
X154871008Y-79398254D01*
X154888072Y-79225000D01*
X154888072Y-77775000D01*
X154871008Y-77601746D01*
X154820472Y-77435150D01*
X154738405Y-77281614D01*
X154627962Y-77147038D01*
X154493386Y-77036595D01*
X154339850Y-76954528D01*
X154173254Y-76903992D01*
X154000000Y-76886928D01*
X152800000Y-76886928D01*
X152626746Y-76903992D01*
X152460150Y-76954528D01*
X152306614Y-77036595D01*
X152172038Y-77147038D01*
X152061595Y-77281614D01*
X151991446Y-77412853D01*
X151915134Y-77319866D01*
X151689014Y-77134294D01*
X151431034Y-76996401D01*
X151151111Y-76911487D01*
X150860000Y-76882815D01*
X150568890Y-76911487D01*
X150288967Y-76996401D01*
X150030987Y-77134294D01*
X149804866Y-77319866D01*
X149619294Y-77545986D01*
X149590000Y-77600791D01*
X149560706Y-77545986D01*
X149375134Y-77319866D01*
X149149014Y-77134294D01*
X148891034Y-76996401D01*
X148611111Y-76911487D01*
X148320000Y-76882815D01*
X148028890Y-76911487D01*
X147748967Y-76996401D01*
X147490987Y-77134294D01*
X147264866Y-77319866D01*
X147079294Y-77545986D01*
X147050000Y-77600791D01*
X147020706Y-77545986D01*
X146835134Y-77319866D01*
X146609014Y-77134294D01*
X146351034Y-76996401D01*
X146071111Y-76911487D01*
X145780000Y-76882815D01*
X145488890Y-76911487D01*
X145208967Y-76996401D01*
X144950987Y-77134294D01*
X144724866Y-77319866D01*
X144539294Y-77545986D01*
X144508267Y-77604034D01*
X144505053Y-77597430D01*
X144329049Y-77365571D01*
X144111193Y-77172504D01*
X143859858Y-77025648D01*
X143596890Y-76933524D01*
X143367000Y-77054845D01*
X143113000Y-77054845D01*
X142883110Y-76933524D01*
X142620142Y-77025648D01*
X142368807Y-77172504D01*
X142150951Y-77365571D01*
X141974947Y-77597430D01*
X141847558Y-77859170D01*
X141773680Y-78140733D01*
X129877000Y-78140733D01*
X129877000Y-71309267D01*
X141773680Y-71309267D01*
X141847558Y-71590830D01*
X141974947Y-71852570D01*
X142150951Y-72084429D01*
X142368807Y-72277496D01*
X142620142Y-72424352D01*
X142883110Y-72516476D01*
X143113000Y-72395155D01*
X143113000Y-71077000D01*
X141913835Y-71077000D01*
X141773680Y-71309267D01*
X129877000Y-71309267D01*
X129877000Y-70590733D01*
X141773680Y-70590733D01*
X141913835Y-70823000D01*
X143113000Y-70823000D01*
X143113000Y-69504845D01*
X143367000Y-69504845D01*
X143367000Y-70823000D01*
X143387000Y-70823000D01*
X143387000Y-71077000D01*
X143367000Y-71077000D01*
X143367000Y-72395155D01*
X143596890Y-72516476D01*
X143859858Y-72424352D01*
X144111193Y-72277496D01*
X144329049Y-72084429D01*
X144505053Y-71852570D01*
X144508267Y-71845966D01*
X144539294Y-71904013D01*
X144724866Y-72130134D01*
X144950986Y-72315706D01*
X145208966Y-72453599D01*
X145488889Y-72538513D01*
X145780000Y-72567185D01*
X146071110Y-72538513D01*
X146351033Y-72453599D01*
X146609013Y-72315706D01*
X146835134Y-72130134D01*
X147020706Y-71904014D01*
X147050000Y-71849208D01*
X147079294Y-71904013D01*
X147264866Y-72130134D01*
X147490986Y-72315706D01*
X147748966Y-72453599D01*
X148028889Y-72538513D01*
X148320000Y-72567185D01*
X148611110Y-72538513D01*
X148891033Y-72453599D01*
X149149013Y-72315706D01*
X149375134Y-72130134D01*
X149560706Y-71904014D01*
X149590000Y-71849208D01*
X149619294Y-71904013D01*
X149804866Y-72130134D01*
X150030986Y-72315706D01*
X150288966Y-72453599D01*
X150568889Y-72538513D01*
X150860000Y-72567185D01*
X151151110Y-72538513D01*
X151431033Y-72453599D01*
X151689013Y-72315706D01*
X151915134Y-72130134D01*
X151991446Y-72037147D01*
X152061595Y-72168386D01*
X152172038Y-72302962D01*
X152306614Y-72413405D01*
X152460150Y-72495472D01*
X152626746Y-72546008D01*
X152800000Y-72563072D01*
X154000000Y-72563072D01*
X154173254Y-72546008D01*
X154339850Y-72495472D01*
X154493386Y-72413405D01*
X154627962Y-72302962D01*
X154738405Y-72168386D01*
X154820472Y-72014850D01*
X154871008Y-71848254D01*
X154888072Y-71675000D01*
X154888072Y-70225000D01*
X154871008Y-70051746D01*
X154820472Y-69885150D01*
X154738405Y-69731614D01*
X154627962Y-69597038D01*
X154493386Y-69486595D01*
X154339850Y-69404528D01*
X154173254Y-69353992D01*
X154000000Y-69336928D01*
X152800000Y-69336928D01*
X152626746Y-69353992D01*
X152460150Y-69404528D01*
X152306614Y-69486595D01*
X152172038Y-69597038D01*
X152061595Y-69731614D01*
X151991446Y-69862853D01*
X151915134Y-69769866D01*
X151689014Y-69584294D01*
X151431034Y-69446401D01*
X151151111Y-69361487D01*
X150860000Y-69332815D01*
X150568890Y-69361487D01*
X150288967Y-69446401D01*
X150030987Y-69584294D01*
X149804866Y-69769866D01*
X149619294Y-69995986D01*
X149590000Y-70050791D01*
X149560706Y-69995986D01*
X149375134Y-69769866D01*
X149149014Y-69584294D01*
X148891034Y-69446401D01*
X148611111Y-69361487D01*
X148320000Y-69332815D01*
X148028890Y-69361487D01*
X147748967Y-69446401D01*
X147490987Y-69584294D01*
X147264866Y-69769866D01*
X147079294Y-69995986D01*
X147050000Y-70050791D01*
X147020706Y-69995986D01*
X146835134Y-69769866D01*
X146609014Y-69584294D01*
X146351034Y-69446401D01*
X146071111Y-69361487D01*
X145780000Y-69332815D01*
X145488890Y-69361487D01*
X145208967Y-69446401D01*
X144950987Y-69584294D01*
X144724866Y-69769866D01*
X144539294Y-69995986D01*
X144508267Y-70054034D01*
X144505053Y-70047430D01*
X144329049Y-69815571D01*
X144111193Y-69622504D01*
X143859858Y-69475648D01*
X143596890Y-69383524D01*
X143367000Y-69504845D01*
X143113000Y-69504845D01*
X142883110Y-69383524D01*
X142620142Y-69475648D01*
X142368807Y-69622504D01*
X142150951Y-69815571D01*
X141974947Y-70047430D01*
X141847558Y-70309170D01*
X141773680Y-70590733D01*
X129877000Y-70590733D01*
X129877000Y-68006234D01*
X129894376Y-67829811D01*
X129944022Y-67666150D01*
X130024638Y-67515328D01*
X130133130Y-67383130D01*
X130265328Y-67274638D01*
X130416150Y-67194022D01*
X130579811Y-67144376D01*
X130756234Y-67127000D01*
X166743766Y-67127000D01*
X166920189Y-67144376D01*
G37*
G04 #@! TD.AperFunction*
M02*
