G04 #@! TF.GenerationSoftware,KiCad,Pcbnew,5.1.10*
G04 #@! TF.CreationDate,2021-06-21T19:24:40+02:00*
G04 #@! TF.ProjectId,power-extender,706f7765-722d-4657-9874-656e6465722e,1*
G04 #@! TF.SameCoordinates,Original*
G04 #@! TF.FileFunction,Paste,Top*
G04 #@! TF.FilePolarity,Positive*
%FSLAX46Y46*%
G04 Gerber Fmt 4.6, Leading zero omitted, Abs format (unit mm)*
G04 Created by KiCad (PCBNEW 5.1.10) date 2021-06-21 19:24:40*
%MOMM*%
%LPD*%
G01*
G04 APERTURE LIST*
%ADD10R,1.750000X0.650000*%
%ADD11C,0.150000*%
%ADD12R,0.250000X1.100000*%
%ADD13R,1.100000X0.250000*%
%ADD14R,0.900000X0.800000*%
%ADD15R,1.500000X2.200000*%
G04 APERTURE END LIST*
D10*
X119450000Y-90405000D03*
X125050000Y-90405000D03*
X119450000Y-89135000D03*
X125050000Y-89135000D03*
X119450000Y-87865000D03*
X125050000Y-87865000D03*
X119450000Y-86595000D03*
X125050000Y-86595000D03*
X178050000Y-86595000D03*
X172450000Y-86595000D03*
X178050000Y-87865000D03*
X172450000Y-87865000D03*
X178050000Y-89135000D03*
X172450000Y-89135000D03*
X178050000Y-90405000D03*
X172450000Y-90405000D03*
D11*
G36*
X165850000Y-69900000D02*
G01*
X165850000Y-68300000D01*
X167650000Y-68300000D01*
X167650000Y-69900000D01*
X165850000Y-69900000D01*
G37*
G36*
X165850000Y-73700000D02*
G01*
X165850000Y-72100000D01*
X167650000Y-72100000D01*
X167650000Y-73700000D01*
X165850000Y-73700000D01*
G37*
G36*
X165850000Y-120900000D02*
G01*
X165850000Y-119300000D01*
X167650000Y-119300000D01*
X167650000Y-120900000D01*
X165850000Y-120900000D01*
G37*
G36*
X165850000Y-124700000D02*
G01*
X165850000Y-123100000D01*
X167650000Y-123100000D01*
X167650000Y-124700000D01*
X165850000Y-124700000D01*
G37*
G36*
X131650000Y-131100000D02*
G01*
X131650000Y-132700000D01*
X129850000Y-132700000D01*
X129850000Y-131100000D01*
X131650000Y-131100000D01*
G37*
G36*
X131650000Y-127300000D02*
G01*
X131650000Y-128900000D01*
X129850000Y-128900000D01*
X129850000Y-127300000D01*
X131650000Y-127300000D01*
G37*
G36*
X131650000Y-80100000D02*
G01*
X131650000Y-81700000D01*
X129850000Y-81700000D01*
X129850000Y-80100000D01*
X131650000Y-80100000D01*
G37*
G36*
X131650000Y-76300000D02*
G01*
X131650000Y-77900000D01*
X129850000Y-77900000D01*
X129850000Y-76300000D01*
X131650000Y-76300000D01*
G37*
G36*
G01*
X135150001Y-122800000D02*
X134249999Y-122800000D01*
G75*
G02*
X134000000Y-122550001I0J249999D01*
G01*
X134000000Y-122024999D01*
G75*
G02*
X134249999Y-121775000I249999J0D01*
G01*
X135150001Y-121775000D01*
G75*
G02*
X135400000Y-122024999I0J-249999D01*
G01*
X135400000Y-122550001D01*
G75*
G02*
X135150001Y-122800000I-249999J0D01*
G01*
G37*
G36*
G01*
X135150001Y-124625000D02*
X134249999Y-124625000D01*
G75*
G02*
X134000000Y-124375001I0J249999D01*
G01*
X134000000Y-123849999D01*
G75*
G02*
X134249999Y-123600000I249999J0D01*
G01*
X135150001Y-123600000D01*
G75*
G02*
X135400000Y-123849999I0J-249999D01*
G01*
X135400000Y-124375001D01*
G75*
G02*
X135150001Y-124625000I-249999J0D01*
G01*
G37*
G36*
G01*
X135450001Y-131100000D02*
X134549999Y-131100000D01*
G75*
G02*
X134300000Y-130850001I0J249999D01*
G01*
X134300000Y-130324999D01*
G75*
G02*
X134549999Y-130075000I249999J0D01*
G01*
X135450001Y-130075000D01*
G75*
G02*
X135700000Y-130324999I0J-249999D01*
G01*
X135700000Y-130850001D01*
G75*
G02*
X135450001Y-131100000I-249999J0D01*
G01*
G37*
G36*
G01*
X135450001Y-132925000D02*
X134549999Y-132925000D01*
G75*
G02*
X134300000Y-132675001I0J249999D01*
G01*
X134300000Y-132149999D01*
G75*
G02*
X134549999Y-131900000I249999J0D01*
G01*
X135450001Y-131900000D01*
G75*
G02*
X135700000Y-132149999I0J-249999D01*
G01*
X135700000Y-132675001D01*
G75*
G02*
X135450001Y-132925000I-249999J0D01*
G01*
G37*
G36*
G01*
X135249999Y-127800000D02*
X136150001Y-127800000D01*
G75*
G02*
X136400000Y-128049999I0J-249999D01*
G01*
X136400000Y-128575001D01*
G75*
G02*
X136150001Y-128825000I-249999J0D01*
G01*
X135249999Y-128825000D01*
G75*
G02*
X135000000Y-128575001I0J249999D01*
G01*
X135000000Y-128049999D01*
G75*
G02*
X135249999Y-127800000I249999J0D01*
G01*
G37*
G36*
G01*
X135249999Y-125975000D02*
X136150001Y-125975000D01*
G75*
G02*
X136400000Y-126224999I0J-249999D01*
G01*
X136400000Y-126750001D01*
G75*
G02*
X136150001Y-127000000I-249999J0D01*
G01*
X135249999Y-127000000D01*
G75*
G02*
X135000000Y-126750001I0J249999D01*
G01*
X135000000Y-126224999D01*
G75*
G02*
X135249999Y-125975000I249999J0D01*
G01*
G37*
G36*
G01*
X137700000Y-76749999D02*
X137700000Y-77650001D01*
G75*
G02*
X137450001Y-77900000I-249999J0D01*
G01*
X136924999Y-77900000D01*
G75*
G02*
X136675000Y-77650001I0J249999D01*
G01*
X136675000Y-76749999D01*
G75*
G02*
X136924999Y-76500000I249999J0D01*
G01*
X137450001Y-76500000D01*
G75*
G02*
X137700000Y-76749999I0J-249999D01*
G01*
G37*
G36*
G01*
X139525000Y-76749999D02*
X139525000Y-77650001D01*
G75*
G02*
X139275001Y-77900000I-249999J0D01*
G01*
X138749999Y-77900000D01*
G75*
G02*
X138500000Y-77650001I0J249999D01*
G01*
X138500000Y-76749999D01*
G75*
G02*
X138749999Y-76500000I249999J0D01*
G01*
X139275001Y-76500000D01*
G75*
G02*
X139525000Y-76749999I0J-249999D01*
G01*
G37*
G36*
G01*
X137800001Y-71800000D02*
X136899999Y-71800000D01*
G75*
G02*
X136650000Y-71550001I0J249999D01*
G01*
X136650000Y-71024999D01*
G75*
G02*
X136899999Y-70775000I249999J0D01*
G01*
X137800001Y-70775000D01*
G75*
G02*
X138050000Y-71024999I0J-249999D01*
G01*
X138050000Y-71550001D01*
G75*
G02*
X137800001Y-71800000I-249999J0D01*
G01*
G37*
G36*
G01*
X137800001Y-73625000D02*
X136899999Y-73625000D01*
G75*
G02*
X136650000Y-73375001I0J249999D01*
G01*
X136650000Y-72849999D01*
G75*
G02*
X136899999Y-72600000I249999J0D01*
G01*
X137800001Y-72600000D01*
G75*
G02*
X138050000Y-72849999I0J-249999D01*
G01*
X138050000Y-73375001D01*
G75*
G02*
X137800001Y-73625000I-249999J0D01*
G01*
G37*
D12*
X145200000Y-87450000D03*
X144700000Y-87450000D03*
X144200000Y-87450000D03*
X143700000Y-87450000D03*
X143200000Y-87450000D03*
X143200000Y-83150000D03*
X143700000Y-83150000D03*
X144200000Y-83150000D03*
X144700000Y-83150000D03*
X145200000Y-83150000D03*
G36*
G01*
X153575000Y-83375000D02*
X153575000Y-83175000D01*
G75*
G02*
X153675000Y-83075000I100000J0D01*
G01*
X154950000Y-83075000D01*
G75*
G02*
X155050000Y-83175000I0J-100000D01*
G01*
X155050000Y-83375000D01*
G75*
G02*
X154950000Y-83475000I-100000J0D01*
G01*
X153675000Y-83475000D01*
G75*
G02*
X153575000Y-83375000I0J100000D01*
G01*
G37*
G36*
G01*
X153575000Y-84025000D02*
X153575000Y-83825000D01*
G75*
G02*
X153675000Y-83725000I100000J0D01*
G01*
X154950000Y-83725000D01*
G75*
G02*
X155050000Y-83825000I0J-100000D01*
G01*
X155050000Y-84025000D01*
G75*
G02*
X154950000Y-84125000I-100000J0D01*
G01*
X153675000Y-84125000D01*
G75*
G02*
X153575000Y-84025000I0J100000D01*
G01*
G37*
G36*
G01*
X153575000Y-84675000D02*
X153575000Y-84475000D01*
G75*
G02*
X153675000Y-84375000I100000J0D01*
G01*
X154950000Y-84375000D01*
G75*
G02*
X155050000Y-84475000I0J-100000D01*
G01*
X155050000Y-84675000D01*
G75*
G02*
X154950000Y-84775000I-100000J0D01*
G01*
X153675000Y-84775000D01*
G75*
G02*
X153575000Y-84675000I0J100000D01*
G01*
G37*
G36*
G01*
X153575000Y-85325000D02*
X153575000Y-85125000D01*
G75*
G02*
X153675000Y-85025000I100000J0D01*
G01*
X154950000Y-85025000D01*
G75*
G02*
X155050000Y-85125000I0J-100000D01*
G01*
X155050000Y-85325000D01*
G75*
G02*
X154950000Y-85425000I-100000J0D01*
G01*
X153675000Y-85425000D01*
G75*
G02*
X153575000Y-85325000I0J100000D01*
G01*
G37*
G36*
G01*
X153575000Y-85975000D02*
X153575000Y-85775000D01*
G75*
G02*
X153675000Y-85675000I100000J0D01*
G01*
X154950000Y-85675000D01*
G75*
G02*
X155050000Y-85775000I0J-100000D01*
G01*
X155050000Y-85975000D01*
G75*
G02*
X154950000Y-86075000I-100000J0D01*
G01*
X153675000Y-86075000D01*
G75*
G02*
X153575000Y-85975000I0J100000D01*
G01*
G37*
G36*
G01*
X153575000Y-86625000D02*
X153575000Y-86425000D01*
G75*
G02*
X153675000Y-86325000I100000J0D01*
G01*
X154950000Y-86325000D01*
G75*
G02*
X155050000Y-86425000I0J-100000D01*
G01*
X155050000Y-86625000D01*
G75*
G02*
X154950000Y-86725000I-100000J0D01*
G01*
X153675000Y-86725000D01*
G75*
G02*
X153575000Y-86625000I0J100000D01*
G01*
G37*
G36*
G01*
X153575000Y-87275000D02*
X153575000Y-87075000D01*
G75*
G02*
X153675000Y-86975000I100000J0D01*
G01*
X154950000Y-86975000D01*
G75*
G02*
X155050000Y-87075000I0J-100000D01*
G01*
X155050000Y-87275000D01*
G75*
G02*
X154950000Y-87375000I-100000J0D01*
G01*
X153675000Y-87375000D01*
G75*
G02*
X153575000Y-87275000I0J100000D01*
G01*
G37*
G36*
G01*
X153575000Y-87925000D02*
X153575000Y-87725000D01*
G75*
G02*
X153675000Y-87625000I100000J0D01*
G01*
X154950000Y-87625000D01*
G75*
G02*
X155050000Y-87725000I0J-100000D01*
G01*
X155050000Y-87925000D01*
G75*
G02*
X154950000Y-88025000I-100000J0D01*
G01*
X153675000Y-88025000D01*
G75*
G02*
X153575000Y-87925000I0J100000D01*
G01*
G37*
G36*
G01*
X147850000Y-87925000D02*
X147850000Y-87725000D01*
G75*
G02*
X147950000Y-87625000I100000J0D01*
G01*
X149225000Y-87625000D01*
G75*
G02*
X149325000Y-87725000I0J-100000D01*
G01*
X149325000Y-87925000D01*
G75*
G02*
X149225000Y-88025000I-100000J0D01*
G01*
X147950000Y-88025000D01*
G75*
G02*
X147850000Y-87925000I0J100000D01*
G01*
G37*
G36*
G01*
X147850000Y-87275000D02*
X147850000Y-87075000D01*
G75*
G02*
X147950000Y-86975000I100000J0D01*
G01*
X149225000Y-86975000D01*
G75*
G02*
X149325000Y-87075000I0J-100000D01*
G01*
X149325000Y-87275000D01*
G75*
G02*
X149225000Y-87375000I-100000J0D01*
G01*
X147950000Y-87375000D01*
G75*
G02*
X147850000Y-87275000I0J100000D01*
G01*
G37*
G36*
G01*
X147850000Y-86625000D02*
X147850000Y-86425000D01*
G75*
G02*
X147950000Y-86325000I100000J0D01*
G01*
X149225000Y-86325000D01*
G75*
G02*
X149325000Y-86425000I0J-100000D01*
G01*
X149325000Y-86625000D01*
G75*
G02*
X149225000Y-86725000I-100000J0D01*
G01*
X147950000Y-86725000D01*
G75*
G02*
X147850000Y-86625000I0J100000D01*
G01*
G37*
G36*
G01*
X147850000Y-85975000D02*
X147850000Y-85775000D01*
G75*
G02*
X147950000Y-85675000I100000J0D01*
G01*
X149225000Y-85675000D01*
G75*
G02*
X149325000Y-85775000I0J-100000D01*
G01*
X149325000Y-85975000D01*
G75*
G02*
X149225000Y-86075000I-100000J0D01*
G01*
X147950000Y-86075000D01*
G75*
G02*
X147850000Y-85975000I0J100000D01*
G01*
G37*
G36*
G01*
X147850000Y-85325000D02*
X147850000Y-85125000D01*
G75*
G02*
X147950000Y-85025000I100000J0D01*
G01*
X149225000Y-85025000D01*
G75*
G02*
X149325000Y-85125000I0J-100000D01*
G01*
X149325000Y-85325000D01*
G75*
G02*
X149225000Y-85425000I-100000J0D01*
G01*
X147950000Y-85425000D01*
G75*
G02*
X147850000Y-85325000I0J100000D01*
G01*
G37*
G36*
G01*
X147850000Y-84675000D02*
X147850000Y-84475000D01*
G75*
G02*
X147950000Y-84375000I100000J0D01*
G01*
X149225000Y-84375000D01*
G75*
G02*
X149325000Y-84475000I0J-100000D01*
G01*
X149325000Y-84675000D01*
G75*
G02*
X149225000Y-84775000I-100000J0D01*
G01*
X147950000Y-84775000D01*
G75*
G02*
X147850000Y-84675000I0J100000D01*
G01*
G37*
G36*
G01*
X147850000Y-84025000D02*
X147850000Y-83825000D01*
G75*
G02*
X147950000Y-83725000I100000J0D01*
G01*
X149225000Y-83725000D01*
G75*
G02*
X149325000Y-83825000I0J-100000D01*
G01*
X149325000Y-84025000D01*
G75*
G02*
X149225000Y-84125000I-100000J0D01*
G01*
X147950000Y-84125000D01*
G75*
G02*
X147850000Y-84025000I0J100000D01*
G01*
G37*
G36*
G01*
X147850000Y-83375000D02*
X147850000Y-83175000D01*
G75*
G02*
X147950000Y-83075000I100000J0D01*
G01*
X149225000Y-83075000D01*
G75*
G02*
X149325000Y-83175000I0J-100000D01*
G01*
X149325000Y-83375000D01*
G75*
G02*
X149225000Y-83475000I-100000J0D01*
G01*
X147950000Y-83475000D01*
G75*
G02*
X147850000Y-83375000I0J100000D01*
G01*
G37*
G36*
G01*
X159900000Y-124200001D02*
X159900000Y-123299999D01*
G75*
G02*
X160149999Y-123050000I249999J0D01*
G01*
X160675001Y-123050000D01*
G75*
G02*
X160925000Y-123299999I0J-249999D01*
G01*
X160925000Y-124200001D01*
G75*
G02*
X160675001Y-124450000I-249999J0D01*
G01*
X160149999Y-124450000D01*
G75*
G02*
X159900000Y-124200001I0J249999D01*
G01*
G37*
G36*
G01*
X158075000Y-124200001D02*
X158075000Y-123299999D01*
G75*
G02*
X158324999Y-123050000I249999J0D01*
G01*
X158850001Y-123050000D01*
G75*
G02*
X159100000Y-123299999I0J-249999D01*
G01*
X159100000Y-124200001D01*
G75*
G02*
X158850001Y-124450000I-249999J0D01*
G01*
X158324999Y-124450000D01*
G75*
G02*
X158075000Y-124200001I0J249999D01*
G01*
G37*
D13*
X147450000Y-90700000D03*
X147450000Y-91200000D03*
X147450000Y-91700000D03*
X147450000Y-92200000D03*
X147450000Y-92700000D03*
X143150000Y-92700000D03*
X143150000Y-92200000D03*
X143150000Y-91700000D03*
X143150000Y-91200000D03*
X143150000Y-90700000D03*
D14*
X167800000Y-81000000D03*
X165800000Y-81950000D03*
X165800000Y-80050000D03*
G36*
G01*
X162149999Y-70100000D02*
X163050001Y-70100000D01*
G75*
G02*
X163300000Y-70349999I0J-249999D01*
G01*
X163300000Y-70875001D01*
G75*
G02*
X163050001Y-71125000I-249999J0D01*
G01*
X162149999Y-71125000D01*
G75*
G02*
X161900000Y-70875001I0J249999D01*
G01*
X161900000Y-70349999D01*
G75*
G02*
X162149999Y-70100000I249999J0D01*
G01*
G37*
G36*
G01*
X162149999Y-68275000D02*
X163050001Y-68275000D01*
G75*
G02*
X163300000Y-68524999I0J-249999D01*
G01*
X163300000Y-69050001D01*
G75*
G02*
X163050001Y-69300000I-249999J0D01*
G01*
X162149999Y-69300000D01*
G75*
G02*
X161900000Y-69050001I0J249999D01*
G01*
X161900000Y-68524999D01*
G75*
G02*
X162149999Y-68275000I249999J0D01*
G01*
G37*
G36*
G01*
X167170000Y-90700001D02*
X167170000Y-89799999D01*
G75*
G02*
X167419999Y-89550000I249999J0D01*
G01*
X167945001Y-89550000D01*
G75*
G02*
X168195000Y-89799999I0J-249999D01*
G01*
X168195000Y-90700001D01*
G75*
G02*
X167945001Y-90950000I-249999J0D01*
G01*
X167419999Y-90950000D01*
G75*
G02*
X167170000Y-90700001I0J249999D01*
G01*
G37*
G36*
G01*
X165345000Y-90700001D02*
X165345000Y-89799999D01*
G75*
G02*
X165594999Y-89550000I249999J0D01*
G01*
X166120001Y-89550000D01*
G75*
G02*
X166370000Y-89799999I0J-249999D01*
G01*
X166370000Y-90700001D01*
G75*
G02*
X166120001Y-90950000I-249999J0D01*
G01*
X165594999Y-90950000D01*
G75*
G02*
X165345000Y-90700001I0J249999D01*
G01*
G37*
G36*
G01*
X166330000Y-76543750D02*
X166330000Y-77456250D01*
G75*
G02*
X166086250Y-77700000I-243750J0D01*
G01*
X165598750Y-77700000D01*
G75*
G02*
X165355000Y-77456250I0J243750D01*
G01*
X165355000Y-76543750D01*
G75*
G02*
X165598750Y-76300000I243750J0D01*
G01*
X166086250Y-76300000D01*
G75*
G02*
X166330000Y-76543750I0J-243750D01*
G01*
G37*
G36*
G01*
X168205000Y-76543750D02*
X168205000Y-77456250D01*
G75*
G02*
X167961250Y-77700000I-243750J0D01*
G01*
X167473750Y-77700000D01*
G75*
G02*
X167230000Y-77456250I0J243750D01*
G01*
X167230000Y-76543750D01*
G75*
G02*
X167473750Y-76300000I243750J0D01*
G01*
X167961250Y-76300000D01*
G75*
G02*
X168205000Y-76543750I0J-243750D01*
G01*
G37*
G36*
G01*
X162449999Y-78400000D02*
X163350001Y-78400000D01*
G75*
G02*
X163600000Y-78649999I0J-249999D01*
G01*
X163600000Y-79175001D01*
G75*
G02*
X163350001Y-79425000I-249999J0D01*
G01*
X162449999Y-79425000D01*
G75*
G02*
X162200000Y-79175001I0J249999D01*
G01*
X162200000Y-78649999D01*
G75*
G02*
X162449999Y-78400000I249999J0D01*
G01*
G37*
G36*
G01*
X162449999Y-76575000D02*
X163350001Y-76575000D01*
G75*
G02*
X163600000Y-76824999I0J-249999D01*
G01*
X163600000Y-77350001D01*
G75*
G02*
X163350001Y-77600000I-249999J0D01*
G01*
X162449999Y-77600000D01*
G75*
G02*
X162200000Y-77350001I0J249999D01*
G01*
X162200000Y-76824999D01*
G75*
G02*
X162449999Y-76575000I249999J0D01*
G01*
G37*
D15*
X162770000Y-91580000D03*
X162770000Y-82420000D03*
X160230000Y-91580000D03*
X160230000Y-82420000D03*
G36*
G01*
X166300000Y-92775000D02*
X166300000Y-93725000D01*
G75*
G02*
X166050000Y-93975000I-250000J0D01*
G01*
X165550000Y-93975000D01*
G75*
G02*
X165300000Y-93725000I0J250000D01*
G01*
X165300000Y-92775000D01*
G75*
G02*
X165550000Y-92525000I250000J0D01*
G01*
X166050000Y-92525000D01*
G75*
G02*
X166300000Y-92775000I0J-250000D01*
G01*
G37*
G36*
G01*
X168200000Y-92775000D02*
X168200000Y-93725000D01*
G75*
G02*
X167950000Y-93975000I-250000J0D01*
G01*
X167450000Y-93975000D01*
G75*
G02*
X167200000Y-93725000I0J250000D01*
G01*
X167200000Y-92775000D01*
G75*
G02*
X167450000Y-92525000I250000J0D01*
G01*
X167950000Y-92525000D01*
G75*
G02*
X168200000Y-92775000I0J-250000D01*
G01*
G37*
G36*
G01*
X167200000Y-87475000D02*
X167200000Y-86525000D01*
G75*
G02*
X167450000Y-86275000I250000J0D01*
G01*
X167950000Y-86275000D01*
G75*
G02*
X168200000Y-86525000I0J-250000D01*
G01*
X168200000Y-87475000D01*
G75*
G02*
X167950000Y-87725000I-250000J0D01*
G01*
X167450000Y-87725000D01*
G75*
G02*
X167200000Y-87475000I0J250000D01*
G01*
G37*
G36*
G01*
X165300000Y-87475000D02*
X165300000Y-86525000D01*
G75*
G02*
X165550000Y-86275000I250000J0D01*
G01*
X166050000Y-86275000D01*
G75*
G02*
X166300000Y-86525000I0J-250000D01*
G01*
X166300000Y-87475000D01*
G75*
G02*
X166050000Y-87725000I-250000J0D01*
G01*
X165550000Y-87725000D01*
G75*
G02*
X165300000Y-87475000I0J250000D01*
G01*
G37*
D10*
X178050000Y-110595000D03*
X172450000Y-110595000D03*
X178050000Y-111865000D03*
X172450000Y-111865000D03*
X178050000Y-113135000D03*
X172450000Y-113135000D03*
X178050000Y-114405000D03*
X172450000Y-114405000D03*
D14*
X167750000Y-132000000D03*
X165750000Y-132950000D03*
X165750000Y-131050000D03*
G36*
G01*
X159700000Y-95750001D02*
X159700000Y-94849999D01*
G75*
G02*
X159949999Y-94600000I249999J0D01*
G01*
X160475001Y-94600000D01*
G75*
G02*
X160725000Y-94849999I0J-249999D01*
G01*
X160725000Y-95750001D01*
G75*
G02*
X160475001Y-96000000I-249999J0D01*
G01*
X159949999Y-96000000D01*
G75*
G02*
X159700000Y-95750001I0J249999D01*
G01*
G37*
G36*
G01*
X157875000Y-95750001D02*
X157875000Y-94849999D01*
G75*
G02*
X158124999Y-94600000I249999J0D01*
G01*
X158650001Y-94600000D01*
G75*
G02*
X158900000Y-94849999I0J-249999D01*
G01*
X158900000Y-95750001D01*
G75*
G02*
X158650001Y-96000000I-249999J0D01*
G01*
X158124999Y-96000000D01*
G75*
G02*
X157875000Y-95750001I0J249999D01*
G01*
G37*
G36*
G01*
X167200000Y-108225000D02*
X167200000Y-107275000D01*
G75*
G02*
X167450000Y-107025000I250000J0D01*
G01*
X167950000Y-107025000D01*
G75*
G02*
X168200000Y-107275000I0J-250000D01*
G01*
X168200000Y-108225000D01*
G75*
G02*
X167950000Y-108475000I-250000J0D01*
G01*
X167450000Y-108475000D01*
G75*
G02*
X167200000Y-108225000I0J250000D01*
G01*
G37*
G36*
G01*
X165300000Y-108225000D02*
X165300000Y-107275000D01*
G75*
G02*
X165550000Y-107025000I250000J0D01*
G01*
X166050000Y-107025000D01*
G75*
G02*
X166300000Y-107275000I0J-250000D01*
G01*
X166300000Y-108225000D01*
G75*
G02*
X166050000Y-108475000I-250000J0D01*
G01*
X165550000Y-108475000D01*
G75*
G02*
X165300000Y-108225000I0J250000D01*
G01*
G37*
G36*
G01*
X162549999Y-124900000D02*
X163450001Y-124900000D01*
G75*
G02*
X163700000Y-125149999I0J-249999D01*
G01*
X163700000Y-125675001D01*
G75*
G02*
X163450001Y-125925000I-249999J0D01*
G01*
X162549999Y-125925000D01*
G75*
G02*
X162300000Y-125675001I0J249999D01*
G01*
X162300000Y-125149999D01*
G75*
G02*
X162549999Y-124900000I249999J0D01*
G01*
G37*
G36*
G01*
X162549999Y-123075000D02*
X163450001Y-123075000D01*
G75*
G02*
X163700000Y-123324999I0J-249999D01*
G01*
X163700000Y-123850001D01*
G75*
G02*
X163450001Y-124100000I-249999J0D01*
G01*
X162549999Y-124100000D01*
G75*
G02*
X162300000Y-123850001I0J249999D01*
G01*
X162300000Y-123324999D01*
G75*
G02*
X162549999Y-123075000I249999J0D01*
G01*
G37*
G36*
G01*
X167150000Y-111450001D02*
X167150000Y-110549999D01*
G75*
G02*
X167399999Y-110300000I249999J0D01*
G01*
X167925001Y-110300000D01*
G75*
G02*
X168175000Y-110549999I0J-249999D01*
G01*
X168175000Y-111450001D01*
G75*
G02*
X167925001Y-111700000I-249999J0D01*
G01*
X167399999Y-111700000D01*
G75*
G02*
X167150000Y-111450001I0J249999D01*
G01*
G37*
G36*
G01*
X165325000Y-111450001D02*
X165325000Y-110549999D01*
G75*
G02*
X165574999Y-110300000I249999J0D01*
G01*
X166100001Y-110300000D01*
G75*
G02*
X166350000Y-110549999I0J-249999D01*
G01*
X166350000Y-111450001D01*
G75*
G02*
X166100001Y-111700000I-249999J0D01*
G01*
X165574999Y-111700000D01*
G75*
G02*
X165325000Y-111450001I0J249999D01*
G01*
G37*
G36*
G01*
X159799999Y-129150000D02*
X160700001Y-129150000D01*
G75*
G02*
X160950000Y-129399999I0J-249999D01*
G01*
X160950000Y-129925001D01*
G75*
G02*
X160700001Y-130175000I-249999J0D01*
G01*
X159799999Y-130175000D01*
G75*
G02*
X159550000Y-129925001I0J249999D01*
G01*
X159550000Y-129399999D01*
G75*
G02*
X159799999Y-129150000I249999J0D01*
G01*
G37*
G36*
G01*
X159799999Y-127325000D02*
X160700001Y-127325000D01*
G75*
G02*
X160950000Y-127574999I0J-249999D01*
G01*
X160950000Y-128100001D01*
G75*
G02*
X160700001Y-128350000I-249999J0D01*
G01*
X159799999Y-128350000D01*
G75*
G02*
X159550000Y-128100001I0J249999D01*
G01*
X159550000Y-127574999D01*
G75*
G02*
X159799999Y-127325000I249999J0D01*
G01*
G37*
G36*
G01*
X162300000Y-107200001D02*
X162300000Y-106299999D01*
G75*
G02*
X162549999Y-106050000I249999J0D01*
G01*
X163075001Y-106050000D01*
G75*
G02*
X163325000Y-106299999I0J-249999D01*
G01*
X163325000Y-107200001D01*
G75*
G02*
X163075001Y-107450000I-249999J0D01*
G01*
X162549999Y-107450000D01*
G75*
G02*
X162300000Y-107200001I0J249999D01*
G01*
G37*
G36*
G01*
X160475000Y-107200001D02*
X160475000Y-106299999D01*
G75*
G02*
X160724999Y-106050000I249999J0D01*
G01*
X161250001Y-106050000D01*
G75*
G02*
X161500000Y-106299999I0J-249999D01*
G01*
X161500000Y-107200001D01*
G75*
G02*
X161250001Y-107450000I-249999J0D01*
G01*
X160724999Y-107450000D01*
G75*
G02*
X160475000Y-107200001I0J249999D01*
G01*
G37*
G36*
G01*
X166300000Y-127543750D02*
X166300000Y-128456250D01*
G75*
G02*
X166056250Y-128700000I-243750J0D01*
G01*
X165568750Y-128700000D01*
G75*
G02*
X165325000Y-128456250I0J243750D01*
G01*
X165325000Y-127543750D01*
G75*
G02*
X165568750Y-127300000I243750J0D01*
G01*
X166056250Y-127300000D01*
G75*
G02*
X166300000Y-127543750I0J-243750D01*
G01*
G37*
G36*
G01*
X168175000Y-127543750D02*
X168175000Y-128456250D01*
G75*
G02*
X167931250Y-128700000I-243750J0D01*
G01*
X167443750Y-128700000D01*
G75*
G02*
X167200000Y-128456250I0J243750D01*
G01*
X167200000Y-127543750D01*
G75*
G02*
X167443750Y-127300000I243750J0D01*
G01*
X167931250Y-127300000D01*
G75*
G02*
X168175000Y-127543750I0J-243750D01*
G01*
G37*
G36*
G01*
X166300000Y-113525000D02*
X166300000Y-114475000D01*
G75*
G02*
X166050000Y-114725000I-250000J0D01*
G01*
X165550000Y-114725000D01*
G75*
G02*
X165300000Y-114475000I0J250000D01*
G01*
X165300000Y-113525000D01*
G75*
G02*
X165550000Y-113275000I250000J0D01*
G01*
X166050000Y-113275000D01*
G75*
G02*
X166300000Y-113525000I0J-250000D01*
G01*
G37*
G36*
G01*
X168200000Y-113525000D02*
X168200000Y-114475000D01*
G75*
G02*
X167950000Y-114725000I-250000J0D01*
G01*
X167450000Y-114725000D01*
G75*
G02*
X167200000Y-114475000I0J250000D01*
G01*
X167200000Y-113525000D01*
G75*
G02*
X167450000Y-113275000I250000J0D01*
G01*
X167950000Y-113275000D01*
G75*
G02*
X168200000Y-113525000I0J-250000D01*
G01*
G37*
D15*
X160230000Y-110420000D03*
X160230000Y-119580000D03*
X162770000Y-110420000D03*
X162770000Y-119580000D03*
D10*
X119450000Y-114405000D03*
X125050000Y-114405000D03*
X119450000Y-113135000D03*
X125050000Y-113135000D03*
X119450000Y-111865000D03*
X125050000Y-111865000D03*
X119450000Y-110595000D03*
X125050000Y-110595000D03*
D14*
X129700000Y-120000000D03*
X131700000Y-119050000D03*
X131700000Y-120950000D03*
G36*
G01*
X130300000Y-113525000D02*
X130300000Y-114475000D01*
G75*
G02*
X130050000Y-114725000I-250000J0D01*
G01*
X129550000Y-114725000D01*
G75*
G02*
X129300000Y-114475000I0J250000D01*
G01*
X129300000Y-113525000D01*
G75*
G02*
X129550000Y-113275000I250000J0D01*
G01*
X130050000Y-113275000D01*
G75*
G02*
X130300000Y-113525000I0J-250000D01*
G01*
G37*
G36*
G01*
X132200000Y-113525000D02*
X132200000Y-114475000D01*
G75*
G02*
X131950000Y-114725000I-250000J0D01*
G01*
X131450000Y-114725000D01*
G75*
G02*
X131200000Y-114475000I0J250000D01*
G01*
X131200000Y-113525000D01*
G75*
G02*
X131450000Y-113275000I250000J0D01*
G01*
X131950000Y-113275000D01*
G75*
G02*
X132200000Y-113525000I0J-250000D01*
G01*
G37*
G36*
G01*
X130330000Y-110299999D02*
X130330000Y-111200001D01*
G75*
G02*
X130080001Y-111450000I-249999J0D01*
G01*
X129554999Y-111450000D01*
G75*
G02*
X129305000Y-111200001I0J249999D01*
G01*
X129305000Y-110299999D01*
G75*
G02*
X129554999Y-110050000I249999J0D01*
G01*
X130080001Y-110050000D01*
G75*
G02*
X130330000Y-110299999I0J-249999D01*
G01*
G37*
G36*
G01*
X132155000Y-110299999D02*
X132155000Y-111200001D01*
G75*
G02*
X131905001Y-111450000I-249999J0D01*
G01*
X131379999Y-111450000D01*
G75*
G02*
X131130000Y-111200001I0J249999D01*
G01*
X131130000Y-110299999D01*
G75*
G02*
X131379999Y-110050000I249999J0D01*
G01*
X131905001Y-110050000D01*
G75*
G02*
X132155000Y-110299999I0J-249999D01*
G01*
G37*
G36*
G01*
X137800000Y-105249999D02*
X137800000Y-106150001D01*
G75*
G02*
X137550001Y-106400000I-249999J0D01*
G01*
X137024999Y-106400000D01*
G75*
G02*
X136775000Y-106150001I0J249999D01*
G01*
X136775000Y-105249999D01*
G75*
G02*
X137024999Y-105000000I249999J0D01*
G01*
X137550001Y-105000000D01*
G75*
G02*
X137800000Y-105249999I0J-249999D01*
G01*
G37*
G36*
G01*
X139625000Y-105249999D02*
X139625000Y-106150001D01*
G75*
G02*
X139375001Y-106400000I-249999J0D01*
G01*
X138849999Y-106400000D01*
G75*
G02*
X138600000Y-106150001I0J249999D01*
G01*
X138600000Y-105249999D01*
G75*
G02*
X138849999Y-105000000I249999J0D01*
G01*
X139375001Y-105000000D01*
G75*
G02*
X139625000Y-105249999I0J-249999D01*
G01*
G37*
G36*
G01*
X131170000Y-124456250D02*
X131170000Y-123543750D01*
G75*
G02*
X131413750Y-123300000I243750J0D01*
G01*
X131901250Y-123300000D01*
G75*
G02*
X132145000Y-123543750I0J-243750D01*
G01*
X132145000Y-124456250D01*
G75*
G02*
X131901250Y-124700000I-243750J0D01*
G01*
X131413750Y-124700000D01*
G75*
G02*
X131170000Y-124456250I0J243750D01*
G01*
G37*
G36*
G01*
X129295000Y-124456250D02*
X129295000Y-123543750D01*
G75*
G02*
X129538750Y-123300000I243750J0D01*
G01*
X130026250Y-123300000D01*
G75*
G02*
X130270000Y-123543750I0J-243750D01*
G01*
X130270000Y-124456250D01*
G75*
G02*
X130026250Y-124700000I-243750J0D01*
G01*
X129538750Y-124700000D01*
G75*
G02*
X129295000Y-124456250I0J243750D01*
G01*
G37*
G36*
G01*
X131200000Y-108225000D02*
X131200000Y-107275000D01*
G75*
G02*
X131450000Y-107025000I250000J0D01*
G01*
X131950000Y-107025000D01*
G75*
G02*
X132200000Y-107275000I0J-250000D01*
G01*
X132200000Y-108225000D01*
G75*
G02*
X131950000Y-108475000I-250000J0D01*
G01*
X131450000Y-108475000D01*
G75*
G02*
X131200000Y-108225000I0J250000D01*
G01*
G37*
G36*
G01*
X129300000Y-108225000D02*
X129300000Y-107275000D01*
G75*
G02*
X129550000Y-107025000I250000J0D01*
G01*
X130050000Y-107025000D01*
G75*
G02*
X130300000Y-107275000I0J-250000D01*
G01*
X130300000Y-108225000D01*
G75*
G02*
X130050000Y-108475000I-250000J0D01*
G01*
X129550000Y-108475000D01*
G75*
G02*
X129300000Y-108225000I0J250000D01*
G01*
G37*
D15*
X134730000Y-109420000D03*
X134730000Y-118580000D03*
X137270000Y-109420000D03*
X137270000Y-118580000D03*
X137270000Y-90580000D03*
X137270000Y-81420000D03*
X134730000Y-90580000D03*
X134730000Y-81420000D03*
G36*
G01*
X155850001Y-111700000D02*
X154949999Y-111700000D01*
G75*
G02*
X154700000Y-111450001I0J249999D01*
G01*
X154700000Y-110924999D01*
G75*
G02*
X154949999Y-110675000I249999J0D01*
G01*
X155850001Y-110675000D01*
G75*
G02*
X156100000Y-110924999I0J-249999D01*
G01*
X156100000Y-111450001D01*
G75*
G02*
X155850001Y-111700000I-249999J0D01*
G01*
G37*
G36*
G01*
X155850001Y-113525000D02*
X154949999Y-113525000D01*
G75*
G02*
X154700000Y-113275001I0J249999D01*
G01*
X154700000Y-112749999D01*
G75*
G02*
X154949999Y-112500000I249999J0D01*
G01*
X155850001Y-112500000D01*
G75*
G02*
X156100000Y-112749999I0J-249999D01*
G01*
X156100000Y-113275001D01*
G75*
G02*
X155850001Y-113525000I-249999J0D01*
G01*
G37*
G36*
G01*
X154949999Y-117000000D02*
X155850001Y-117000000D01*
G75*
G02*
X156100000Y-117249999I0J-249999D01*
G01*
X156100000Y-117775001D01*
G75*
G02*
X155850001Y-118025000I-249999J0D01*
G01*
X154949999Y-118025000D01*
G75*
G02*
X154700000Y-117775001I0J249999D01*
G01*
X154700000Y-117249999D01*
G75*
G02*
X154949999Y-117000000I249999J0D01*
G01*
G37*
G36*
G01*
X154949999Y-115175000D02*
X155850001Y-115175000D01*
G75*
G02*
X156100000Y-115424999I0J-249999D01*
G01*
X156100000Y-115950001D01*
G75*
G02*
X155850001Y-116200000I-249999J0D01*
G01*
X154949999Y-116200000D01*
G75*
G02*
X154700000Y-115950001I0J249999D01*
G01*
X154700000Y-115424999D01*
G75*
G02*
X154949999Y-115175000I249999J0D01*
G01*
G37*
G36*
G01*
X157299999Y-83400000D02*
X158200001Y-83400000D01*
G75*
G02*
X158450000Y-83649999I0J-249999D01*
G01*
X158450000Y-84175001D01*
G75*
G02*
X158200001Y-84425000I-249999J0D01*
G01*
X157299999Y-84425000D01*
G75*
G02*
X157050000Y-84175001I0J249999D01*
G01*
X157050000Y-83649999D01*
G75*
G02*
X157299999Y-83400000I249999J0D01*
G01*
G37*
G36*
G01*
X157299999Y-81575000D02*
X158200001Y-81575000D01*
G75*
G02*
X158450000Y-81824999I0J-249999D01*
G01*
X158450000Y-82350001D01*
G75*
G02*
X158200001Y-82600000I-249999J0D01*
G01*
X157299999Y-82600000D01*
G75*
G02*
X157050000Y-82350001I0J249999D01*
G01*
X157050000Y-81824999D01*
G75*
G02*
X157299999Y-81575000I249999J0D01*
G01*
G37*
G36*
G01*
X146949999Y-112500000D02*
X147850001Y-112500000D01*
G75*
G02*
X148100000Y-112749999I0J-249999D01*
G01*
X148100000Y-113275001D01*
G75*
G02*
X147850001Y-113525000I-249999J0D01*
G01*
X146949999Y-113525000D01*
G75*
G02*
X146700000Y-113275001I0J249999D01*
G01*
X146700000Y-112749999D01*
G75*
G02*
X146949999Y-112500000I249999J0D01*
G01*
G37*
G36*
G01*
X146949999Y-110675000D02*
X147850001Y-110675000D01*
G75*
G02*
X148100000Y-110924999I0J-249999D01*
G01*
X148100000Y-111450001D01*
G75*
G02*
X147850001Y-111700000I-249999J0D01*
G01*
X146949999Y-111700000D01*
G75*
G02*
X146700000Y-111450001I0J249999D01*
G01*
X146700000Y-110924999D01*
G75*
G02*
X146949999Y-110675000I249999J0D01*
G01*
G37*
G36*
G01*
X146949999Y-117000000D02*
X147850001Y-117000000D01*
G75*
G02*
X148100000Y-117249999I0J-249999D01*
G01*
X148100000Y-117775001D01*
G75*
G02*
X147850001Y-118025000I-249999J0D01*
G01*
X146949999Y-118025000D01*
G75*
G02*
X146700000Y-117775001I0J249999D01*
G01*
X146700000Y-117249999D01*
G75*
G02*
X146949999Y-117000000I249999J0D01*
G01*
G37*
G36*
G01*
X146949999Y-115175000D02*
X147850001Y-115175000D01*
G75*
G02*
X148100000Y-115424999I0J-249999D01*
G01*
X148100000Y-115950001D01*
G75*
G02*
X147850001Y-116200000I-249999J0D01*
G01*
X146949999Y-116200000D01*
G75*
G02*
X146700000Y-115950001I0J249999D01*
G01*
X146700000Y-115424999D01*
G75*
G02*
X146949999Y-115175000I249999J0D01*
G01*
G37*
G36*
G01*
X130350000Y-89549999D02*
X130350000Y-90450001D01*
G75*
G02*
X130100001Y-90700000I-249999J0D01*
G01*
X129574999Y-90700000D01*
G75*
G02*
X129325000Y-90450001I0J249999D01*
G01*
X129325000Y-89549999D01*
G75*
G02*
X129574999Y-89300000I249999J0D01*
G01*
X130100001Y-89300000D01*
G75*
G02*
X130350000Y-89549999I0J-249999D01*
G01*
G37*
G36*
G01*
X132175000Y-89549999D02*
X132175000Y-90450001D01*
G75*
G02*
X131925001Y-90700000I-249999J0D01*
G01*
X131399999Y-90700000D01*
G75*
G02*
X131150000Y-90450001I0J249999D01*
G01*
X131150000Y-89549999D01*
G75*
G02*
X131399999Y-89300000I249999J0D01*
G01*
X131925001Y-89300000D01*
G75*
G02*
X132175000Y-89549999I0J-249999D01*
G01*
G37*
G36*
G01*
X134950001Y-76100000D02*
X134049999Y-76100000D01*
G75*
G02*
X133800000Y-75850001I0J249999D01*
G01*
X133800000Y-75324999D01*
G75*
G02*
X134049999Y-75075000I249999J0D01*
G01*
X134950001Y-75075000D01*
G75*
G02*
X135200000Y-75324999I0J-249999D01*
G01*
X135200000Y-75850001D01*
G75*
G02*
X134950001Y-76100000I-249999J0D01*
G01*
G37*
G36*
G01*
X134950001Y-77925000D02*
X134049999Y-77925000D01*
G75*
G02*
X133800000Y-77675001I0J249999D01*
G01*
X133800000Y-77149999D01*
G75*
G02*
X134049999Y-76900000I249999J0D01*
G01*
X134950001Y-76900000D01*
G75*
G02*
X135200000Y-77149999I0J-249999D01*
G01*
X135200000Y-77675001D01*
G75*
G02*
X134950001Y-77925000I-249999J0D01*
G01*
G37*
G36*
G01*
X135200000Y-93799999D02*
X135200000Y-94700001D01*
G75*
G02*
X134950001Y-94950000I-249999J0D01*
G01*
X134424999Y-94950000D01*
G75*
G02*
X134175000Y-94700001I0J249999D01*
G01*
X134175000Y-93799999D01*
G75*
G02*
X134424999Y-93550000I249999J0D01*
G01*
X134950001Y-93550000D01*
G75*
G02*
X135200000Y-93799999I0J-249999D01*
G01*
G37*
G36*
G01*
X137025000Y-93799999D02*
X137025000Y-94700001D01*
G75*
G02*
X136775001Y-94950000I-249999J0D01*
G01*
X136249999Y-94950000D01*
G75*
G02*
X136000000Y-94700001I0J249999D01*
G01*
X136000000Y-93799999D01*
G75*
G02*
X136249999Y-93550000I249999J0D01*
G01*
X136775001Y-93550000D01*
G75*
G02*
X137025000Y-93799999I0J-249999D01*
G01*
G37*
D14*
X152400000Y-112100000D03*
X150400000Y-113050000D03*
X150400000Y-111150000D03*
X152400000Y-116600000D03*
X150400000Y-117550000D03*
X150400000Y-115650000D03*
G36*
G01*
X131200000Y-73456250D02*
X131200000Y-72543750D01*
G75*
G02*
X131443750Y-72300000I243750J0D01*
G01*
X131931250Y-72300000D01*
G75*
G02*
X132175000Y-72543750I0J-243750D01*
G01*
X132175000Y-73456250D01*
G75*
G02*
X131931250Y-73700000I-243750J0D01*
G01*
X131443750Y-73700000D01*
G75*
G02*
X131200000Y-73456250I0J243750D01*
G01*
G37*
G36*
G01*
X129325000Y-73456250D02*
X129325000Y-72543750D01*
G75*
G02*
X129568750Y-72300000I243750J0D01*
G01*
X130056250Y-72300000D01*
G75*
G02*
X130300000Y-72543750I0J-243750D01*
G01*
X130300000Y-73456250D01*
G75*
G02*
X130056250Y-73700000I-243750J0D01*
G01*
X129568750Y-73700000D01*
G75*
G02*
X129325000Y-73456250I0J243750D01*
G01*
G37*
G36*
G01*
X140775000Y-85950000D02*
X139825000Y-85950000D01*
G75*
G02*
X139575000Y-85700000I0J250000D01*
G01*
X139575000Y-85200000D01*
G75*
G02*
X139825000Y-84950000I250000J0D01*
G01*
X140775000Y-84950000D01*
G75*
G02*
X141025000Y-85200000I0J-250000D01*
G01*
X141025000Y-85700000D01*
G75*
G02*
X140775000Y-85950000I-250000J0D01*
G01*
G37*
G36*
G01*
X140775000Y-87850000D02*
X139825000Y-87850000D01*
G75*
G02*
X139575000Y-87600000I0J250000D01*
G01*
X139575000Y-87100000D01*
G75*
G02*
X139825000Y-86850000I250000J0D01*
G01*
X140775000Y-86850000D01*
G75*
G02*
X141025000Y-87100000I0J-250000D01*
G01*
X141025000Y-87600000D01*
G75*
G02*
X140775000Y-87850000I-250000J0D01*
G01*
G37*
G36*
G01*
X151450000Y-90975000D02*
X151450000Y-90025000D01*
G75*
G02*
X151700000Y-89775000I250000J0D01*
G01*
X152200000Y-89775000D01*
G75*
G02*
X152450000Y-90025000I0J-250000D01*
G01*
X152450000Y-90975000D01*
G75*
G02*
X152200000Y-91225000I-250000J0D01*
G01*
X151700000Y-91225000D01*
G75*
G02*
X151450000Y-90975000I0J250000D01*
G01*
G37*
G36*
G01*
X149550000Y-90975000D02*
X149550000Y-90025000D01*
G75*
G02*
X149800000Y-89775000I250000J0D01*
G01*
X150300000Y-89775000D01*
G75*
G02*
X150550000Y-90025000I0J-250000D01*
G01*
X150550000Y-90975000D01*
G75*
G02*
X150300000Y-91225000I-250000J0D01*
G01*
X149800000Y-91225000D01*
G75*
G02*
X149550000Y-90975000I0J250000D01*
G01*
G37*
G36*
G01*
X131200000Y-87475000D02*
X131200000Y-86525000D01*
G75*
G02*
X131450000Y-86275000I250000J0D01*
G01*
X131950000Y-86275000D01*
G75*
G02*
X132200000Y-86525000I0J-250000D01*
G01*
X132200000Y-87475000D01*
G75*
G02*
X131950000Y-87725000I-250000J0D01*
G01*
X131450000Y-87725000D01*
G75*
G02*
X131200000Y-87475000I0J250000D01*
G01*
G37*
G36*
G01*
X129300000Y-87475000D02*
X129300000Y-86525000D01*
G75*
G02*
X129550000Y-86275000I250000J0D01*
G01*
X130050000Y-86275000D01*
G75*
G02*
X130300000Y-86525000I0J-250000D01*
G01*
X130300000Y-87475000D01*
G75*
G02*
X130050000Y-87725000I-250000J0D01*
G01*
X129550000Y-87725000D01*
G75*
G02*
X129300000Y-87475000I0J250000D01*
G01*
G37*
G36*
G01*
X130300000Y-92775000D02*
X130300000Y-93725000D01*
G75*
G02*
X130050000Y-93975000I-250000J0D01*
G01*
X129550000Y-93975000D01*
G75*
G02*
X129300000Y-93725000I0J250000D01*
G01*
X129300000Y-92775000D01*
G75*
G02*
X129550000Y-92525000I250000J0D01*
G01*
X130050000Y-92525000D01*
G75*
G02*
X130300000Y-92775000I0J-250000D01*
G01*
G37*
G36*
G01*
X132200000Y-92775000D02*
X132200000Y-93725000D01*
G75*
G02*
X131950000Y-93975000I-250000J0D01*
G01*
X131450000Y-93975000D01*
G75*
G02*
X131200000Y-93725000I0J250000D01*
G01*
X131200000Y-92775000D01*
G75*
G02*
X131450000Y-92525000I250000J0D01*
G01*
X131950000Y-92525000D01*
G75*
G02*
X132200000Y-92775000I0J-250000D01*
G01*
G37*
X129750000Y-69000000D03*
X131750000Y-68050000D03*
X131750000Y-69950000D03*
G36*
G01*
X162350001Y-73400000D02*
X161449999Y-73400000D01*
G75*
G02*
X161200000Y-73150001I0J249999D01*
G01*
X161200000Y-72624999D01*
G75*
G02*
X161449999Y-72375000I249999J0D01*
G01*
X162350001Y-72375000D01*
G75*
G02*
X162600000Y-72624999I0J-249999D01*
G01*
X162600000Y-73150001D01*
G75*
G02*
X162350001Y-73400000I-249999J0D01*
G01*
G37*
G36*
G01*
X162350001Y-75225000D02*
X161449999Y-75225000D01*
G75*
G02*
X161200000Y-74975001I0J249999D01*
G01*
X161200000Y-74449999D01*
G75*
G02*
X161449999Y-74200000I249999J0D01*
G01*
X162350001Y-74200000D01*
G75*
G02*
X162600000Y-74449999I0J-249999D01*
G01*
X162600000Y-74975001D01*
G75*
G02*
X162350001Y-75225000I-249999J0D01*
G01*
G37*
M02*
