M48
INCH,TZ
T1C0.0157
T2C0.0374
T3C0.0394
T4C0.0512
%
G90
G05
T1
X51102Y-41614
X51329Y-33219
X51850Y-46220
X51870Y-37992
X51870Y-41634
X52598Y-26772
X53031Y-44094
X53600Y-34589
X53815Y-29693
X54291Y-50827
X54390Y-37106
X54961Y-50079
X55126Y-33035
X55610Y-35925
X56772Y-33287
X57283Y-35945
X57707Y-34083
X57717Y-32913
X57992Y-41693
X58465Y-35039
X58642Y-43760
X58642Y-45531
X58661Y-37126
X59134Y-41260
X59173Y-33110
X59646Y-34134
X60720Y-35295
X60827Y-35748
X61181Y-45020
X61220Y-38425
X61319Y-32480
X62411Y-39557
X62524Y-28693
X63020Y-34843
X63071Y-27913
X63071Y-33189
X63453Y-49520
X63526Y-44545
X63701Y-35197
X64528Y-52362
X65256Y-37500
X65256Y-41142
X65276Y-32913
X65797Y-45915
X66024Y-37520
T2
X56394Y-27933
X56394Y-30906
X56394Y-48661
X56394Y-51614
X57394Y-27933
X57394Y-30906
X57394Y-48661
X57394Y-51614
X58394Y-27933
X58394Y-30906
X58394Y-48661
X58394Y-51614
X59394Y-27933
X59394Y-30906
X59394Y-48661
X59394Y-51614
X60394Y-27933
X60394Y-30906
X60394Y-48661
X60394Y-51614
T3
X48189Y-27146
X48189Y-31870
X48189Y-47224
X48189Y-51949
X68937Y-27185
X68937Y-31909
X68937Y-47264
X68937Y-51988
T4
X43366Y-31890
X43366Y-51969
X43386Y-27146
X43386Y-47224
X43681Y-34252
X43681Y-36220
X43681Y-38189
X43701Y-40945
X43701Y-42913
X43701Y-44882
X48957Y-29528
X48957Y-49606
X68169Y-29528
X68169Y-49606
X73425Y-34252
X73425Y-36220
X73425Y-38189
X73445Y-40945
X73445Y-42913
X73445Y-44882
X73740Y-31909
X73740Y-51988
X73760Y-27165
X73760Y-47244
T0
M30
