G04 #@! TF.GenerationSoftware,KiCad,Pcbnew,5.1.10*
G04 #@! TF.CreationDate,2021-06-18T04:30:29+02:00*
G04 #@! TF.ProjectId,power-extender,706f7765-722d-4657-9874-656e6465722e,1*
G04 #@! TF.SameCoordinates,Original*
G04 #@! TF.FileFunction,Legend,Bot*
G04 #@! TF.FilePolarity,Positive*
%FSLAX46Y46*%
G04 Gerber Fmt 4.6, Leading zero omitted, Abs format (unit mm)*
G04 Created by KiCad (PCBNEW 5.1.10) date 2021-06-18 04:30:29*
%MOMM*%
%LPD*%
G01*
G04 APERTURE LIST*
%ADD10C,0.150000*%
%ADD11C,0.010000*%
G04 APERTURE END LIST*
D10*
X166714285Y-110702380D02*
X166714285Y-109702380D01*
X166285714Y-110702380D02*
X166285714Y-110178571D01*
X166333333Y-110083333D01*
X166428571Y-110035714D01*
X166571428Y-110035714D01*
X166666666Y-110083333D01*
X166714285Y-110130952D01*
X165952380Y-110035714D02*
X165571428Y-110035714D01*
X165809523Y-109702380D02*
X165809523Y-110559523D01*
X165761904Y-110654761D01*
X165666666Y-110702380D01*
X165571428Y-110702380D01*
X165380952Y-110035714D02*
X165000000Y-110035714D01*
X165238095Y-109702380D02*
X165238095Y-110559523D01*
X165190476Y-110654761D01*
X165095238Y-110702380D01*
X165000000Y-110702380D01*
X164666666Y-110035714D02*
X164666666Y-111035714D01*
X164666666Y-110083333D02*
X164571428Y-110035714D01*
X164380952Y-110035714D01*
X164285714Y-110083333D01*
X164238095Y-110130952D01*
X164190476Y-110226190D01*
X164190476Y-110511904D01*
X164238095Y-110607142D01*
X164285714Y-110654761D01*
X164380952Y-110702380D01*
X164571428Y-110702380D01*
X164666666Y-110654761D01*
X163809523Y-110654761D02*
X163714285Y-110702380D01*
X163523809Y-110702380D01*
X163428571Y-110654761D01*
X163380952Y-110559523D01*
X163380952Y-110511904D01*
X163428571Y-110416666D01*
X163523809Y-110369047D01*
X163666666Y-110369047D01*
X163761904Y-110321428D01*
X163809523Y-110226190D01*
X163809523Y-110178571D01*
X163761904Y-110083333D01*
X163666666Y-110035714D01*
X163523809Y-110035714D01*
X163428571Y-110083333D01*
X162952380Y-110607142D02*
X162904761Y-110654761D01*
X162952380Y-110702380D01*
X163000000Y-110654761D01*
X162952380Y-110607142D01*
X162952380Y-110702380D01*
X162952380Y-110083333D02*
X162904761Y-110130952D01*
X162952380Y-110178571D01*
X163000000Y-110130952D01*
X162952380Y-110083333D01*
X162952380Y-110178571D01*
X161761904Y-109654761D02*
X162619047Y-110940476D01*
X160714285Y-109654761D02*
X161571428Y-110940476D01*
X159952380Y-110035714D02*
X159952380Y-110845238D01*
X160000000Y-110940476D01*
X160047619Y-110988095D01*
X160142857Y-111035714D01*
X160285714Y-111035714D01*
X160380952Y-110988095D01*
X159952380Y-110654761D02*
X160047619Y-110702380D01*
X160238095Y-110702380D01*
X160333333Y-110654761D01*
X160380952Y-110607142D01*
X160428571Y-110511904D01*
X160428571Y-110226190D01*
X160380952Y-110130952D01*
X160333333Y-110083333D01*
X160238095Y-110035714D01*
X160047619Y-110035714D01*
X159952380Y-110083333D01*
X159476190Y-110702380D02*
X159476190Y-110035714D01*
X159476190Y-109702380D02*
X159523809Y-109750000D01*
X159476190Y-109797619D01*
X159428571Y-109750000D01*
X159476190Y-109702380D01*
X159476190Y-109797619D01*
X159142857Y-110035714D02*
X158761904Y-110035714D01*
X159000000Y-109702380D02*
X159000000Y-110559523D01*
X158952380Y-110654761D01*
X158857142Y-110702380D01*
X158761904Y-110702380D01*
X158428571Y-110702380D02*
X158428571Y-109702380D01*
X158000000Y-110702380D02*
X158000000Y-110178571D01*
X158047619Y-110083333D01*
X158142857Y-110035714D01*
X158285714Y-110035714D01*
X158380952Y-110083333D01*
X158428571Y-110130952D01*
X157095238Y-110035714D02*
X157095238Y-110702380D01*
X157523809Y-110035714D02*
X157523809Y-110559523D01*
X157476190Y-110654761D01*
X157380952Y-110702380D01*
X157238095Y-110702380D01*
X157142857Y-110654761D01*
X157095238Y-110607142D01*
X156619047Y-110702380D02*
X156619047Y-109702380D01*
X156619047Y-110083333D02*
X156523809Y-110035714D01*
X156333333Y-110035714D01*
X156238095Y-110083333D01*
X156190476Y-110130952D01*
X156142857Y-110226190D01*
X156142857Y-110511904D01*
X156190476Y-110607142D01*
X156238095Y-110654761D01*
X156333333Y-110702380D01*
X156523809Y-110702380D01*
X156619047Y-110654761D01*
X155714285Y-110607142D02*
X155666666Y-110654761D01*
X155714285Y-110702380D01*
X155761904Y-110654761D01*
X155714285Y-110607142D01*
X155714285Y-110702380D01*
X154809523Y-110654761D02*
X154904761Y-110702380D01*
X155095238Y-110702380D01*
X155190476Y-110654761D01*
X155238095Y-110607142D01*
X155285714Y-110511904D01*
X155285714Y-110226190D01*
X155238095Y-110130952D01*
X155190476Y-110083333D01*
X155095238Y-110035714D01*
X154904761Y-110035714D01*
X154809523Y-110083333D01*
X154238095Y-110702380D02*
X154333333Y-110654761D01*
X154380952Y-110607142D01*
X154428571Y-110511904D01*
X154428571Y-110226190D01*
X154380952Y-110130952D01*
X154333333Y-110083333D01*
X154238095Y-110035714D01*
X154095238Y-110035714D01*
X154000000Y-110083333D01*
X153952380Y-110130952D01*
X153904761Y-110226190D01*
X153904761Y-110511904D01*
X153952380Y-110607142D01*
X154000000Y-110654761D01*
X154095238Y-110702380D01*
X154238095Y-110702380D01*
X153476190Y-110702380D02*
X153476190Y-110035714D01*
X153476190Y-110130952D02*
X153428571Y-110083333D01*
X153333333Y-110035714D01*
X153190476Y-110035714D01*
X153095238Y-110083333D01*
X153047619Y-110178571D01*
X153047619Y-110702380D01*
X153047619Y-110178571D02*
X153000000Y-110083333D01*
X152904761Y-110035714D01*
X152761904Y-110035714D01*
X152666666Y-110083333D01*
X152619047Y-110178571D01*
X152619047Y-110702380D01*
X151428571Y-109654761D02*
X152285714Y-110940476D01*
X151142857Y-110654761D02*
X151000000Y-110702380D01*
X150761904Y-110702380D01*
X150666666Y-110654761D01*
X150619047Y-110607142D01*
X150571428Y-110511904D01*
X150571428Y-110416666D01*
X150619047Y-110321428D01*
X150666666Y-110273809D01*
X150761904Y-110226190D01*
X150952380Y-110178571D01*
X151047619Y-110130952D01*
X151095238Y-110083333D01*
X151142857Y-109988095D01*
X151142857Y-109892857D01*
X151095238Y-109797619D01*
X151047619Y-109750000D01*
X150952380Y-109702380D01*
X150714285Y-109702380D01*
X150571428Y-109750000D01*
X150285714Y-110035714D02*
X149904761Y-110035714D01*
X150142857Y-109702380D02*
X150142857Y-110559523D01*
X150095238Y-110654761D01*
X150000000Y-110702380D01*
X149904761Y-110702380D01*
X149142857Y-110702380D02*
X149142857Y-110178571D01*
X149190476Y-110083333D01*
X149285714Y-110035714D01*
X149476190Y-110035714D01*
X149571428Y-110083333D01*
X149142857Y-110654761D02*
X149238095Y-110702380D01*
X149476190Y-110702380D01*
X149571428Y-110654761D01*
X149619047Y-110559523D01*
X149619047Y-110464285D01*
X149571428Y-110369047D01*
X149476190Y-110321428D01*
X149238095Y-110321428D01*
X149142857Y-110273809D01*
X148666666Y-110702380D02*
X148666666Y-110035714D01*
X148666666Y-110226190D02*
X148619047Y-110130952D01*
X148571428Y-110083333D01*
X148476190Y-110035714D01*
X148380952Y-110035714D01*
X147523809Y-109750000D02*
X147619047Y-109702380D01*
X147761904Y-109702380D01*
X147904761Y-109750000D01*
X148000000Y-109845238D01*
X148047619Y-109940476D01*
X148095238Y-110130952D01*
X148095238Y-110273809D01*
X148047619Y-110464285D01*
X148000000Y-110559523D01*
X147904761Y-110654761D01*
X147761904Y-110702380D01*
X147666666Y-110702380D01*
X147523809Y-110654761D01*
X147476190Y-110607142D01*
X147476190Y-110273809D01*
X147666666Y-110273809D01*
X146619047Y-110702380D02*
X146619047Y-110178571D01*
X146666666Y-110083333D01*
X146761904Y-110035714D01*
X146952380Y-110035714D01*
X147047619Y-110083333D01*
X146619047Y-110654761D02*
X146714285Y-110702380D01*
X146952380Y-110702380D01*
X147047619Y-110654761D01*
X147095238Y-110559523D01*
X147095238Y-110464285D01*
X147047619Y-110369047D01*
X146952380Y-110321428D01*
X146714285Y-110321428D01*
X146619047Y-110273809D01*
X146285714Y-110035714D02*
X145904761Y-110035714D01*
X146142857Y-109702380D02*
X146142857Y-110559523D01*
X146095238Y-110654761D01*
X146000000Y-110702380D01*
X145904761Y-110702380D01*
X145190476Y-110654761D02*
X145285714Y-110702380D01*
X145476190Y-110702380D01*
X145571428Y-110654761D01*
X145619047Y-110559523D01*
X145619047Y-110178571D01*
X145571428Y-110083333D01*
X145476190Y-110035714D01*
X145285714Y-110035714D01*
X145190476Y-110083333D01*
X145142857Y-110178571D01*
X145142857Y-110273809D01*
X145619047Y-110369047D01*
X144523809Y-109702380D02*
X144428571Y-109702380D01*
X144333333Y-109750000D01*
X144285714Y-109797619D01*
X144238095Y-109892857D01*
X144190476Y-110083333D01*
X144190476Y-110321428D01*
X144238095Y-110511904D01*
X144285714Y-110607142D01*
X144333333Y-110654761D01*
X144428571Y-110702380D01*
X144523809Y-110702380D01*
X144619047Y-110654761D01*
X144666666Y-110607142D01*
X144714285Y-110511904D01*
X144761904Y-110321428D01*
X144761904Y-110083333D01*
X144714285Y-109892857D01*
X144666666Y-109797619D01*
X144619047Y-109750000D01*
X144523809Y-109702380D01*
X143238095Y-110702380D02*
X143809523Y-110702380D01*
X143523809Y-110702380D02*
X143523809Y-109702380D01*
X143619047Y-109845238D01*
X143714285Y-109940476D01*
X143809523Y-109988095D01*
X142095238Y-109654761D02*
X142952380Y-110940476D01*
X141761904Y-110035714D02*
X141761904Y-111035714D01*
X141761904Y-110083333D02*
X141666666Y-110035714D01*
X141476190Y-110035714D01*
X141380952Y-110083333D01*
X141333333Y-110130952D01*
X141285714Y-110226190D01*
X141285714Y-110511904D01*
X141333333Y-110607142D01*
X141380952Y-110654761D01*
X141476190Y-110702380D01*
X141666666Y-110702380D01*
X141761904Y-110654761D01*
X140714285Y-110702380D02*
X140809523Y-110654761D01*
X140857142Y-110607142D01*
X140904761Y-110511904D01*
X140904761Y-110226190D01*
X140857142Y-110130952D01*
X140809523Y-110083333D01*
X140714285Y-110035714D01*
X140571428Y-110035714D01*
X140476190Y-110083333D01*
X140428571Y-110130952D01*
X140380952Y-110226190D01*
X140380952Y-110511904D01*
X140428571Y-110607142D01*
X140476190Y-110654761D01*
X140571428Y-110702380D01*
X140714285Y-110702380D01*
X140047619Y-110035714D02*
X139857142Y-110702380D01*
X139666666Y-110226190D01*
X139476190Y-110702380D01*
X139285714Y-110035714D01*
X138523809Y-110654761D02*
X138619047Y-110702380D01*
X138809523Y-110702380D01*
X138904761Y-110654761D01*
X138952380Y-110559523D01*
X138952380Y-110178571D01*
X138904761Y-110083333D01*
X138809523Y-110035714D01*
X138619047Y-110035714D01*
X138523809Y-110083333D01*
X138476190Y-110178571D01*
X138476190Y-110273809D01*
X138952380Y-110369047D01*
X138047619Y-110702380D02*
X138047619Y-110035714D01*
X138047619Y-110226190D02*
X138000000Y-110130952D01*
X137952380Y-110083333D01*
X137857142Y-110035714D01*
X137761904Y-110035714D01*
X137428571Y-110321428D02*
X136666666Y-110321428D01*
X135809523Y-110654761D02*
X135904761Y-110702380D01*
X136095238Y-110702380D01*
X136190476Y-110654761D01*
X136238095Y-110559523D01*
X136238095Y-110178571D01*
X136190476Y-110083333D01*
X136095238Y-110035714D01*
X135904761Y-110035714D01*
X135809523Y-110083333D01*
X135761904Y-110178571D01*
X135761904Y-110273809D01*
X136238095Y-110369047D01*
X135428571Y-110702380D02*
X134904761Y-110035714D01*
X135428571Y-110035714D02*
X134904761Y-110702380D01*
X134666666Y-110035714D02*
X134285714Y-110035714D01*
X134523809Y-109702380D02*
X134523809Y-110559523D01*
X134476190Y-110654761D01*
X134380952Y-110702380D01*
X134285714Y-110702380D01*
X133571428Y-110654761D02*
X133666666Y-110702380D01*
X133857142Y-110702380D01*
X133952380Y-110654761D01*
X134000000Y-110559523D01*
X134000000Y-110178571D01*
X133952380Y-110083333D01*
X133857142Y-110035714D01*
X133666666Y-110035714D01*
X133571428Y-110083333D01*
X133523809Y-110178571D01*
X133523809Y-110273809D01*
X134000000Y-110369047D01*
X133095238Y-110035714D02*
X133095238Y-110702380D01*
X133095238Y-110130952D02*
X133047619Y-110083333D01*
X132952380Y-110035714D01*
X132809523Y-110035714D01*
X132714285Y-110083333D01*
X132666666Y-110178571D01*
X132666666Y-110702380D01*
X131761904Y-110702380D02*
X131761904Y-109702380D01*
X131761904Y-110654761D02*
X131857142Y-110702380D01*
X132047619Y-110702380D01*
X132142857Y-110654761D01*
X132190476Y-110607142D01*
X132238095Y-110511904D01*
X132238095Y-110226190D01*
X132190476Y-110130952D01*
X132142857Y-110083333D01*
X132047619Y-110035714D01*
X131857142Y-110035714D01*
X131761904Y-110083333D01*
X130904761Y-110654761D02*
X131000000Y-110702380D01*
X131190476Y-110702380D01*
X131285714Y-110654761D01*
X131333333Y-110559523D01*
X131333333Y-110178571D01*
X131285714Y-110083333D01*
X131190476Y-110035714D01*
X131000000Y-110035714D01*
X130904761Y-110083333D01*
X130857142Y-110178571D01*
X130857142Y-110273809D01*
X131333333Y-110369047D01*
X130428571Y-110702380D02*
X130428571Y-110035714D01*
X130428571Y-110226190D02*
X130380952Y-110130952D01*
X130333333Y-110083333D01*
X130238095Y-110035714D01*
X130142857Y-110035714D01*
X160995238Y-87948809D02*
X160995238Y-86348809D01*
X160385714Y-86348809D01*
X160233333Y-86425000D01*
X160157142Y-86501190D01*
X160080952Y-86653571D01*
X160080952Y-86882142D01*
X160157142Y-87034523D01*
X160233333Y-87110714D01*
X160385714Y-87186904D01*
X160995238Y-87186904D01*
X159166666Y-87948809D02*
X159319047Y-87872619D01*
X159395238Y-87796428D01*
X159471428Y-87644047D01*
X159471428Y-87186904D01*
X159395238Y-87034523D01*
X159319047Y-86958333D01*
X159166666Y-86882142D01*
X158938095Y-86882142D01*
X158785714Y-86958333D01*
X158709523Y-87034523D01*
X158633333Y-87186904D01*
X158633333Y-87644047D01*
X158709523Y-87796428D01*
X158785714Y-87872619D01*
X158938095Y-87948809D01*
X159166666Y-87948809D01*
X158100000Y-86882142D02*
X157795238Y-87948809D01*
X157490476Y-87186904D01*
X157185714Y-87948809D01*
X156880952Y-86882142D01*
X155661904Y-87872619D02*
X155814285Y-87948809D01*
X156119047Y-87948809D01*
X156271428Y-87872619D01*
X156347619Y-87720238D01*
X156347619Y-87110714D01*
X156271428Y-86958333D01*
X156119047Y-86882142D01*
X155814285Y-86882142D01*
X155661904Y-86958333D01*
X155585714Y-87110714D01*
X155585714Y-87263095D01*
X156347619Y-87415476D01*
X154900000Y-87948809D02*
X154900000Y-86882142D01*
X154900000Y-87186904D02*
X154823809Y-87034523D01*
X154747619Y-86958333D01*
X154595238Y-86882142D01*
X154442857Y-86882142D01*
X152690476Y-87110714D02*
X152157142Y-87110714D01*
X151928571Y-87948809D02*
X152690476Y-87948809D01*
X152690476Y-86348809D01*
X151928571Y-86348809D01*
X151395238Y-87948809D02*
X150557142Y-86882142D01*
X151395238Y-86882142D02*
X150557142Y-87948809D01*
X150176190Y-86882142D02*
X149566666Y-86882142D01*
X149947619Y-86348809D02*
X149947619Y-87720238D01*
X149871428Y-87872619D01*
X149719047Y-87948809D01*
X149566666Y-87948809D01*
X148423809Y-87872619D02*
X148576190Y-87948809D01*
X148880952Y-87948809D01*
X149033333Y-87872619D01*
X149109523Y-87720238D01*
X149109523Y-87110714D01*
X149033333Y-86958333D01*
X148880952Y-86882142D01*
X148576190Y-86882142D01*
X148423809Y-86958333D01*
X148347619Y-87110714D01*
X148347619Y-87263095D01*
X149109523Y-87415476D01*
X147661904Y-86882142D02*
X147661904Y-87948809D01*
X147661904Y-87034523D02*
X147585714Y-86958333D01*
X147433333Y-86882142D01*
X147204761Y-86882142D01*
X147052380Y-86958333D01*
X146976190Y-87110714D01*
X146976190Y-87948809D01*
X145528571Y-87948809D02*
X145528571Y-86348809D01*
X145528571Y-87872619D02*
X145680952Y-87948809D01*
X145985714Y-87948809D01*
X146138095Y-87872619D01*
X146214285Y-87796428D01*
X146290476Y-87644047D01*
X146290476Y-87186904D01*
X146214285Y-87034523D01*
X146138095Y-86958333D01*
X145985714Y-86882142D01*
X145680952Y-86882142D01*
X145528571Y-86958333D01*
X144157142Y-87872619D02*
X144309523Y-87948809D01*
X144614285Y-87948809D01*
X144766666Y-87872619D01*
X144842857Y-87720238D01*
X144842857Y-87110714D01*
X144766666Y-86958333D01*
X144614285Y-86882142D01*
X144309523Y-86882142D01*
X144157142Y-86958333D01*
X144080952Y-87110714D01*
X144080952Y-87263095D01*
X144842857Y-87415476D01*
X143395238Y-87948809D02*
X143395238Y-86882142D01*
X143395238Y-87186904D02*
X143319047Y-87034523D01*
X143242857Y-86958333D01*
X143090476Y-86882142D01*
X142938095Y-86882142D01*
X140271428Y-87948809D02*
X140804761Y-87186904D01*
X141185714Y-87948809D02*
X141185714Y-86348809D01*
X140576190Y-86348809D01*
X140423809Y-86425000D01*
X140347619Y-86501190D01*
X140271428Y-86653571D01*
X140271428Y-86882142D01*
X140347619Y-87034523D01*
X140423809Y-87110714D01*
X140576190Y-87186904D01*
X141185714Y-87186904D01*
X139585714Y-87110714D02*
X139052380Y-87110714D01*
X138823809Y-87948809D02*
X139585714Y-87948809D01*
X139585714Y-86348809D01*
X138823809Y-86348809D01*
X138366666Y-86348809D02*
X137833333Y-87948809D01*
X137300000Y-86348809D01*
X135928571Y-87948809D02*
X136842857Y-87948809D01*
X136385714Y-87948809D02*
X136385714Y-86348809D01*
X136538095Y-86577380D01*
X136690476Y-86729761D01*
X136842857Y-86805952D01*
X154061904Y-90346428D02*
X154138095Y-90422619D01*
X154366666Y-90498809D01*
X154519047Y-90498809D01*
X154747619Y-90422619D01*
X154900000Y-90270238D01*
X154976190Y-90117857D01*
X155052380Y-89813095D01*
X155052380Y-89584523D01*
X154976190Y-89279761D01*
X154900000Y-89127380D01*
X154747619Y-88975000D01*
X154519047Y-88898809D01*
X154366666Y-88898809D01*
X154138095Y-88975000D01*
X154061904Y-89051190D01*
X153376190Y-90498809D02*
X153376190Y-88898809D01*
X153376190Y-89660714D02*
X152461904Y-89660714D01*
X152461904Y-90498809D02*
X152461904Y-88898809D01*
X150785714Y-90498809D02*
X151319047Y-89736904D01*
X151700000Y-90498809D02*
X151700000Y-88898809D01*
X151090476Y-88898809D01*
X150938095Y-88975000D01*
X150861904Y-89051190D01*
X150785714Y-89203571D01*
X150785714Y-89432142D01*
X150861904Y-89584523D01*
X150938095Y-89660714D01*
X151090476Y-89736904D01*
X151700000Y-89736904D01*
X150252380Y-88898809D02*
X149185714Y-88898809D01*
X150252380Y-90498809D01*
X149185714Y-90498809D01*
X147433333Y-89051190D02*
X147357142Y-88975000D01*
X147204761Y-88898809D01*
X146823809Y-88898809D01*
X146671428Y-88975000D01*
X146595238Y-89051190D01*
X146519047Y-89203571D01*
X146519047Y-89355952D01*
X146595238Y-89584523D01*
X147509523Y-90498809D01*
X146519047Y-90498809D01*
X145528571Y-88898809D02*
X145376190Y-88898809D01*
X145223809Y-88975000D01*
X145147619Y-89051190D01*
X145071428Y-89203571D01*
X144995238Y-89508333D01*
X144995238Y-89889285D01*
X145071428Y-90194047D01*
X145147619Y-90346428D01*
X145223809Y-90422619D01*
X145376190Y-90498809D01*
X145528571Y-90498809D01*
X145680952Y-90422619D01*
X145757142Y-90346428D01*
X145833333Y-90194047D01*
X145909523Y-89889285D01*
X145909523Y-89508333D01*
X145833333Y-89203571D01*
X145757142Y-89051190D01*
X145680952Y-88975000D01*
X145528571Y-88898809D01*
X144385714Y-89051190D02*
X144309523Y-88975000D01*
X144157142Y-88898809D01*
X143776190Y-88898809D01*
X143623809Y-88975000D01*
X143547619Y-89051190D01*
X143471428Y-89203571D01*
X143471428Y-89355952D01*
X143547619Y-89584523D01*
X144461904Y-90498809D01*
X143471428Y-90498809D01*
X141947619Y-90498809D02*
X142861904Y-90498809D01*
X142404761Y-90498809D02*
X142404761Y-88898809D01*
X142557142Y-89127380D01*
X142709523Y-89279761D01*
X142861904Y-89355952D01*
D11*
G36*
X153328100Y-104361903D02*
G01*
X153216550Y-104417522D01*
X153118092Y-104519931D01*
X153090977Y-104557864D01*
X153061438Y-104607500D01*
X153042272Y-104661412D01*
X153031307Y-104733364D01*
X153026371Y-104837122D01*
X153025287Y-104974101D01*
X153030182Y-105161815D01*
X153047196Y-105302758D01*
X153079823Y-105407908D01*
X153131558Y-105488243D01*
X153205896Y-105554741D01*
X153211358Y-105558678D01*
X153284620Y-105598953D01*
X153372840Y-105618880D01*
X153485038Y-105623793D01*
X153667433Y-105623793D01*
X153667509Y-105800857D01*
X153669207Y-105899470D01*
X153679550Y-105957314D01*
X153706578Y-105992006D01*
X153758332Y-106021164D01*
X153770761Y-106027121D01*
X153828923Y-106055039D01*
X153873956Y-106072672D01*
X153907441Y-106074194D01*
X153930962Y-106053781D01*
X153946100Y-106005607D01*
X153954437Y-105923846D01*
X153957556Y-105802672D01*
X153957040Y-105636260D01*
X153954471Y-105418785D01*
X153953668Y-105353736D01*
X153950778Y-105129502D01*
X153948188Y-104982821D01*
X153667586Y-104982821D01*
X153666009Y-105107326D01*
X153659000Y-105188787D01*
X153643142Y-105242515D01*
X153615019Y-105283823D01*
X153595925Y-105303971D01*
X153517865Y-105362921D01*
X153448753Y-105367720D01*
X153377440Y-105319038D01*
X153375632Y-105317241D01*
X153346617Y-105279618D01*
X153328967Y-105228484D01*
X153320064Y-105149738D01*
X153317291Y-105029276D01*
X153317241Y-105002588D01*
X153323942Y-104836583D01*
X153345752Y-104721505D01*
X153385235Y-104651254D01*
X153444956Y-104619729D01*
X153479472Y-104616552D01*
X153561389Y-104631460D01*
X153617579Y-104680548D01*
X153651402Y-104770362D01*
X153666220Y-104907445D01*
X153667586Y-104982821D01*
X153948188Y-104982821D01*
X153947713Y-104955952D01*
X153943753Y-104825382D01*
X153938174Y-104730087D01*
X153930254Y-104662364D01*
X153919269Y-104614507D01*
X153904499Y-104578813D01*
X153885218Y-104547578D01*
X153876951Y-104535824D01*
X153767288Y-104424797D01*
X153628635Y-104361847D01*
X153468246Y-104344297D01*
X153328100Y-104361903D01*
G37*
X153328100Y-104361903D02*
X153216550Y-104417522D01*
X153118092Y-104519931D01*
X153090977Y-104557864D01*
X153061438Y-104607500D01*
X153042272Y-104661412D01*
X153031307Y-104733364D01*
X153026371Y-104837122D01*
X153025287Y-104974101D01*
X153030182Y-105161815D01*
X153047196Y-105302758D01*
X153079823Y-105407908D01*
X153131558Y-105488243D01*
X153205896Y-105554741D01*
X153211358Y-105558678D01*
X153284620Y-105598953D01*
X153372840Y-105618880D01*
X153485038Y-105623793D01*
X153667433Y-105623793D01*
X153667509Y-105800857D01*
X153669207Y-105899470D01*
X153679550Y-105957314D01*
X153706578Y-105992006D01*
X153758332Y-106021164D01*
X153770761Y-106027121D01*
X153828923Y-106055039D01*
X153873956Y-106072672D01*
X153907441Y-106074194D01*
X153930962Y-106053781D01*
X153946100Y-106005607D01*
X153954437Y-105923846D01*
X153957556Y-105802672D01*
X153957040Y-105636260D01*
X153954471Y-105418785D01*
X153953668Y-105353736D01*
X153950778Y-105129502D01*
X153948188Y-104982821D01*
X153667586Y-104982821D01*
X153666009Y-105107326D01*
X153659000Y-105188787D01*
X153643142Y-105242515D01*
X153615019Y-105283823D01*
X153595925Y-105303971D01*
X153517865Y-105362921D01*
X153448753Y-105367720D01*
X153377440Y-105319038D01*
X153375632Y-105317241D01*
X153346617Y-105279618D01*
X153328967Y-105228484D01*
X153320064Y-105149738D01*
X153317291Y-105029276D01*
X153317241Y-105002588D01*
X153323942Y-104836583D01*
X153345752Y-104721505D01*
X153385235Y-104651254D01*
X153444956Y-104619729D01*
X153479472Y-104616552D01*
X153561389Y-104631460D01*
X153617579Y-104680548D01*
X153651402Y-104770362D01*
X153666220Y-104907445D01*
X153667586Y-104982821D01*
X153948188Y-104982821D01*
X153947713Y-104955952D01*
X153943753Y-104825382D01*
X153938174Y-104730087D01*
X153930254Y-104662364D01*
X153919269Y-104614507D01*
X153904499Y-104578813D01*
X153885218Y-104547578D01*
X153876951Y-104535824D01*
X153767288Y-104424797D01*
X153628635Y-104361847D01*
X153468246Y-104344297D01*
X153328100Y-104361903D01*
G36*
X151082571Y-104377719D02*
G01*
X150988877Y-104431914D01*
X150923736Y-104485707D01*
X150876093Y-104542066D01*
X150843272Y-104610987D01*
X150822594Y-104702468D01*
X150811380Y-104826506D01*
X150806951Y-104993098D01*
X150806437Y-105112851D01*
X150806437Y-105553659D01*
X150930517Y-105609283D01*
X151054598Y-105664907D01*
X151069195Y-105182095D01*
X151075227Y-105001779D01*
X151081555Y-104870901D01*
X151089394Y-104780511D01*
X151099963Y-104721664D01*
X151114477Y-104685413D01*
X151134152Y-104662810D01*
X151140465Y-104657917D01*
X151236112Y-104619706D01*
X151332793Y-104634827D01*
X151390345Y-104674943D01*
X151413755Y-104703370D01*
X151429961Y-104740672D01*
X151440259Y-104797223D01*
X151445951Y-104883394D01*
X151448336Y-105009558D01*
X151448736Y-105141042D01*
X151448814Y-105305999D01*
X151451639Y-105422761D01*
X151461093Y-105501510D01*
X151481060Y-105552431D01*
X151515424Y-105585706D01*
X151568068Y-105611520D01*
X151638383Y-105638344D01*
X151715180Y-105667542D01*
X151706038Y-105149346D01*
X151702357Y-104962539D01*
X151698050Y-104824490D01*
X151691877Y-104725568D01*
X151682598Y-104656145D01*
X151668973Y-104606590D01*
X151649761Y-104567273D01*
X151626598Y-104532584D01*
X151514848Y-104421770D01*
X151378487Y-104357689D01*
X151230175Y-104342339D01*
X151082571Y-104377719D01*
G37*
X151082571Y-104377719D02*
X150988877Y-104431914D01*
X150923736Y-104485707D01*
X150876093Y-104542066D01*
X150843272Y-104610987D01*
X150822594Y-104702468D01*
X150811380Y-104826506D01*
X150806951Y-104993098D01*
X150806437Y-105112851D01*
X150806437Y-105553659D01*
X150930517Y-105609283D01*
X151054598Y-105664907D01*
X151069195Y-105182095D01*
X151075227Y-105001779D01*
X151081555Y-104870901D01*
X151089394Y-104780511D01*
X151099963Y-104721664D01*
X151114477Y-104685413D01*
X151134152Y-104662810D01*
X151140465Y-104657917D01*
X151236112Y-104619706D01*
X151332793Y-104634827D01*
X151390345Y-104674943D01*
X151413755Y-104703370D01*
X151429961Y-104740672D01*
X151440259Y-104797223D01*
X151445951Y-104883394D01*
X151448336Y-105009558D01*
X151448736Y-105141042D01*
X151448814Y-105305999D01*
X151451639Y-105422761D01*
X151461093Y-105501510D01*
X151481060Y-105552431D01*
X151515424Y-105585706D01*
X151568068Y-105611520D01*
X151638383Y-105638344D01*
X151715180Y-105667542D01*
X151706038Y-105149346D01*
X151702357Y-104962539D01*
X151698050Y-104824490D01*
X151691877Y-104725568D01*
X151682598Y-104656145D01*
X151668973Y-104606590D01*
X151649761Y-104567273D01*
X151626598Y-104532584D01*
X151514848Y-104421770D01*
X151378487Y-104357689D01*
X151230175Y-104342339D01*
X151082571Y-104377719D01*
G36*
X154451779Y-104366015D02*
G01*
X154314939Y-104437968D01*
X154213949Y-104553766D01*
X154178075Y-104628213D01*
X154150161Y-104739992D01*
X154135871Y-104881227D01*
X154134516Y-105035371D01*
X154145405Y-105185879D01*
X154167847Y-105316205D01*
X154201150Y-105409803D01*
X154211385Y-105425922D01*
X154332618Y-105546249D01*
X154476613Y-105618317D01*
X154632861Y-105639408D01*
X154790852Y-105606802D01*
X154834820Y-105587253D01*
X154920444Y-105527012D01*
X154995592Y-105447135D01*
X155002694Y-105437004D01*
X155031561Y-105388181D01*
X155050643Y-105335990D01*
X155061916Y-105267285D01*
X155067355Y-105168918D01*
X155068938Y-105027744D01*
X155068965Y-104996092D01*
X155068893Y-104986019D01*
X154777011Y-104986019D01*
X154775313Y-105119256D01*
X154768628Y-105207674D01*
X154754575Y-105264785D01*
X154730771Y-105304102D01*
X154718621Y-105317241D01*
X154648764Y-105367172D01*
X154580941Y-105364895D01*
X154512365Y-105321584D01*
X154471465Y-105275346D01*
X154447242Y-105207857D01*
X154433639Y-105101433D01*
X154432706Y-105089020D01*
X154430384Y-104896147D01*
X154454650Y-104752900D01*
X154505176Y-104660160D01*
X154581632Y-104618807D01*
X154608924Y-104616552D01*
X154680589Y-104627893D01*
X154729610Y-104667184D01*
X154759582Y-104742326D01*
X154774101Y-104861222D01*
X154777011Y-104986019D01*
X155068893Y-104986019D01*
X155067878Y-104845659D01*
X155063312Y-104740549D01*
X155053312Y-104667714D01*
X155035921Y-104614108D01*
X155009184Y-104566681D01*
X155003276Y-104557864D01*
X154903968Y-104439007D01*
X154795758Y-104370008D01*
X154664019Y-104342619D01*
X154619283Y-104341281D01*
X154451779Y-104366015D01*
G37*
X154451779Y-104366015D02*
X154314939Y-104437968D01*
X154213949Y-104553766D01*
X154178075Y-104628213D01*
X154150161Y-104739992D01*
X154135871Y-104881227D01*
X154134516Y-105035371D01*
X154145405Y-105185879D01*
X154167847Y-105316205D01*
X154201150Y-105409803D01*
X154211385Y-105425922D01*
X154332618Y-105546249D01*
X154476613Y-105618317D01*
X154632861Y-105639408D01*
X154790852Y-105606802D01*
X154834820Y-105587253D01*
X154920444Y-105527012D01*
X154995592Y-105447135D01*
X155002694Y-105437004D01*
X155031561Y-105388181D01*
X155050643Y-105335990D01*
X155061916Y-105267285D01*
X155067355Y-105168918D01*
X155068938Y-105027744D01*
X155068965Y-104996092D01*
X155068893Y-104986019D01*
X154777011Y-104986019D01*
X154775313Y-105119256D01*
X154768628Y-105207674D01*
X154754575Y-105264785D01*
X154730771Y-105304102D01*
X154718621Y-105317241D01*
X154648764Y-105367172D01*
X154580941Y-105364895D01*
X154512365Y-105321584D01*
X154471465Y-105275346D01*
X154447242Y-105207857D01*
X154433639Y-105101433D01*
X154432706Y-105089020D01*
X154430384Y-104896147D01*
X154454650Y-104752900D01*
X154505176Y-104660160D01*
X154581632Y-104618807D01*
X154608924Y-104616552D01*
X154680589Y-104627893D01*
X154729610Y-104667184D01*
X154759582Y-104742326D01*
X154774101Y-104861222D01*
X154777011Y-104986019D01*
X155068893Y-104986019D01*
X155067878Y-104845659D01*
X155063312Y-104740549D01*
X155053312Y-104667714D01*
X155035921Y-104614108D01*
X155009184Y-104566681D01*
X155003276Y-104557864D01*
X154903968Y-104439007D01*
X154795758Y-104370008D01*
X154664019Y-104342619D01*
X154619283Y-104341281D01*
X154451779Y-104366015D01*
G36*
X152184448Y-104384676D02*
G01*
X152069342Y-104462111D01*
X151980389Y-104573949D01*
X151927251Y-104716265D01*
X151916503Y-104821015D01*
X151917724Y-104864726D01*
X151927944Y-104898194D01*
X151956039Y-104928179D01*
X152010884Y-104961440D01*
X152101355Y-105004738D01*
X152236328Y-105064833D01*
X152237011Y-105065134D01*
X152361249Y-105122037D01*
X152463127Y-105172565D01*
X152532233Y-105211280D01*
X152558154Y-105232740D01*
X152558161Y-105232913D01*
X152535315Y-105279644D01*
X152481891Y-105331154D01*
X152420558Y-105368261D01*
X152389485Y-105375632D01*
X152304711Y-105350138D01*
X152231707Y-105286291D01*
X152196087Y-105216094D01*
X152161820Y-105164343D01*
X152094697Y-105105409D01*
X152015792Y-105054496D01*
X151946179Y-105026809D01*
X151931623Y-105025287D01*
X151915237Y-105050321D01*
X151914250Y-105114311D01*
X151926292Y-105200593D01*
X151948993Y-105292501D01*
X151979986Y-105373369D01*
X151981552Y-105376509D01*
X152074819Y-105506734D01*
X152195696Y-105595311D01*
X152332973Y-105638786D01*
X152475440Y-105633706D01*
X152611888Y-105576616D01*
X152617955Y-105572602D01*
X152725290Y-105475326D01*
X152795868Y-105348409D01*
X152834926Y-105181526D01*
X152840168Y-105134639D01*
X152849452Y-104913329D01*
X152838322Y-104810124D01*
X152558161Y-104810124D01*
X152554521Y-104874503D01*
X152534611Y-104893291D01*
X152484974Y-104879235D01*
X152406733Y-104846009D01*
X152319274Y-104804359D01*
X152317101Y-104803256D01*
X152242970Y-104764265D01*
X152213219Y-104738244D01*
X152220555Y-104710965D01*
X152251447Y-104675121D01*
X152330040Y-104623251D01*
X152414677Y-104619439D01*
X152490597Y-104657189D01*
X152543035Y-104730001D01*
X152558161Y-104810124D01*
X152838322Y-104810124D01*
X152830356Y-104736261D01*
X152781366Y-104595829D01*
X152713164Y-104497447D01*
X152590065Y-104398030D01*
X152454472Y-104348711D01*
X152316045Y-104345568D01*
X152184448Y-104384676D01*
G37*
X152184448Y-104384676D02*
X152069342Y-104462111D01*
X151980389Y-104573949D01*
X151927251Y-104716265D01*
X151916503Y-104821015D01*
X151917724Y-104864726D01*
X151927944Y-104898194D01*
X151956039Y-104928179D01*
X152010884Y-104961440D01*
X152101355Y-105004738D01*
X152236328Y-105064833D01*
X152237011Y-105065134D01*
X152361249Y-105122037D01*
X152463127Y-105172565D01*
X152532233Y-105211280D01*
X152558154Y-105232740D01*
X152558161Y-105232913D01*
X152535315Y-105279644D01*
X152481891Y-105331154D01*
X152420558Y-105368261D01*
X152389485Y-105375632D01*
X152304711Y-105350138D01*
X152231707Y-105286291D01*
X152196087Y-105216094D01*
X152161820Y-105164343D01*
X152094697Y-105105409D01*
X152015792Y-105054496D01*
X151946179Y-105026809D01*
X151931623Y-105025287D01*
X151915237Y-105050321D01*
X151914250Y-105114311D01*
X151926292Y-105200593D01*
X151948993Y-105292501D01*
X151979986Y-105373369D01*
X151981552Y-105376509D01*
X152074819Y-105506734D01*
X152195696Y-105595311D01*
X152332973Y-105638786D01*
X152475440Y-105633706D01*
X152611888Y-105576616D01*
X152617955Y-105572602D01*
X152725290Y-105475326D01*
X152795868Y-105348409D01*
X152834926Y-105181526D01*
X152840168Y-105134639D01*
X152849452Y-104913329D01*
X152838322Y-104810124D01*
X152558161Y-104810124D01*
X152554521Y-104874503D01*
X152534611Y-104893291D01*
X152484974Y-104879235D01*
X152406733Y-104846009D01*
X152319274Y-104804359D01*
X152317101Y-104803256D01*
X152242970Y-104764265D01*
X152213219Y-104738244D01*
X152220555Y-104710965D01*
X152251447Y-104675121D01*
X152330040Y-104623251D01*
X152414677Y-104619439D01*
X152490597Y-104657189D01*
X152543035Y-104730001D01*
X152558161Y-104810124D01*
X152838322Y-104810124D01*
X152830356Y-104736261D01*
X152781366Y-104595829D01*
X152713164Y-104497447D01*
X152590065Y-104398030D01*
X152454472Y-104348711D01*
X152316045Y-104345568D01*
X152184448Y-104384676D01*
G36*
X149755402Y-104223857D02*
G01*
X149746846Y-104343188D01*
X149737019Y-104413506D01*
X149723401Y-104444179D01*
X149703473Y-104444571D01*
X149697011Y-104440910D01*
X149611060Y-104414398D01*
X149499255Y-104415946D01*
X149385586Y-104443199D01*
X149314490Y-104478455D01*
X149241595Y-104534778D01*
X149188307Y-104598519D01*
X149151725Y-104679510D01*
X149128950Y-104787586D01*
X149117081Y-104932580D01*
X149113218Y-105124326D01*
X149113149Y-105161109D01*
X149113103Y-105574288D01*
X149205046Y-105606339D01*
X149270348Y-105628144D01*
X149306176Y-105638297D01*
X149307230Y-105638391D01*
X149310758Y-105610860D01*
X149313761Y-105534923D01*
X149316010Y-105420565D01*
X149317276Y-105277769D01*
X149317471Y-105190951D01*
X149317877Y-105019773D01*
X149319968Y-104897088D01*
X149325053Y-104813000D01*
X149334440Y-104757614D01*
X149349439Y-104721032D01*
X149371358Y-104693359D01*
X149385043Y-104680032D01*
X149479051Y-104626328D01*
X149581636Y-104622307D01*
X149674710Y-104667725D01*
X149691922Y-104684123D01*
X149717168Y-104714957D01*
X149734680Y-104751531D01*
X149745858Y-104804415D01*
X149752104Y-104884177D01*
X149754818Y-105001385D01*
X149755402Y-105162991D01*
X149755402Y-105574288D01*
X149847345Y-105606339D01*
X149912647Y-105628144D01*
X149948475Y-105638297D01*
X149949529Y-105638391D01*
X149952225Y-105610448D01*
X149954655Y-105531630D01*
X149956722Y-105409453D01*
X149958329Y-105251432D01*
X149959377Y-105065083D01*
X149959769Y-104857920D01*
X149959770Y-104848706D01*
X149959770Y-104059020D01*
X149864885Y-104018997D01*
X149770000Y-103978973D01*
X149755402Y-104223857D01*
G37*
X149755402Y-104223857D02*
X149746846Y-104343188D01*
X149737019Y-104413506D01*
X149723401Y-104444179D01*
X149703473Y-104444571D01*
X149697011Y-104440910D01*
X149611060Y-104414398D01*
X149499255Y-104415946D01*
X149385586Y-104443199D01*
X149314490Y-104478455D01*
X149241595Y-104534778D01*
X149188307Y-104598519D01*
X149151725Y-104679510D01*
X149128950Y-104787586D01*
X149117081Y-104932580D01*
X149113218Y-105124326D01*
X149113149Y-105161109D01*
X149113103Y-105574288D01*
X149205046Y-105606339D01*
X149270348Y-105628144D01*
X149306176Y-105638297D01*
X149307230Y-105638391D01*
X149310758Y-105610860D01*
X149313761Y-105534923D01*
X149316010Y-105420565D01*
X149317276Y-105277769D01*
X149317471Y-105190951D01*
X149317877Y-105019773D01*
X149319968Y-104897088D01*
X149325053Y-104813000D01*
X149334440Y-104757614D01*
X149349439Y-104721032D01*
X149371358Y-104693359D01*
X149385043Y-104680032D01*
X149479051Y-104626328D01*
X149581636Y-104622307D01*
X149674710Y-104667725D01*
X149691922Y-104684123D01*
X149717168Y-104714957D01*
X149734680Y-104751531D01*
X149745858Y-104804415D01*
X149752104Y-104884177D01*
X149754818Y-105001385D01*
X149755402Y-105162991D01*
X149755402Y-105574288D01*
X149847345Y-105606339D01*
X149912647Y-105628144D01*
X149948475Y-105638297D01*
X149949529Y-105638391D01*
X149952225Y-105610448D01*
X149954655Y-105531630D01*
X149956722Y-105409453D01*
X149958329Y-105251432D01*
X149959377Y-105065083D01*
X149959769Y-104857920D01*
X149959770Y-104848706D01*
X149959770Y-104059020D01*
X149864885Y-104018997D01*
X149770000Y-103978973D01*
X149755402Y-104223857D01*
G36*
X148420056Y-104424360D02*
G01*
X148305657Y-104466842D01*
X148304348Y-104467658D01*
X148233597Y-104519730D01*
X148181364Y-104580584D01*
X148144629Y-104659887D01*
X148120366Y-104767309D01*
X148105555Y-104912517D01*
X148097171Y-105105179D01*
X148096436Y-105132628D01*
X148085880Y-105546521D01*
X148174709Y-105592456D01*
X148238982Y-105623498D01*
X148277790Y-105638206D01*
X148279585Y-105638391D01*
X148286300Y-105611250D01*
X148291635Y-105538041D01*
X148294917Y-105431081D01*
X148295632Y-105344469D01*
X148295649Y-105204162D01*
X148302063Y-105116051D01*
X148324420Y-105074025D01*
X148372268Y-105071975D01*
X148455151Y-105103790D01*
X148580287Y-105162272D01*
X148672303Y-105210845D01*
X148719629Y-105252986D01*
X148733542Y-105298916D01*
X148733563Y-105301189D01*
X148710605Y-105380311D01*
X148642630Y-105423055D01*
X148538602Y-105429246D01*
X148463670Y-105428172D01*
X148424161Y-105449753D01*
X148399522Y-105501591D01*
X148385341Y-105567632D01*
X148405777Y-105605104D01*
X148413472Y-105610467D01*
X148485917Y-105632006D01*
X148587367Y-105635055D01*
X148691843Y-105620778D01*
X148765875Y-105594688D01*
X148868228Y-105507785D01*
X148926409Y-105386816D01*
X148937931Y-105292308D01*
X148929138Y-105207062D01*
X148897320Y-105137476D01*
X148834316Y-105075672D01*
X148731969Y-105013772D01*
X148582118Y-104943897D01*
X148572988Y-104939948D01*
X148438003Y-104877588D01*
X148354706Y-104826446D01*
X148319003Y-104780488D01*
X148326797Y-104733683D01*
X148373993Y-104679998D01*
X148388106Y-104667644D01*
X148482641Y-104619741D01*
X148580594Y-104621758D01*
X148665903Y-104668724D01*
X148722504Y-104755669D01*
X148727763Y-104772734D01*
X148778977Y-104855504D01*
X148843963Y-104895372D01*
X148937931Y-104934882D01*
X148937931Y-104832658D01*
X148909347Y-104684072D01*
X148824505Y-104547784D01*
X148780355Y-104502191D01*
X148679995Y-104443674D01*
X148552365Y-104417184D01*
X148420056Y-104424360D01*
G37*
X148420056Y-104424360D02*
X148305657Y-104466842D01*
X148304348Y-104467658D01*
X148233597Y-104519730D01*
X148181364Y-104580584D01*
X148144629Y-104659887D01*
X148120366Y-104767309D01*
X148105555Y-104912517D01*
X148097171Y-105105179D01*
X148096436Y-105132628D01*
X148085880Y-105546521D01*
X148174709Y-105592456D01*
X148238982Y-105623498D01*
X148277790Y-105638206D01*
X148279585Y-105638391D01*
X148286300Y-105611250D01*
X148291635Y-105538041D01*
X148294917Y-105431081D01*
X148295632Y-105344469D01*
X148295649Y-105204162D01*
X148302063Y-105116051D01*
X148324420Y-105074025D01*
X148372268Y-105071975D01*
X148455151Y-105103790D01*
X148580287Y-105162272D01*
X148672303Y-105210845D01*
X148719629Y-105252986D01*
X148733542Y-105298916D01*
X148733563Y-105301189D01*
X148710605Y-105380311D01*
X148642630Y-105423055D01*
X148538602Y-105429246D01*
X148463670Y-105428172D01*
X148424161Y-105449753D01*
X148399522Y-105501591D01*
X148385341Y-105567632D01*
X148405777Y-105605104D01*
X148413472Y-105610467D01*
X148485917Y-105632006D01*
X148587367Y-105635055D01*
X148691843Y-105620778D01*
X148765875Y-105594688D01*
X148868228Y-105507785D01*
X148926409Y-105386816D01*
X148937931Y-105292308D01*
X148929138Y-105207062D01*
X148897320Y-105137476D01*
X148834316Y-105075672D01*
X148731969Y-105013772D01*
X148582118Y-104943897D01*
X148572988Y-104939948D01*
X148438003Y-104877588D01*
X148354706Y-104826446D01*
X148319003Y-104780488D01*
X148326797Y-104733683D01*
X148373993Y-104679998D01*
X148388106Y-104667644D01*
X148482641Y-104619741D01*
X148580594Y-104621758D01*
X148665903Y-104668724D01*
X148722504Y-104755669D01*
X148727763Y-104772734D01*
X148778977Y-104855504D01*
X148843963Y-104895372D01*
X148937931Y-104934882D01*
X148937931Y-104832658D01*
X148909347Y-104684072D01*
X148824505Y-104547784D01*
X148780355Y-104502191D01*
X148679995Y-104443674D01*
X148552365Y-104417184D01*
X148420056Y-104424360D01*
G36*
X147434057Y-104421920D02*
G01*
X147301435Y-104470859D01*
X147193990Y-104557419D01*
X147151968Y-104618352D01*
X147106157Y-104730161D01*
X147107109Y-104811006D01*
X147155192Y-104865378D01*
X147172983Y-104874624D01*
X147249796Y-104903450D01*
X147289024Y-104896065D01*
X147302311Y-104847658D01*
X147302988Y-104820920D01*
X147327314Y-104722548D01*
X147390719Y-104653734D01*
X147478846Y-104620498D01*
X147577337Y-104628861D01*
X147657398Y-104672296D01*
X147684439Y-104697072D01*
X147703606Y-104727129D01*
X147716554Y-104772565D01*
X147724936Y-104843476D01*
X147730407Y-104949960D01*
X147734622Y-105102112D01*
X147735713Y-105150287D01*
X147739693Y-105315095D01*
X147744219Y-105431088D01*
X147751005Y-105507833D01*
X147761769Y-105554893D01*
X147778227Y-105581835D01*
X147802094Y-105598223D01*
X147817374Y-105605463D01*
X147882267Y-105630220D01*
X147920466Y-105638391D01*
X147933088Y-105611103D01*
X147940792Y-105528603D01*
X147943620Y-105389941D01*
X147941614Y-105194162D01*
X147940989Y-105163965D01*
X147936579Y-104985349D01*
X147931365Y-104854923D01*
X147923945Y-104762492D01*
X147912918Y-104697858D01*
X147896883Y-104650825D01*
X147874439Y-104611196D01*
X147862698Y-104594215D01*
X147795381Y-104519080D01*
X147720090Y-104460638D01*
X147710872Y-104455536D01*
X147575867Y-104415260D01*
X147434057Y-104421920D01*
G37*
X147434057Y-104421920D02*
X147301435Y-104470859D01*
X147193990Y-104557419D01*
X147151968Y-104618352D01*
X147106157Y-104730161D01*
X147107109Y-104811006D01*
X147155192Y-104865378D01*
X147172983Y-104874624D01*
X147249796Y-104903450D01*
X147289024Y-104896065D01*
X147302311Y-104847658D01*
X147302988Y-104820920D01*
X147327314Y-104722548D01*
X147390719Y-104653734D01*
X147478846Y-104620498D01*
X147577337Y-104628861D01*
X147657398Y-104672296D01*
X147684439Y-104697072D01*
X147703606Y-104727129D01*
X147716554Y-104772565D01*
X147724936Y-104843476D01*
X147730407Y-104949960D01*
X147734622Y-105102112D01*
X147735713Y-105150287D01*
X147739693Y-105315095D01*
X147744219Y-105431088D01*
X147751005Y-105507833D01*
X147761769Y-105554893D01*
X147778227Y-105581835D01*
X147802094Y-105598223D01*
X147817374Y-105605463D01*
X147882267Y-105630220D01*
X147920466Y-105638391D01*
X147933088Y-105611103D01*
X147940792Y-105528603D01*
X147943620Y-105389941D01*
X147941614Y-105194162D01*
X147940989Y-105163965D01*
X147936579Y-104985349D01*
X147931365Y-104854923D01*
X147923945Y-104762492D01*
X147912918Y-104697858D01*
X147896883Y-104650825D01*
X147874439Y-104611196D01*
X147862698Y-104594215D01*
X147795381Y-104519080D01*
X147720090Y-104460638D01*
X147710872Y-104455536D01*
X147575867Y-104415260D01*
X147434057Y-104421920D01*
G36*
X146106086Y-104654455D02*
G01*
X146106457Y-104872661D01*
X146107892Y-105040519D01*
X146110998Y-105166070D01*
X146116378Y-105257355D01*
X146124638Y-105322415D01*
X146136384Y-105369291D01*
X146152219Y-105406024D01*
X146164210Y-105426991D01*
X146263510Y-105540694D01*
X146389412Y-105611965D01*
X146528709Y-105637538D01*
X146668195Y-105614150D01*
X146751257Y-105572119D01*
X146838455Y-105499411D01*
X146897883Y-105410612D01*
X146933739Y-105294320D01*
X146950219Y-105139135D01*
X146952553Y-105025287D01*
X146952239Y-105017106D01*
X146748276Y-105017106D01*
X146747030Y-105147657D01*
X146741322Y-105234080D01*
X146728196Y-105290618D01*
X146704694Y-105331514D01*
X146676614Y-105362362D01*
X146582312Y-105421905D01*
X146481060Y-105426992D01*
X146385364Y-105377279D01*
X146377916Y-105370543D01*
X146346126Y-105335502D01*
X146326192Y-105293811D01*
X146315400Y-105231762D01*
X146311035Y-105135644D01*
X146310345Y-105029379D01*
X146311841Y-104895880D01*
X146318036Y-104806822D01*
X146331486Y-104748293D01*
X146354749Y-104706382D01*
X146373825Y-104684123D01*
X146462437Y-104627985D01*
X146564492Y-104621235D01*
X146661905Y-104664114D01*
X146680704Y-104680032D01*
X146712707Y-104715382D01*
X146732682Y-104757502D01*
X146743407Y-104820251D01*
X146747661Y-104917487D01*
X146748276Y-105017106D01*
X146952239Y-105017106D01*
X146945496Y-104841947D01*
X146921528Y-104704195D01*
X146876452Y-104600632D01*
X146806072Y-104519856D01*
X146751257Y-104478455D01*
X146651624Y-104433728D01*
X146536145Y-104412967D01*
X146428801Y-104418525D01*
X146368736Y-104440943D01*
X146345165Y-104447323D01*
X146329523Y-104423535D01*
X146318605Y-104359788D01*
X146310345Y-104262687D01*
X146301301Y-104154541D01*
X146288739Y-104089475D01*
X146265881Y-104052268D01*
X146225949Y-104027699D01*
X146200862Y-104016819D01*
X146105977Y-103977072D01*
X146106086Y-104654455D01*
G37*
X146106086Y-104654455D02*
X146106457Y-104872661D01*
X146107892Y-105040519D01*
X146110998Y-105166070D01*
X146116378Y-105257355D01*
X146124638Y-105322415D01*
X146136384Y-105369291D01*
X146152219Y-105406024D01*
X146164210Y-105426991D01*
X146263510Y-105540694D01*
X146389412Y-105611965D01*
X146528709Y-105637538D01*
X146668195Y-105614150D01*
X146751257Y-105572119D01*
X146838455Y-105499411D01*
X146897883Y-105410612D01*
X146933739Y-105294320D01*
X146950219Y-105139135D01*
X146952553Y-105025287D01*
X146952239Y-105017106D01*
X146748276Y-105017106D01*
X146747030Y-105147657D01*
X146741322Y-105234080D01*
X146728196Y-105290618D01*
X146704694Y-105331514D01*
X146676614Y-105362362D01*
X146582312Y-105421905D01*
X146481060Y-105426992D01*
X146385364Y-105377279D01*
X146377916Y-105370543D01*
X146346126Y-105335502D01*
X146326192Y-105293811D01*
X146315400Y-105231762D01*
X146311035Y-105135644D01*
X146310345Y-105029379D01*
X146311841Y-104895880D01*
X146318036Y-104806822D01*
X146331486Y-104748293D01*
X146354749Y-104706382D01*
X146373825Y-104684123D01*
X146462437Y-104627985D01*
X146564492Y-104621235D01*
X146661905Y-104664114D01*
X146680704Y-104680032D01*
X146712707Y-104715382D01*
X146732682Y-104757502D01*
X146743407Y-104820251D01*
X146747661Y-104917487D01*
X146748276Y-105017106D01*
X146952239Y-105017106D01*
X146945496Y-104841947D01*
X146921528Y-104704195D01*
X146876452Y-104600632D01*
X146806072Y-104519856D01*
X146751257Y-104478455D01*
X146651624Y-104433728D01*
X146536145Y-104412967D01*
X146428801Y-104418525D01*
X146368736Y-104440943D01*
X146345165Y-104447323D01*
X146329523Y-104423535D01*
X146318605Y-104359788D01*
X146310345Y-104262687D01*
X146301301Y-104154541D01*
X146288739Y-104089475D01*
X146265881Y-104052268D01*
X146225949Y-104027699D01*
X146200862Y-104016819D01*
X146105977Y-103977072D01*
X146106086Y-104654455D01*
G36*
X144919876Y-104439840D02*
G01*
X144915421Y-104516653D01*
X144911929Y-104633391D01*
X144909685Y-104780821D01*
X144908965Y-104935455D01*
X144908965Y-105458727D01*
X145001355Y-105551117D01*
X145065022Y-105608047D01*
X145120911Y-105631107D01*
X145197298Y-105629647D01*
X145227620Y-105625934D01*
X145322390Y-105615126D01*
X145400778Y-105608933D01*
X145419885Y-105608361D01*
X145484301Y-105612102D01*
X145576429Y-105621494D01*
X145612150Y-105625934D01*
X145699886Y-105632801D01*
X145758847Y-105617885D01*
X145817310Y-105571835D01*
X145838415Y-105551117D01*
X145930805Y-105458727D01*
X145930805Y-104479947D01*
X145856442Y-104446066D01*
X145792410Y-104420970D01*
X145754948Y-104412184D01*
X145745343Y-104439950D01*
X145736365Y-104517530D01*
X145728614Y-104636348D01*
X145722686Y-104787828D01*
X145719827Y-104915805D01*
X145711839Y-105419425D01*
X145642152Y-105429278D01*
X145578771Y-105422389D01*
X145547714Y-105400083D01*
X145539033Y-105358379D01*
X145531622Y-105269544D01*
X145526069Y-105144834D01*
X145522964Y-104995507D01*
X145522516Y-104918661D01*
X145522069Y-104476287D01*
X145430126Y-104444235D01*
X145365051Y-104422443D01*
X145329653Y-104412281D01*
X145328632Y-104412184D01*
X145325080Y-104439809D01*
X145321177Y-104516411D01*
X145317249Y-104632579D01*
X145313624Y-104778904D01*
X145311092Y-104915805D01*
X145303103Y-105419425D01*
X145127931Y-105419425D01*
X145119893Y-104959965D01*
X145111854Y-104500505D01*
X145026457Y-104456344D01*
X144963407Y-104426019D01*
X144926090Y-104412258D01*
X144925013Y-104412184D01*
X144919876Y-104439840D01*
G37*
X144919876Y-104439840D02*
X144915421Y-104516653D01*
X144911929Y-104633391D01*
X144909685Y-104780821D01*
X144908965Y-104935455D01*
X144908965Y-105458727D01*
X145001355Y-105551117D01*
X145065022Y-105608047D01*
X145120911Y-105631107D01*
X145197298Y-105629647D01*
X145227620Y-105625934D01*
X145322390Y-105615126D01*
X145400778Y-105608933D01*
X145419885Y-105608361D01*
X145484301Y-105612102D01*
X145576429Y-105621494D01*
X145612150Y-105625934D01*
X145699886Y-105632801D01*
X145758847Y-105617885D01*
X145817310Y-105571835D01*
X145838415Y-105551117D01*
X145930805Y-105458727D01*
X145930805Y-104479947D01*
X145856442Y-104446066D01*
X145792410Y-104420970D01*
X145754948Y-104412184D01*
X145745343Y-104439950D01*
X145736365Y-104517530D01*
X145728614Y-104636348D01*
X145722686Y-104787828D01*
X145719827Y-104915805D01*
X145711839Y-105419425D01*
X145642152Y-105429278D01*
X145578771Y-105422389D01*
X145547714Y-105400083D01*
X145539033Y-105358379D01*
X145531622Y-105269544D01*
X145526069Y-105144834D01*
X145522964Y-104995507D01*
X145522516Y-104918661D01*
X145522069Y-104476287D01*
X145430126Y-104444235D01*
X145365051Y-104422443D01*
X145329653Y-104412281D01*
X145328632Y-104412184D01*
X145325080Y-104439809D01*
X145321177Y-104516411D01*
X145317249Y-104632579D01*
X145313624Y-104778904D01*
X145311092Y-104915805D01*
X145303103Y-105419425D01*
X145127931Y-105419425D01*
X145119893Y-104959965D01*
X145111854Y-104500505D01*
X145026457Y-104456344D01*
X144963407Y-104426019D01*
X144926090Y-104412258D01*
X144925013Y-104412184D01*
X144919876Y-104439840D01*
G36*
X144185594Y-104435156D02*
G01*
X144101531Y-104473393D01*
X144035550Y-104519726D01*
X143987206Y-104571532D01*
X143953828Y-104638363D01*
X143932747Y-104729769D01*
X143921293Y-104855301D01*
X143916797Y-105024508D01*
X143916322Y-105135933D01*
X143916322Y-105570627D01*
X143990684Y-105604509D01*
X144049254Y-105629272D01*
X144078270Y-105638391D01*
X144083821Y-105611257D01*
X144088225Y-105538094D01*
X144090922Y-105431263D01*
X144091494Y-105346437D01*
X144093954Y-105223887D01*
X144100588Y-105126668D01*
X144110274Y-105067134D01*
X144117968Y-105054483D01*
X144169689Y-105067402D01*
X144250883Y-105100539D01*
X144344898Y-105145461D01*
X144435083Y-105193735D01*
X144504785Y-105236928D01*
X144537352Y-105266608D01*
X144537481Y-105266929D01*
X144534680Y-105321857D01*
X144509561Y-105374292D01*
X144465459Y-105416881D01*
X144401091Y-105431126D01*
X144346079Y-105429466D01*
X144268165Y-105428245D01*
X144227268Y-105446498D01*
X144202705Y-105494726D01*
X144199608Y-105503820D01*
X144188960Y-105572598D01*
X144217435Y-105614360D01*
X144291656Y-105634263D01*
X144371832Y-105637944D01*
X144516110Y-105610658D01*
X144590797Y-105571690D01*
X144683037Y-105480148D01*
X144731957Y-105367782D01*
X144736346Y-105249051D01*
X144694999Y-105138411D01*
X144632803Y-105069080D01*
X144570706Y-105030265D01*
X144473105Y-104981125D01*
X144359368Y-104931292D01*
X144340410Y-104923677D01*
X144215479Y-104868545D01*
X144143461Y-104819954D01*
X144120300Y-104771647D01*
X144141936Y-104717370D01*
X144179080Y-104674943D01*
X144266873Y-104622702D01*
X144363470Y-104618784D01*
X144452056Y-104659041D01*
X144515814Y-104739326D01*
X144524183Y-104760040D01*
X144572904Y-104836225D01*
X144644035Y-104892785D01*
X144733793Y-104939201D01*
X144733793Y-104807584D01*
X144728510Y-104727168D01*
X144705858Y-104663786D01*
X144655633Y-104596163D01*
X144607418Y-104544076D01*
X144532446Y-104470322D01*
X144474194Y-104430702D01*
X144411628Y-104414810D01*
X144340807Y-104412184D01*
X144185594Y-104435156D01*
G37*
X144185594Y-104435156D02*
X144101531Y-104473393D01*
X144035550Y-104519726D01*
X143987206Y-104571532D01*
X143953828Y-104638363D01*
X143932747Y-104729769D01*
X143921293Y-104855301D01*
X143916797Y-105024508D01*
X143916322Y-105135933D01*
X143916322Y-105570627D01*
X143990684Y-105604509D01*
X144049254Y-105629272D01*
X144078270Y-105638391D01*
X144083821Y-105611257D01*
X144088225Y-105538094D01*
X144090922Y-105431263D01*
X144091494Y-105346437D01*
X144093954Y-105223887D01*
X144100588Y-105126668D01*
X144110274Y-105067134D01*
X144117968Y-105054483D01*
X144169689Y-105067402D01*
X144250883Y-105100539D01*
X144344898Y-105145461D01*
X144435083Y-105193735D01*
X144504785Y-105236928D01*
X144537352Y-105266608D01*
X144537481Y-105266929D01*
X144534680Y-105321857D01*
X144509561Y-105374292D01*
X144465459Y-105416881D01*
X144401091Y-105431126D01*
X144346079Y-105429466D01*
X144268165Y-105428245D01*
X144227268Y-105446498D01*
X144202705Y-105494726D01*
X144199608Y-105503820D01*
X144188960Y-105572598D01*
X144217435Y-105614360D01*
X144291656Y-105634263D01*
X144371832Y-105637944D01*
X144516110Y-105610658D01*
X144590797Y-105571690D01*
X144683037Y-105480148D01*
X144731957Y-105367782D01*
X144736346Y-105249051D01*
X144694999Y-105138411D01*
X144632803Y-105069080D01*
X144570706Y-105030265D01*
X144473105Y-104981125D01*
X144359368Y-104931292D01*
X144340410Y-104923677D01*
X144215479Y-104868545D01*
X144143461Y-104819954D01*
X144120300Y-104771647D01*
X144141936Y-104717370D01*
X144179080Y-104674943D01*
X144266873Y-104622702D01*
X144363470Y-104618784D01*
X144452056Y-104659041D01*
X144515814Y-104739326D01*
X144524183Y-104760040D01*
X144572904Y-104836225D01*
X144644035Y-104892785D01*
X144733793Y-104939201D01*
X144733793Y-104807584D01*
X144728510Y-104727168D01*
X144705858Y-104663786D01*
X144655633Y-104596163D01*
X144607418Y-104544076D01*
X144532446Y-104470322D01*
X144474194Y-104430702D01*
X144411628Y-104414810D01*
X144340807Y-104412184D01*
X144185594Y-104435156D01*
G36*
X143164310Y-104440018D02*
G01*
X143129415Y-104455269D01*
X143046123Y-104521235D01*
X142974897Y-104616618D01*
X142930847Y-104718406D01*
X142923678Y-104768587D01*
X142947715Y-104838647D01*
X143000439Y-104875717D01*
X143056969Y-104898164D01*
X143082854Y-104902300D01*
X143095458Y-104872283D01*
X143120346Y-104806961D01*
X143131265Y-104777445D01*
X143192492Y-104675348D01*
X143281139Y-104624423D01*
X143394807Y-104625989D01*
X143403226Y-104627994D01*
X143463912Y-104656767D01*
X143508526Y-104712859D01*
X143538998Y-104803163D01*
X143557256Y-104934571D01*
X143565229Y-105113974D01*
X143565977Y-105209433D01*
X143566348Y-105359913D01*
X143568777Y-105462495D01*
X143575240Y-105527672D01*
X143587712Y-105565938D01*
X143608167Y-105587785D01*
X143638581Y-105603707D01*
X143640339Y-105604509D01*
X143698909Y-105629272D01*
X143727925Y-105638391D01*
X143732384Y-105610822D01*
X143736201Y-105534620D01*
X143739101Y-105419541D01*
X143740809Y-105275341D01*
X143741149Y-105169814D01*
X143739412Y-104965613D01*
X143732618Y-104810697D01*
X143718393Y-104696024D01*
X143694362Y-104612551D01*
X143658152Y-104551236D01*
X143607388Y-104503034D01*
X143557261Y-104469393D01*
X143436725Y-104424619D01*
X143296443Y-104414521D01*
X143164310Y-104440018D01*
G37*
X143164310Y-104440018D02*
X143129415Y-104455269D01*
X143046123Y-104521235D01*
X142974897Y-104616618D01*
X142930847Y-104718406D01*
X142923678Y-104768587D01*
X142947715Y-104838647D01*
X143000439Y-104875717D01*
X143056969Y-104898164D01*
X143082854Y-104902300D01*
X143095458Y-104872283D01*
X143120346Y-104806961D01*
X143131265Y-104777445D01*
X143192492Y-104675348D01*
X143281139Y-104624423D01*
X143394807Y-104625989D01*
X143403226Y-104627994D01*
X143463912Y-104656767D01*
X143508526Y-104712859D01*
X143538998Y-104803163D01*
X143557256Y-104934571D01*
X143565229Y-105113974D01*
X143565977Y-105209433D01*
X143566348Y-105359913D01*
X143568777Y-105462495D01*
X143575240Y-105527672D01*
X143587712Y-105565938D01*
X143608167Y-105587785D01*
X143638581Y-105603707D01*
X143640339Y-105604509D01*
X143698909Y-105629272D01*
X143727925Y-105638391D01*
X143732384Y-105610822D01*
X143736201Y-105534620D01*
X143739101Y-105419541D01*
X143740809Y-105275341D01*
X143741149Y-105169814D01*
X143739412Y-104965613D01*
X143732618Y-104810697D01*
X143718393Y-104696024D01*
X143694362Y-104612551D01*
X143658152Y-104551236D01*
X143607388Y-104503034D01*
X143557261Y-104469393D01*
X143436725Y-104424619D01*
X143296443Y-104414521D01*
X143164310Y-104440018D01*
G36*
X142156561Y-104456540D02*
G01*
X142041050Y-104532034D01*
X141985336Y-104599617D01*
X141941196Y-104722255D01*
X141937691Y-104819298D01*
X141945632Y-104949056D01*
X142244885Y-105080039D01*
X142390389Y-105146958D01*
X142485463Y-105200790D01*
X142534899Y-105247416D01*
X142543489Y-105292720D01*
X142516028Y-105342582D01*
X142485747Y-105375632D01*
X142397637Y-105428633D01*
X142301804Y-105432347D01*
X142213788Y-105391041D01*
X142149131Y-105308983D01*
X142137567Y-105280008D01*
X142082175Y-105189509D01*
X142018447Y-105150940D01*
X141931034Y-105117946D01*
X141931034Y-105243034D01*
X141938762Y-105328156D01*
X141969034Y-105399938D01*
X142032482Y-105482356D01*
X142041912Y-105493066D01*
X142112487Y-105566391D01*
X142173153Y-105605742D01*
X142249050Y-105623845D01*
X142311970Y-105629774D01*
X142424513Y-105631251D01*
X142504630Y-105612535D01*
X142554610Y-105584747D01*
X142633162Y-105523641D01*
X142687537Y-105457554D01*
X142721948Y-105374441D01*
X142740612Y-105262254D01*
X142747744Y-105108946D01*
X142748313Y-105031136D01*
X142746378Y-104937853D01*
X142570101Y-104937853D01*
X142568056Y-104987896D01*
X142562961Y-104996092D01*
X142529334Y-104984958D01*
X142456970Y-104955493D01*
X142360253Y-104913601D01*
X142340027Y-104904597D01*
X142217797Y-104842442D01*
X142150453Y-104787815D01*
X142135652Y-104736649D01*
X142171053Y-104684876D01*
X142200289Y-104662000D01*
X142305784Y-104616250D01*
X142404524Y-104623808D01*
X142487188Y-104679651D01*
X142544452Y-104778753D01*
X142562812Y-104857414D01*
X142570101Y-104937853D01*
X142746378Y-104937853D01*
X142744541Y-104849351D01*
X142730641Y-104714853D01*
X142703106Y-104616916D01*
X142658428Y-104544811D01*
X142593099Y-104487813D01*
X142564617Y-104469393D01*
X142435237Y-104421422D01*
X142293588Y-104418403D01*
X142156561Y-104456540D01*
G37*
X142156561Y-104456540D02*
X142041050Y-104532034D01*
X141985336Y-104599617D01*
X141941196Y-104722255D01*
X141937691Y-104819298D01*
X141945632Y-104949056D01*
X142244885Y-105080039D01*
X142390389Y-105146958D01*
X142485463Y-105200790D01*
X142534899Y-105247416D01*
X142543489Y-105292720D01*
X142516028Y-105342582D01*
X142485747Y-105375632D01*
X142397637Y-105428633D01*
X142301804Y-105432347D01*
X142213788Y-105391041D01*
X142149131Y-105308983D01*
X142137567Y-105280008D01*
X142082175Y-105189509D01*
X142018447Y-105150940D01*
X141931034Y-105117946D01*
X141931034Y-105243034D01*
X141938762Y-105328156D01*
X141969034Y-105399938D01*
X142032482Y-105482356D01*
X142041912Y-105493066D01*
X142112487Y-105566391D01*
X142173153Y-105605742D01*
X142249050Y-105623845D01*
X142311970Y-105629774D01*
X142424513Y-105631251D01*
X142504630Y-105612535D01*
X142554610Y-105584747D01*
X142633162Y-105523641D01*
X142687537Y-105457554D01*
X142721948Y-105374441D01*
X142740612Y-105262254D01*
X142747744Y-105108946D01*
X142748313Y-105031136D01*
X142746378Y-104937853D01*
X142570101Y-104937853D01*
X142568056Y-104987896D01*
X142562961Y-104996092D01*
X142529334Y-104984958D01*
X142456970Y-104955493D01*
X142360253Y-104913601D01*
X142340027Y-104904597D01*
X142217797Y-104842442D01*
X142150453Y-104787815D01*
X142135652Y-104736649D01*
X142171053Y-104684876D01*
X142200289Y-104662000D01*
X142305784Y-104616250D01*
X142404524Y-104623808D01*
X142487188Y-104679651D01*
X142544452Y-104778753D01*
X142562812Y-104857414D01*
X142570101Y-104937853D01*
X142746378Y-104937853D01*
X142744541Y-104849351D01*
X142730641Y-104714853D01*
X142703106Y-104616916D01*
X142658428Y-104544811D01*
X142593099Y-104487813D01*
X142564617Y-104469393D01*
X142435237Y-104421422D01*
X142293588Y-104418403D01*
X142156561Y-104456540D01*
G36*
X148290986Y-94952998D02*
G01*
X148132994Y-94953863D01*
X148018653Y-94956205D01*
X147940593Y-94960762D01*
X147891446Y-94968270D01*
X147863841Y-94979466D01*
X147850408Y-94995088D01*
X147843779Y-95015873D01*
X147843135Y-95018563D01*
X147833065Y-95067113D01*
X147814425Y-95162905D01*
X147789155Y-95295743D01*
X147759193Y-95455431D01*
X147726478Y-95631774D01*
X147725336Y-95637967D01*
X147692567Y-95810782D01*
X147661907Y-95963469D01*
X147635336Y-96086871D01*
X147614833Y-96171831D01*
X147602374Y-96209190D01*
X147601780Y-96209852D01*
X147565081Y-96228095D01*
X147489414Y-96258497D01*
X147391122Y-96294493D01*
X147390575Y-96294685D01*
X147266767Y-96341222D01*
X147120804Y-96400504D01*
X146983219Y-96460109D01*
X146976707Y-96463056D01*
X146752610Y-96564765D01*
X146256381Y-96225897D01*
X146104154Y-96122592D01*
X145966259Y-96030237D01*
X145850685Y-95954084D01*
X145765421Y-95899385D01*
X145718456Y-95871393D01*
X145713996Y-95869317D01*
X145679866Y-95878560D01*
X145616119Y-95923156D01*
X145520269Y-96005209D01*
X145389831Y-96126821D01*
X145256672Y-96256205D01*
X145128306Y-96383702D01*
X145013419Y-96500046D01*
X144918927Y-96598052D01*
X144851747Y-96670536D01*
X144818794Y-96710313D01*
X144817568Y-96712361D01*
X144813926Y-96739656D01*
X144827650Y-96784234D01*
X144862131Y-96852112D01*
X144920761Y-96949311D01*
X145006930Y-97081851D01*
X145121800Y-97252476D01*
X145223746Y-97402655D01*
X145314877Y-97537350D01*
X145389927Y-97648740D01*
X145443631Y-97729005D01*
X145470720Y-97770325D01*
X145472426Y-97773130D01*
X145469118Y-97812721D01*
X145444047Y-97889669D01*
X145402202Y-97989432D01*
X145387288Y-98021291D01*
X145322214Y-98163226D01*
X145252788Y-98324273D01*
X145196391Y-98463621D01*
X145155753Y-98567044D01*
X145123474Y-98645642D01*
X145104822Y-98686720D01*
X145102503Y-98689885D01*
X145068197Y-98695128D01*
X144987331Y-98709494D01*
X144870657Y-98730937D01*
X144728925Y-98757413D01*
X144572890Y-98786877D01*
X144413302Y-98817283D01*
X144260915Y-98846588D01*
X144126479Y-98872745D01*
X144020748Y-98893710D01*
X143954474Y-98907439D01*
X143938218Y-98911320D01*
X143921427Y-98920900D01*
X143908751Y-98942536D01*
X143899622Y-98983531D01*
X143893469Y-99051189D01*
X143889720Y-99152812D01*
X143887808Y-99295703D01*
X143887160Y-99487165D01*
X143887126Y-99565645D01*
X143887126Y-100203906D01*
X144040402Y-100234160D01*
X144125678Y-100250564D01*
X144252930Y-100274509D01*
X144406685Y-100303107D01*
X144571466Y-100333467D01*
X144617011Y-100341806D01*
X144769068Y-100371370D01*
X144901532Y-100400442D01*
X145003286Y-100426329D01*
X145063212Y-100446337D01*
X145073195Y-100452301D01*
X145097707Y-100494534D01*
X145132852Y-100576370D01*
X145171827Y-100681683D01*
X145179558Y-100704368D01*
X145230640Y-100845018D01*
X145294046Y-101003714D01*
X145356096Y-101146225D01*
X145356402Y-101146886D01*
X145459733Y-101370440D01*
X144780039Y-102370232D01*
X145216379Y-102807300D01*
X145348351Y-102937381D01*
X145468721Y-103052048D01*
X145570727Y-103145181D01*
X145647609Y-103210658D01*
X145692607Y-103242357D01*
X145699062Y-103244368D01*
X145736960Y-103228529D01*
X145814292Y-103184496D01*
X145922611Y-103117490D01*
X146053468Y-103032734D01*
X146194948Y-102937816D01*
X146338539Y-102840998D01*
X146466565Y-102756751D01*
X146570895Y-102690258D01*
X146643400Y-102646702D01*
X146675842Y-102631264D01*
X146715424Y-102644328D01*
X146790481Y-102678750D01*
X146885532Y-102727380D01*
X146895608Y-102732785D01*
X147023609Y-102796980D01*
X147111382Y-102828463D01*
X147165972Y-102828798D01*
X147194425Y-102799548D01*
X147194590Y-102799138D01*
X147208812Y-102764498D01*
X147242731Y-102682269D01*
X147293716Y-102558814D01*
X147359138Y-102400498D01*
X147436366Y-102213686D01*
X147522771Y-102004742D01*
X147606449Y-101802446D01*
X147698412Y-101579200D01*
X147782850Y-101372392D01*
X147857231Y-101188362D01*
X147919026Y-101033451D01*
X147965703Y-100913996D01*
X147994732Y-100836339D01*
X148003678Y-100807356D01*
X147981244Y-100774110D01*
X147922561Y-100721123D01*
X147844311Y-100662704D01*
X147621466Y-100477952D01*
X147447282Y-100266182D01*
X147323846Y-100031856D01*
X147253246Y-99779434D01*
X147237569Y-99513377D01*
X147248964Y-99390575D01*
X147311050Y-99135793D01*
X147417977Y-98910801D01*
X147563111Y-98717817D01*
X147739822Y-98559061D01*
X147941478Y-98436750D01*
X148161446Y-98353105D01*
X148393094Y-98310344D01*
X148629791Y-98310687D01*
X148864905Y-98356352D01*
X149091804Y-98449559D01*
X149303856Y-98592527D01*
X149392364Y-98673383D01*
X149562111Y-98881007D01*
X149680301Y-99107895D01*
X149747722Y-99347433D01*
X149765160Y-99593007D01*
X149733402Y-99838003D01*
X149653235Y-100075808D01*
X149525445Y-100299807D01*
X149350820Y-100503387D01*
X149155688Y-100662704D01*
X149074409Y-100723602D01*
X149016991Y-100776015D01*
X148996322Y-100807406D01*
X149007144Y-100841639D01*
X149037923Y-100923419D01*
X149086126Y-101046407D01*
X149149222Y-101204263D01*
X149224678Y-101390649D01*
X149309962Y-101599226D01*
X149393781Y-101802496D01*
X149486255Y-102025933D01*
X149571911Y-102232984D01*
X149648118Y-102417286D01*
X149712247Y-102572475D01*
X149761668Y-102692188D01*
X149793752Y-102770061D01*
X149805641Y-102799138D01*
X149833726Y-102828677D01*
X149888051Y-102828591D01*
X149975605Y-102797326D01*
X150103381Y-102733329D01*
X150104392Y-102732785D01*
X150200598Y-102683121D01*
X150278369Y-102646945D01*
X150322223Y-102631408D01*
X150324158Y-102631264D01*
X150357171Y-102647024D01*
X150430054Y-102690850D01*
X150534678Y-102757557D01*
X150662910Y-102841964D01*
X150805052Y-102937816D01*
X150949767Y-103034867D01*
X151080196Y-103119270D01*
X151187890Y-103185801D01*
X151264402Y-103229238D01*
X151300938Y-103244368D01*
X151334582Y-103224482D01*
X151402224Y-103168903D01*
X151497107Y-103083754D01*
X151612470Y-102975153D01*
X151741555Y-102849221D01*
X151783771Y-102807149D01*
X152220261Y-102369931D01*
X151888023Y-101882340D01*
X151787054Y-101732605D01*
X151698438Y-101598220D01*
X151627146Y-101486969D01*
X151578150Y-101406639D01*
X151556422Y-101365014D01*
X151555785Y-101362053D01*
X151567240Y-101322818D01*
X151598051Y-101243895D01*
X151642884Y-101138509D01*
X151674353Y-101067954D01*
X151733192Y-100932876D01*
X151788604Y-100796409D01*
X151831564Y-100681103D01*
X151843234Y-100645977D01*
X151876389Y-100552174D01*
X151908799Y-100479694D01*
X151926601Y-100452301D01*
X151965886Y-100435536D01*
X152051626Y-100411770D01*
X152172697Y-100383697D01*
X152317973Y-100354009D01*
X152382988Y-100341806D01*
X152548087Y-100311468D01*
X152706448Y-100282093D01*
X152842596Y-100256569D01*
X152941057Y-100237785D01*
X152959598Y-100234160D01*
X153112873Y-100203906D01*
X153112873Y-99565645D01*
X153112529Y-99355770D01*
X153111116Y-99196980D01*
X153108064Y-99081973D01*
X153102803Y-99003446D01*
X153094763Y-98954096D01*
X153083373Y-98926619D01*
X153068063Y-98913713D01*
X153061782Y-98911320D01*
X153023896Y-98902833D01*
X152940195Y-98885900D01*
X152821433Y-98862566D01*
X152678361Y-98834875D01*
X152521732Y-98804873D01*
X152362297Y-98774604D01*
X152210809Y-98746115D01*
X152078019Y-98721449D01*
X151974681Y-98702651D01*
X151911545Y-98691767D01*
X151897497Y-98689885D01*
X151884770Y-98664704D01*
X151856600Y-98597622D01*
X151818252Y-98501333D01*
X151803609Y-98463621D01*
X151744548Y-98317921D01*
X151675000Y-98156951D01*
X151612712Y-98021291D01*
X151566879Y-97917561D01*
X151536387Y-97832326D01*
X151526208Y-97780126D01*
X151527831Y-97773130D01*
X151549343Y-97740102D01*
X151598465Y-97666643D01*
X151669923Y-97560577D01*
X151758445Y-97429726D01*
X151858759Y-97281912D01*
X151878594Y-97252734D01*
X151994988Y-97079863D01*
X152080548Y-96948226D01*
X152138684Y-96851761D01*
X152172808Y-96784408D01*
X152186331Y-96740106D01*
X152182664Y-96712794D01*
X152182570Y-96712620D01*
X152153707Y-96676746D01*
X152089867Y-96607391D01*
X151997969Y-96511745D01*
X151884933Y-96396999D01*
X151757679Y-96270341D01*
X151743328Y-96256205D01*
X151582957Y-96100903D01*
X151459195Y-95986870D01*
X151369555Y-95912002D01*
X151311552Y-95874196D01*
X151286004Y-95869317D01*
X151248718Y-95890603D01*
X151171343Y-95939773D01*
X151061867Y-96011575D01*
X150928280Y-96100755D01*
X150778570Y-96202063D01*
X150743618Y-96225897D01*
X150247390Y-96564765D01*
X150023293Y-96463056D01*
X149887011Y-96403783D01*
X149740724Y-96344170D01*
X149614965Y-96296640D01*
X149609425Y-96294685D01*
X149511057Y-96258677D01*
X149435229Y-96228229D01*
X149398282Y-96209905D01*
X149398220Y-96209852D01*
X149386496Y-96176729D01*
X149366568Y-96095267D01*
X149340413Y-95974625D01*
X149310010Y-95823959D01*
X149277337Y-95652428D01*
X149274664Y-95637967D01*
X149241890Y-95461235D01*
X149211802Y-95300810D01*
X149186339Y-95166888D01*
X149167441Y-95069663D01*
X149157047Y-95019332D01*
X149156865Y-95018563D01*
X149150539Y-94997153D01*
X149138239Y-94980988D01*
X149112594Y-94969331D01*
X149066235Y-94961445D01*
X148991792Y-94956593D01*
X148881895Y-94954039D01*
X148729175Y-94953045D01*
X148526262Y-94952874D01*
X148500000Y-94952874D01*
X148290986Y-94952998D01*
G37*
X148290986Y-94952998D02*
X148132994Y-94953863D01*
X148018653Y-94956205D01*
X147940593Y-94960762D01*
X147891446Y-94968270D01*
X147863841Y-94979466D01*
X147850408Y-94995088D01*
X147843779Y-95015873D01*
X147843135Y-95018563D01*
X147833065Y-95067113D01*
X147814425Y-95162905D01*
X147789155Y-95295743D01*
X147759193Y-95455431D01*
X147726478Y-95631774D01*
X147725336Y-95637967D01*
X147692567Y-95810782D01*
X147661907Y-95963469D01*
X147635336Y-96086871D01*
X147614833Y-96171831D01*
X147602374Y-96209190D01*
X147601780Y-96209852D01*
X147565081Y-96228095D01*
X147489414Y-96258497D01*
X147391122Y-96294493D01*
X147390575Y-96294685D01*
X147266767Y-96341222D01*
X147120804Y-96400504D01*
X146983219Y-96460109D01*
X146976707Y-96463056D01*
X146752610Y-96564765D01*
X146256381Y-96225897D01*
X146104154Y-96122592D01*
X145966259Y-96030237D01*
X145850685Y-95954084D01*
X145765421Y-95899385D01*
X145718456Y-95871393D01*
X145713996Y-95869317D01*
X145679866Y-95878560D01*
X145616119Y-95923156D01*
X145520269Y-96005209D01*
X145389831Y-96126821D01*
X145256672Y-96256205D01*
X145128306Y-96383702D01*
X145013419Y-96500046D01*
X144918927Y-96598052D01*
X144851747Y-96670536D01*
X144818794Y-96710313D01*
X144817568Y-96712361D01*
X144813926Y-96739656D01*
X144827650Y-96784234D01*
X144862131Y-96852112D01*
X144920761Y-96949311D01*
X145006930Y-97081851D01*
X145121800Y-97252476D01*
X145223746Y-97402655D01*
X145314877Y-97537350D01*
X145389927Y-97648740D01*
X145443631Y-97729005D01*
X145470720Y-97770325D01*
X145472426Y-97773130D01*
X145469118Y-97812721D01*
X145444047Y-97889669D01*
X145402202Y-97989432D01*
X145387288Y-98021291D01*
X145322214Y-98163226D01*
X145252788Y-98324273D01*
X145196391Y-98463621D01*
X145155753Y-98567044D01*
X145123474Y-98645642D01*
X145104822Y-98686720D01*
X145102503Y-98689885D01*
X145068197Y-98695128D01*
X144987331Y-98709494D01*
X144870657Y-98730937D01*
X144728925Y-98757413D01*
X144572890Y-98786877D01*
X144413302Y-98817283D01*
X144260915Y-98846588D01*
X144126479Y-98872745D01*
X144020748Y-98893710D01*
X143954474Y-98907439D01*
X143938218Y-98911320D01*
X143921427Y-98920900D01*
X143908751Y-98942536D01*
X143899622Y-98983531D01*
X143893469Y-99051189D01*
X143889720Y-99152812D01*
X143887808Y-99295703D01*
X143887160Y-99487165D01*
X143887126Y-99565645D01*
X143887126Y-100203906D01*
X144040402Y-100234160D01*
X144125678Y-100250564D01*
X144252930Y-100274509D01*
X144406685Y-100303107D01*
X144571466Y-100333467D01*
X144617011Y-100341806D01*
X144769068Y-100371370D01*
X144901532Y-100400442D01*
X145003286Y-100426329D01*
X145063212Y-100446337D01*
X145073195Y-100452301D01*
X145097707Y-100494534D01*
X145132852Y-100576370D01*
X145171827Y-100681683D01*
X145179558Y-100704368D01*
X145230640Y-100845018D01*
X145294046Y-101003714D01*
X145356096Y-101146225D01*
X145356402Y-101146886D01*
X145459733Y-101370440D01*
X144780039Y-102370232D01*
X145216379Y-102807300D01*
X145348351Y-102937381D01*
X145468721Y-103052048D01*
X145570727Y-103145181D01*
X145647609Y-103210658D01*
X145692607Y-103242357D01*
X145699062Y-103244368D01*
X145736960Y-103228529D01*
X145814292Y-103184496D01*
X145922611Y-103117490D01*
X146053468Y-103032734D01*
X146194948Y-102937816D01*
X146338539Y-102840998D01*
X146466565Y-102756751D01*
X146570895Y-102690258D01*
X146643400Y-102646702D01*
X146675842Y-102631264D01*
X146715424Y-102644328D01*
X146790481Y-102678750D01*
X146885532Y-102727380D01*
X146895608Y-102732785D01*
X147023609Y-102796980D01*
X147111382Y-102828463D01*
X147165972Y-102828798D01*
X147194425Y-102799548D01*
X147194590Y-102799138D01*
X147208812Y-102764498D01*
X147242731Y-102682269D01*
X147293716Y-102558814D01*
X147359138Y-102400498D01*
X147436366Y-102213686D01*
X147522771Y-102004742D01*
X147606449Y-101802446D01*
X147698412Y-101579200D01*
X147782850Y-101372392D01*
X147857231Y-101188362D01*
X147919026Y-101033451D01*
X147965703Y-100913996D01*
X147994732Y-100836339D01*
X148003678Y-100807356D01*
X147981244Y-100774110D01*
X147922561Y-100721123D01*
X147844311Y-100662704D01*
X147621466Y-100477952D01*
X147447282Y-100266182D01*
X147323846Y-100031856D01*
X147253246Y-99779434D01*
X147237569Y-99513377D01*
X147248964Y-99390575D01*
X147311050Y-99135793D01*
X147417977Y-98910801D01*
X147563111Y-98717817D01*
X147739822Y-98559061D01*
X147941478Y-98436750D01*
X148161446Y-98353105D01*
X148393094Y-98310344D01*
X148629791Y-98310687D01*
X148864905Y-98356352D01*
X149091804Y-98449559D01*
X149303856Y-98592527D01*
X149392364Y-98673383D01*
X149562111Y-98881007D01*
X149680301Y-99107895D01*
X149747722Y-99347433D01*
X149765160Y-99593007D01*
X149733402Y-99838003D01*
X149653235Y-100075808D01*
X149525445Y-100299807D01*
X149350820Y-100503387D01*
X149155688Y-100662704D01*
X149074409Y-100723602D01*
X149016991Y-100776015D01*
X148996322Y-100807406D01*
X149007144Y-100841639D01*
X149037923Y-100923419D01*
X149086126Y-101046407D01*
X149149222Y-101204263D01*
X149224678Y-101390649D01*
X149309962Y-101599226D01*
X149393781Y-101802496D01*
X149486255Y-102025933D01*
X149571911Y-102232984D01*
X149648118Y-102417286D01*
X149712247Y-102572475D01*
X149761668Y-102692188D01*
X149793752Y-102770061D01*
X149805641Y-102799138D01*
X149833726Y-102828677D01*
X149888051Y-102828591D01*
X149975605Y-102797326D01*
X150103381Y-102733329D01*
X150104392Y-102732785D01*
X150200598Y-102683121D01*
X150278369Y-102646945D01*
X150322223Y-102631408D01*
X150324158Y-102631264D01*
X150357171Y-102647024D01*
X150430054Y-102690850D01*
X150534678Y-102757557D01*
X150662910Y-102841964D01*
X150805052Y-102937816D01*
X150949767Y-103034867D01*
X151080196Y-103119270D01*
X151187890Y-103185801D01*
X151264402Y-103229238D01*
X151300938Y-103244368D01*
X151334582Y-103224482D01*
X151402224Y-103168903D01*
X151497107Y-103083754D01*
X151612470Y-102975153D01*
X151741555Y-102849221D01*
X151783771Y-102807149D01*
X152220261Y-102369931D01*
X151888023Y-101882340D01*
X151787054Y-101732605D01*
X151698438Y-101598220D01*
X151627146Y-101486969D01*
X151578150Y-101406639D01*
X151556422Y-101365014D01*
X151555785Y-101362053D01*
X151567240Y-101322818D01*
X151598051Y-101243895D01*
X151642884Y-101138509D01*
X151674353Y-101067954D01*
X151733192Y-100932876D01*
X151788604Y-100796409D01*
X151831564Y-100681103D01*
X151843234Y-100645977D01*
X151876389Y-100552174D01*
X151908799Y-100479694D01*
X151926601Y-100452301D01*
X151965886Y-100435536D01*
X152051626Y-100411770D01*
X152172697Y-100383697D01*
X152317973Y-100354009D01*
X152382988Y-100341806D01*
X152548087Y-100311468D01*
X152706448Y-100282093D01*
X152842596Y-100256569D01*
X152941057Y-100237785D01*
X152959598Y-100234160D01*
X153112873Y-100203906D01*
X153112873Y-99565645D01*
X153112529Y-99355770D01*
X153111116Y-99196980D01*
X153108064Y-99081973D01*
X153102803Y-99003446D01*
X153094763Y-98954096D01*
X153083373Y-98926619D01*
X153068063Y-98913713D01*
X153061782Y-98911320D01*
X153023896Y-98902833D01*
X152940195Y-98885900D01*
X152821433Y-98862566D01*
X152678361Y-98834875D01*
X152521732Y-98804873D01*
X152362297Y-98774604D01*
X152210809Y-98746115D01*
X152078019Y-98721449D01*
X151974681Y-98702651D01*
X151911545Y-98691767D01*
X151897497Y-98689885D01*
X151884770Y-98664704D01*
X151856600Y-98597622D01*
X151818252Y-98501333D01*
X151803609Y-98463621D01*
X151744548Y-98317921D01*
X151675000Y-98156951D01*
X151612712Y-98021291D01*
X151566879Y-97917561D01*
X151536387Y-97832326D01*
X151526208Y-97780126D01*
X151527831Y-97773130D01*
X151549343Y-97740102D01*
X151598465Y-97666643D01*
X151669923Y-97560577D01*
X151758445Y-97429726D01*
X151858759Y-97281912D01*
X151878594Y-97252734D01*
X151994988Y-97079863D01*
X152080548Y-96948226D01*
X152138684Y-96851761D01*
X152172808Y-96784408D01*
X152186331Y-96740106D01*
X152182664Y-96712794D01*
X152182570Y-96712620D01*
X152153707Y-96676746D01*
X152089867Y-96607391D01*
X151997969Y-96511745D01*
X151884933Y-96396999D01*
X151757679Y-96270341D01*
X151743328Y-96256205D01*
X151582957Y-96100903D01*
X151459195Y-95986870D01*
X151369555Y-95912002D01*
X151311552Y-95874196D01*
X151286004Y-95869317D01*
X151248718Y-95890603D01*
X151171343Y-95939773D01*
X151061867Y-96011575D01*
X150928280Y-96100755D01*
X150778570Y-96202063D01*
X150743618Y-96225897D01*
X150247390Y-96564765D01*
X150023293Y-96463056D01*
X149887011Y-96403783D01*
X149740724Y-96344170D01*
X149614965Y-96296640D01*
X149609425Y-96294685D01*
X149511057Y-96258677D01*
X149435229Y-96228229D01*
X149398282Y-96209905D01*
X149398220Y-96209852D01*
X149386496Y-96176729D01*
X149366568Y-96095267D01*
X149340413Y-95974625D01*
X149310010Y-95823959D01*
X149277337Y-95652428D01*
X149274664Y-95637967D01*
X149241890Y-95461235D01*
X149211802Y-95300810D01*
X149186339Y-95166888D01*
X149167441Y-95069663D01*
X149157047Y-95019332D01*
X149156865Y-95018563D01*
X149150539Y-94997153D01*
X149138239Y-94980988D01*
X149112594Y-94969331D01*
X149066235Y-94961445D01*
X148991792Y-94956593D01*
X148881895Y-94954039D01*
X148729175Y-94953045D01*
X148526262Y-94952874D01*
X148500000Y-94952874D01*
X148290986Y-94952998D01*
M02*
