G04 #@! TF.GenerationSoftware,KiCad,Pcbnew,5.1.10*
G04 #@! TF.CreationDate,2021-06-18T04:30:29+02:00*
G04 #@! TF.ProjectId,power-extender,706f7765-722d-4657-9874-656e6465722e,1*
G04 #@! TF.SameCoordinates,Original*
G04 #@! TF.FileFunction,Copper,L2,Bot*
G04 #@! TF.FilePolarity,Positive*
%FSLAX46Y46*%
G04 Gerber Fmt 4.6, Leading zero omitted, Abs format (unit mm)*
G04 Created by KiCad (PCBNEW 5.1.10) date 2021-06-18 04:30:29*
%MOMM*%
%LPD*%
G01*
G04 APERTURE LIST*
G04 #@! TA.AperFunction,ComponentPad*
%ADD10C,3.000000*%
G04 #@! TD*
G04 #@! TA.AperFunction,ComponentPad*
%ADD11C,2.500000*%
G04 #@! TD*
G04 #@! TA.AperFunction,ComponentPad*
%ADD12C,2.600000*%
G04 #@! TD*
G04 #@! TA.AperFunction,ComponentPad*
%ADD13R,2.600000X2.600000*%
G04 #@! TD*
G04 #@! TA.AperFunction,ComponentPad*
%ADD14O,1.700000X1.950000*%
G04 #@! TD*
G04 #@! TA.AperFunction,ViaPad*
%ADD15C,0.800000*%
G04 #@! TD*
G04 #@! TA.AperFunction,Conductor*
%ADD16C,0.250000*%
G04 #@! TD*
G04 #@! TA.AperFunction,Conductor*
%ADD17C,1.000000*%
G04 #@! TD*
G04 #@! TA.AperFunction,Conductor*
%ADD18C,0.500000*%
G04 #@! TD*
G04 #@! TA.AperFunction,Conductor*
%ADD19C,3.000000*%
G04 #@! TD*
G04 #@! TA.AperFunction,Conductor*
%ADD20C,0.254000*%
G04 #@! TD*
G04 #@! TA.AperFunction,Conductor*
%ADD21C,0.150000*%
G04 #@! TD*
G04 APERTURE END LIST*
D10*
X173150000Y-75000000D03*
D11*
X175100000Y-69050000D03*
D10*
X187350000Y-69000000D03*
X187300000Y-81050000D03*
D11*
X175100000Y-81050000D03*
D12*
X186500000Y-87000000D03*
X186500000Y-92000000D03*
D13*
X186500000Y-97000000D03*
D10*
X173150000Y-126000000D03*
D11*
X175100000Y-120050000D03*
D10*
X187350000Y-120000000D03*
X187300000Y-132050000D03*
D11*
X175100000Y-132050000D03*
D12*
X186550000Y-104000000D03*
X186550000Y-109000000D03*
D13*
X186550000Y-114000000D03*
D10*
X124350000Y-126000000D03*
D11*
X122400000Y-131950000D03*
D10*
X110150000Y-132000000D03*
X110200000Y-119950000D03*
D11*
X122400000Y-119950000D03*
D12*
X111000000Y-114000000D03*
X111000000Y-109000000D03*
D13*
X111000000Y-104000000D03*
D10*
X124350000Y-75000000D03*
D11*
X122400000Y-80950000D03*
D10*
X110150000Y-81000000D03*
X110200000Y-68950000D03*
D11*
X122400000Y-68950000D03*
D12*
X110950000Y-97000000D03*
X110950000Y-92000000D03*
D13*
X110950000Y-87000000D03*
D14*
X143400000Y-123600000D03*
X145900000Y-123600000D03*
X148400000Y-123600000D03*
X150900000Y-123600000D03*
G04 #@! TA.AperFunction,ComponentPad*
G36*
G01*
X154250000Y-122875000D02*
X154250000Y-124325000D01*
G75*
G02*
X154000000Y-124575000I-250000J0D01*
G01*
X152800000Y-124575000D01*
G75*
G02*
X152550000Y-124325000I0J250000D01*
G01*
X152550000Y-122875000D01*
G75*
G02*
X152800000Y-122625000I250000J0D01*
G01*
X154000000Y-122625000D01*
G75*
G02*
X154250000Y-122875000I0J-250000D01*
G01*
G37*
G04 #@! TD.AperFunction*
X143400000Y-131100000D03*
X145900000Y-131100000D03*
X148400000Y-131100000D03*
X150900000Y-131100000D03*
G04 #@! TA.AperFunction,ComponentPad*
G36*
G01*
X154250000Y-130375000D02*
X154250000Y-131825000D01*
G75*
G02*
X154000000Y-132075000I-250000J0D01*
G01*
X152800000Y-132075000D01*
G75*
G02*
X152550000Y-131825000I0J250000D01*
G01*
X152550000Y-130375000D01*
G75*
G02*
X152800000Y-130125000I250000J0D01*
G01*
X154000000Y-130125000D01*
G75*
G02*
X154250000Y-130375000I0J-250000D01*
G01*
G37*
G04 #@! TD.AperFunction*
X143400000Y-78500000D03*
X145900000Y-78500000D03*
X148400000Y-78500000D03*
X150900000Y-78500000D03*
G04 #@! TA.AperFunction,ComponentPad*
G36*
G01*
X154250000Y-77775000D02*
X154250000Y-79225000D01*
G75*
G02*
X154000000Y-79475000I-250000J0D01*
G01*
X152800000Y-79475000D01*
G75*
G02*
X152550000Y-79225000I0J250000D01*
G01*
X152550000Y-77775000D01*
G75*
G02*
X152800000Y-77525000I250000J0D01*
G01*
X154000000Y-77525000D01*
G75*
G02*
X154250000Y-77775000I0J-250000D01*
G01*
G37*
G04 #@! TD.AperFunction*
X143400000Y-70950000D03*
X145900000Y-70950000D03*
X148400000Y-70950000D03*
X150900000Y-70950000D03*
G04 #@! TA.AperFunction,ComponentPad*
G36*
G01*
X154250000Y-70225000D02*
X154250000Y-71675000D01*
G75*
G02*
X154000000Y-71925000I-250000J0D01*
G01*
X152800000Y-71925000D01*
G75*
G02*
X152550000Y-71675000I0J250000D01*
G01*
X152550000Y-70225000D01*
G75*
G02*
X152800000Y-69975000I250000J0D01*
G01*
X154000000Y-69975000D01*
G75*
G02*
X154250000Y-70225000I0J-250000D01*
G01*
G37*
G04 #@! TD.AperFunction*
D15*
X136145000Y-87855000D03*
X131750000Y-105750000D03*
X131749994Y-96500000D03*
X134700000Y-112000000D03*
X133600000Y-68000000D03*
X131700000Y-117400000D03*
X165800000Y-83600000D03*
X161355000Y-113145000D03*
X165750006Y-104500000D03*
X163900000Y-133000000D03*
X165750000Y-95250000D03*
X144200000Y-84550000D03*
X150300000Y-84100000D03*
X140500000Y-84000000D03*
X148500000Y-89000000D03*
X153500000Y-89750000D03*
X141249993Y-91250007D03*
X160500000Y-125750000D03*
X137100000Y-75200000D03*
X161800000Y-89400000D03*
X137900000Y-129100000D03*
X157900000Y-71100000D03*
X158525000Y-100475000D03*
X155500000Y-97600000D03*
X154500000Y-90800000D03*
X160100000Y-87900000D03*
X130375000Y-84375000D03*
X129800000Y-105700000D03*
X167125000Y-116625000D03*
X167700000Y-95300000D03*
X155400000Y-114350000D03*
X155750000Y-82500000D03*
X151500000Y-86699998D03*
X160200000Y-84300000D03*
X160200000Y-70900000D03*
X139599996Y-127200000D03*
X148950000Y-111150000D03*
X148950000Y-115650000D03*
X149000000Y-94300000D03*
X138150006Y-94250000D03*
X150200000Y-104800000D03*
X147300000Y-105900000D03*
X146574990Y-86570636D03*
X146600000Y-83600000D03*
X145500000Y-91300000D03*
D16*
X155650000Y-97600000D02*
X155500000Y-97600000D01*
X158525000Y-100475000D02*
X155650000Y-97600000D01*
X157200000Y-90800000D02*
X160100000Y-87900000D01*
X154500000Y-90800000D02*
X157200000Y-90800000D01*
D17*
X129800000Y-105700000D02*
X129800000Y-105700000D01*
X130375000Y-84375000D02*
X129800000Y-84950000D01*
X129800000Y-84950000D02*
X129800000Y-105700000D01*
X167125000Y-116625000D02*
X167700000Y-116050000D01*
X167700000Y-95300000D02*
X167700000Y-95300000D01*
X167700000Y-116050000D02*
X167700000Y-95300000D01*
X155400000Y-114350000D02*
X154400000Y-114350000D01*
X153400000Y-115350000D02*
X153400000Y-123600000D01*
X154400000Y-114350000D02*
X153400000Y-115350000D01*
D16*
X155750000Y-82500000D02*
X151550002Y-86699998D01*
X151550002Y-86699998D02*
X151500000Y-86699998D01*
D17*
X167700000Y-91800000D02*
X160200000Y-84300000D01*
X167700000Y-95300000D02*
X167700000Y-91800000D01*
X160200000Y-84300000D02*
X160200000Y-70900000D01*
X153400000Y-123600000D02*
X149800000Y-127200000D01*
X129800000Y-105700000D02*
X129800000Y-117400004D01*
X129800000Y-117400004D02*
X139599996Y-127200000D01*
X149800000Y-127200000D02*
X139599996Y-127200000D01*
D18*
X148950000Y-118900000D02*
X148950000Y-111150000D01*
X150900000Y-120850000D02*
X148950000Y-118900000D01*
X150900000Y-123600000D02*
X150900000Y-120850000D01*
D16*
X149000000Y-94300000D02*
X138200006Y-94300000D01*
X138200006Y-94300000D02*
X138150006Y-94250000D01*
X149100000Y-105900000D02*
X147300000Y-105900000D01*
X150200000Y-104800000D02*
X149100000Y-105900000D01*
X146574990Y-83625010D02*
X146600000Y-83600000D01*
X146574990Y-86570636D02*
X146574990Y-83625010D01*
X147250000Y-89550000D02*
X145500000Y-91300000D01*
X147250000Y-87245646D02*
X147250000Y-89550000D01*
X146574990Y-86570636D02*
X147250000Y-87245646D01*
D19*
X116850000Y-94400000D02*
X116850000Y-75600000D01*
X114250000Y-97000000D02*
X116850000Y-94400000D01*
X110950000Y-97000000D02*
X114250000Y-97000000D01*
X116850000Y-75600000D02*
X110200000Y-68950000D01*
X110950000Y-87000000D02*
X110950000Y-81800000D01*
X110950000Y-81800000D02*
X110150000Y-81000000D01*
X116850000Y-106600000D02*
X116850000Y-125400000D01*
X114250000Y-104000000D02*
X116850000Y-106600000D01*
X110950000Y-104000000D02*
X114250000Y-104000000D01*
X116850000Y-125400000D02*
X110200000Y-132050000D01*
X110950000Y-114000000D02*
X110950000Y-119200000D01*
X110950000Y-119200000D02*
X110150000Y-120000000D01*
X180650000Y-106600000D02*
X180650000Y-125400000D01*
X183250000Y-104000000D02*
X180650000Y-106600000D01*
X186550000Y-104000000D02*
X183250000Y-104000000D01*
X180650000Y-125400000D02*
X187300000Y-132050000D01*
X186550000Y-114000000D02*
X186550000Y-119200000D01*
X186550000Y-119200000D02*
X187350000Y-120000000D01*
X186550000Y-87000000D02*
X186550000Y-81800000D01*
X186550000Y-81800000D02*
X187350000Y-81000000D01*
X183250000Y-97000000D02*
X180650000Y-94400000D01*
X180650000Y-94400000D02*
X180650000Y-75600000D01*
X180650000Y-75600000D02*
X187300000Y-68950000D01*
X186550000Y-97000000D02*
X183250000Y-97000000D01*
D20*
X166920189Y-67144376D02*
X167083850Y-67194022D01*
X167234672Y-67274638D01*
X167366870Y-67383130D01*
X167475362Y-67515328D01*
X167555978Y-67666150D01*
X167605624Y-67829811D01*
X167623000Y-68006234D01*
X167623000Y-90117867D01*
X161335000Y-83829869D01*
X161335000Y-70844248D01*
X161318577Y-70677501D01*
X161253676Y-70463553D01*
X161148284Y-70266377D01*
X161006449Y-70093551D01*
X160833623Y-69951716D01*
X160636447Y-69846324D01*
X160422499Y-69781423D01*
X160200000Y-69759509D01*
X159977502Y-69781423D01*
X159763554Y-69846324D01*
X159566378Y-69951716D01*
X159393552Y-70093551D01*
X159251717Y-70266377D01*
X159146325Y-70463553D01*
X159081424Y-70677501D01*
X159065001Y-70844248D01*
X159065000Y-84244249D01*
X159059509Y-84300000D01*
X159066896Y-84375000D01*
X159081423Y-84522498D01*
X159146324Y-84736446D01*
X159251716Y-84933623D01*
X159393551Y-85106449D01*
X159436865Y-85141996D01*
X166565001Y-92270134D01*
X166565000Y-95244248D01*
X166559509Y-95300000D01*
X166565001Y-95355762D01*
X166565000Y-115579869D01*
X166283012Y-115861857D01*
X166176717Y-115991378D01*
X166071324Y-116188554D01*
X166006423Y-116402502D01*
X165984509Y-116625000D01*
X166006423Y-116847498D01*
X166071324Y-117061446D01*
X166176717Y-117258622D01*
X166318552Y-117431448D01*
X166491378Y-117573283D01*
X166688554Y-117678676D01*
X166902502Y-117743577D01*
X167125000Y-117765491D01*
X167347498Y-117743577D01*
X167561446Y-117678676D01*
X167623000Y-117645775D01*
X167623000Y-132993766D01*
X167605624Y-133170189D01*
X167555978Y-133333850D01*
X167475362Y-133484672D01*
X167366870Y-133616870D01*
X167234672Y-133725362D01*
X167083850Y-133805978D01*
X166920189Y-133855624D01*
X166743766Y-133873000D01*
X130756234Y-133873000D01*
X130579811Y-133855624D01*
X130416150Y-133805978D01*
X130265328Y-133725362D01*
X130133130Y-133616870D01*
X130024638Y-133484672D01*
X129944022Y-133333850D01*
X129894376Y-133170189D01*
X129877000Y-132993766D01*
X129877000Y-131459267D01*
X141933680Y-131459267D01*
X142007558Y-131740830D01*
X142134947Y-132002570D01*
X142310951Y-132234429D01*
X142528807Y-132427496D01*
X142780142Y-132574352D01*
X143043110Y-132666476D01*
X143273000Y-132545155D01*
X143273000Y-131227000D01*
X142073835Y-131227000D01*
X141933680Y-131459267D01*
X129877000Y-131459267D01*
X129877000Y-130740733D01*
X141933680Y-130740733D01*
X142073835Y-130973000D01*
X143273000Y-130973000D01*
X143273000Y-129654845D01*
X143527000Y-129654845D01*
X143527000Y-130973000D01*
X143547000Y-130973000D01*
X143547000Y-131227000D01*
X143527000Y-131227000D01*
X143527000Y-132545155D01*
X143756890Y-132666476D01*
X144019858Y-132574352D01*
X144271193Y-132427496D01*
X144489049Y-132234429D01*
X144645538Y-132028278D01*
X144659294Y-132054013D01*
X144844866Y-132280134D01*
X145070986Y-132465706D01*
X145328966Y-132603599D01*
X145608889Y-132688513D01*
X145900000Y-132717185D01*
X146191110Y-132688513D01*
X146471033Y-132603599D01*
X146729013Y-132465706D01*
X146955134Y-132280134D01*
X147140706Y-132054014D01*
X147150000Y-132036626D01*
X147159294Y-132054013D01*
X147344866Y-132280134D01*
X147570986Y-132465706D01*
X147828966Y-132603599D01*
X148108889Y-132688513D01*
X148400000Y-132717185D01*
X148691110Y-132688513D01*
X148971033Y-132603599D01*
X149229013Y-132465706D01*
X149455134Y-132280134D01*
X149640706Y-132054014D01*
X149650000Y-132036626D01*
X149659294Y-132054013D01*
X149844866Y-132280134D01*
X150070986Y-132465706D01*
X150328966Y-132603599D01*
X150608889Y-132688513D01*
X150900000Y-132717185D01*
X151191110Y-132688513D01*
X151471033Y-132603599D01*
X151729013Y-132465706D01*
X151955134Y-132280134D01*
X152007223Y-132216663D01*
X152061595Y-132318386D01*
X152172038Y-132452962D01*
X152306614Y-132563405D01*
X152460150Y-132645472D01*
X152626746Y-132696008D01*
X152800000Y-132713072D01*
X154000000Y-132713072D01*
X154173254Y-132696008D01*
X154339850Y-132645472D01*
X154493386Y-132563405D01*
X154627962Y-132452962D01*
X154738405Y-132318386D01*
X154820472Y-132164850D01*
X154871008Y-131998254D01*
X154888072Y-131825000D01*
X154888072Y-130375000D01*
X154871008Y-130201746D01*
X154820472Y-130035150D01*
X154738405Y-129881614D01*
X154627962Y-129747038D01*
X154493386Y-129636595D01*
X154339850Y-129554528D01*
X154173254Y-129503992D01*
X154000000Y-129486928D01*
X152800000Y-129486928D01*
X152626746Y-129503992D01*
X152460150Y-129554528D01*
X152306614Y-129636595D01*
X152172038Y-129747038D01*
X152061595Y-129881614D01*
X152007223Y-129983337D01*
X151955134Y-129919866D01*
X151729014Y-129734294D01*
X151471034Y-129596401D01*
X151191111Y-129511487D01*
X150900000Y-129482815D01*
X150608890Y-129511487D01*
X150328967Y-129596401D01*
X150070987Y-129734294D01*
X149844866Y-129919866D01*
X149659294Y-130145986D01*
X149650000Y-130163374D01*
X149640706Y-130145986D01*
X149455134Y-129919866D01*
X149229014Y-129734294D01*
X148971034Y-129596401D01*
X148691111Y-129511487D01*
X148400000Y-129482815D01*
X148108890Y-129511487D01*
X147828967Y-129596401D01*
X147570987Y-129734294D01*
X147344866Y-129919866D01*
X147159294Y-130145986D01*
X147150000Y-130163374D01*
X147140706Y-130145986D01*
X146955134Y-129919866D01*
X146729014Y-129734294D01*
X146471034Y-129596401D01*
X146191111Y-129511487D01*
X145900000Y-129482815D01*
X145608890Y-129511487D01*
X145328967Y-129596401D01*
X145070987Y-129734294D01*
X144844866Y-129919866D01*
X144659294Y-130145986D01*
X144645538Y-130171722D01*
X144489049Y-129965571D01*
X144271193Y-129772504D01*
X144019858Y-129625648D01*
X143756890Y-129533524D01*
X143527000Y-129654845D01*
X143273000Y-129654845D01*
X143043110Y-129533524D01*
X142780142Y-129625648D01*
X142528807Y-129772504D01*
X142310951Y-129965571D01*
X142134947Y-130197430D01*
X142007558Y-130459170D01*
X141933680Y-130740733D01*
X129877000Y-130740733D01*
X129877000Y-119082135D01*
X138758005Y-127963141D01*
X138793547Y-128006449D01*
X138966373Y-128148284D01*
X139163549Y-128253676D01*
X139377497Y-128318577D01*
X139544244Y-128335000D01*
X139544253Y-128335000D01*
X139599995Y-128340490D01*
X139655737Y-128335000D01*
X149744249Y-128335000D01*
X149800000Y-128340491D01*
X149855751Y-128335000D01*
X149855752Y-128335000D01*
X150022499Y-128318577D01*
X150236447Y-128253676D01*
X150433623Y-128148284D01*
X150606449Y-128006449D01*
X150641996Y-127963135D01*
X153392060Y-125213072D01*
X154000000Y-125213072D01*
X154173254Y-125196008D01*
X154339850Y-125145472D01*
X154493386Y-125063405D01*
X154627962Y-124952962D01*
X154738405Y-124818386D01*
X154820472Y-124664850D01*
X154871008Y-124498254D01*
X154888072Y-124325000D01*
X154888072Y-122875000D01*
X154871008Y-122701746D01*
X154820472Y-122535150D01*
X154738405Y-122381614D01*
X154627962Y-122247038D01*
X154535000Y-122170747D01*
X154535000Y-115820132D01*
X154870132Y-115485000D01*
X155455752Y-115485000D01*
X155622499Y-115468577D01*
X155836447Y-115403676D01*
X156033623Y-115298284D01*
X156206449Y-115156449D01*
X156348284Y-114983623D01*
X156453676Y-114786447D01*
X156518577Y-114572499D01*
X156540491Y-114350000D01*
X156518577Y-114127501D01*
X156453676Y-113913553D01*
X156348284Y-113716377D01*
X156206449Y-113543551D01*
X156033623Y-113401716D01*
X155836447Y-113296324D01*
X155622499Y-113231423D01*
X155455752Y-113215000D01*
X154455752Y-113215000D01*
X154400000Y-113209509D01*
X154177501Y-113231423D01*
X153963553Y-113296324D01*
X153766377Y-113401716D01*
X153636856Y-113508011D01*
X153636854Y-113508013D01*
X153593551Y-113543551D01*
X153558013Y-113586855D01*
X152636864Y-114508005D01*
X152593551Y-114543551D01*
X152451716Y-114716377D01*
X152348486Y-114909509D01*
X152346324Y-114913554D01*
X152281423Y-115127502D01*
X152259509Y-115350000D01*
X152265000Y-115405752D01*
X152265001Y-122170746D01*
X152172038Y-122247038D01*
X152061595Y-122381614D01*
X152007223Y-122483337D01*
X151955134Y-122419866D01*
X151785000Y-122280241D01*
X151785000Y-120893465D01*
X151789281Y-120849999D01*
X151785000Y-120806533D01*
X151785000Y-120806523D01*
X151772195Y-120676510D01*
X151721589Y-120509687D01*
X151639411Y-120355941D01*
X151528817Y-120221183D01*
X151495049Y-120193470D01*
X149835000Y-118533422D01*
X149835000Y-116188454D01*
X149867205Y-116140256D01*
X149945226Y-115951898D01*
X149985000Y-115751939D01*
X149985000Y-115548061D01*
X149945226Y-115348102D01*
X149867205Y-115159744D01*
X149835000Y-115111546D01*
X149835000Y-111688454D01*
X149867205Y-111640256D01*
X149945226Y-111451898D01*
X149985000Y-111251939D01*
X149985000Y-111048061D01*
X149945226Y-110848102D01*
X149867205Y-110659744D01*
X149753937Y-110490226D01*
X149609774Y-110346063D01*
X149440256Y-110232795D01*
X149251898Y-110154774D01*
X149051939Y-110115000D01*
X148848061Y-110115000D01*
X148648102Y-110154774D01*
X148459744Y-110232795D01*
X148290226Y-110346063D01*
X148146063Y-110490226D01*
X148032795Y-110659744D01*
X147954774Y-110848102D01*
X147915000Y-111048061D01*
X147915000Y-111251939D01*
X147954774Y-111451898D01*
X148032795Y-111640256D01*
X148065001Y-111688456D01*
X148065000Y-115111545D01*
X148032795Y-115159744D01*
X147954774Y-115348102D01*
X147915000Y-115548061D01*
X147915000Y-115751939D01*
X147954774Y-115951898D01*
X148032795Y-116140256D01*
X148065000Y-116188455D01*
X148065000Y-118856531D01*
X148060719Y-118900000D01*
X148065000Y-118943469D01*
X148065000Y-118943476D01*
X148077805Y-119073489D01*
X148128411Y-119240312D01*
X148210589Y-119394058D01*
X148321183Y-119528817D01*
X148354956Y-119556534D01*
X150015001Y-121216580D01*
X150015000Y-122280241D01*
X149844866Y-122419866D01*
X149659294Y-122645986D01*
X149650000Y-122663374D01*
X149640706Y-122645986D01*
X149455134Y-122419866D01*
X149229014Y-122234294D01*
X148971034Y-122096401D01*
X148691111Y-122011487D01*
X148400000Y-121982815D01*
X148108890Y-122011487D01*
X147828967Y-122096401D01*
X147570987Y-122234294D01*
X147344866Y-122419866D01*
X147159294Y-122645986D01*
X147150000Y-122663374D01*
X147140706Y-122645986D01*
X146955134Y-122419866D01*
X146729014Y-122234294D01*
X146471034Y-122096401D01*
X146191111Y-122011487D01*
X145900000Y-121982815D01*
X145608890Y-122011487D01*
X145328967Y-122096401D01*
X145070987Y-122234294D01*
X144844866Y-122419866D01*
X144659294Y-122645986D01*
X144645538Y-122671722D01*
X144489049Y-122465571D01*
X144271193Y-122272504D01*
X144019858Y-122125648D01*
X143756890Y-122033524D01*
X143527000Y-122154845D01*
X143527000Y-123473000D01*
X143547000Y-123473000D01*
X143547000Y-123727000D01*
X143527000Y-123727000D01*
X143527000Y-125045155D01*
X143756890Y-125166476D01*
X144019858Y-125074352D01*
X144271193Y-124927496D01*
X144489049Y-124734429D01*
X144645538Y-124528278D01*
X144659294Y-124554013D01*
X144844866Y-124780134D01*
X145070986Y-124965706D01*
X145328966Y-125103599D01*
X145608889Y-125188513D01*
X145900000Y-125217185D01*
X146191110Y-125188513D01*
X146471033Y-125103599D01*
X146729013Y-124965706D01*
X146955134Y-124780134D01*
X147140706Y-124554014D01*
X147150000Y-124536626D01*
X147159294Y-124554013D01*
X147344866Y-124780134D01*
X147570986Y-124965706D01*
X147828966Y-125103599D01*
X148108889Y-125188513D01*
X148400000Y-125217185D01*
X148691110Y-125188513D01*
X148971033Y-125103599D01*
X149229013Y-124965706D01*
X149455134Y-124780134D01*
X149640706Y-124554014D01*
X149650000Y-124536626D01*
X149659294Y-124554013D01*
X149844866Y-124780134D01*
X150070986Y-124965706D01*
X150304400Y-125090468D01*
X149329869Y-126065000D01*
X140070128Y-126065000D01*
X137964395Y-123959267D01*
X141933680Y-123959267D01*
X142007558Y-124240830D01*
X142134947Y-124502570D01*
X142310951Y-124734429D01*
X142528807Y-124927496D01*
X142780142Y-125074352D01*
X143043110Y-125166476D01*
X143273000Y-125045155D01*
X143273000Y-123727000D01*
X142073835Y-123727000D01*
X141933680Y-123959267D01*
X137964395Y-123959267D01*
X137245861Y-123240733D01*
X141933680Y-123240733D01*
X142073835Y-123473000D01*
X143273000Y-123473000D01*
X143273000Y-122154845D01*
X143043110Y-122033524D01*
X142780142Y-122125648D01*
X142528807Y-122272504D01*
X142310951Y-122465571D01*
X142134947Y-122697430D01*
X142007558Y-122959170D01*
X141933680Y-123240733D01*
X137245861Y-123240733D01*
X130935000Y-116929873D01*
X130935000Y-105798061D01*
X146265000Y-105798061D01*
X146265000Y-106001939D01*
X146304774Y-106201898D01*
X146382795Y-106390256D01*
X146496063Y-106559774D01*
X146640226Y-106703937D01*
X146809744Y-106817205D01*
X146998102Y-106895226D01*
X147198061Y-106935000D01*
X147401939Y-106935000D01*
X147601898Y-106895226D01*
X147790256Y-106817205D01*
X147959774Y-106703937D01*
X148003711Y-106660000D01*
X149062678Y-106660000D01*
X149100000Y-106663676D01*
X149137322Y-106660000D01*
X149137333Y-106660000D01*
X149248986Y-106649003D01*
X149392247Y-106605546D01*
X149524276Y-106534974D01*
X149640001Y-106440001D01*
X149663804Y-106410998D01*
X150239802Y-105835000D01*
X150301939Y-105835000D01*
X150501898Y-105795226D01*
X150690256Y-105717205D01*
X150859774Y-105603937D01*
X151003937Y-105459774D01*
X151117205Y-105290256D01*
X151195226Y-105101898D01*
X151235000Y-104901939D01*
X151235000Y-104698061D01*
X151195226Y-104498102D01*
X151117205Y-104309744D01*
X151003937Y-104140226D01*
X150859774Y-103996063D01*
X150690256Y-103882795D01*
X150501898Y-103804774D01*
X150301939Y-103765000D01*
X150098061Y-103765000D01*
X149898102Y-103804774D01*
X149709744Y-103882795D01*
X149540226Y-103996063D01*
X149396063Y-104140226D01*
X149282795Y-104309744D01*
X149204774Y-104498102D01*
X149165000Y-104698061D01*
X149165000Y-104760198D01*
X148785199Y-105140000D01*
X148003711Y-105140000D01*
X147959774Y-105096063D01*
X147790256Y-104982795D01*
X147601898Y-104904774D01*
X147401939Y-104865000D01*
X147198061Y-104865000D01*
X146998102Y-104904774D01*
X146809744Y-104982795D01*
X146640226Y-105096063D01*
X146496063Y-105240226D01*
X146382795Y-105409744D01*
X146304774Y-105598102D01*
X146265000Y-105798061D01*
X130935000Y-105798061D01*
X130935000Y-105755752D01*
X130940491Y-105700000D01*
X130935000Y-105644248D01*
X130935000Y-97498061D01*
X154465000Y-97498061D01*
X154465000Y-97701939D01*
X154504774Y-97901898D01*
X154582795Y-98090256D01*
X154696063Y-98259774D01*
X154840226Y-98403937D01*
X155009744Y-98517205D01*
X155198102Y-98595226D01*
X155398061Y-98635000D01*
X155601939Y-98635000D01*
X155608828Y-98633630D01*
X157490000Y-100514802D01*
X157490000Y-100576939D01*
X157529774Y-100776898D01*
X157607795Y-100965256D01*
X157721063Y-101134774D01*
X157865226Y-101278937D01*
X158034744Y-101392205D01*
X158223102Y-101470226D01*
X158423061Y-101510000D01*
X158626939Y-101510000D01*
X158826898Y-101470226D01*
X159015256Y-101392205D01*
X159184774Y-101278937D01*
X159328937Y-101134774D01*
X159442205Y-100965256D01*
X159520226Y-100776898D01*
X159560000Y-100576939D01*
X159560000Y-100373061D01*
X159520226Y-100173102D01*
X159442205Y-99984744D01*
X159328937Y-99815226D01*
X159184774Y-99671063D01*
X159015256Y-99557795D01*
X158826898Y-99479774D01*
X158626939Y-99440000D01*
X158564802Y-99440000D01*
X156513184Y-97388383D01*
X156495226Y-97298102D01*
X156417205Y-97109744D01*
X156303937Y-96940226D01*
X156159774Y-96796063D01*
X155990256Y-96682795D01*
X155801898Y-96604774D01*
X155601939Y-96565000D01*
X155398061Y-96565000D01*
X155198102Y-96604774D01*
X155009744Y-96682795D01*
X154840226Y-96796063D01*
X154696063Y-96940226D01*
X154582795Y-97109744D01*
X154504774Y-97298102D01*
X154465000Y-97498061D01*
X130935000Y-97498061D01*
X130935000Y-94148061D01*
X137115006Y-94148061D01*
X137115006Y-94351939D01*
X137154780Y-94551898D01*
X137232801Y-94740256D01*
X137346069Y-94909774D01*
X137490232Y-95053937D01*
X137659750Y-95167205D01*
X137848108Y-95245226D01*
X138048067Y-95285000D01*
X138251945Y-95285000D01*
X138451904Y-95245226D01*
X138640262Y-95167205D01*
X138800706Y-95060000D01*
X148296289Y-95060000D01*
X148340226Y-95103937D01*
X148509744Y-95217205D01*
X148698102Y-95295226D01*
X148898061Y-95335000D01*
X149101939Y-95335000D01*
X149301898Y-95295226D01*
X149490256Y-95217205D01*
X149659774Y-95103937D01*
X149803937Y-94959774D01*
X149917205Y-94790256D01*
X149995226Y-94601898D01*
X150035000Y-94401939D01*
X150035000Y-94198061D01*
X149995226Y-93998102D01*
X149917205Y-93809744D01*
X149803937Y-93640226D01*
X149659774Y-93496063D01*
X149490256Y-93382795D01*
X149301898Y-93304774D01*
X149101939Y-93265000D01*
X148898061Y-93265000D01*
X148698102Y-93304774D01*
X148509744Y-93382795D01*
X148340226Y-93496063D01*
X148296289Y-93540000D01*
X138903717Y-93540000D01*
X138809780Y-93446063D01*
X138640262Y-93332795D01*
X138451904Y-93254774D01*
X138251945Y-93215000D01*
X138048067Y-93215000D01*
X137848108Y-93254774D01*
X137659750Y-93332795D01*
X137490232Y-93446063D01*
X137346069Y-93590226D01*
X137232801Y-93759744D01*
X137154780Y-93948102D01*
X137115006Y-94148061D01*
X130935000Y-94148061D01*
X130935000Y-91198061D01*
X144465000Y-91198061D01*
X144465000Y-91401939D01*
X144504774Y-91601898D01*
X144582795Y-91790256D01*
X144696063Y-91959774D01*
X144840226Y-92103937D01*
X145009744Y-92217205D01*
X145198102Y-92295226D01*
X145398061Y-92335000D01*
X145601939Y-92335000D01*
X145801898Y-92295226D01*
X145990256Y-92217205D01*
X146159774Y-92103937D01*
X146303937Y-91959774D01*
X146417205Y-91790256D01*
X146495226Y-91601898D01*
X146535000Y-91401939D01*
X146535000Y-91339801D01*
X147176740Y-90698061D01*
X153465000Y-90698061D01*
X153465000Y-90901939D01*
X153504774Y-91101898D01*
X153582795Y-91290256D01*
X153696063Y-91459774D01*
X153840226Y-91603937D01*
X154009744Y-91717205D01*
X154198102Y-91795226D01*
X154398061Y-91835000D01*
X154601939Y-91835000D01*
X154801898Y-91795226D01*
X154990256Y-91717205D01*
X155159774Y-91603937D01*
X155203711Y-91560000D01*
X157162678Y-91560000D01*
X157200000Y-91563676D01*
X157237322Y-91560000D01*
X157237333Y-91560000D01*
X157348986Y-91549003D01*
X157492247Y-91505546D01*
X157624276Y-91434974D01*
X157740001Y-91340001D01*
X157763804Y-91310997D01*
X160139802Y-88935000D01*
X160201939Y-88935000D01*
X160401898Y-88895226D01*
X160590256Y-88817205D01*
X160759774Y-88703937D01*
X160903937Y-88559774D01*
X161017205Y-88390256D01*
X161095226Y-88201898D01*
X161135000Y-88001939D01*
X161135000Y-87798061D01*
X161095226Y-87598102D01*
X161017205Y-87409744D01*
X160903937Y-87240226D01*
X160759774Y-87096063D01*
X160590256Y-86982795D01*
X160401898Y-86904774D01*
X160201939Y-86865000D01*
X159998061Y-86865000D01*
X159798102Y-86904774D01*
X159609744Y-86982795D01*
X159440226Y-87096063D01*
X159296063Y-87240226D01*
X159182795Y-87409744D01*
X159104774Y-87598102D01*
X159065000Y-87798061D01*
X159065000Y-87860198D01*
X156885199Y-90040000D01*
X155203711Y-90040000D01*
X155159774Y-89996063D01*
X154990256Y-89882795D01*
X154801898Y-89804774D01*
X154601939Y-89765000D01*
X154398061Y-89765000D01*
X154198102Y-89804774D01*
X154009744Y-89882795D01*
X153840226Y-89996063D01*
X153696063Y-90140226D01*
X153582795Y-90309744D01*
X153504774Y-90498102D01*
X153465000Y-90698061D01*
X147176740Y-90698061D01*
X147761003Y-90113799D01*
X147790001Y-90090001D01*
X147884974Y-89974276D01*
X147955546Y-89842247D01*
X147999003Y-89698986D01*
X148010000Y-89587333D01*
X148010000Y-89587325D01*
X148013676Y-89550000D01*
X148010000Y-89512675D01*
X148010000Y-87282968D01*
X148013676Y-87245645D01*
X148010000Y-87208322D01*
X148010000Y-87208313D01*
X147999003Y-87096660D01*
X147955546Y-86953399D01*
X147884974Y-86821370D01*
X147790001Y-86705645D01*
X147761004Y-86681848D01*
X147677215Y-86598059D01*
X150465000Y-86598059D01*
X150465000Y-86801937D01*
X150504774Y-87001896D01*
X150582795Y-87190254D01*
X150696063Y-87359772D01*
X150840226Y-87503935D01*
X151009744Y-87617203D01*
X151198102Y-87695224D01*
X151398061Y-87734998D01*
X151601939Y-87734998D01*
X151801898Y-87695224D01*
X151990256Y-87617203D01*
X152159774Y-87503935D01*
X152303937Y-87359772D01*
X152417205Y-87190254D01*
X152495226Y-87001896D01*
X152535000Y-86801937D01*
X152535000Y-86789801D01*
X155789802Y-83535000D01*
X155851939Y-83535000D01*
X156051898Y-83495226D01*
X156240256Y-83417205D01*
X156409774Y-83303937D01*
X156553937Y-83159774D01*
X156667205Y-82990256D01*
X156745226Y-82801898D01*
X156785000Y-82601939D01*
X156785000Y-82398061D01*
X156745226Y-82198102D01*
X156667205Y-82009744D01*
X156553937Y-81840226D01*
X156409774Y-81696063D01*
X156240256Y-81582795D01*
X156051898Y-81504774D01*
X155851939Y-81465000D01*
X155648061Y-81465000D01*
X155448102Y-81504774D01*
X155259744Y-81582795D01*
X155090226Y-81696063D01*
X154946063Y-81840226D01*
X154832795Y-82009744D01*
X154754774Y-82198102D01*
X154715000Y-82398061D01*
X154715000Y-82460198D01*
X151510201Y-85664998D01*
X151398061Y-85664998D01*
X151198102Y-85704772D01*
X151009744Y-85782793D01*
X150840226Y-85896061D01*
X150696063Y-86040224D01*
X150582795Y-86209742D01*
X150504774Y-86398100D01*
X150465000Y-86598059D01*
X147677215Y-86598059D01*
X147609990Y-86530834D01*
X147609990Y-86468697D01*
X147570216Y-86268738D01*
X147492195Y-86080380D01*
X147378927Y-85910862D01*
X147334990Y-85866925D01*
X147334990Y-84328721D01*
X147403937Y-84259774D01*
X147517205Y-84090256D01*
X147595226Y-83901898D01*
X147635000Y-83701939D01*
X147635000Y-83498061D01*
X147595226Y-83298102D01*
X147517205Y-83109744D01*
X147403937Y-82940226D01*
X147259774Y-82796063D01*
X147090256Y-82682795D01*
X146901898Y-82604774D01*
X146701939Y-82565000D01*
X146498061Y-82565000D01*
X146298102Y-82604774D01*
X146109744Y-82682795D01*
X145940226Y-82796063D01*
X145796063Y-82940226D01*
X145682795Y-83109744D01*
X145604774Y-83298102D01*
X145565000Y-83498061D01*
X145565000Y-83701939D01*
X145604774Y-83901898D01*
X145682795Y-84090256D01*
X145796063Y-84259774D01*
X145814991Y-84278702D01*
X145814990Y-85866925D01*
X145771053Y-85910862D01*
X145657785Y-86080380D01*
X145579764Y-86268738D01*
X145539990Y-86468697D01*
X145539990Y-86672575D01*
X145579764Y-86872534D01*
X145657785Y-87060892D01*
X145771053Y-87230410D01*
X145915216Y-87374573D01*
X146084734Y-87487841D01*
X146273092Y-87565862D01*
X146473051Y-87605636D01*
X146490000Y-87605636D01*
X146490001Y-89235197D01*
X145460199Y-90265000D01*
X145398061Y-90265000D01*
X145198102Y-90304774D01*
X145009744Y-90382795D01*
X144840226Y-90496063D01*
X144696063Y-90640226D01*
X144582795Y-90809744D01*
X144504774Y-90998102D01*
X144465000Y-91198061D01*
X130935000Y-91198061D01*
X130935000Y-85420131D01*
X131216988Y-85138143D01*
X131323284Y-85008622D01*
X131428676Y-84811447D01*
X131493577Y-84597499D01*
X131515491Y-84375000D01*
X131493577Y-84152501D01*
X131428676Y-83938554D01*
X131323284Y-83741378D01*
X131181449Y-83568551D01*
X131008622Y-83426716D01*
X130811446Y-83321324D01*
X130597499Y-83256423D01*
X130375000Y-83234509D01*
X130152501Y-83256423D01*
X129938553Y-83321324D01*
X129877000Y-83354225D01*
X129877000Y-78859267D01*
X141933680Y-78859267D01*
X142007558Y-79140830D01*
X142134947Y-79402570D01*
X142310951Y-79634429D01*
X142528807Y-79827496D01*
X142780142Y-79974352D01*
X143043110Y-80066476D01*
X143273000Y-79945155D01*
X143273000Y-78627000D01*
X142073835Y-78627000D01*
X141933680Y-78859267D01*
X129877000Y-78859267D01*
X129877000Y-78140733D01*
X141933680Y-78140733D01*
X142073835Y-78373000D01*
X143273000Y-78373000D01*
X143273000Y-77054845D01*
X143527000Y-77054845D01*
X143527000Y-78373000D01*
X143547000Y-78373000D01*
X143547000Y-78627000D01*
X143527000Y-78627000D01*
X143527000Y-79945155D01*
X143756890Y-80066476D01*
X144019858Y-79974352D01*
X144271193Y-79827496D01*
X144489049Y-79634429D01*
X144645538Y-79428278D01*
X144659294Y-79454013D01*
X144844866Y-79680134D01*
X145070986Y-79865706D01*
X145328966Y-80003599D01*
X145608889Y-80088513D01*
X145900000Y-80117185D01*
X146191110Y-80088513D01*
X146471033Y-80003599D01*
X146729013Y-79865706D01*
X146955134Y-79680134D01*
X147140706Y-79454014D01*
X147150000Y-79436626D01*
X147159294Y-79454013D01*
X147344866Y-79680134D01*
X147570986Y-79865706D01*
X147828966Y-80003599D01*
X148108889Y-80088513D01*
X148400000Y-80117185D01*
X148691110Y-80088513D01*
X148971033Y-80003599D01*
X149229013Y-79865706D01*
X149455134Y-79680134D01*
X149640706Y-79454014D01*
X149650000Y-79436626D01*
X149659294Y-79454013D01*
X149844866Y-79680134D01*
X150070986Y-79865706D01*
X150328966Y-80003599D01*
X150608889Y-80088513D01*
X150900000Y-80117185D01*
X151191110Y-80088513D01*
X151471033Y-80003599D01*
X151729013Y-79865706D01*
X151955134Y-79680134D01*
X152007223Y-79616663D01*
X152061595Y-79718386D01*
X152172038Y-79852962D01*
X152306614Y-79963405D01*
X152460150Y-80045472D01*
X152626746Y-80096008D01*
X152800000Y-80113072D01*
X154000000Y-80113072D01*
X154173254Y-80096008D01*
X154339850Y-80045472D01*
X154493386Y-79963405D01*
X154627962Y-79852962D01*
X154738405Y-79718386D01*
X154820472Y-79564850D01*
X154871008Y-79398254D01*
X154888072Y-79225000D01*
X154888072Y-77775000D01*
X154871008Y-77601746D01*
X154820472Y-77435150D01*
X154738405Y-77281614D01*
X154627962Y-77147038D01*
X154493386Y-77036595D01*
X154339850Y-76954528D01*
X154173254Y-76903992D01*
X154000000Y-76886928D01*
X152800000Y-76886928D01*
X152626746Y-76903992D01*
X152460150Y-76954528D01*
X152306614Y-77036595D01*
X152172038Y-77147038D01*
X152061595Y-77281614D01*
X152007223Y-77383337D01*
X151955134Y-77319866D01*
X151729014Y-77134294D01*
X151471034Y-76996401D01*
X151191111Y-76911487D01*
X150900000Y-76882815D01*
X150608890Y-76911487D01*
X150328967Y-76996401D01*
X150070987Y-77134294D01*
X149844866Y-77319866D01*
X149659294Y-77545986D01*
X149650000Y-77563374D01*
X149640706Y-77545986D01*
X149455134Y-77319866D01*
X149229014Y-77134294D01*
X148971034Y-76996401D01*
X148691111Y-76911487D01*
X148400000Y-76882815D01*
X148108890Y-76911487D01*
X147828967Y-76996401D01*
X147570987Y-77134294D01*
X147344866Y-77319866D01*
X147159294Y-77545986D01*
X147150000Y-77563374D01*
X147140706Y-77545986D01*
X146955134Y-77319866D01*
X146729014Y-77134294D01*
X146471034Y-76996401D01*
X146191111Y-76911487D01*
X145900000Y-76882815D01*
X145608890Y-76911487D01*
X145328967Y-76996401D01*
X145070987Y-77134294D01*
X144844866Y-77319866D01*
X144659294Y-77545986D01*
X144645538Y-77571722D01*
X144489049Y-77365571D01*
X144271193Y-77172504D01*
X144019858Y-77025648D01*
X143756890Y-76933524D01*
X143527000Y-77054845D01*
X143273000Y-77054845D01*
X143043110Y-76933524D01*
X142780142Y-77025648D01*
X142528807Y-77172504D01*
X142310951Y-77365571D01*
X142134947Y-77597430D01*
X142007558Y-77859170D01*
X141933680Y-78140733D01*
X129877000Y-78140733D01*
X129877000Y-71309267D01*
X141933680Y-71309267D01*
X142007558Y-71590830D01*
X142134947Y-71852570D01*
X142310951Y-72084429D01*
X142528807Y-72277496D01*
X142780142Y-72424352D01*
X143043110Y-72516476D01*
X143273000Y-72395155D01*
X143273000Y-71077000D01*
X142073835Y-71077000D01*
X141933680Y-71309267D01*
X129877000Y-71309267D01*
X129877000Y-70590733D01*
X141933680Y-70590733D01*
X142073835Y-70823000D01*
X143273000Y-70823000D01*
X143273000Y-69504845D01*
X143527000Y-69504845D01*
X143527000Y-70823000D01*
X143547000Y-70823000D01*
X143547000Y-71077000D01*
X143527000Y-71077000D01*
X143527000Y-72395155D01*
X143756890Y-72516476D01*
X144019858Y-72424352D01*
X144271193Y-72277496D01*
X144489049Y-72084429D01*
X144645538Y-71878278D01*
X144659294Y-71904013D01*
X144844866Y-72130134D01*
X145070986Y-72315706D01*
X145328966Y-72453599D01*
X145608889Y-72538513D01*
X145900000Y-72567185D01*
X146191110Y-72538513D01*
X146471033Y-72453599D01*
X146729013Y-72315706D01*
X146955134Y-72130134D01*
X147140706Y-71904014D01*
X147150000Y-71886626D01*
X147159294Y-71904013D01*
X147344866Y-72130134D01*
X147570986Y-72315706D01*
X147828966Y-72453599D01*
X148108889Y-72538513D01*
X148400000Y-72567185D01*
X148691110Y-72538513D01*
X148971033Y-72453599D01*
X149229013Y-72315706D01*
X149455134Y-72130134D01*
X149640706Y-71904014D01*
X149650000Y-71886626D01*
X149659294Y-71904013D01*
X149844866Y-72130134D01*
X150070986Y-72315706D01*
X150328966Y-72453599D01*
X150608889Y-72538513D01*
X150900000Y-72567185D01*
X151191110Y-72538513D01*
X151471033Y-72453599D01*
X151729013Y-72315706D01*
X151955134Y-72130134D01*
X152007223Y-72066663D01*
X152061595Y-72168386D01*
X152172038Y-72302962D01*
X152306614Y-72413405D01*
X152460150Y-72495472D01*
X152626746Y-72546008D01*
X152800000Y-72563072D01*
X154000000Y-72563072D01*
X154173254Y-72546008D01*
X154339850Y-72495472D01*
X154493386Y-72413405D01*
X154627962Y-72302962D01*
X154738405Y-72168386D01*
X154820472Y-72014850D01*
X154871008Y-71848254D01*
X154888072Y-71675000D01*
X154888072Y-70225000D01*
X154871008Y-70051746D01*
X154820472Y-69885150D01*
X154738405Y-69731614D01*
X154627962Y-69597038D01*
X154493386Y-69486595D01*
X154339850Y-69404528D01*
X154173254Y-69353992D01*
X154000000Y-69336928D01*
X152800000Y-69336928D01*
X152626746Y-69353992D01*
X152460150Y-69404528D01*
X152306614Y-69486595D01*
X152172038Y-69597038D01*
X152061595Y-69731614D01*
X152007223Y-69833337D01*
X151955134Y-69769866D01*
X151729014Y-69584294D01*
X151471034Y-69446401D01*
X151191111Y-69361487D01*
X150900000Y-69332815D01*
X150608890Y-69361487D01*
X150328967Y-69446401D01*
X150070987Y-69584294D01*
X149844866Y-69769866D01*
X149659294Y-69995986D01*
X149650000Y-70013374D01*
X149640706Y-69995986D01*
X149455134Y-69769866D01*
X149229014Y-69584294D01*
X148971034Y-69446401D01*
X148691111Y-69361487D01*
X148400000Y-69332815D01*
X148108890Y-69361487D01*
X147828967Y-69446401D01*
X147570987Y-69584294D01*
X147344866Y-69769866D01*
X147159294Y-69995986D01*
X147150000Y-70013374D01*
X147140706Y-69995986D01*
X146955134Y-69769866D01*
X146729014Y-69584294D01*
X146471034Y-69446401D01*
X146191111Y-69361487D01*
X145900000Y-69332815D01*
X145608890Y-69361487D01*
X145328967Y-69446401D01*
X145070987Y-69584294D01*
X144844866Y-69769866D01*
X144659294Y-69995986D01*
X144645538Y-70021722D01*
X144489049Y-69815571D01*
X144271193Y-69622504D01*
X144019858Y-69475648D01*
X143756890Y-69383524D01*
X143527000Y-69504845D01*
X143273000Y-69504845D01*
X143043110Y-69383524D01*
X142780142Y-69475648D01*
X142528807Y-69622504D01*
X142310951Y-69815571D01*
X142134947Y-70047430D01*
X142007558Y-70309170D01*
X141933680Y-70590733D01*
X129877000Y-70590733D01*
X129877000Y-68006234D01*
X129894376Y-67829811D01*
X129944022Y-67666150D01*
X130024638Y-67515328D01*
X130133130Y-67383130D01*
X130265328Y-67274638D01*
X130416150Y-67194022D01*
X130579811Y-67144376D01*
X130756234Y-67127000D01*
X166743766Y-67127000D01*
X166920189Y-67144376D01*
G04 #@! TA.AperFunction,Conductor*
D21*
G36*
X166920189Y-67144376D02*
G01*
X167083850Y-67194022D01*
X167234672Y-67274638D01*
X167366870Y-67383130D01*
X167475362Y-67515328D01*
X167555978Y-67666150D01*
X167605624Y-67829811D01*
X167623000Y-68006234D01*
X167623000Y-90117867D01*
X161335000Y-83829869D01*
X161335000Y-70844248D01*
X161318577Y-70677501D01*
X161253676Y-70463553D01*
X161148284Y-70266377D01*
X161006449Y-70093551D01*
X160833623Y-69951716D01*
X160636447Y-69846324D01*
X160422499Y-69781423D01*
X160200000Y-69759509D01*
X159977502Y-69781423D01*
X159763554Y-69846324D01*
X159566378Y-69951716D01*
X159393552Y-70093551D01*
X159251717Y-70266377D01*
X159146325Y-70463553D01*
X159081424Y-70677501D01*
X159065001Y-70844248D01*
X159065000Y-84244249D01*
X159059509Y-84300000D01*
X159066896Y-84375000D01*
X159081423Y-84522498D01*
X159146324Y-84736446D01*
X159251716Y-84933623D01*
X159393551Y-85106449D01*
X159436865Y-85141996D01*
X166565001Y-92270134D01*
X166565000Y-95244248D01*
X166559509Y-95300000D01*
X166565001Y-95355762D01*
X166565000Y-115579869D01*
X166283012Y-115861857D01*
X166176717Y-115991378D01*
X166071324Y-116188554D01*
X166006423Y-116402502D01*
X165984509Y-116625000D01*
X166006423Y-116847498D01*
X166071324Y-117061446D01*
X166176717Y-117258622D01*
X166318552Y-117431448D01*
X166491378Y-117573283D01*
X166688554Y-117678676D01*
X166902502Y-117743577D01*
X167125000Y-117765491D01*
X167347498Y-117743577D01*
X167561446Y-117678676D01*
X167623000Y-117645775D01*
X167623000Y-132993766D01*
X167605624Y-133170189D01*
X167555978Y-133333850D01*
X167475362Y-133484672D01*
X167366870Y-133616870D01*
X167234672Y-133725362D01*
X167083850Y-133805978D01*
X166920189Y-133855624D01*
X166743766Y-133873000D01*
X130756234Y-133873000D01*
X130579811Y-133855624D01*
X130416150Y-133805978D01*
X130265328Y-133725362D01*
X130133130Y-133616870D01*
X130024638Y-133484672D01*
X129944022Y-133333850D01*
X129894376Y-133170189D01*
X129877000Y-132993766D01*
X129877000Y-131459267D01*
X141933680Y-131459267D01*
X142007558Y-131740830D01*
X142134947Y-132002570D01*
X142310951Y-132234429D01*
X142528807Y-132427496D01*
X142780142Y-132574352D01*
X143043110Y-132666476D01*
X143273000Y-132545155D01*
X143273000Y-131227000D01*
X142073835Y-131227000D01*
X141933680Y-131459267D01*
X129877000Y-131459267D01*
X129877000Y-130740733D01*
X141933680Y-130740733D01*
X142073835Y-130973000D01*
X143273000Y-130973000D01*
X143273000Y-129654845D01*
X143527000Y-129654845D01*
X143527000Y-130973000D01*
X143547000Y-130973000D01*
X143547000Y-131227000D01*
X143527000Y-131227000D01*
X143527000Y-132545155D01*
X143756890Y-132666476D01*
X144019858Y-132574352D01*
X144271193Y-132427496D01*
X144489049Y-132234429D01*
X144645538Y-132028278D01*
X144659294Y-132054013D01*
X144844866Y-132280134D01*
X145070986Y-132465706D01*
X145328966Y-132603599D01*
X145608889Y-132688513D01*
X145900000Y-132717185D01*
X146191110Y-132688513D01*
X146471033Y-132603599D01*
X146729013Y-132465706D01*
X146955134Y-132280134D01*
X147140706Y-132054014D01*
X147150000Y-132036626D01*
X147159294Y-132054013D01*
X147344866Y-132280134D01*
X147570986Y-132465706D01*
X147828966Y-132603599D01*
X148108889Y-132688513D01*
X148400000Y-132717185D01*
X148691110Y-132688513D01*
X148971033Y-132603599D01*
X149229013Y-132465706D01*
X149455134Y-132280134D01*
X149640706Y-132054014D01*
X149650000Y-132036626D01*
X149659294Y-132054013D01*
X149844866Y-132280134D01*
X150070986Y-132465706D01*
X150328966Y-132603599D01*
X150608889Y-132688513D01*
X150900000Y-132717185D01*
X151191110Y-132688513D01*
X151471033Y-132603599D01*
X151729013Y-132465706D01*
X151955134Y-132280134D01*
X152007223Y-132216663D01*
X152061595Y-132318386D01*
X152172038Y-132452962D01*
X152306614Y-132563405D01*
X152460150Y-132645472D01*
X152626746Y-132696008D01*
X152800000Y-132713072D01*
X154000000Y-132713072D01*
X154173254Y-132696008D01*
X154339850Y-132645472D01*
X154493386Y-132563405D01*
X154627962Y-132452962D01*
X154738405Y-132318386D01*
X154820472Y-132164850D01*
X154871008Y-131998254D01*
X154888072Y-131825000D01*
X154888072Y-130375000D01*
X154871008Y-130201746D01*
X154820472Y-130035150D01*
X154738405Y-129881614D01*
X154627962Y-129747038D01*
X154493386Y-129636595D01*
X154339850Y-129554528D01*
X154173254Y-129503992D01*
X154000000Y-129486928D01*
X152800000Y-129486928D01*
X152626746Y-129503992D01*
X152460150Y-129554528D01*
X152306614Y-129636595D01*
X152172038Y-129747038D01*
X152061595Y-129881614D01*
X152007223Y-129983337D01*
X151955134Y-129919866D01*
X151729014Y-129734294D01*
X151471034Y-129596401D01*
X151191111Y-129511487D01*
X150900000Y-129482815D01*
X150608890Y-129511487D01*
X150328967Y-129596401D01*
X150070987Y-129734294D01*
X149844866Y-129919866D01*
X149659294Y-130145986D01*
X149650000Y-130163374D01*
X149640706Y-130145986D01*
X149455134Y-129919866D01*
X149229014Y-129734294D01*
X148971034Y-129596401D01*
X148691111Y-129511487D01*
X148400000Y-129482815D01*
X148108890Y-129511487D01*
X147828967Y-129596401D01*
X147570987Y-129734294D01*
X147344866Y-129919866D01*
X147159294Y-130145986D01*
X147150000Y-130163374D01*
X147140706Y-130145986D01*
X146955134Y-129919866D01*
X146729014Y-129734294D01*
X146471034Y-129596401D01*
X146191111Y-129511487D01*
X145900000Y-129482815D01*
X145608890Y-129511487D01*
X145328967Y-129596401D01*
X145070987Y-129734294D01*
X144844866Y-129919866D01*
X144659294Y-130145986D01*
X144645538Y-130171722D01*
X144489049Y-129965571D01*
X144271193Y-129772504D01*
X144019858Y-129625648D01*
X143756890Y-129533524D01*
X143527000Y-129654845D01*
X143273000Y-129654845D01*
X143043110Y-129533524D01*
X142780142Y-129625648D01*
X142528807Y-129772504D01*
X142310951Y-129965571D01*
X142134947Y-130197430D01*
X142007558Y-130459170D01*
X141933680Y-130740733D01*
X129877000Y-130740733D01*
X129877000Y-119082135D01*
X138758005Y-127963141D01*
X138793547Y-128006449D01*
X138966373Y-128148284D01*
X139163549Y-128253676D01*
X139377497Y-128318577D01*
X139544244Y-128335000D01*
X139544253Y-128335000D01*
X139599995Y-128340490D01*
X139655737Y-128335000D01*
X149744249Y-128335000D01*
X149800000Y-128340491D01*
X149855751Y-128335000D01*
X149855752Y-128335000D01*
X150022499Y-128318577D01*
X150236447Y-128253676D01*
X150433623Y-128148284D01*
X150606449Y-128006449D01*
X150641996Y-127963135D01*
X153392060Y-125213072D01*
X154000000Y-125213072D01*
X154173254Y-125196008D01*
X154339850Y-125145472D01*
X154493386Y-125063405D01*
X154627962Y-124952962D01*
X154738405Y-124818386D01*
X154820472Y-124664850D01*
X154871008Y-124498254D01*
X154888072Y-124325000D01*
X154888072Y-122875000D01*
X154871008Y-122701746D01*
X154820472Y-122535150D01*
X154738405Y-122381614D01*
X154627962Y-122247038D01*
X154535000Y-122170747D01*
X154535000Y-115820132D01*
X154870132Y-115485000D01*
X155455752Y-115485000D01*
X155622499Y-115468577D01*
X155836447Y-115403676D01*
X156033623Y-115298284D01*
X156206449Y-115156449D01*
X156348284Y-114983623D01*
X156453676Y-114786447D01*
X156518577Y-114572499D01*
X156540491Y-114350000D01*
X156518577Y-114127501D01*
X156453676Y-113913553D01*
X156348284Y-113716377D01*
X156206449Y-113543551D01*
X156033623Y-113401716D01*
X155836447Y-113296324D01*
X155622499Y-113231423D01*
X155455752Y-113215000D01*
X154455752Y-113215000D01*
X154400000Y-113209509D01*
X154177501Y-113231423D01*
X153963553Y-113296324D01*
X153766377Y-113401716D01*
X153636856Y-113508011D01*
X153636854Y-113508013D01*
X153593551Y-113543551D01*
X153558013Y-113586855D01*
X152636864Y-114508005D01*
X152593551Y-114543551D01*
X152451716Y-114716377D01*
X152348486Y-114909509D01*
X152346324Y-114913554D01*
X152281423Y-115127502D01*
X152259509Y-115350000D01*
X152265000Y-115405752D01*
X152265001Y-122170746D01*
X152172038Y-122247038D01*
X152061595Y-122381614D01*
X152007223Y-122483337D01*
X151955134Y-122419866D01*
X151785000Y-122280241D01*
X151785000Y-120893465D01*
X151789281Y-120849999D01*
X151785000Y-120806533D01*
X151785000Y-120806523D01*
X151772195Y-120676510D01*
X151721589Y-120509687D01*
X151639411Y-120355941D01*
X151528817Y-120221183D01*
X151495049Y-120193470D01*
X149835000Y-118533422D01*
X149835000Y-116188454D01*
X149867205Y-116140256D01*
X149945226Y-115951898D01*
X149985000Y-115751939D01*
X149985000Y-115548061D01*
X149945226Y-115348102D01*
X149867205Y-115159744D01*
X149835000Y-115111546D01*
X149835000Y-111688454D01*
X149867205Y-111640256D01*
X149945226Y-111451898D01*
X149985000Y-111251939D01*
X149985000Y-111048061D01*
X149945226Y-110848102D01*
X149867205Y-110659744D01*
X149753937Y-110490226D01*
X149609774Y-110346063D01*
X149440256Y-110232795D01*
X149251898Y-110154774D01*
X149051939Y-110115000D01*
X148848061Y-110115000D01*
X148648102Y-110154774D01*
X148459744Y-110232795D01*
X148290226Y-110346063D01*
X148146063Y-110490226D01*
X148032795Y-110659744D01*
X147954774Y-110848102D01*
X147915000Y-111048061D01*
X147915000Y-111251939D01*
X147954774Y-111451898D01*
X148032795Y-111640256D01*
X148065001Y-111688456D01*
X148065000Y-115111545D01*
X148032795Y-115159744D01*
X147954774Y-115348102D01*
X147915000Y-115548061D01*
X147915000Y-115751939D01*
X147954774Y-115951898D01*
X148032795Y-116140256D01*
X148065000Y-116188455D01*
X148065000Y-118856531D01*
X148060719Y-118900000D01*
X148065000Y-118943469D01*
X148065000Y-118943476D01*
X148077805Y-119073489D01*
X148128411Y-119240312D01*
X148210589Y-119394058D01*
X148321183Y-119528817D01*
X148354956Y-119556534D01*
X150015001Y-121216580D01*
X150015000Y-122280241D01*
X149844866Y-122419866D01*
X149659294Y-122645986D01*
X149650000Y-122663374D01*
X149640706Y-122645986D01*
X149455134Y-122419866D01*
X149229014Y-122234294D01*
X148971034Y-122096401D01*
X148691111Y-122011487D01*
X148400000Y-121982815D01*
X148108890Y-122011487D01*
X147828967Y-122096401D01*
X147570987Y-122234294D01*
X147344866Y-122419866D01*
X147159294Y-122645986D01*
X147150000Y-122663374D01*
X147140706Y-122645986D01*
X146955134Y-122419866D01*
X146729014Y-122234294D01*
X146471034Y-122096401D01*
X146191111Y-122011487D01*
X145900000Y-121982815D01*
X145608890Y-122011487D01*
X145328967Y-122096401D01*
X145070987Y-122234294D01*
X144844866Y-122419866D01*
X144659294Y-122645986D01*
X144645538Y-122671722D01*
X144489049Y-122465571D01*
X144271193Y-122272504D01*
X144019858Y-122125648D01*
X143756890Y-122033524D01*
X143527000Y-122154845D01*
X143527000Y-123473000D01*
X143547000Y-123473000D01*
X143547000Y-123727000D01*
X143527000Y-123727000D01*
X143527000Y-125045155D01*
X143756890Y-125166476D01*
X144019858Y-125074352D01*
X144271193Y-124927496D01*
X144489049Y-124734429D01*
X144645538Y-124528278D01*
X144659294Y-124554013D01*
X144844866Y-124780134D01*
X145070986Y-124965706D01*
X145328966Y-125103599D01*
X145608889Y-125188513D01*
X145900000Y-125217185D01*
X146191110Y-125188513D01*
X146471033Y-125103599D01*
X146729013Y-124965706D01*
X146955134Y-124780134D01*
X147140706Y-124554014D01*
X147150000Y-124536626D01*
X147159294Y-124554013D01*
X147344866Y-124780134D01*
X147570986Y-124965706D01*
X147828966Y-125103599D01*
X148108889Y-125188513D01*
X148400000Y-125217185D01*
X148691110Y-125188513D01*
X148971033Y-125103599D01*
X149229013Y-124965706D01*
X149455134Y-124780134D01*
X149640706Y-124554014D01*
X149650000Y-124536626D01*
X149659294Y-124554013D01*
X149844866Y-124780134D01*
X150070986Y-124965706D01*
X150304400Y-125090468D01*
X149329869Y-126065000D01*
X140070128Y-126065000D01*
X137964395Y-123959267D01*
X141933680Y-123959267D01*
X142007558Y-124240830D01*
X142134947Y-124502570D01*
X142310951Y-124734429D01*
X142528807Y-124927496D01*
X142780142Y-125074352D01*
X143043110Y-125166476D01*
X143273000Y-125045155D01*
X143273000Y-123727000D01*
X142073835Y-123727000D01*
X141933680Y-123959267D01*
X137964395Y-123959267D01*
X137245861Y-123240733D01*
X141933680Y-123240733D01*
X142073835Y-123473000D01*
X143273000Y-123473000D01*
X143273000Y-122154845D01*
X143043110Y-122033524D01*
X142780142Y-122125648D01*
X142528807Y-122272504D01*
X142310951Y-122465571D01*
X142134947Y-122697430D01*
X142007558Y-122959170D01*
X141933680Y-123240733D01*
X137245861Y-123240733D01*
X130935000Y-116929873D01*
X130935000Y-105798061D01*
X146265000Y-105798061D01*
X146265000Y-106001939D01*
X146304774Y-106201898D01*
X146382795Y-106390256D01*
X146496063Y-106559774D01*
X146640226Y-106703937D01*
X146809744Y-106817205D01*
X146998102Y-106895226D01*
X147198061Y-106935000D01*
X147401939Y-106935000D01*
X147601898Y-106895226D01*
X147790256Y-106817205D01*
X147959774Y-106703937D01*
X148003711Y-106660000D01*
X149062678Y-106660000D01*
X149100000Y-106663676D01*
X149137322Y-106660000D01*
X149137333Y-106660000D01*
X149248986Y-106649003D01*
X149392247Y-106605546D01*
X149524276Y-106534974D01*
X149640001Y-106440001D01*
X149663804Y-106410998D01*
X150239802Y-105835000D01*
X150301939Y-105835000D01*
X150501898Y-105795226D01*
X150690256Y-105717205D01*
X150859774Y-105603937D01*
X151003937Y-105459774D01*
X151117205Y-105290256D01*
X151195226Y-105101898D01*
X151235000Y-104901939D01*
X151235000Y-104698061D01*
X151195226Y-104498102D01*
X151117205Y-104309744D01*
X151003937Y-104140226D01*
X150859774Y-103996063D01*
X150690256Y-103882795D01*
X150501898Y-103804774D01*
X150301939Y-103765000D01*
X150098061Y-103765000D01*
X149898102Y-103804774D01*
X149709744Y-103882795D01*
X149540226Y-103996063D01*
X149396063Y-104140226D01*
X149282795Y-104309744D01*
X149204774Y-104498102D01*
X149165000Y-104698061D01*
X149165000Y-104760198D01*
X148785199Y-105140000D01*
X148003711Y-105140000D01*
X147959774Y-105096063D01*
X147790256Y-104982795D01*
X147601898Y-104904774D01*
X147401939Y-104865000D01*
X147198061Y-104865000D01*
X146998102Y-104904774D01*
X146809744Y-104982795D01*
X146640226Y-105096063D01*
X146496063Y-105240226D01*
X146382795Y-105409744D01*
X146304774Y-105598102D01*
X146265000Y-105798061D01*
X130935000Y-105798061D01*
X130935000Y-105755752D01*
X130940491Y-105700000D01*
X130935000Y-105644248D01*
X130935000Y-97498061D01*
X154465000Y-97498061D01*
X154465000Y-97701939D01*
X154504774Y-97901898D01*
X154582795Y-98090256D01*
X154696063Y-98259774D01*
X154840226Y-98403937D01*
X155009744Y-98517205D01*
X155198102Y-98595226D01*
X155398061Y-98635000D01*
X155601939Y-98635000D01*
X155608828Y-98633630D01*
X157490000Y-100514802D01*
X157490000Y-100576939D01*
X157529774Y-100776898D01*
X157607795Y-100965256D01*
X157721063Y-101134774D01*
X157865226Y-101278937D01*
X158034744Y-101392205D01*
X158223102Y-101470226D01*
X158423061Y-101510000D01*
X158626939Y-101510000D01*
X158826898Y-101470226D01*
X159015256Y-101392205D01*
X159184774Y-101278937D01*
X159328937Y-101134774D01*
X159442205Y-100965256D01*
X159520226Y-100776898D01*
X159560000Y-100576939D01*
X159560000Y-100373061D01*
X159520226Y-100173102D01*
X159442205Y-99984744D01*
X159328937Y-99815226D01*
X159184774Y-99671063D01*
X159015256Y-99557795D01*
X158826898Y-99479774D01*
X158626939Y-99440000D01*
X158564802Y-99440000D01*
X156513184Y-97388383D01*
X156495226Y-97298102D01*
X156417205Y-97109744D01*
X156303937Y-96940226D01*
X156159774Y-96796063D01*
X155990256Y-96682795D01*
X155801898Y-96604774D01*
X155601939Y-96565000D01*
X155398061Y-96565000D01*
X155198102Y-96604774D01*
X155009744Y-96682795D01*
X154840226Y-96796063D01*
X154696063Y-96940226D01*
X154582795Y-97109744D01*
X154504774Y-97298102D01*
X154465000Y-97498061D01*
X130935000Y-97498061D01*
X130935000Y-94148061D01*
X137115006Y-94148061D01*
X137115006Y-94351939D01*
X137154780Y-94551898D01*
X137232801Y-94740256D01*
X137346069Y-94909774D01*
X137490232Y-95053937D01*
X137659750Y-95167205D01*
X137848108Y-95245226D01*
X138048067Y-95285000D01*
X138251945Y-95285000D01*
X138451904Y-95245226D01*
X138640262Y-95167205D01*
X138800706Y-95060000D01*
X148296289Y-95060000D01*
X148340226Y-95103937D01*
X148509744Y-95217205D01*
X148698102Y-95295226D01*
X148898061Y-95335000D01*
X149101939Y-95335000D01*
X149301898Y-95295226D01*
X149490256Y-95217205D01*
X149659774Y-95103937D01*
X149803937Y-94959774D01*
X149917205Y-94790256D01*
X149995226Y-94601898D01*
X150035000Y-94401939D01*
X150035000Y-94198061D01*
X149995226Y-93998102D01*
X149917205Y-93809744D01*
X149803937Y-93640226D01*
X149659774Y-93496063D01*
X149490256Y-93382795D01*
X149301898Y-93304774D01*
X149101939Y-93265000D01*
X148898061Y-93265000D01*
X148698102Y-93304774D01*
X148509744Y-93382795D01*
X148340226Y-93496063D01*
X148296289Y-93540000D01*
X138903717Y-93540000D01*
X138809780Y-93446063D01*
X138640262Y-93332795D01*
X138451904Y-93254774D01*
X138251945Y-93215000D01*
X138048067Y-93215000D01*
X137848108Y-93254774D01*
X137659750Y-93332795D01*
X137490232Y-93446063D01*
X137346069Y-93590226D01*
X137232801Y-93759744D01*
X137154780Y-93948102D01*
X137115006Y-94148061D01*
X130935000Y-94148061D01*
X130935000Y-91198061D01*
X144465000Y-91198061D01*
X144465000Y-91401939D01*
X144504774Y-91601898D01*
X144582795Y-91790256D01*
X144696063Y-91959774D01*
X144840226Y-92103937D01*
X145009744Y-92217205D01*
X145198102Y-92295226D01*
X145398061Y-92335000D01*
X145601939Y-92335000D01*
X145801898Y-92295226D01*
X145990256Y-92217205D01*
X146159774Y-92103937D01*
X146303937Y-91959774D01*
X146417205Y-91790256D01*
X146495226Y-91601898D01*
X146535000Y-91401939D01*
X146535000Y-91339801D01*
X147176740Y-90698061D01*
X153465000Y-90698061D01*
X153465000Y-90901939D01*
X153504774Y-91101898D01*
X153582795Y-91290256D01*
X153696063Y-91459774D01*
X153840226Y-91603937D01*
X154009744Y-91717205D01*
X154198102Y-91795226D01*
X154398061Y-91835000D01*
X154601939Y-91835000D01*
X154801898Y-91795226D01*
X154990256Y-91717205D01*
X155159774Y-91603937D01*
X155203711Y-91560000D01*
X157162678Y-91560000D01*
X157200000Y-91563676D01*
X157237322Y-91560000D01*
X157237333Y-91560000D01*
X157348986Y-91549003D01*
X157492247Y-91505546D01*
X157624276Y-91434974D01*
X157740001Y-91340001D01*
X157763804Y-91310997D01*
X160139802Y-88935000D01*
X160201939Y-88935000D01*
X160401898Y-88895226D01*
X160590256Y-88817205D01*
X160759774Y-88703937D01*
X160903937Y-88559774D01*
X161017205Y-88390256D01*
X161095226Y-88201898D01*
X161135000Y-88001939D01*
X161135000Y-87798061D01*
X161095226Y-87598102D01*
X161017205Y-87409744D01*
X160903937Y-87240226D01*
X160759774Y-87096063D01*
X160590256Y-86982795D01*
X160401898Y-86904774D01*
X160201939Y-86865000D01*
X159998061Y-86865000D01*
X159798102Y-86904774D01*
X159609744Y-86982795D01*
X159440226Y-87096063D01*
X159296063Y-87240226D01*
X159182795Y-87409744D01*
X159104774Y-87598102D01*
X159065000Y-87798061D01*
X159065000Y-87860198D01*
X156885199Y-90040000D01*
X155203711Y-90040000D01*
X155159774Y-89996063D01*
X154990256Y-89882795D01*
X154801898Y-89804774D01*
X154601939Y-89765000D01*
X154398061Y-89765000D01*
X154198102Y-89804774D01*
X154009744Y-89882795D01*
X153840226Y-89996063D01*
X153696063Y-90140226D01*
X153582795Y-90309744D01*
X153504774Y-90498102D01*
X153465000Y-90698061D01*
X147176740Y-90698061D01*
X147761003Y-90113799D01*
X147790001Y-90090001D01*
X147884974Y-89974276D01*
X147955546Y-89842247D01*
X147999003Y-89698986D01*
X148010000Y-89587333D01*
X148010000Y-89587325D01*
X148013676Y-89550000D01*
X148010000Y-89512675D01*
X148010000Y-87282968D01*
X148013676Y-87245645D01*
X148010000Y-87208322D01*
X148010000Y-87208313D01*
X147999003Y-87096660D01*
X147955546Y-86953399D01*
X147884974Y-86821370D01*
X147790001Y-86705645D01*
X147761004Y-86681848D01*
X147677215Y-86598059D01*
X150465000Y-86598059D01*
X150465000Y-86801937D01*
X150504774Y-87001896D01*
X150582795Y-87190254D01*
X150696063Y-87359772D01*
X150840226Y-87503935D01*
X151009744Y-87617203D01*
X151198102Y-87695224D01*
X151398061Y-87734998D01*
X151601939Y-87734998D01*
X151801898Y-87695224D01*
X151990256Y-87617203D01*
X152159774Y-87503935D01*
X152303937Y-87359772D01*
X152417205Y-87190254D01*
X152495226Y-87001896D01*
X152535000Y-86801937D01*
X152535000Y-86789801D01*
X155789802Y-83535000D01*
X155851939Y-83535000D01*
X156051898Y-83495226D01*
X156240256Y-83417205D01*
X156409774Y-83303937D01*
X156553937Y-83159774D01*
X156667205Y-82990256D01*
X156745226Y-82801898D01*
X156785000Y-82601939D01*
X156785000Y-82398061D01*
X156745226Y-82198102D01*
X156667205Y-82009744D01*
X156553937Y-81840226D01*
X156409774Y-81696063D01*
X156240256Y-81582795D01*
X156051898Y-81504774D01*
X155851939Y-81465000D01*
X155648061Y-81465000D01*
X155448102Y-81504774D01*
X155259744Y-81582795D01*
X155090226Y-81696063D01*
X154946063Y-81840226D01*
X154832795Y-82009744D01*
X154754774Y-82198102D01*
X154715000Y-82398061D01*
X154715000Y-82460198D01*
X151510201Y-85664998D01*
X151398061Y-85664998D01*
X151198102Y-85704772D01*
X151009744Y-85782793D01*
X150840226Y-85896061D01*
X150696063Y-86040224D01*
X150582795Y-86209742D01*
X150504774Y-86398100D01*
X150465000Y-86598059D01*
X147677215Y-86598059D01*
X147609990Y-86530834D01*
X147609990Y-86468697D01*
X147570216Y-86268738D01*
X147492195Y-86080380D01*
X147378927Y-85910862D01*
X147334990Y-85866925D01*
X147334990Y-84328721D01*
X147403937Y-84259774D01*
X147517205Y-84090256D01*
X147595226Y-83901898D01*
X147635000Y-83701939D01*
X147635000Y-83498061D01*
X147595226Y-83298102D01*
X147517205Y-83109744D01*
X147403937Y-82940226D01*
X147259774Y-82796063D01*
X147090256Y-82682795D01*
X146901898Y-82604774D01*
X146701939Y-82565000D01*
X146498061Y-82565000D01*
X146298102Y-82604774D01*
X146109744Y-82682795D01*
X145940226Y-82796063D01*
X145796063Y-82940226D01*
X145682795Y-83109744D01*
X145604774Y-83298102D01*
X145565000Y-83498061D01*
X145565000Y-83701939D01*
X145604774Y-83901898D01*
X145682795Y-84090256D01*
X145796063Y-84259774D01*
X145814991Y-84278702D01*
X145814990Y-85866925D01*
X145771053Y-85910862D01*
X145657785Y-86080380D01*
X145579764Y-86268738D01*
X145539990Y-86468697D01*
X145539990Y-86672575D01*
X145579764Y-86872534D01*
X145657785Y-87060892D01*
X145771053Y-87230410D01*
X145915216Y-87374573D01*
X146084734Y-87487841D01*
X146273092Y-87565862D01*
X146473051Y-87605636D01*
X146490000Y-87605636D01*
X146490001Y-89235197D01*
X145460199Y-90265000D01*
X145398061Y-90265000D01*
X145198102Y-90304774D01*
X145009744Y-90382795D01*
X144840226Y-90496063D01*
X144696063Y-90640226D01*
X144582795Y-90809744D01*
X144504774Y-90998102D01*
X144465000Y-91198061D01*
X130935000Y-91198061D01*
X130935000Y-85420131D01*
X131216988Y-85138143D01*
X131323284Y-85008622D01*
X131428676Y-84811447D01*
X131493577Y-84597499D01*
X131515491Y-84375000D01*
X131493577Y-84152501D01*
X131428676Y-83938554D01*
X131323284Y-83741378D01*
X131181449Y-83568551D01*
X131008622Y-83426716D01*
X130811446Y-83321324D01*
X130597499Y-83256423D01*
X130375000Y-83234509D01*
X130152501Y-83256423D01*
X129938553Y-83321324D01*
X129877000Y-83354225D01*
X129877000Y-78859267D01*
X141933680Y-78859267D01*
X142007558Y-79140830D01*
X142134947Y-79402570D01*
X142310951Y-79634429D01*
X142528807Y-79827496D01*
X142780142Y-79974352D01*
X143043110Y-80066476D01*
X143273000Y-79945155D01*
X143273000Y-78627000D01*
X142073835Y-78627000D01*
X141933680Y-78859267D01*
X129877000Y-78859267D01*
X129877000Y-78140733D01*
X141933680Y-78140733D01*
X142073835Y-78373000D01*
X143273000Y-78373000D01*
X143273000Y-77054845D01*
X143527000Y-77054845D01*
X143527000Y-78373000D01*
X143547000Y-78373000D01*
X143547000Y-78627000D01*
X143527000Y-78627000D01*
X143527000Y-79945155D01*
X143756890Y-80066476D01*
X144019858Y-79974352D01*
X144271193Y-79827496D01*
X144489049Y-79634429D01*
X144645538Y-79428278D01*
X144659294Y-79454013D01*
X144844866Y-79680134D01*
X145070986Y-79865706D01*
X145328966Y-80003599D01*
X145608889Y-80088513D01*
X145900000Y-80117185D01*
X146191110Y-80088513D01*
X146471033Y-80003599D01*
X146729013Y-79865706D01*
X146955134Y-79680134D01*
X147140706Y-79454014D01*
X147150000Y-79436626D01*
X147159294Y-79454013D01*
X147344866Y-79680134D01*
X147570986Y-79865706D01*
X147828966Y-80003599D01*
X148108889Y-80088513D01*
X148400000Y-80117185D01*
X148691110Y-80088513D01*
X148971033Y-80003599D01*
X149229013Y-79865706D01*
X149455134Y-79680134D01*
X149640706Y-79454014D01*
X149650000Y-79436626D01*
X149659294Y-79454013D01*
X149844866Y-79680134D01*
X150070986Y-79865706D01*
X150328966Y-80003599D01*
X150608889Y-80088513D01*
X150900000Y-80117185D01*
X151191110Y-80088513D01*
X151471033Y-80003599D01*
X151729013Y-79865706D01*
X151955134Y-79680134D01*
X152007223Y-79616663D01*
X152061595Y-79718386D01*
X152172038Y-79852962D01*
X152306614Y-79963405D01*
X152460150Y-80045472D01*
X152626746Y-80096008D01*
X152800000Y-80113072D01*
X154000000Y-80113072D01*
X154173254Y-80096008D01*
X154339850Y-80045472D01*
X154493386Y-79963405D01*
X154627962Y-79852962D01*
X154738405Y-79718386D01*
X154820472Y-79564850D01*
X154871008Y-79398254D01*
X154888072Y-79225000D01*
X154888072Y-77775000D01*
X154871008Y-77601746D01*
X154820472Y-77435150D01*
X154738405Y-77281614D01*
X154627962Y-77147038D01*
X154493386Y-77036595D01*
X154339850Y-76954528D01*
X154173254Y-76903992D01*
X154000000Y-76886928D01*
X152800000Y-76886928D01*
X152626746Y-76903992D01*
X152460150Y-76954528D01*
X152306614Y-77036595D01*
X152172038Y-77147038D01*
X152061595Y-77281614D01*
X152007223Y-77383337D01*
X151955134Y-77319866D01*
X151729014Y-77134294D01*
X151471034Y-76996401D01*
X151191111Y-76911487D01*
X150900000Y-76882815D01*
X150608890Y-76911487D01*
X150328967Y-76996401D01*
X150070987Y-77134294D01*
X149844866Y-77319866D01*
X149659294Y-77545986D01*
X149650000Y-77563374D01*
X149640706Y-77545986D01*
X149455134Y-77319866D01*
X149229014Y-77134294D01*
X148971034Y-76996401D01*
X148691111Y-76911487D01*
X148400000Y-76882815D01*
X148108890Y-76911487D01*
X147828967Y-76996401D01*
X147570987Y-77134294D01*
X147344866Y-77319866D01*
X147159294Y-77545986D01*
X147150000Y-77563374D01*
X147140706Y-77545986D01*
X146955134Y-77319866D01*
X146729014Y-77134294D01*
X146471034Y-76996401D01*
X146191111Y-76911487D01*
X145900000Y-76882815D01*
X145608890Y-76911487D01*
X145328967Y-76996401D01*
X145070987Y-77134294D01*
X144844866Y-77319866D01*
X144659294Y-77545986D01*
X144645538Y-77571722D01*
X144489049Y-77365571D01*
X144271193Y-77172504D01*
X144019858Y-77025648D01*
X143756890Y-76933524D01*
X143527000Y-77054845D01*
X143273000Y-77054845D01*
X143043110Y-76933524D01*
X142780142Y-77025648D01*
X142528807Y-77172504D01*
X142310951Y-77365571D01*
X142134947Y-77597430D01*
X142007558Y-77859170D01*
X141933680Y-78140733D01*
X129877000Y-78140733D01*
X129877000Y-71309267D01*
X141933680Y-71309267D01*
X142007558Y-71590830D01*
X142134947Y-71852570D01*
X142310951Y-72084429D01*
X142528807Y-72277496D01*
X142780142Y-72424352D01*
X143043110Y-72516476D01*
X143273000Y-72395155D01*
X143273000Y-71077000D01*
X142073835Y-71077000D01*
X141933680Y-71309267D01*
X129877000Y-71309267D01*
X129877000Y-70590733D01*
X141933680Y-70590733D01*
X142073835Y-70823000D01*
X143273000Y-70823000D01*
X143273000Y-69504845D01*
X143527000Y-69504845D01*
X143527000Y-70823000D01*
X143547000Y-70823000D01*
X143547000Y-71077000D01*
X143527000Y-71077000D01*
X143527000Y-72395155D01*
X143756890Y-72516476D01*
X144019858Y-72424352D01*
X144271193Y-72277496D01*
X144489049Y-72084429D01*
X144645538Y-71878278D01*
X144659294Y-71904013D01*
X144844866Y-72130134D01*
X145070986Y-72315706D01*
X145328966Y-72453599D01*
X145608889Y-72538513D01*
X145900000Y-72567185D01*
X146191110Y-72538513D01*
X146471033Y-72453599D01*
X146729013Y-72315706D01*
X146955134Y-72130134D01*
X147140706Y-71904014D01*
X147150000Y-71886626D01*
X147159294Y-71904013D01*
X147344866Y-72130134D01*
X147570986Y-72315706D01*
X147828966Y-72453599D01*
X148108889Y-72538513D01*
X148400000Y-72567185D01*
X148691110Y-72538513D01*
X148971033Y-72453599D01*
X149229013Y-72315706D01*
X149455134Y-72130134D01*
X149640706Y-71904014D01*
X149650000Y-71886626D01*
X149659294Y-71904013D01*
X149844866Y-72130134D01*
X150070986Y-72315706D01*
X150328966Y-72453599D01*
X150608889Y-72538513D01*
X150900000Y-72567185D01*
X151191110Y-72538513D01*
X151471033Y-72453599D01*
X151729013Y-72315706D01*
X151955134Y-72130134D01*
X152007223Y-72066663D01*
X152061595Y-72168386D01*
X152172038Y-72302962D01*
X152306614Y-72413405D01*
X152460150Y-72495472D01*
X152626746Y-72546008D01*
X152800000Y-72563072D01*
X154000000Y-72563072D01*
X154173254Y-72546008D01*
X154339850Y-72495472D01*
X154493386Y-72413405D01*
X154627962Y-72302962D01*
X154738405Y-72168386D01*
X154820472Y-72014850D01*
X154871008Y-71848254D01*
X154888072Y-71675000D01*
X154888072Y-70225000D01*
X154871008Y-70051746D01*
X154820472Y-69885150D01*
X154738405Y-69731614D01*
X154627962Y-69597038D01*
X154493386Y-69486595D01*
X154339850Y-69404528D01*
X154173254Y-69353992D01*
X154000000Y-69336928D01*
X152800000Y-69336928D01*
X152626746Y-69353992D01*
X152460150Y-69404528D01*
X152306614Y-69486595D01*
X152172038Y-69597038D01*
X152061595Y-69731614D01*
X152007223Y-69833337D01*
X151955134Y-69769866D01*
X151729014Y-69584294D01*
X151471034Y-69446401D01*
X151191111Y-69361487D01*
X150900000Y-69332815D01*
X150608890Y-69361487D01*
X150328967Y-69446401D01*
X150070987Y-69584294D01*
X149844866Y-69769866D01*
X149659294Y-69995986D01*
X149650000Y-70013374D01*
X149640706Y-69995986D01*
X149455134Y-69769866D01*
X149229014Y-69584294D01*
X148971034Y-69446401D01*
X148691111Y-69361487D01*
X148400000Y-69332815D01*
X148108890Y-69361487D01*
X147828967Y-69446401D01*
X147570987Y-69584294D01*
X147344866Y-69769866D01*
X147159294Y-69995986D01*
X147150000Y-70013374D01*
X147140706Y-69995986D01*
X146955134Y-69769866D01*
X146729014Y-69584294D01*
X146471034Y-69446401D01*
X146191111Y-69361487D01*
X145900000Y-69332815D01*
X145608890Y-69361487D01*
X145328967Y-69446401D01*
X145070987Y-69584294D01*
X144844866Y-69769866D01*
X144659294Y-69995986D01*
X144645538Y-70021722D01*
X144489049Y-69815571D01*
X144271193Y-69622504D01*
X144019858Y-69475648D01*
X143756890Y-69383524D01*
X143527000Y-69504845D01*
X143273000Y-69504845D01*
X143043110Y-69383524D01*
X142780142Y-69475648D01*
X142528807Y-69622504D01*
X142310951Y-69815571D01*
X142134947Y-70047430D01*
X142007558Y-70309170D01*
X141933680Y-70590733D01*
X129877000Y-70590733D01*
X129877000Y-68006234D01*
X129894376Y-67829811D01*
X129944022Y-67666150D01*
X130024638Y-67515328D01*
X130133130Y-67383130D01*
X130265328Y-67274638D01*
X130416150Y-67194022D01*
X130579811Y-67144376D01*
X130756234Y-67127000D01*
X166743766Y-67127000D01*
X166920189Y-67144376D01*
G37*
G04 #@! TD.AperFunction*
M02*
