G04 #@! TF.GenerationSoftware,KiCad,Pcbnew,5.1.10*
G04 #@! TF.CreationDate,2021-06-18T04:30:29+02:00*
G04 #@! TF.ProjectId,power-extender,706f7765-722d-4657-9874-656e6465722e,1*
G04 #@! TF.SameCoordinates,Original*
G04 #@! TF.FileFunction,Legend,Top*
G04 #@! TF.FilePolarity,Positive*
%FSLAX46Y46*%
G04 Gerber Fmt 4.6, Leading zero omitted, Abs format (unit mm)*
G04 Created by KiCad (PCBNEW 5.1.10) date 2021-06-18 04:30:29*
%MOMM*%
%LPD*%
G01*
G04 APERTURE LIST*
%ADD10C,0.120000*%
%ADD11C,0.100000*%
%ADD12C,0.150000*%
%ADD13C,0.300000*%
G04 APERTURE END LIST*
D10*
X133200000Y-131200000D02*
X133200000Y-129400000D01*
X133600000Y-130600000D02*
X132800000Y-130600000D01*
D11*
G36*
X133200000Y-130600000D02*
G01*
X132800000Y-130000000D01*
X133600000Y-130000000D01*
X133200000Y-130600000D01*
G37*
X133200000Y-130600000D02*
X132800000Y-130000000D01*
X133600000Y-130000000D01*
X133200000Y-130600000D01*
D10*
X158650000Y-99300000D02*
X148650000Y-99300000D01*
X148650000Y-99300000D02*
X148650000Y-101300000D01*
X148650000Y-101300000D02*
X158650000Y-101300000D01*
X158650000Y-101300000D02*
X158650000Y-99300000D01*
X137950000Y-102000000D02*
X137950000Y-104000000D01*
X137950000Y-104000000D02*
X147950000Y-104000000D01*
X147950000Y-104000000D02*
X147950000Y-102000000D01*
X147950000Y-102000000D02*
X137950000Y-102000000D01*
X148650000Y-102000000D02*
X148650000Y-104000000D01*
X158650000Y-104000000D02*
X158650000Y-102000000D01*
X148650000Y-104000000D02*
X158650000Y-104000000D01*
X158650000Y-102000000D02*
X148650000Y-102000000D01*
X147950000Y-99300000D02*
X137950000Y-99300000D01*
X147950000Y-101300000D02*
X147950000Y-99300000D01*
X137950000Y-101300000D02*
X147950000Y-101300000D01*
X137950000Y-99300000D02*
X137950000Y-101300000D01*
D12*
X149173809Y-103452380D02*
X149173809Y-102452380D01*
X149745238Y-103452380D02*
X149316666Y-102880952D01*
X149745238Y-102452380D02*
X149173809Y-103023809D01*
X150078571Y-102452380D02*
X150697619Y-102452380D01*
X150364285Y-102833333D01*
X150507142Y-102833333D01*
X150602380Y-102880952D01*
X150650000Y-102928571D01*
X150697619Y-103023809D01*
X150697619Y-103261904D01*
X150650000Y-103357142D01*
X150602380Y-103404761D01*
X150507142Y-103452380D01*
X150221428Y-103452380D01*
X150126190Y-103404761D01*
X150078571Y-103357142D01*
X151888095Y-103452380D02*
X151888095Y-102452380D01*
X152126190Y-102452380D01*
X152269047Y-102500000D01*
X152364285Y-102595238D01*
X152411904Y-102690476D01*
X152459523Y-102880952D01*
X152459523Y-103023809D01*
X152411904Y-103214285D01*
X152364285Y-103309523D01*
X152269047Y-103404761D01*
X152126190Y-103452380D01*
X151888095Y-103452380D01*
X153316666Y-102452380D02*
X153126190Y-102452380D01*
X153030952Y-102500000D01*
X152983333Y-102547619D01*
X152888095Y-102690476D01*
X152840476Y-102880952D01*
X152840476Y-103261904D01*
X152888095Y-103357142D01*
X152935714Y-103404761D01*
X153030952Y-103452380D01*
X153221428Y-103452380D01*
X153316666Y-103404761D01*
X153364285Y-103357142D01*
X153411904Y-103261904D01*
X153411904Y-103023809D01*
X153364285Y-102928571D01*
X153316666Y-102880952D01*
X153221428Y-102833333D01*
X153030952Y-102833333D01*
X152935714Y-102880952D01*
X152888095Y-102928571D01*
X152840476Y-103023809D01*
X154602380Y-103071428D02*
X155364285Y-103071428D01*
X155792857Y-103166666D02*
X156269047Y-103166666D01*
X155697619Y-103452380D02*
X156030952Y-102452380D01*
X156364285Y-103452380D01*
X156888095Y-102452380D02*
X156983333Y-102452380D01*
X157078571Y-102500000D01*
X157126190Y-102547619D01*
X157173809Y-102642857D01*
X157221428Y-102833333D01*
X157221428Y-103071428D01*
X157173809Y-103261904D01*
X157126190Y-103357142D01*
X157078571Y-103404761D01*
X156983333Y-103452380D01*
X156888095Y-103452380D01*
X156792857Y-103404761D01*
X156745238Y-103357142D01*
X156697619Y-103261904D01*
X156650000Y-103071428D01*
X156650000Y-102833333D01*
X156697619Y-102642857D01*
X156745238Y-102547619D01*
X156792857Y-102500000D01*
X156888095Y-102452380D01*
X157602380Y-102547619D02*
X157650000Y-102500000D01*
X157745238Y-102452380D01*
X157983333Y-102452380D01*
X158078571Y-102500000D01*
X158126190Y-102547619D01*
X158173809Y-102642857D01*
X158173809Y-102738095D01*
X158126190Y-102880952D01*
X157554761Y-103452380D01*
X158173809Y-103452380D01*
X138473809Y-103452380D02*
X138473809Y-102452380D01*
X139045238Y-103452380D02*
X138616666Y-102880952D01*
X139045238Y-102452380D02*
X138473809Y-103023809D01*
X139426190Y-102547619D02*
X139473809Y-102500000D01*
X139569047Y-102452380D01*
X139807142Y-102452380D01*
X139902380Y-102500000D01*
X139950000Y-102547619D01*
X139997619Y-102642857D01*
X139997619Y-102738095D01*
X139950000Y-102880952D01*
X139378571Y-103452380D01*
X139997619Y-103452380D01*
X141188095Y-103452380D02*
X141188095Y-102452380D01*
X141426190Y-102452380D01*
X141569047Y-102500000D01*
X141664285Y-102595238D01*
X141711904Y-102690476D01*
X141759523Y-102880952D01*
X141759523Y-103023809D01*
X141711904Y-103214285D01*
X141664285Y-103309523D01*
X141569047Y-103404761D01*
X141426190Y-103452380D01*
X141188095Y-103452380D01*
X142664285Y-102452380D02*
X142188095Y-102452380D01*
X142140476Y-102928571D01*
X142188095Y-102880952D01*
X142283333Y-102833333D01*
X142521428Y-102833333D01*
X142616666Y-102880952D01*
X142664285Y-102928571D01*
X142711904Y-103023809D01*
X142711904Y-103261904D01*
X142664285Y-103357142D01*
X142616666Y-103404761D01*
X142521428Y-103452380D01*
X142283333Y-103452380D01*
X142188095Y-103404761D01*
X142140476Y-103357142D01*
X143902380Y-103071428D02*
X144664285Y-103071428D01*
X145092857Y-103166666D02*
X145569047Y-103166666D01*
X144997619Y-103452380D02*
X145330952Y-102452380D01*
X145664285Y-103452380D01*
X146188095Y-102452380D02*
X146283333Y-102452380D01*
X146378571Y-102500000D01*
X146426190Y-102547619D01*
X146473809Y-102642857D01*
X146521428Y-102833333D01*
X146521428Y-103071428D01*
X146473809Y-103261904D01*
X146426190Y-103357142D01*
X146378571Y-103404761D01*
X146283333Y-103452380D01*
X146188095Y-103452380D01*
X146092857Y-103404761D01*
X146045238Y-103357142D01*
X145997619Y-103261904D01*
X145950000Y-103071428D01*
X145950000Y-102833333D01*
X145997619Y-102642857D01*
X146045238Y-102547619D01*
X146092857Y-102500000D01*
X146188095Y-102452380D01*
X147473809Y-103452380D02*
X146902380Y-103452380D01*
X147188095Y-103452380D02*
X147188095Y-102452380D01*
X147092857Y-102595238D01*
X146997619Y-102690476D01*
X146902380Y-102738095D01*
X149173809Y-100752380D02*
X149173809Y-99752380D01*
X149745238Y-100752380D02*
X149316666Y-100180952D01*
X149745238Y-99752380D02*
X149173809Y-100323809D01*
X150602380Y-100085714D02*
X150602380Y-100752380D01*
X150364285Y-99704761D02*
X150126190Y-100419047D01*
X150745238Y-100419047D01*
X151888095Y-100752380D02*
X151888095Y-99752380D01*
X152126190Y-99752380D01*
X152269047Y-99800000D01*
X152364285Y-99895238D01*
X152411904Y-99990476D01*
X152459523Y-100180952D01*
X152459523Y-100323809D01*
X152411904Y-100514285D01*
X152364285Y-100609523D01*
X152269047Y-100704761D01*
X152126190Y-100752380D01*
X151888095Y-100752380D01*
X152792857Y-99752380D02*
X153459523Y-99752380D01*
X153030952Y-100752380D01*
X154602380Y-100371428D02*
X155364285Y-100371428D01*
X154983333Y-100752380D02*
X154983333Y-99990476D01*
X155792857Y-100466666D02*
X156269047Y-100466666D01*
X155697619Y-100752380D02*
X156030952Y-99752380D01*
X156364285Y-100752380D01*
X156888095Y-99752380D02*
X156983333Y-99752380D01*
X157078571Y-99800000D01*
X157126190Y-99847619D01*
X157173809Y-99942857D01*
X157221428Y-100133333D01*
X157221428Y-100371428D01*
X157173809Y-100561904D01*
X157126190Y-100657142D01*
X157078571Y-100704761D01*
X156983333Y-100752380D01*
X156888095Y-100752380D01*
X156792857Y-100704761D01*
X156745238Y-100657142D01*
X156697619Y-100561904D01*
X156650000Y-100371428D01*
X156650000Y-100133333D01*
X156697619Y-99942857D01*
X156745238Y-99847619D01*
X156792857Y-99800000D01*
X156888095Y-99752380D01*
X157554761Y-99752380D02*
X158173809Y-99752380D01*
X157840476Y-100133333D01*
X157983333Y-100133333D01*
X158078571Y-100180952D01*
X158126190Y-100228571D01*
X158173809Y-100323809D01*
X158173809Y-100561904D01*
X158126190Y-100657142D01*
X158078571Y-100704761D01*
X157983333Y-100752380D01*
X157697619Y-100752380D01*
X157602380Y-100704761D01*
X157554761Y-100657142D01*
D10*
X157100000Y-94700000D02*
X139600000Y-94700000D01*
X157100000Y-98200000D02*
X157100000Y-94700000D01*
X139600000Y-98200000D02*
X157100000Y-98200000D01*
X139600000Y-94700000D02*
X139600000Y-98200000D01*
D12*
X140540476Y-95125000D02*
X140445238Y-95077380D01*
X140302380Y-95077380D01*
X140159523Y-95125000D01*
X140064285Y-95220238D01*
X140016666Y-95315476D01*
X139969047Y-95505952D01*
X139969047Y-95648809D01*
X140016666Y-95839285D01*
X140064285Y-95934523D01*
X140159523Y-96029761D01*
X140302380Y-96077380D01*
X140397619Y-96077380D01*
X140540476Y-96029761D01*
X140588095Y-95982142D01*
X140588095Y-95648809D01*
X140397619Y-95648809D01*
X141016666Y-96077380D02*
X141016666Y-95077380D01*
X141588095Y-96077380D01*
X141588095Y-95077380D01*
X142064285Y-96077380D02*
X142064285Y-95077380D01*
X142302380Y-95077380D01*
X142445238Y-95125000D01*
X142540476Y-95220238D01*
X142588095Y-95315476D01*
X142635714Y-95505952D01*
X142635714Y-95648809D01*
X142588095Y-95839285D01*
X142540476Y-95934523D01*
X142445238Y-96029761D01*
X142302380Y-96077380D01*
X142064285Y-96077380D01*
X143826190Y-96077380D02*
X143826190Y-95077380D01*
X144064285Y-95077380D01*
X144207142Y-95125000D01*
X144302380Y-95220238D01*
X144350000Y-95315476D01*
X144397619Y-95505952D01*
X144397619Y-95648809D01*
X144350000Y-95839285D01*
X144302380Y-95934523D01*
X144207142Y-96029761D01*
X144064285Y-96077380D01*
X143826190Y-96077380D01*
X145016666Y-95077380D02*
X145111904Y-95077380D01*
X145207142Y-95125000D01*
X145254761Y-95172619D01*
X145302380Y-95267857D01*
X145350000Y-95458333D01*
X145350000Y-95696428D01*
X145302380Y-95886904D01*
X145254761Y-95982142D01*
X145207142Y-96029761D01*
X145111904Y-96077380D01*
X145016666Y-96077380D01*
X144921428Y-96029761D01*
X144873809Y-95982142D01*
X144826190Y-95886904D01*
X144778571Y-95696428D01*
X144778571Y-95458333D01*
X144826190Y-95267857D01*
X144873809Y-95172619D01*
X144921428Y-95125000D01*
X145016666Y-95077380D01*
X145683333Y-95077380D02*
X146350000Y-95077380D01*
X145683333Y-96077380D01*
X146350000Y-96077380D01*
X147492857Y-96077380D02*
X147492857Y-95077380D01*
X147730952Y-95077380D01*
X147873809Y-95125000D01*
X147969047Y-95220238D01*
X148016666Y-95315476D01*
X148064285Y-95505952D01*
X148064285Y-95648809D01*
X148016666Y-95839285D01*
X147969047Y-95934523D01*
X147873809Y-96029761D01*
X147730952Y-96077380D01*
X147492857Y-96077380D01*
X149016666Y-96077380D02*
X148445238Y-96077380D01*
X148730952Y-96077380D02*
X148730952Y-95077380D01*
X148635714Y-95220238D01*
X148540476Y-95315476D01*
X148445238Y-95363095D01*
X150969047Y-96077380D02*
X150969047Y-95077380D01*
X151207142Y-95077380D01*
X151350000Y-95125000D01*
X151445238Y-95220238D01*
X151492857Y-95315476D01*
X151540476Y-95505952D01*
X151540476Y-95648809D01*
X151492857Y-95839285D01*
X151445238Y-95934523D01*
X151350000Y-96029761D01*
X151207142Y-96077380D01*
X150969047Y-96077380D01*
X151921428Y-95172619D02*
X151969047Y-95125000D01*
X152064285Y-95077380D01*
X152302380Y-95077380D01*
X152397619Y-95125000D01*
X152445238Y-95172619D01*
X152492857Y-95267857D01*
X152492857Y-95363095D01*
X152445238Y-95505952D01*
X151873809Y-96077380D01*
X152492857Y-96077380D01*
X154445238Y-96077380D02*
X154445238Y-95077380D01*
X154683333Y-95077380D01*
X154826190Y-95125000D01*
X154921428Y-95220238D01*
X154969047Y-95315476D01*
X155016666Y-95505952D01*
X155016666Y-95648809D01*
X154969047Y-95839285D01*
X154921428Y-95934523D01*
X154826190Y-96029761D01*
X154683333Y-96077380D01*
X154445238Y-96077380D01*
X155350000Y-95077380D02*
X155969047Y-95077380D01*
X155635714Y-95458333D01*
X155778571Y-95458333D01*
X155873809Y-95505952D01*
X155921428Y-95553571D01*
X155969047Y-95648809D01*
X155969047Y-95886904D01*
X155921428Y-95982142D01*
X155873809Y-96029761D01*
X155778571Y-96077380D01*
X155492857Y-96077380D01*
X155397619Y-96029761D01*
X155350000Y-95982142D01*
X140540476Y-96775000D02*
X140445238Y-96727380D01*
X140302380Y-96727380D01*
X140159523Y-96775000D01*
X140064285Y-96870238D01*
X140016666Y-96965476D01*
X139969047Y-97155952D01*
X139969047Y-97298809D01*
X140016666Y-97489285D01*
X140064285Y-97584523D01*
X140159523Y-97679761D01*
X140302380Y-97727380D01*
X140397619Y-97727380D01*
X140540476Y-97679761D01*
X140588095Y-97632142D01*
X140588095Y-97298809D01*
X140397619Y-97298809D01*
X141016666Y-97727380D02*
X141016666Y-96727380D01*
X141588095Y-97727380D01*
X141588095Y-96727380D01*
X142064285Y-97727380D02*
X142064285Y-96727380D01*
X142302380Y-96727380D01*
X142445238Y-96775000D01*
X142540476Y-96870238D01*
X142588095Y-96965476D01*
X142635714Y-97155952D01*
X142635714Y-97298809D01*
X142588095Y-97489285D01*
X142540476Y-97584523D01*
X142445238Y-97679761D01*
X142302380Y-97727380D01*
X142064285Y-97727380D01*
X143778571Y-97441666D02*
X144254761Y-97441666D01*
X143683333Y-97727380D02*
X144016666Y-96727380D01*
X144350000Y-97727380D01*
X145207142Y-97727380D02*
X144635714Y-97727380D01*
X144921428Y-97727380D02*
X144921428Y-96727380D01*
X144826190Y-96870238D01*
X144730952Y-96965476D01*
X144635714Y-97013095D01*
X145540476Y-96727380D02*
X146159523Y-96727380D01*
X145826190Y-97108333D01*
X145969047Y-97108333D01*
X146064285Y-97155952D01*
X146111904Y-97203571D01*
X146159523Y-97298809D01*
X146159523Y-97536904D01*
X146111904Y-97632142D01*
X146064285Y-97679761D01*
X145969047Y-97727380D01*
X145683333Y-97727380D01*
X145588095Y-97679761D01*
X145540476Y-97632142D01*
X147302380Y-97441666D02*
X147778571Y-97441666D01*
X147207142Y-97727380D02*
X147540476Y-96727380D01*
X147873809Y-97727380D01*
X148730952Y-97727380D02*
X148159523Y-97727380D01*
X148445238Y-97727380D02*
X148445238Y-96727380D01*
X148350000Y-96870238D01*
X148254761Y-96965476D01*
X148159523Y-97013095D01*
X149111904Y-96822619D02*
X149159523Y-96775000D01*
X149254761Y-96727380D01*
X149492857Y-96727380D01*
X149588095Y-96775000D01*
X149635714Y-96822619D01*
X149683333Y-96917857D01*
X149683333Y-97013095D01*
X149635714Y-97155952D01*
X149064285Y-97727380D01*
X149683333Y-97727380D01*
X150826190Y-97441666D02*
X151302380Y-97441666D01*
X150730952Y-97727380D02*
X151064285Y-96727380D01*
X151397619Y-97727380D01*
X152254761Y-97727380D02*
X151683333Y-97727380D01*
X151969047Y-97727380D02*
X151969047Y-96727380D01*
X151873809Y-96870238D01*
X151778571Y-96965476D01*
X151683333Y-97013095D01*
X153207142Y-97727380D02*
X152635714Y-97727380D01*
X152921428Y-97727380D02*
X152921428Y-96727380D01*
X152826190Y-96870238D01*
X152730952Y-96965476D01*
X152635714Y-97013095D01*
X154350000Y-97441666D02*
X154826190Y-97441666D01*
X154254761Y-97727380D02*
X154588095Y-96727380D01*
X154921428Y-97727380D01*
X155778571Y-97727380D02*
X155207142Y-97727380D01*
X155492857Y-97727380D02*
X155492857Y-96727380D01*
X155397619Y-96870238D01*
X155302380Y-96965476D01*
X155207142Y-97013095D01*
X156397619Y-96727380D02*
X156492857Y-96727380D01*
X156588095Y-96775000D01*
X156635714Y-96822619D01*
X156683333Y-96917857D01*
X156730952Y-97108333D01*
X156730952Y-97346428D01*
X156683333Y-97536904D01*
X156635714Y-97632142D01*
X156588095Y-97679761D01*
X156492857Y-97727380D01*
X156397619Y-97727380D01*
X156302380Y-97679761D01*
X156254761Y-97632142D01*
X156207142Y-97536904D01*
X156159523Y-97346428D01*
X156159523Y-97108333D01*
X156207142Y-96917857D01*
X156254761Y-96822619D01*
X156302380Y-96775000D01*
X156397619Y-96727380D01*
D11*
G36*
X167200000Y-129600000D02*
G01*
X166600000Y-130000000D01*
X166600000Y-129200000D01*
X167200000Y-129600000D01*
G37*
X167200000Y-129600000D02*
X166600000Y-130000000D01*
X166600000Y-129200000D01*
X167200000Y-129600000D01*
D10*
X167800000Y-129600000D02*
X166000000Y-129600000D01*
X167200000Y-129200000D02*
X167200000Y-130000000D01*
X164000000Y-121600000D02*
X164800000Y-121600000D01*
X164400000Y-121000000D02*
X164400000Y-122800000D01*
D11*
G36*
X164800000Y-122200000D02*
G01*
X164000000Y-122200000D01*
X164400000Y-121600000D01*
X164800000Y-122200000D01*
G37*
X164800000Y-122200000D02*
X164000000Y-122200000D01*
X164400000Y-121600000D01*
X164800000Y-122200000D01*
G36*
X167200000Y-78600000D02*
G01*
X166600000Y-79000000D01*
X166600000Y-78200000D01*
X167200000Y-78600000D01*
G37*
X167200000Y-78600000D02*
X166600000Y-79000000D01*
X166600000Y-78200000D01*
X167200000Y-78600000D01*
D10*
X167200000Y-78200000D02*
X167200000Y-79000000D01*
X167800000Y-78600000D02*
X166000000Y-78600000D01*
D11*
G36*
X164800000Y-71200000D02*
G01*
X164000000Y-71200000D01*
X164400000Y-70600000D01*
X164800000Y-71200000D01*
G37*
X164800000Y-71200000D02*
X164000000Y-71200000D01*
X164400000Y-70600000D01*
X164800000Y-71200000D01*
D10*
X164000000Y-70600000D02*
X164800000Y-70600000D01*
X164400000Y-70000000D02*
X164400000Y-71800000D01*
D11*
G36*
X131000000Y-75000000D02*
G01*
X130400000Y-74600000D01*
X131000000Y-74200000D01*
X131000000Y-75000000D01*
G37*
X131000000Y-75000000D02*
X130400000Y-74600000D01*
X131000000Y-74200000D01*
X131000000Y-75000000D01*
D10*
X129800000Y-74600000D02*
X131600000Y-74600000D01*
X130400000Y-75000000D02*
X130400000Y-74200000D01*
D11*
G36*
X133200000Y-79400000D02*
G01*
X132800000Y-78800000D01*
X133600000Y-78800000D01*
X133200000Y-79400000D01*
G37*
X133200000Y-79400000D02*
X132800000Y-78800000D01*
X133600000Y-78800000D01*
X133200000Y-79400000D01*
D10*
X133200000Y-80000000D02*
X133200000Y-78200000D01*
X133600000Y-79400000D02*
X132800000Y-79400000D01*
X129800000Y-122400000D02*
X131600000Y-122400000D01*
X130400000Y-122800000D02*
X130400000Y-122000000D01*
D11*
G36*
X131000000Y-122800000D02*
G01*
X130400000Y-122400000D01*
X131000000Y-122000000D01*
X131000000Y-122800000D01*
G37*
X131000000Y-122800000D02*
X130400000Y-122400000D01*
X131000000Y-122000000D01*
X131000000Y-122800000D01*
D13*
X164400000Y-109900000D02*
G75*
G03*
X164400000Y-109900000I-100000J0D01*
G01*
X178100000Y-91400000D02*
G75*
G03*
X178100000Y-91400000I-100000J0D01*
G01*
X148700000Y-82200000D02*
G75*
G03*
X148700000Y-82200000I-100000J0D01*
G01*
X146500000Y-83100000D02*
G75*
G03*
X146500000Y-83100000I-100000J0D01*
G01*
X143200000Y-89500000D02*
G75*
G03*
X143200000Y-89500000I-100000J0D01*
G01*
X133300000Y-91000000D02*
G75*
G03*
X133300000Y-91000000I-100000J0D01*
G01*
X158700000Y-92000000D02*
G75*
G03*
X158700000Y-92000000I-100000J0D01*
G01*
X178200000Y-115500000D02*
G75*
G03*
X178200000Y-115500000I-100000J0D01*
G01*
X139000000Y-109000000D02*
G75*
G03*
X139000000Y-109000000I-100000J0D01*
G01*
X119500000Y-109400000D02*
G75*
G03*
X119500000Y-109400000I-100000J0D01*
G01*
X119600000Y-85400000D02*
G75*
G03*
X119600000Y-85400000I-100000J0D01*
G01*
D12*
X193202380Y-97714285D02*
X192202380Y-97714285D01*
X193202380Y-97142857D01*
X192202380Y-97142857D01*
X193107142Y-96095238D02*
X193154761Y-96142857D01*
X193202380Y-96285714D01*
X193202380Y-96380952D01*
X193154761Y-96523809D01*
X193059523Y-96619047D01*
X192964285Y-96666666D01*
X192773809Y-96714285D01*
X192630952Y-96714285D01*
X192440476Y-96666666D01*
X192345238Y-96619047D01*
X192250000Y-96523809D01*
X192202380Y-96380952D01*
X192202380Y-96285714D01*
X192250000Y-96142857D01*
X192297619Y-96095238D01*
X193107142Y-92809523D02*
X193154761Y-92857142D01*
X193202380Y-93000000D01*
X193202380Y-93095238D01*
X193154761Y-93238095D01*
X193059523Y-93333333D01*
X192964285Y-93380952D01*
X192773809Y-93428571D01*
X192630952Y-93428571D01*
X192440476Y-93380952D01*
X192345238Y-93333333D01*
X192250000Y-93238095D01*
X192202380Y-93095238D01*
X192202380Y-93000000D01*
X192250000Y-92857142D01*
X192297619Y-92809523D01*
X192202380Y-92190476D02*
X192202380Y-92000000D01*
X192250000Y-91904761D01*
X192345238Y-91809523D01*
X192535714Y-91761904D01*
X192869047Y-91761904D01*
X193059523Y-91809523D01*
X193154761Y-91904761D01*
X193202380Y-92000000D01*
X193202380Y-92190476D01*
X193154761Y-92285714D01*
X193059523Y-92380952D01*
X192869047Y-92428571D01*
X192535714Y-92428571D01*
X192345238Y-92380952D01*
X192250000Y-92285714D01*
X192202380Y-92190476D01*
X193202380Y-91333333D02*
X192202380Y-91333333D01*
X192916666Y-91000000D01*
X192202380Y-90666666D01*
X193202380Y-90666666D01*
X193202380Y-87904761D02*
X192202380Y-87904761D01*
X193202380Y-87333333D01*
X192202380Y-87333333D01*
X192202380Y-86666666D02*
X192202380Y-86476190D01*
X192250000Y-86380952D01*
X192345238Y-86285714D01*
X192535714Y-86238095D01*
X192869047Y-86238095D01*
X193059523Y-86285714D01*
X193154761Y-86380952D01*
X193202380Y-86476190D01*
X193202380Y-86666666D01*
X193154761Y-86761904D01*
X193059523Y-86857142D01*
X192869047Y-86904761D01*
X192535714Y-86904761D01*
X192345238Y-86857142D01*
X192250000Y-86761904D01*
X192202380Y-86666666D01*
X193202380Y-114714285D02*
X192202380Y-114714285D01*
X193202380Y-114142857D01*
X192202380Y-114142857D01*
X193107142Y-113095238D02*
X193154761Y-113142857D01*
X193202380Y-113285714D01*
X193202380Y-113380952D01*
X193154761Y-113523809D01*
X193059523Y-113619047D01*
X192964285Y-113666666D01*
X192773809Y-113714285D01*
X192630952Y-113714285D01*
X192440476Y-113666666D01*
X192345238Y-113619047D01*
X192250000Y-113523809D01*
X192202380Y-113380952D01*
X192202380Y-113285714D01*
X192250000Y-113142857D01*
X192297619Y-113095238D01*
X193107142Y-109809523D02*
X193154761Y-109857142D01*
X193202380Y-110000000D01*
X193202380Y-110095238D01*
X193154761Y-110238095D01*
X193059523Y-110333333D01*
X192964285Y-110380952D01*
X192773809Y-110428571D01*
X192630952Y-110428571D01*
X192440476Y-110380952D01*
X192345238Y-110333333D01*
X192250000Y-110238095D01*
X192202380Y-110095238D01*
X192202380Y-110000000D01*
X192250000Y-109857142D01*
X192297619Y-109809523D01*
X192202380Y-109190476D02*
X192202380Y-109000000D01*
X192250000Y-108904761D01*
X192345238Y-108809523D01*
X192535714Y-108761904D01*
X192869047Y-108761904D01*
X193059523Y-108809523D01*
X193154761Y-108904761D01*
X193202380Y-109000000D01*
X193202380Y-109190476D01*
X193154761Y-109285714D01*
X193059523Y-109380952D01*
X192869047Y-109428571D01*
X192535714Y-109428571D01*
X192345238Y-109380952D01*
X192250000Y-109285714D01*
X192202380Y-109190476D01*
X193202380Y-108333333D02*
X192202380Y-108333333D01*
X192916666Y-108000000D01*
X192202380Y-107666666D01*
X193202380Y-107666666D01*
X193202380Y-104904761D02*
X192202380Y-104904761D01*
X193202380Y-104333333D01*
X192202380Y-104333333D01*
X192202380Y-103666666D02*
X192202380Y-103476190D01*
X192250000Y-103380952D01*
X192345238Y-103285714D01*
X192535714Y-103238095D01*
X192869047Y-103238095D01*
X193059523Y-103285714D01*
X193154761Y-103380952D01*
X193202380Y-103476190D01*
X193202380Y-103666666D01*
X193154761Y-103761904D01*
X193059523Y-103857142D01*
X192869047Y-103904761D01*
X192535714Y-103904761D01*
X192345238Y-103857142D01*
X192250000Y-103761904D01*
X192202380Y-103666666D01*
X104297619Y-103285714D02*
X105297619Y-103285714D01*
X104297619Y-103857142D01*
X105297619Y-103857142D01*
X104392857Y-104904761D02*
X104345238Y-104857142D01*
X104297619Y-104714285D01*
X104297619Y-104619047D01*
X104345238Y-104476190D01*
X104440476Y-104380952D01*
X104535714Y-104333333D01*
X104726190Y-104285714D01*
X104869047Y-104285714D01*
X105059523Y-104333333D01*
X105154761Y-104380952D01*
X105250000Y-104476190D01*
X105297619Y-104619047D01*
X105297619Y-104714285D01*
X105250000Y-104857142D01*
X105202380Y-104904761D01*
X104392857Y-108190476D02*
X104345238Y-108142857D01*
X104297619Y-108000000D01*
X104297619Y-107904761D01*
X104345238Y-107761904D01*
X104440476Y-107666666D01*
X104535714Y-107619047D01*
X104726190Y-107571428D01*
X104869047Y-107571428D01*
X105059523Y-107619047D01*
X105154761Y-107666666D01*
X105250000Y-107761904D01*
X105297619Y-107904761D01*
X105297619Y-108000000D01*
X105250000Y-108142857D01*
X105202380Y-108190476D01*
X105297619Y-108809523D02*
X105297619Y-109000000D01*
X105250000Y-109095238D01*
X105154761Y-109190476D01*
X104964285Y-109238095D01*
X104630952Y-109238095D01*
X104440476Y-109190476D01*
X104345238Y-109095238D01*
X104297619Y-109000000D01*
X104297619Y-108809523D01*
X104345238Y-108714285D01*
X104440476Y-108619047D01*
X104630952Y-108571428D01*
X104964285Y-108571428D01*
X105154761Y-108619047D01*
X105250000Y-108714285D01*
X105297619Y-108809523D01*
X104297619Y-109666666D02*
X105297619Y-109666666D01*
X104583333Y-110000000D01*
X105297619Y-110333333D01*
X104297619Y-110333333D01*
X104297619Y-113095238D02*
X105297619Y-113095238D01*
X104297619Y-113666666D01*
X105297619Y-113666666D01*
X105297619Y-114333333D02*
X105297619Y-114523809D01*
X105250000Y-114619047D01*
X105154761Y-114714285D01*
X104964285Y-114761904D01*
X104630952Y-114761904D01*
X104440476Y-114714285D01*
X104345238Y-114619047D01*
X104297619Y-114523809D01*
X104297619Y-114333333D01*
X104345238Y-114238095D01*
X104440476Y-114142857D01*
X104630952Y-114095238D01*
X104964285Y-114095238D01*
X105154761Y-114142857D01*
X105250000Y-114238095D01*
X105297619Y-114333333D01*
X104297619Y-86285714D02*
X105297619Y-86285714D01*
X104297619Y-86857142D01*
X105297619Y-86857142D01*
X104392857Y-87904761D02*
X104345238Y-87857142D01*
X104297619Y-87714285D01*
X104297619Y-87619047D01*
X104345238Y-87476190D01*
X104440476Y-87380952D01*
X104535714Y-87333333D01*
X104726190Y-87285714D01*
X104869047Y-87285714D01*
X105059523Y-87333333D01*
X105154761Y-87380952D01*
X105250000Y-87476190D01*
X105297619Y-87619047D01*
X105297619Y-87714285D01*
X105250000Y-87857142D01*
X105202380Y-87904761D01*
X104392857Y-91190476D02*
X104345238Y-91142857D01*
X104297619Y-91000000D01*
X104297619Y-90904761D01*
X104345238Y-90761904D01*
X104440476Y-90666666D01*
X104535714Y-90619047D01*
X104726190Y-90571428D01*
X104869047Y-90571428D01*
X105059523Y-90619047D01*
X105154761Y-90666666D01*
X105250000Y-90761904D01*
X105297619Y-90904761D01*
X105297619Y-91000000D01*
X105250000Y-91142857D01*
X105202380Y-91190476D01*
X105297619Y-91809523D02*
X105297619Y-92000000D01*
X105250000Y-92095238D01*
X105154761Y-92190476D01*
X104964285Y-92238095D01*
X104630952Y-92238095D01*
X104440476Y-92190476D01*
X104345238Y-92095238D01*
X104297619Y-92000000D01*
X104297619Y-91809523D01*
X104345238Y-91714285D01*
X104440476Y-91619047D01*
X104630952Y-91571428D01*
X104964285Y-91571428D01*
X105154761Y-91619047D01*
X105250000Y-91714285D01*
X105297619Y-91809523D01*
X104297619Y-92666666D02*
X105297619Y-92666666D01*
X104583333Y-93000000D01*
X105297619Y-93333333D01*
X104297619Y-93333333D01*
X104297619Y-96095238D02*
X105297619Y-96095238D01*
X104297619Y-96666666D01*
X105297619Y-96666666D01*
X105297619Y-97333333D02*
X105297619Y-97523809D01*
X105250000Y-97619047D01*
X105154761Y-97714285D01*
X104964285Y-97761904D01*
X104630952Y-97761904D01*
X104440476Y-97714285D01*
X104345238Y-97619047D01*
X104297619Y-97523809D01*
X104297619Y-97333333D01*
X104345238Y-97238095D01*
X104440476Y-97142857D01*
X104630952Y-97095238D01*
X104964285Y-97095238D01*
X105154761Y-97142857D01*
X105250000Y-97238095D01*
X105297619Y-97333333D01*
X138473809Y-100752380D02*
X138473809Y-99752380D01*
X139045238Y-100752380D02*
X138616666Y-100180952D01*
X139045238Y-99752380D02*
X138473809Y-100323809D01*
X139997619Y-100752380D02*
X139426190Y-100752380D01*
X139711904Y-100752380D02*
X139711904Y-99752380D01*
X139616666Y-99895238D01*
X139521428Y-99990476D01*
X139426190Y-100038095D01*
X141188095Y-100752380D02*
X141188095Y-99752380D01*
X141426190Y-99752380D01*
X141569047Y-99800000D01*
X141664285Y-99895238D01*
X141711904Y-99990476D01*
X141759523Y-100180952D01*
X141759523Y-100323809D01*
X141711904Y-100514285D01*
X141664285Y-100609523D01*
X141569047Y-100704761D01*
X141426190Y-100752380D01*
X141188095Y-100752380D01*
X142616666Y-100085714D02*
X142616666Y-100752380D01*
X142378571Y-99704761D02*
X142140476Y-100419047D01*
X142759523Y-100419047D01*
X143902380Y-100371428D02*
X144664285Y-100371428D01*
X144283333Y-100752380D02*
X144283333Y-99990476D01*
X145092857Y-100466666D02*
X145569047Y-100466666D01*
X144997619Y-100752380D02*
X145330952Y-99752380D01*
X145664285Y-100752380D01*
X146188095Y-99752380D02*
X146283333Y-99752380D01*
X146378571Y-99800000D01*
X146426190Y-99847619D01*
X146473809Y-99942857D01*
X146521428Y-100133333D01*
X146521428Y-100371428D01*
X146473809Y-100561904D01*
X146426190Y-100657142D01*
X146378571Y-100704761D01*
X146283333Y-100752380D01*
X146188095Y-100752380D01*
X146092857Y-100704761D01*
X146045238Y-100657142D01*
X145997619Y-100561904D01*
X145950000Y-100371428D01*
X145950000Y-100133333D01*
X145997619Y-99942857D01*
X146045238Y-99847619D01*
X146092857Y-99800000D01*
X146188095Y-99752380D01*
X147140476Y-99752380D02*
X147235714Y-99752380D01*
X147330952Y-99800000D01*
X147378571Y-99847619D01*
X147426190Y-99942857D01*
X147473809Y-100133333D01*
X147473809Y-100371428D01*
X147426190Y-100561904D01*
X147378571Y-100657142D01*
X147330952Y-100704761D01*
X147235714Y-100752380D01*
X147140476Y-100752380D01*
X147045238Y-100704761D01*
X146997619Y-100657142D01*
X146950000Y-100561904D01*
X146902380Y-100371428D01*
X146902380Y-100133333D01*
X146950000Y-99942857D01*
X146997619Y-99847619D01*
X147045238Y-99800000D01*
X147140476Y-99752380D01*
X141142857Y-134500000D02*
X141047619Y-134452380D01*
X140904761Y-134452380D01*
X140761904Y-134500000D01*
X140666666Y-134595238D01*
X140619047Y-134690476D01*
X140571428Y-134880952D01*
X140571428Y-135023809D01*
X140619047Y-135214285D01*
X140666666Y-135309523D01*
X140761904Y-135404761D01*
X140904761Y-135452380D01*
X141000000Y-135452380D01*
X141142857Y-135404761D01*
X141190476Y-135357142D01*
X141190476Y-135023809D01*
X141000000Y-135023809D01*
X141619047Y-135452380D02*
X141619047Y-134452380D01*
X142190476Y-135452380D01*
X142190476Y-134452380D01*
X142666666Y-135452380D02*
X142666666Y-134452380D01*
X142904761Y-134452380D01*
X143047619Y-134500000D01*
X143142857Y-134595238D01*
X143190476Y-134690476D01*
X143238095Y-134880952D01*
X143238095Y-135023809D01*
X143190476Y-135214285D01*
X143142857Y-135309523D01*
X143047619Y-135404761D01*
X142904761Y-135452380D01*
X142666666Y-135452380D01*
X144380952Y-135404761D02*
X144523809Y-135452380D01*
X144761904Y-135452380D01*
X144857142Y-135404761D01*
X144904761Y-135357142D01*
X144952380Y-135261904D01*
X144952380Y-135166666D01*
X144904761Y-135071428D01*
X144857142Y-135023809D01*
X144761904Y-134976190D01*
X144571428Y-134928571D01*
X144476190Y-134880952D01*
X144428571Y-134833333D01*
X144380952Y-134738095D01*
X144380952Y-134642857D01*
X144428571Y-134547619D01*
X144476190Y-134500000D01*
X144571428Y-134452380D01*
X144809523Y-134452380D01*
X144952380Y-134500000D01*
X145952380Y-135357142D02*
X145904761Y-135404761D01*
X145761904Y-135452380D01*
X145666666Y-135452380D01*
X145523809Y-135404761D01*
X145428571Y-135309523D01*
X145380952Y-135214285D01*
X145333333Y-135023809D01*
X145333333Y-134880952D01*
X145380952Y-134690476D01*
X145428571Y-134595238D01*
X145523809Y-134500000D01*
X145666666Y-134452380D01*
X145761904Y-134452380D01*
X145904761Y-134500000D01*
X145952380Y-134547619D01*
X146857142Y-135452380D02*
X146380952Y-135452380D01*
X146380952Y-134452380D01*
X147904761Y-135404761D02*
X148047619Y-135452380D01*
X148285714Y-135452380D01*
X148380952Y-135404761D01*
X148428571Y-135357142D01*
X148476190Y-135261904D01*
X148476190Y-135166666D01*
X148428571Y-135071428D01*
X148380952Y-135023809D01*
X148285714Y-134976190D01*
X148095238Y-134928571D01*
X148000000Y-134880952D01*
X147952380Y-134833333D01*
X147904761Y-134738095D01*
X147904761Y-134642857D01*
X147952380Y-134547619D01*
X148000000Y-134500000D01*
X148095238Y-134452380D01*
X148333333Y-134452380D01*
X148476190Y-134500000D01*
X148904761Y-135452380D02*
X148904761Y-134452380D01*
X149142857Y-134452380D01*
X149285714Y-134500000D01*
X149380952Y-134595238D01*
X149428571Y-134690476D01*
X149476190Y-134880952D01*
X149476190Y-135023809D01*
X149428571Y-135214285D01*
X149380952Y-135309523D01*
X149285714Y-135404761D01*
X149142857Y-135452380D01*
X148904761Y-135452380D01*
X149857142Y-135166666D02*
X150333333Y-135166666D01*
X149761904Y-135452380D02*
X150095238Y-134452380D01*
X150428571Y-135452380D01*
X151428571Y-134452380D02*
X152047619Y-134452380D01*
X151714285Y-134833333D01*
X151857142Y-134833333D01*
X151952380Y-134880952D01*
X152000000Y-134928571D01*
X152047619Y-135023809D01*
X152047619Y-135261904D01*
X152000000Y-135357142D01*
X151952380Y-135404761D01*
X151857142Y-135452380D01*
X151571428Y-135452380D01*
X151476190Y-135404761D01*
X151428571Y-135357142D01*
X152333333Y-134452380D02*
X152666666Y-135452380D01*
X153000000Y-134452380D01*
X153238095Y-134452380D02*
X153857142Y-134452380D01*
X153523809Y-134833333D01*
X153666666Y-134833333D01*
X153761904Y-134880952D01*
X153809523Y-134928571D01*
X153857142Y-135023809D01*
X153857142Y-135261904D01*
X153809523Y-135357142D01*
X153761904Y-135404761D01*
X153666666Y-135452380D01*
X153380952Y-135452380D01*
X153285714Y-135404761D01*
X153238095Y-135357142D01*
X155523809Y-134452380D02*
X155047619Y-134452380D01*
X155000000Y-134928571D01*
X155047619Y-134880952D01*
X155142857Y-134833333D01*
X155380952Y-134833333D01*
X155476190Y-134880952D01*
X155523809Y-134928571D01*
X155571428Y-135023809D01*
X155571428Y-135261904D01*
X155523809Y-135357142D01*
X155476190Y-135404761D01*
X155380952Y-135452380D01*
X155142857Y-135452380D01*
X155047619Y-135404761D01*
X155000000Y-135357142D01*
X155857142Y-134452380D02*
X156190476Y-135452380D01*
X156523809Y-134452380D01*
X158042857Y-73442857D02*
X156842857Y-73442857D01*
X156842857Y-73157142D01*
X156900000Y-72985714D01*
X157014285Y-72871428D01*
X157128571Y-72814285D01*
X157357142Y-72757142D01*
X157528571Y-72757142D01*
X157757142Y-72814285D01*
X157871428Y-72871428D01*
X157985714Y-72985714D01*
X158042857Y-73157142D01*
X158042857Y-73442857D01*
X158042857Y-72242857D02*
X156842857Y-72242857D01*
X156900000Y-71042857D02*
X156842857Y-71157142D01*
X156842857Y-71328571D01*
X156900000Y-71500000D01*
X157014285Y-71614285D01*
X157128571Y-71671428D01*
X157357142Y-71728571D01*
X157528571Y-71728571D01*
X157757142Y-71671428D01*
X157871428Y-71614285D01*
X157985714Y-71500000D01*
X158042857Y-71328571D01*
X158042857Y-71214285D01*
X157985714Y-71042857D01*
X157928571Y-70985714D01*
X157528571Y-70985714D01*
X157528571Y-71214285D01*
X158042857Y-70471428D02*
X156842857Y-70471428D01*
X156842857Y-70071428D02*
X156842857Y-69385714D01*
X158042857Y-69728571D02*
X156842857Y-69728571D01*
X157700000Y-69042857D02*
X157700000Y-68471428D01*
X158042857Y-69157142D02*
X156842857Y-68757142D01*
X158042857Y-68357142D01*
X158042857Y-67385714D02*
X158042857Y-67957142D01*
X156842857Y-67957142D01*
X157700000Y-81042857D02*
X157700000Y-80471428D01*
X158042857Y-81157142D02*
X156842857Y-80757142D01*
X158042857Y-80357142D01*
X158042857Y-79957142D02*
X156842857Y-79957142D01*
X158042857Y-79271428D01*
X156842857Y-79271428D01*
X157700000Y-78757142D02*
X157700000Y-78185714D01*
X158042857Y-78871428D02*
X156842857Y-78471428D01*
X158042857Y-78071428D01*
X158042857Y-77100000D02*
X158042857Y-77671428D01*
X156842857Y-77671428D01*
X156842857Y-76471428D02*
X156842857Y-76242857D01*
X156900000Y-76128571D01*
X157014285Y-76014285D01*
X157242857Y-75957142D01*
X157642857Y-75957142D01*
X157871428Y-76014285D01*
X157985714Y-76128571D01*
X158042857Y-76242857D01*
X158042857Y-76471428D01*
X157985714Y-76585714D01*
X157871428Y-76700000D01*
X157642857Y-76757142D01*
X157242857Y-76757142D01*
X157014285Y-76700000D01*
X156900000Y-76585714D01*
X156842857Y-76471428D01*
X156900000Y-74814285D02*
X156842857Y-74928571D01*
X156842857Y-75100000D01*
X156900000Y-75271428D01*
X157014285Y-75385714D01*
X157128571Y-75442857D01*
X157357142Y-75500000D01*
X157528571Y-75500000D01*
X157757142Y-75442857D01*
X157871428Y-75385714D01*
X157985714Y-75271428D01*
X158042857Y-75100000D01*
X158042857Y-74985714D01*
X157985714Y-74814285D01*
X157928571Y-74757142D01*
X157528571Y-74757142D01*
X157528571Y-74985714D01*
X139942857Y-124971428D02*
X138742857Y-124971428D01*
X138742857Y-124514285D01*
X138800000Y-124400000D01*
X138857142Y-124342857D01*
X138971428Y-124285714D01*
X139142857Y-124285714D01*
X139257142Y-124342857D01*
X139314285Y-124400000D01*
X139371428Y-124514285D01*
X139371428Y-124971428D01*
X139600000Y-123828571D02*
X139600000Y-123257142D01*
X139942857Y-123942857D02*
X138742857Y-123542857D01*
X139942857Y-123142857D01*
X139885714Y-122800000D02*
X139942857Y-122628571D01*
X139942857Y-122342857D01*
X139885714Y-122228571D01*
X139828571Y-122171428D01*
X139714285Y-122114285D01*
X139600000Y-122114285D01*
X139485714Y-122171428D01*
X139428571Y-122228571D01*
X139371428Y-122342857D01*
X139314285Y-122571428D01*
X139257142Y-122685714D01*
X139200000Y-122742857D01*
X139085714Y-122800000D01*
X138971428Y-122800000D01*
X138857142Y-122742857D01*
X138800000Y-122685714D01*
X138742857Y-122571428D01*
X138742857Y-122285714D01*
X138800000Y-122114285D01*
X139885714Y-121657142D02*
X139942857Y-121485714D01*
X139942857Y-121200000D01*
X139885714Y-121085714D01*
X139828571Y-121028571D01*
X139714285Y-120971428D01*
X139600000Y-120971428D01*
X139485714Y-121028571D01*
X139428571Y-121085714D01*
X139371428Y-121200000D01*
X139314285Y-121428571D01*
X139257142Y-121542857D01*
X139200000Y-121600000D01*
X139085714Y-121657142D01*
X138971428Y-121657142D01*
X138857142Y-121600000D01*
X138800000Y-121542857D01*
X138742857Y-121428571D01*
X138742857Y-121142857D01*
X138800000Y-120971428D01*
X139942857Y-131014285D02*
X139371428Y-131414285D01*
X139942857Y-131700000D02*
X138742857Y-131700000D01*
X138742857Y-131242857D01*
X138800000Y-131128571D01*
X138857142Y-131071428D01*
X138971428Y-131014285D01*
X139142857Y-131014285D01*
X139257142Y-131071428D01*
X139314285Y-131128571D01*
X139371428Y-131242857D01*
X139371428Y-131700000D01*
X139942857Y-130500000D02*
X138742857Y-130500000D01*
X138742857Y-130042857D01*
X138800000Y-129928571D01*
X138857142Y-129871428D01*
X138971428Y-129814285D01*
X139142857Y-129814285D01*
X139257142Y-129871428D01*
X139314285Y-129928571D01*
X139371428Y-130042857D01*
X139371428Y-130500000D01*
X139942857Y-129300000D02*
X138742857Y-129300000D01*
D10*
X120825000Y-91230000D02*
X120825000Y-86570000D01*
X123675000Y-91230000D02*
X120825000Y-91230000D01*
X123675000Y-85770000D02*
X123675000Y-91230000D01*
X121625000Y-85770000D02*
X123675000Y-85770000D01*
X120825000Y-86570000D02*
X121625000Y-85770000D01*
X176675000Y-85770000D02*
X176675000Y-90430000D01*
X173825000Y-85770000D02*
X176675000Y-85770000D01*
X173825000Y-91230000D02*
X173825000Y-85770000D01*
X175875000Y-91230000D02*
X173825000Y-91230000D01*
X176675000Y-90430000D02*
X175875000Y-91230000D01*
X165300000Y-68000000D02*
X168200000Y-68000000D01*
X165300000Y-72250000D02*
X165300000Y-68000000D01*
X168200000Y-72250000D02*
X168200000Y-68000000D01*
X165300000Y-119000000D02*
X168200000Y-119000000D01*
X165300000Y-123250000D02*
X165300000Y-119000000D01*
X168200000Y-123250000D02*
X168200000Y-119000000D01*
X132200000Y-133000000D02*
X129300000Y-133000000D01*
X132200000Y-128750000D02*
X132200000Y-133000000D01*
X129300000Y-128750000D02*
X129300000Y-133000000D01*
X132200000Y-82000000D02*
X129300000Y-82000000D01*
X132200000Y-77750000D02*
X132200000Y-82000000D01*
X129300000Y-77750000D02*
X129300000Y-82000000D01*
X133965000Y-123427064D02*
X133965000Y-122972936D01*
X135435000Y-123427064D02*
X135435000Y-122972936D01*
X134265000Y-131727064D02*
X134265000Y-131272936D01*
X135735000Y-131727064D02*
X135735000Y-131272936D01*
X136435000Y-127172936D02*
X136435000Y-127627064D01*
X134965000Y-127172936D02*
X134965000Y-127627064D01*
X138327064Y-77935000D02*
X137872936Y-77935000D01*
X138327064Y-76465000D02*
X137872936Y-76465000D01*
X136615000Y-72427064D02*
X136615000Y-71972936D01*
X138085000Y-72427064D02*
X138085000Y-71972936D01*
D12*
X145650000Y-83675000D02*
X145650000Y-82600000D01*
X142575000Y-83675000D02*
X142575000Y-86925000D01*
X145825000Y-83675000D02*
X145825000Y-86925000D01*
X142575000Y-83675000D02*
X142850000Y-83675000D01*
X142575000Y-86925000D02*
X142850000Y-86925000D01*
X145825000Y-86925000D02*
X145550000Y-86925000D01*
X145825000Y-83675000D02*
X145650000Y-83675000D01*
D10*
X151450000Y-88285000D02*
X153650000Y-88285000D01*
X151450000Y-88285000D02*
X149250000Y-88285000D01*
X151450000Y-82815000D02*
X153650000Y-82815000D01*
X151450000Y-82815000D02*
X147850000Y-82815000D01*
X159272936Y-123015000D02*
X159727064Y-123015000D01*
X159272936Y-124485000D02*
X159727064Y-124485000D01*
D12*
X143675000Y-90250000D02*
X142600000Y-90250000D01*
X143675000Y-93325000D02*
X146925000Y-93325000D01*
X143675000Y-90075000D02*
X146925000Y-90075000D01*
X143675000Y-93325000D02*
X143675000Y-93050000D01*
X146925000Y-93325000D02*
X146925000Y-93050000D01*
X146925000Y-90075000D02*
X146925000Y-90350000D01*
X143675000Y-90075000D02*
X143675000Y-90250000D01*
D10*
X167560000Y-82580000D02*
X167560000Y-81650000D01*
X167560000Y-79420000D02*
X167560000Y-80350000D01*
X167560000Y-79420000D02*
X165400000Y-79420000D01*
X167560000Y-82580000D02*
X166100000Y-82580000D01*
X163335000Y-69472936D02*
X163335000Y-69927064D01*
X161865000Y-69472936D02*
X161865000Y-69927064D01*
X166542936Y-89515000D02*
X166997064Y-89515000D01*
X166542936Y-90985000D02*
X166997064Y-90985000D01*
X171750000Y-76200000D02*
X171750000Y-82800000D01*
X171750000Y-67200000D02*
X171750000Y-73800000D01*
X171750000Y-67200000D02*
X191550000Y-67200000D01*
X191550000Y-67200000D02*
X191550000Y-82800000D01*
X191550000Y-82800000D02*
X171750000Y-82800000D01*
X187300000Y-79200000D02*
X187300000Y-76750000D01*
X187300000Y-70800000D02*
X187300000Y-73300000D01*
X176700000Y-81050000D02*
X179200000Y-81050000D01*
X175800000Y-75050000D02*
X175000000Y-75050000D01*
X179200000Y-69050000D02*
X176700000Y-69050000D01*
X182600000Y-75050000D02*
X184100000Y-75050000D01*
X184100000Y-75050000D02*
X188700000Y-72550000D01*
X182600000Y-78650000D02*
X175800000Y-78650000D01*
X182600000Y-75050000D02*
X182600000Y-78650000D01*
X175800000Y-75050000D02*
X175800000Y-78650000D01*
X179200000Y-69050000D02*
X179200000Y-73250000D01*
X179200000Y-76850000D02*
X179200000Y-81050000D01*
X181200000Y-76850000D02*
X177200000Y-73250000D01*
X177200000Y-76850000D02*
X177200000Y-73250000D01*
X177200000Y-73250000D02*
X181200000Y-73250000D01*
X181200000Y-73250000D02*
X181200000Y-76850000D01*
X181200000Y-76850000D02*
X177200000Y-76850000D01*
X165780000Y-77960000D02*
X168465000Y-77960000D01*
X168465000Y-77960000D02*
X168465000Y-76040000D01*
X168465000Y-76040000D02*
X165780000Y-76040000D01*
X163635000Y-77772936D02*
X163635000Y-78227064D01*
X162165000Y-77772936D02*
X162165000Y-78227064D01*
X164020000Y-90250000D02*
X159780000Y-90250000D01*
X164020000Y-83750000D02*
X164020000Y-90250000D01*
X158980000Y-83750000D02*
X164020000Y-83750000D01*
X158980000Y-89300000D02*
X158980000Y-83750000D01*
X159780000Y-90250000D02*
X158980000Y-89300000D01*
X167011252Y-93985000D02*
X166488748Y-93985000D01*
X167011252Y-92515000D02*
X166488748Y-92515000D01*
X166488748Y-86265000D02*
X167011252Y-86265000D01*
X166488748Y-87735000D02*
X167011252Y-87735000D01*
X188180253Y-96971195D02*
G75*
G02*
X188035000Y-97684000I-1680253J-28805D01*
G01*
X187183042Y-98535426D02*
G75*
G02*
X185816000Y-98535000I-683042J1535426D01*
G01*
X184964574Y-97683042D02*
G75*
G02*
X184965000Y-96316000I1535426J683042D01*
G01*
X185816958Y-95464574D02*
G75*
G02*
X187184000Y-95465000I683042J-1535426D01*
G01*
X188034756Y-96316682D02*
G75*
G02*
X188180000Y-97000000I-1534756J-683318D01*
G01*
X188180000Y-92000000D02*
G75*
G03*
X188180000Y-92000000I-1680000J0D01*
G01*
X188180000Y-87000000D02*
G75*
G03*
X188180000Y-87000000I-1680000J0D01*
G01*
X190600000Y-99560000D02*
X190600000Y-84440000D01*
X189100000Y-99560000D02*
X189100000Y-84440000D01*
X184199000Y-99560000D02*
X184199000Y-84440000D01*
X181239000Y-99560000D02*
X181239000Y-84440000D01*
X191160000Y-99560000D02*
X191160000Y-84440000D01*
X181239000Y-99560000D02*
X191160000Y-99560000D01*
X181239000Y-84440000D02*
X191160000Y-84440000D01*
X185431000Y-90725000D02*
X185477000Y-90772000D01*
X187739000Y-93034000D02*
X187774000Y-93069000D01*
X185225000Y-90930000D02*
X185261000Y-90965000D01*
X187523000Y-93227000D02*
X187569000Y-93274000D01*
X185431000Y-85725000D02*
X185477000Y-85772000D01*
X187739000Y-88034000D02*
X187774000Y-88069000D01*
X185225000Y-85930000D02*
X185261000Y-85965000D01*
X187523000Y-88227000D02*
X187569000Y-88274000D01*
X190660000Y-99800000D02*
X191400000Y-99800000D01*
X191400000Y-99800000D02*
X191400000Y-99300000D01*
X176675000Y-109770000D02*
X176675000Y-114430000D01*
X173825000Y-109770000D02*
X176675000Y-109770000D01*
X173825000Y-115230000D02*
X173825000Y-109770000D01*
X175875000Y-115230000D02*
X173825000Y-115230000D01*
X176675000Y-114430000D02*
X175875000Y-115230000D01*
X167510000Y-133580000D02*
X167510000Y-132650000D01*
X167510000Y-130420000D02*
X167510000Y-131350000D01*
X167510000Y-130420000D02*
X165350000Y-130420000D01*
X167510000Y-133580000D02*
X166050000Y-133580000D01*
X159072936Y-94565000D02*
X159527064Y-94565000D01*
X159072936Y-96035000D02*
X159527064Y-96035000D01*
X166488748Y-107015000D02*
X167011252Y-107015000D01*
X166488748Y-108485000D02*
X167011252Y-108485000D01*
X163735000Y-124272936D02*
X163735000Y-124727064D01*
X162265000Y-124272936D02*
X162265000Y-124727064D01*
X166522936Y-110265000D02*
X166977064Y-110265000D01*
X166522936Y-111735000D02*
X166977064Y-111735000D01*
X160985000Y-128522936D02*
X160985000Y-128977064D01*
X159515000Y-128522936D02*
X159515000Y-128977064D01*
X161672936Y-106015000D02*
X162127064Y-106015000D01*
X161672936Y-107485000D02*
X162127064Y-107485000D01*
X165750000Y-128960000D02*
X168435000Y-128960000D01*
X168435000Y-128960000D02*
X168435000Y-127040000D01*
X168435000Y-127040000D02*
X165750000Y-127040000D01*
X167011252Y-114735000D02*
X166488748Y-114735000D01*
X167011252Y-113265000D02*
X166488748Y-113265000D01*
X158980000Y-111750000D02*
X163220000Y-111750000D01*
X158980000Y-118250000D02*
X158980000Y-111750000D01*
X164020000Y-118250000D02*
X158980000Y-118250000D01*
X164020000Y-112700000D02*
X164020000Y-118250000D01*
X163220000Y-111750000D02*
X164020000Y-112700000D01*
X171750000Y-127200000D02*
X171750000Y-133800000D01*
X171750000Y-118200000D02*
X171750000Y-124800000D01*
X171750000Y-118200000D02*
X191550000Y-118200000D01*
X191550000Y-118200000D02*
X191550000Y-133800000D01*
X191550000Y-133800000D02*
X171750000Y-133800000D01*
X187300000Y-130200000D02*
X187300000Y-127750000D01*
X187300000Y-121800000D02*
X187300000Y-124300000D01*
X176700000Y-132050000D02*
X179200000Y-132050000D01*
X175800000Y-126050000D02*
X175000000Y-126050000D01*
X179200000Y-120050000D02*
X176700000Y-120050000D01*
X182600000Y-126050000D02*
X184100000Y-126050000D01*
X184100000Y-126050000D02*
X188700000Y-123550000D01*
X182600000Y-129650000D02*
X175800000Y-129650000D01*
X182600000Y-126050000D02*
X182600000Y-129650000D01*
X175800000Y-126050000D02*
X175800000Y-129650000D01*
X179200000Y-120050000D02*
X179200000Y-124250000D01*
X179200000Y-127850000D02*
X179200000Y-132050000D01*
X181200000Y-127850000D02*
X177200000Y-124250000D01*
X177200000Y-127850000D02*
X177200000Y-124250000D01*
X177200000Y-124250000D02*
X181200000Y-124250000D01*
X181200000Y-124250000D02*
X181200000Y-127850000D01*
X181200000Y-127850000D02*
X177200000Y-127850000D01*
X188230253Y-113971195D02*
G75*
G02*
X188085000Y-114684000I-1680253J-28805D01*
G01*
X187233042Y-115535426D02*
G75*
G02*
X185866000Y-115535000I-683042J1535426D01*
G01*
X185014574Y-114683042D02*
G75*
G02*
X185015000Y-113316000I1535426J683042D01*
G01*
X185866958Y-112464574D02*
G75*
G02*
X187234000Y-112465000I683042J-1535426D01*
G01*
X188084756Y-113316682D02*
G75*
G02*
X188230000Y-114000000I-1534756J-683318D01*
G01*
X188230000Y-109000000D02*
G75*
G03*
X188230000Y-109000000I-1680000J0D01*
G01*
X188230000Y-104000000D02*
G75*
G03*
X188230000Y-104000000I-1680000J0D01*
G01*
X190650000Y-116560000D02*
X190650000Y-101440000D01*
X189150000Y-116560000D02*
X189150000Y-101440000D01*
X184249000Y-116560000D02*
X184249000Y-101440000D01*
X181289000Y-116560000D02*
X181289000Y-101440000D01*
X191210000Y-116560000D02*
X191210000Y-101440000D01*
X181289000Y-116560000D02*
X191210000Y-116560000D01*
X181289000Y-101440000D02*
X191210000Y-101440000D01*
X185481000Y-107725000D02*
X185527000Y-107772000D01*
X187789000Y-110034000D02*
X187824000Y-110069000D01*
X185275000Y-107930000D02*
X185311000Y-107965000D01*
X187573000Y-110227000D02*
X187619000Y-110274000D01*
X185481000Y-102725000D02*
X185527000Y-102772000D01*
X187789000Y-105034000D02*
X187824000Y-105069000D01*
X185275000Y-102930000D02*
X185311000Y-102965000D01*
X187573000Y-105227000D02*
X187619000Y-105274000D01*
X190710000Y-116800000D02*
X191450000Y-116800000D01*
X191450000Y-116800000D02*
X191450000Y-116300000D01*
X120825000Y-115230000D02*
X120825000Y-110570000D01*
X123675000Y-115230000D02*
X120825000Y-115230000D01*
X123675000Y-109770000D02*
X123675000Y-115230000D01*
X121625000Y-109770000D02*
X123675000Y-109770000D01*
X120825000Y-110570000D02*
X121625000Y-109770000D01*
X129940000Y-118420000D02*
X129940000Y-119350000D01*
X129940000Y-121580000D02*
X129940000Y-120650000D01*
X129940000Y-121580000D02*
X132100000Y-121580000D01*
X129940000Y-118420000D02*
X131400000Y-118420000D01*
X131011252Y-114735000D02*
X130488748Y-114735000D01*
X131011252Y-113265000D02*
X130488748Y-113265000D01*
X130957064Y-111485000D02*
X130502936Y-111485000D01*
X130957064Y-110015000D02*
X130502936Y-110015000D01*
X138427064Y-106435000D02*
X137972936Y-106435000D01*
X138427064Y-104965000D02*
X137972936Y-104965000D01*
X131720000Y-123040000D02*
X129035000Y-123040000D01*
X129035000Y-123040000D02*
X129035000Y-124960000D01*
X129035000Y-124960000D02*
X131720000Y-124960000D01*
X130488748Y-107015000D02*
X131011252Y-107015000D01*
X130488748Y-108485000D02*
X131011252Y-108485000D01*
X133480000Y-110750000D02*
X137720000Y-110750000D01*
X133480000Y-117250000D02*
X133480000Y-110750000D01*
X138520000Y-117250000D02*
X133480000Y-117250000D01*
X138520000Y-111700000D02*
X138520000Y-117250000D01*
X137720000Y-110750000D02*
X138520000Y-111700000D01*
X125750000Y-124800000D02*
X125750000Y-118200000D01*
X125750000Y-133800000D02*
X125750000Y-127200000D01*
X125750000Y-133800000D02*
X105950000Y-133800000D01*
X105950000Y-133800000D02*
X105950000Y-118200000D01*
X105950000Y-118200000D02*
X125750000Y-118200000D01*
X110200000Y-121800000D02*
X110200000Y-124250000D01*
X110200000Y-130200000D02*
X110200000Y-127700000D01*
X120800000Y-119950000D02*
X118300000Y-119950000D01*
X121700000Y-125950000D02*
X122500000Y-125950000D01*
X118300000Y-131950000D02*
X120800000Y-131950000D01*
X114900000Y-125950000D02*
X113400000Y-125950000D01*
X113400000Y-125950000D02*
X108800000Y-128450000D01*
X114900000Y-122350000D02*
X121700000Y-122350000D01*
X114900000Y-125950000D02*
X114900000Y-122350000D01*
X121700000Y-125950000D02*
X121700000Y-122350000D01*
X118300000Y-131950000D02*
X118300000Y-127750000D01*
X118300000Y-124150000D02*
X118300000Y-119950000D01*
X116300000Y-124150000D02*
X120300000Y-127750000D01*
X120300000Y-124150000D02*
X120300000Y-127750000D01*
X120300000Y-127750000D02*
X116300000Y-127750000D01*
X116300000Y-127750000D02*
X116300000Y-124150000D01*
X116300000Y-124150000D02*
X120300000Y-124150000D01*
X109319747Y-104028805D02*
G75*
G02*
X109465000Y-103316000I1680253J28805D01*
G01*
X110316958Y-102464574D02*
G75*
G02*
X111684000Y-102465000I683042J-1535426D01*
G01*
X112535426Y-103316958D02*
G75*
G02*
X112535000Y-104684000I-1535426J-683042D01*
G01*
X111683042Y-105535426D02*
G75*
G02*
X110316000Y-105535000I-683042J1535426D01*
G01*
X109465244Y-104683318D02*
G75*
G02*
X109320000Y-104000000I1534756J683318D01*
G01*
X112680000Y-109000000D02*
G75*
G03*
X112680000Y-109000000I-1680000J0D01*
G01*
X112680000Y-114000000D02*
G75*
G03*
X112680000Y-114000000I-1680000J0D01*
G01*
X106900000Y-101440000D02*
X106900000Y-116560000D01*
X108400000Y-101440000D02*
X108400000Y-116560000D01*
X113301000Y-101440000D02*
X113301000Y-116560000D01*
X116261000Y-101440000D02*
X116261000Y-116560000D01*
X106340000Y-101440000D02*
X106340000Y-116560000D01*
X116261000Y-101440000D02*
X106340000Y-101440000D01*
X116261000Y-116560000D02*
X106340000Y-116560000D01*
X112069000Y-110275000D02*
X112023000Y-110228000D01*
X109761000Y-107966000D02*
X109726000Y-107931000D01*
X112275000Y-110070000D02*
X112239000Y-110035000D01*
X109977000Y-107773000D02*
X109931000Y-107726000D01*
X112069000Y-115275000D02*
X112023000Y-115228000D01*
X109761000Y-112966000D02*
X109726000Y-112931000D01*
X112275000Y-115070000D02*
X112239000Y-115035000D01*
X109977000Y-112773000D02*
X109931000Y-112726000D01*
X106840000Y-101200000D02*
X106100000Y-101200000D01*
X106100000Y-101200000D02*
X106100000Y-101700000D01*
X125750000Y-73800000D02*
X125750000Y-67200000D01*
X125750000Y-82800000D02*
X125750000Y-76200000D01*
X125750000Y-82800000D02*
X105950000Y-82800000D01*
X105950000Y-82800000D02*
X105950000Y-67200000D01*
X105950000Y-67200000D02*
X125750000Y-67200000D01*
X110200000Y-70800000D02*
X110200000Y-73250000D01*
X110200000Y-79200000D02*
X110200000Y-76700000D01*
X120800000Y-68950000D02*
X118300000Y-68950000D01*
X121700000Y-74950000D02*
X122500000Y-74950000D01*
X118300000Y-80950000D02*
X120800000Y-80950000D01*
X114900000Y-74950000D02*
X113400000Y-74950000D01*
X113400000Y-74950000D02*
X108800000Y-77450000D01*
X114900000Y-71350000D02*
X121700000Y-71350000D01*
X114900000Y-74950000D02*
X114900000Y-71350000D01*
X121700000Y-74950000D02*
X121700000Y-71350000D01*
X118300000Y-80950000D02*
X118300000Y-76750000D01*
X118300000Y-73150000D02*
X118300000Y-68950000D01*
X116300000Y-73150000D02*
X120300000Y-76750000D01*
X120300000Y-73150000D02*
X120300000Y-76750000D01*
X120300000Y-76750000D02*
X116300000Y-76750000D01*
X116300000Y-76750000D02*
X116300000Y-73150000D01*
X116300000Y-73150000D02*
X120300000Y-73150000D01*
X109269747Y-87028805D02*
G75*
G02*
X109415000Y-86316000I1680253J28805D01*
G01*
X110266958Y-85464574D02*
G75*
G02*
X111634000Y-85465000I683042J-1535426D01*
G01*
X112485426Y-86316958D02*
G75*
G02*
X112485000Y-87684000I-1535426J-683042D01*
G01*
X111633042Y-88535426D02*
G75*
G02*
X110266000Y-88535000I-683042J1535426D01*
G01*
X109415244Y-87683318D02*
G75*
G02*
X109270000Y-87000000I1534756J683318D01*
G01*
X112630000Y-92000000D02*
G75*
G03*
X112630000Y-92000000I-1680000J0D01*
G01*
X112630000Y-97000000D02*
G75*
G03*
X112630000Y-97000000I-1680000J0D01*
G01*
X106850000Y-84440000D02*
X106850000Y-99560000D01*
X108350000Y-84440000D02*
X108350000Y-99560000D01*
X113251000Y-84440000D02*
X113251000Y-99560000D01*
X116211000Y-84440000D02*
X116211000Y-99560000D01*
X106290000Y-84440000D02*
X106290000Y-99560000D01*
X116211000Y-84440000D02*
X106290000Y-84440000D01*
X116211000Y-99560000D02*
X106290000Y-99560000D01*
X112019000Y-93275000D02*
X111973000Y-93228000D01*
X109711000Y-90966000D02*
X109676000Y-90931000D01*
X112225000Y-93070000D02*
X112189000Y-93035000D01*
X109927000Y-90773000D02*
X109881000Y-90726000D01*
X112019000Y-98275000D02*
X111973000Y-98228000D01*
X109711000Y-95966000D02*
X109676000Y-95931000D01*
X112225000Y-98070000D02*
X112189000Y-98035000D01*
X109927000Y-95773000D02*
X109881000Y-95726000D01*
X106790000Y-84200000D02*
X106050000Y-84200000D01*
X106050000Y-84200000D02*
X106050000Y-84700000D01*
X155960000Y-126060000D02*
X155960000Y-120090000D01*
X155960000Y-120090000D02*
X140840000Y-120090000D01*
X140840000Y-120090000D02*
X140840000Y-126060000D01*
X140840000Y-126060000D02*
X155960000Y-126060000D01*
X152650000Y-126050000D02*
X152650000Y-125300000D01*
X152650000Y-125300000D02*
X144150000Y-125300000D01*
X144150000Y-125300000D02*
X144150000Y-126050000D01*
X144150000Y-126050000D02*
X152650000Y-126050000D01*
X155950000Y-126050000D02*
X155950000Y-125300000D01*
X155950000Y-125300000D02*
X154150000Y-125300000D01*
X154150000Y-125300000D02*
X154150000Y-126050000D01*
X154150000Y-126050000D02*
X155950000Y-126050000D01*
X142650000Y-126050000D02*
X142650000Y-125300000D01*
X142650000Y-125300000D02*
X140850000Y-125300000D01*
X140850000Y-125300000D02*
X140850000Y-126050000D01*
X140850000Y-126050000D02*
X142650000Y-126050000D01*
X155950000Y-123800000D02*
X155200000Y-123800000D01*
X155200000Y-123800000D02*
X155200000Y-120850000D01*
X155200000Y-120850000D02*
X148400000Y-120850000D01*
X140850000Y-123800000D02*
X141600000Y-123800000D01*
X141600000Y-123800000D02*
X141600000Y-120850000D01*
X141600000Y-120850000D02*
X148400000Y-120850000D01*
X155000000Y-126350000D02*
X156250000Y-126350000D01*
X156250000Y-126350000D02*
X156250000Y-125100000D01*
X138520000Y-89250000D02*
X134280000Y-89250000D01*
X138520000Y-82750000D02*
X138520000Y-89250000D01*
X133480000Y-82750000D02*
X138520000Y-82750000D01*
X133480000Y-88300000D02*
X133480000Y-82750000D01*
X134280000Y-89250000D02*
X133480000Y-88300000D01*
X154665000Y-112327064D02*
X154665000Y-111872936D01*
X156135000Y-112327064D02*
X156135000Y-111872936D01*
X156135000Y-116372936D02*
X156135000Y-116827064D01*
X154665000Y-116372936D02*
X154665000Y-116827064D01*
X158485000Y-82772936D02*
X158485000Y-83227064D01*
X157015000Y-82772936D02*
X157015000Y-83227064D01*
X148135000Y-111872936D02*
X148135000Y-112327064D01*
X146665000Y-111872936D02*
X146665000Y-112327064D01*
X148135000Y-116372936D02*
X148135000Y-116827064D01*
X146665000Y-116372936D02*
X146665000Y-116827064D01*
X130977064Y-90735000D02*
X130522936Y-90735000D01*
X130977064Y-89265000D02*
X130522936Y-89265000D01*
X133765000Y-76727064D02*
X133765000Y-76272936D01*
X135235000Y-76727064D02*
X135235000Y-76272936D01*
X135827064Y-94985000D02*
X135372936Y-94985000D01*
X135827064Y-93515000D02*
X135372936Y-93515000D01*
X152160000Y-113680000D02*
X152160000Y-112750000D01*
X152160000Y-110520000D02*
X152160000Y-111450000D01*
X152160000Y-110520000D02*
X150000000Y-110520000D01*
X152160000Y-113680000D02*
X150700000Y-113680000D01*
X152160000Y-118180000D02*
X152160000Y-117250000D01*
X152160000Y-115020000D02*
X152160000Y-115950000D01*
X152160000Y-115020000D02*
X150000000Y-115020000D01*
X152160000Y-118180000D02*
X150700000Y-118180000D01*
X155960000Y-133560000D02*
X155960000Y-127590000D01*
X155960000Y-127590000D02*
X140840000Y-127590000D01*
X140840000Y-127590000D02*
X140840000Y-133560000D01*
X140840000Y-133560000D02*
X155960000Y-133560000D01*
X152650000Y-133550000D02*
X152650000Y-132800000D01*
X152650000Y-132800000D02*
X144150000Y-132800000D01*
X144150000Y-132800000D02*
X144150000Y-133550000D01*
X144150000Y-133550000D02*
X152650000Y-133550000D01*
X155950000Y-133550000D02*
X155950000Y-132800000D01*
X155950000Y-132800000D02*
X154150000Y-132800000D01*
X154150000Y-132800000D02*
X154150000Y-133550000D01*
X154150000Y-133550000D02*
X155950000Y-133550000D01*
X142650000Y-133550000D02*
X142650000Y-132800000D01*
X142650000Y-132800000D02*
X140850000Y-132800000D01*
X140850000Y-132800000D02*
X140850000Y-133550000D01*
X140850000Y-133550000D02*
X142650000Y-133550000D01*
X155950000Y-131300000D02*
X155200000Y-131300000D01*
X155200000Y-131300000D02*
X155200000Y-128350000D01*
X155200000Y-128350000D02*
X148400000Y-128350000D01*
X140850000Y-131300000D02*
X141600000Y-131300000D01*
X141600000Y-131300000D02*
X141600000Y-128350000D01*
X141600000Y-128350000D02*
X148400000Y-128350000D01*
X155000000Y-133850000D02*
X156250000Y-133850000D01*
X156250000Y-133850000D02*
X156250000Y-132600000D01*
X131750000Y-72040000D02*
X129065000Y-72040000D01*
X129065000Y-72040000D02*
X129065000Y-73960000D01*
X129065000Y-73960000D02*
X131750000Y-73960000D01*
X139565000Y-86661252D02*
X139565000Y-86138748D01*
X141035000Y-86661252D02*
X141035000Y-86138748D01*
X150738748Y-89765000D02*
X151261252Y-89765000D01*
X150738748Y-91235000D02*
X151261252Y-91235000D01*
X130488748Y-86265000D02*
X131011252Y-86265000D01*
X130488748Y-87735000D02*
X131011252Y-87735000D01*
X131011252Y-93985000D02*
X130488748Y-93985000D01*
X131011252Y-92515000D02*
X130488748Y-92515000D01*
X129990000Y-67420000D02*
X129990000Y-68350000D01*
X129990000Y-70580000D02*
X129990000Y-69650000D01*
X129990000Y-70580000D02*
X132150000Y-70580000D01*
X129990000Y-67420000D02*
X131450000Y-67420000D01*
X155960000Y-80960000D02*
X155960000Y-74990000D01*
X155960000Y-74990000D02*
X140840000Y-74990000D01*
X140840000Y-74990000D02*
X140840000Y-80960000D01*
X140840000Y-80960000D02*
X155960000Y-80960000D01*
X152650000Y-80950000D02*
X152650000Y-80200000D01*
X152650000Y-80200000D02*
X144150000Y-80200000D01*
X144150000Y-80200000D02*
X144150000Y-80950000D01*
X144150000Y-80950000D02*
X152650000Y-80950000D01*
X155950000Y-80950000D02*
X155950000Y-80200000D01*
X155950000Y-80200000D02*
X154150000Y-80200000D01*
X154150000Y-80200000D02*
X154150000Y-80950000D01*
X154150000Y-80950000D02*
X155950000Y-80950000D01*
X142650000Y-80950000D02*
X142650000Y-80200000D01*
X142650000Y-80200000D02*
X140850000Y-80200000D01*
X140850000Y-80200000D02*
X140850000Y-80950000D01*
X140850000Y-80950000D02*
X142650000Y-80950000D01*
X155950000Y-78700000D02*
X155200000Y-78700000D01*
X155200000Y-78700000D02*
X155200000Y-75750000D01*
X155200000Y-75750000D02*
X148400000Y-75750000D01*
X140850000Y-78700000D02*
X141600000Y-78700000D01*
X141600000Y-78700000D02*
X141600000Y-75750000D01*
X141600000Y-75750000D02*
X148400000Y-75750000D01*
X155000000Y-81250000D02*
X156250000Y-81250000D01*
X156250000Y-81250000D02*
X156250000Y-80000000D01*
X155960000Y-73410000D02*
X155960000Y-67440000D01*
X155960000Y-67440000D02*
X140840000Y-67440000D01*
X140840000Y-67440000D02*
X140840000Y-73410000D01*
X140840000Y-73410000D02*
X155960000Y-73410000D01*
X152650000Y-73400000D02*
X152650000Y-72650000D01*
X152650000Y-72650000D02*
X144150000Y-72650000D01*
X144150000Y-72650000D02*
X144150000Y-73400000D01*
X144150000Y-73400000D02*
X152650000Y-73400000D01*
X155950000Y-73400000D02*
X155950000Y-72650000D01*
X155950000Y-72650000D02*
X154150000Y-72650000D01*
X154150000Y-72650000D02*
X154150000Y-73400000D01*
X154150000Y-73400000D02*
X155950000Y-73400000D01*
X142650000Y-73400000D02*
X142650000Y-72650000D01*
X142650000Y-72650000D02*
X140850000Y-72650000D01*
X140850000Y-72650000D02*
X140850000Y-73400000D01*
X140850000Y-73400000D02*
X142650000Y-73400000D01*
X155950000Y-71150000D02*
X155200000Y-71150000D01*
X155200000Y-71150000D02*
X155200000Y-68200000D01*
X155200000Y-68200000D02*
X148400000Y-68200000D01*
X140850000Y-71150000D02*
X141600000Y-71150000D01*
X141600000Y-71150000D02*
X141600000Y-68200000D01*
X141600000Y-68200000D02*
X148400000Y-68200000D01*
X155000000Y-73700000D02*
X156250000Y-73700000D01*
X156250000Y-73700000D02*
X156250000Y-72450000D01*
X161165000Y-74027064D02*
X161165000Y-73572936D01*
X162635000Y-74027064D02*
X162635000Y-73572936D01*
D12*
X121011904Y-91702380D02*
X121011904Y-92511904D01*
X121059523Y-92607142D01*
X121107142Y-92654761D01*
X121202380Y-92702380D01*
X121392857Y-92702380D01*
X121488095Y-92654761D01*
X121535714Y-92607142D01*
X121583333Y-92511904D01*
X121583333Y-91702380D01*
X122583333Y-92702380D02*
X122011904Y-92702380D01*
X122297619Y-92702380D02*
X122297619Y-91702380D01*
X122202380Y-91845238D01*
X122107142Y-91940476D01*
X122011904Y-91988095D01*
X122964285Y-91797619D02*
X123011904Y-91750000D01*
X123107142Y-91702380D01*
X123345238Y-91702380D01*
X123440476Y-91750000D01*
X123488095Y-91797619D01*
X123535714Y-91892857D01*
X123535714Y-91988095D01*
X123488095Y-92130952D01*
X122916666Y-92702380D01*
X123535714Y-92702380D01*
X174011904Y-91702380D02*
X174011904Y-92511904D01*
X174059523Y-92607142D01*
X174107142Y-92654761D01*
X174202380Y-92702380D01*
X174392857Y-92702380D01*
X174488095Y-92654761D01*
X174535714Y-92607142D01*
X174583333Y-92511904D01*
X174583333Y-91702380D01*
X175488095Y-92035714D02*
X175488095Y-92702380D01*
X175250000Y-91654761D02*
X175011904Y-92369047D01*
X175630952Y-92369047D01*
X175964285Y-91797619D02*
X176011904Y-91750000D01*
X176107142Y-91702380D01*
X176345238Y-91702380D01*
X176440476Y-91750000D01*
X176488095Y-91797619D01*
X176535714Y-91892857D01*
X176535714Y-91988095D01*
X176488095Y-92130952D01*
X175916666Y-92702380D01*
X176535714Y-92702380D01*
X169452380Y-72214285D02*
X168452380Y-72214285D01*
X168452380Y-71976190D01*
X168500000Y-71833333D01*
X168595238Y-71738095D01*
X168690476Y-71690476D01*
X168880952Y-71642857D01*
X169023809Y-71642857D01*
X169214285Y-71690476D01*
X169309523Y-71738095D01*
X169404761Y-71833333D01*
X169452380Y-71976190D01*
X169452380Y-72214285D01*
X168785714Y-70785714D02*
X169452380Y-70785714D01*
X168404761Y-71023809D02*
X169119047Y-71261904D01*
X169119047Y-70642857D01*
X168547619Y-70309523D02*
X168500000Y-70261904D01*
X168452380Y-70166666D01*
X168452380Y-69928571D01*
X168500000Y-69833333D01*
X168547619Y-69785714D01*
X168642857Y-69738095D01*
X168738095Y-69738095D01*
X168880952Y-69785714D01*
X169452380Y-70357142D01*
X169452380Y-69738095D01*
X169452380Y-123214285D02*
X168452380Y-123214285D01*
X168452380Y-122976190D01*
X168500000Y-122833333D01*
X168595238Y-122738095D01*
X168690476Y-122690476D01*
X168880952Y-122642857D01*
X169023809Y-122642857D01*
X169214285Y-122690476D01*
X169309523Y-122738095D01*
X169404761Y-122833333D01*
X169452380Y-122976190D01*
X169452380Y-123214285D01*
X168452380Y-122309523D02*
X168452380Y-121690476D01*
X168833333Y-122023809D01*
X168833333Y-121880952D01*
X168880952Y-121785714D01*
X168928571Y-121738095D01*
X169023809Y-121690476D01*
X169261904Y-121690476D01*
X169357142Y-121738095D01*
X169404761Y-121785714D01*
X169452380Y-121880952D01*
X169452380Y-122166666D01*
X169404761Y-122261904D01*
X169357142Y-122309523D01*
X168547619Y-121309523D02*
X168500000Y-121261904D01*
X168452380Y-121166666D01*
X168452380Y-120928571D01*
X168500000Y-120833333D01*
X168547619Y-120785714D01*
X168642857Y-120738095D01*
X168738095Y-120738095D01*
X168880952Y-120785714D01*
X169452380Y-121357142D01*
X169452380Y-120738095D01*
X128952380Y-131214285D02*
X127952380Y-131214285D01*
X127952380Y-130976190D01*
X128000000Y-130833333D01*
X128095238Y-130738095D01*
X128190476Y-130690476D01*
X128380952Y-130642857D01*
X128523809Y-130642857D01*
X128714285Y-130690476D01*
X128809523Y-130738095D01*
X128904761Y-130833333D01*
X128952380Y-130976190D01*
X128952380Y-131214285D01*
X128047619Y-130261904D02*
X128000000Y-130214285D01*
X127952380Y-130119047D01*
X127952380Y-129880952D01*
X128000000Y-129785714D01*
X128047619Y-129738095D01*
X128142857Y-129690476D01*
X128238095Y-129690476D01*
X128380952Y-129738095D01*
X128952380Y-130309523D01*
X128952380Y-129690476D01*
X128047619Y-129309523D02*
X128000000Y-129261904D01*
X127952380Y-129166666D01*
X127952380Y-128928571D01*
X128000000Y-128833333D01*
X128047619Y-128785714D01*
X128142857Y-128738095D01*
X128238095Y-128738095D01*
X128380952Y-128785714D01*
X128952380Y-129357142D01*
X128952380Y-128738095D01*
X128952380Y-80214285D02*
X127952380Y-80214285D01*
X127952380Y-79976190D01*
X128000000Y-79833333D01*
X128095238Y-79738095D01*
X128190476Y-79690476D01*
X128380952Y-79642857D01*
X128523809Y-79642857D01*
X128714285Y-79690476D01*
X128809523Y-79738095D01*
X128904761Y-79833333D01*
X128952380Y-79976190D01*
X128952380Y-80214285D01*
X128952380Y-78690476D02*
X128952380Y-79261904D01*
X128952380Y-78976190D02*
X127952380Y-78976190D01*
X128095238Y-79071428D01*
X128190476Y-79166666D01*
X128238095Y-79261904D01*
X128047619Y-78309523D02*
X128000000Y-78261904D01*
X127952380Y-78166666D01*
X127952380Y-77928571D01*
X128000000Y-77833333D01*
X128047619Y-77785714D01*
X128142857Y-77738095D01*
X128238095Y-77738095D01*
X128380952Y-77785714D01*
X128952380Y-78357142D01*
X128952380Y-77738095D01*
X136952380Y-123842857D02*
X136476190Y-124176190D01*
X136952380Y-124414285D02*
X135952380Y-124414285D01*
X135952380Y-124033333D01*
X136000000Y-123938095D01*
X136047619Y-123890476D01*
X136142857Y-123842857D01*
X136285714Y-123842857D01*
X136380952Y-123890476D01*
X136428571Y-123938095D01*
X136476190Y-124033333D01*
X136476190Y-124414285D01*
X136047619Y-123461904D02*
X136000000Y-123414285D01*
X135952380Y-123319047D01*
X135952380Y-123080952D01*
X136000000Y-122985714D01*
X136047619Y-122938095D01*
X136142857Y-122890476D01*
X136238095Y-122890476D01*
X136380952Y-122938095D01*
X136952380Y-123509523D01*
X136952380Y-122890476D01*
X135952380Y-122557142D02*
X135952380Y-121938095D01*
X136333333Y-122271428D01*
X136333333Y-122128571D01*
X136380952Y-122033333D01*
X136428571Y-121985714D01*
X136523809Y-121938095D01*
X136761904Y-121938095D01*
X136857142Y-121985714D01*
X136904761Y-122033333D01*
X136952380Y-122128571D01*
X136952380Y-122414285D01*
X136904761Y-122509523D01*
X136857142Y-122557142D01*
X137252380Y-132142857D02*
X136776190Y-132476190D01*
X137252380Y-132714285D02*
X136252380Y-132714285D01*
X136252380Y-132333333D01*
X136300000Y-132238095D01*
X136347619Y-132190476D01*
X136442857Y-132142857D01*
X136585714Y-132142857D01*
X136680952Y-132190476D01*
X136728571Y-132238095D01*
X136776190Y-132333333D01*
X136776190Y-132714285D01*
X136347619Y-131761904D02*
X136300000Y-131714285D01*
X136252380Y-131619047D01*
X136252380Y-131380952D01*
X136300000Y-131285714D01*
X136347619Y-131238095D01*
X136442857Y-131190476D01*
X136538095Y-131190476D01*
X136680952Y-131238095D01*
X137252380Y-131809523D01*
X137252380Y-131190476D01*
X136347619Y-130809523D02*
X136300000Y-130761904D01*
X136252380Y-130666666D01*
X136252380Y-130428571D01*
X136300000Y-130333333D01*
X136347619Y-130285714D01*
X136442857Y-130238095D01*
X136538095Y-130238095D01*
X136680952Y-130285714D01*
X137252380Y-130857142D01*
X137252380Y-130238095D01*
X134452380Y-128042857D02*
X133976190Y-128376190D01*
X134452380Y-128614285D02*
X133452380Y-128614285D01*
X133452380Y-128233333D01*
X133500000Y-128138095D01*
X133547619Y-128090476D01*
X133642857Y-128042857D01*
X133785714Y-128042857D01*
X133880952Y-128090476D01*
X133928571Y-128138095D01*
X133976190Y-128233333D01*
X133976190Y-128614285D01*
X133547619Y-127661904D02*
X133500000Y-127614285D01*
X133452380Y-127519047D01*
X133452380Y-127280952D01*
X133500000Y-127185714D01*
X133547619Y-127138095D01*
X133642857Y-127090476D01*
X133738095Y-127090476D01*
X133880952Y-127138095D01*
X134452380Y-127709523D01*
X134452380Y-127090476D01*
X133452380Y-126185714D02*
X133452380Y-126661904D01*
X133928571Y-126709523D01*
X133880952Y-126661904D01*
X133833333Y-126566666D01*
X133833333Y-126328571D01*
X133880952Y-126233333D01*
X133928571Y-126185714D01*
X134023809Y-126138095D01*
X134261904Y-126138095D01*
X134357142Y-126185714D01*
X134404761Y-126233333D01*
X134452380Y-126328571D01*
X134452380Y-126566666D01*
X134404761Y-126661904D01*
X134357142Y-126709523D01*
X137457142Y-75952380D02*
X137123809Y-75476190D01*
X136885714Y-75952380D02*
X136885714Y-74952380D01*
X137266666Y-74952380D01*
X137361904Y-75000000D01*
X137409523Y-75047619D01*
X137457142Y-75142857D01*
X137457142Y-75285714D01*
X137409523Y-75380952D01*
X137361904Y-75428571D01*
X137266666Y-75476190D01*
X136885714Y-75476190D01*
X138409523Y-75952380D02*
X137838095Y-75952380D01*
X138123809Y-75952380D02*
X138123809Y-74952380D01*
X138028571Y-75095238D01*
X137933333Y-75190476D01*
X137838095Y-75238095D01*
X139314285Y-74952380D02*
X138838095Y-74952380D01*
X138790476Y-75428571D01*
X138838095Y-75380952D01*
X138933333Y-75333333D01*
X139171428Y-75333333D01*
X139266666Y-75380952D01*
X139314285Y-75428571D01*
X139361904Y-75523809D01*
X139361904Y-75761904D01*
X139314285Y-75857142D01*
X139266666Y-75904761D01*
X139171428Y-75952380D01*
X138933333Y-75952380D01*
X138838095Y-75904761D01*
X138790476Y-75857142D01*
X139702380Y-72842857D02*
X139226190Y-73176190D01*
X139702380Y-73414285D02*
X138702380Y-73414285D01*
X138702380Y-73033333D01*
X138750000Y-72938095D01*
X138797619Y-72890476D01*
X138892857Y-72842857D01*
X139035714Y-72842857D01*
X139130952Y-72890476D01*
X139178571Y-72938095D01*
X139226190Y-73033333D01*
X139226190Y-73414285D01*
X139702380Y-71890476D02*
X139702380Y-72461904D01*
X139702380Y-72176190D02*
X138702380Y-72176190D01*
X138845238Y-72271428D01*
X138940476Y-72366666D01*
X138988095Y-72461904D01*
X138702380Y-71557142D02*
X138702380Y-70938095D01*
X139083333Y-71271428D01*
X139083333Y-71128571D01*
X139130952Y-71033333D01*
X139178571Y-70985714D01*
X139273809Y-70938095D01*
X139511904Y-70938095D01*
X139607142Y-70985714D01*
X139654761Y-71033333D01*
X139702380Y-71128571D01*
X139702380Y-71414285D01*
X139654761Y-71509523D01*
X139607142Y-71557142D01*
X140952380Y-83961904D02*
X141761904Y-83961904D01*
X141857142Y-83914285D01*
X141904761Y-83866666D01*
X141952380Y-83771428D01*
X141952380Y-83580952D01*
X141904761Y-83485714D01*
X141857142Y-83438095D01*
X141761904Y-83390476D01*
X140952380Y-83390476D01*
X140952380Y-83009523D02*
X140952380Y-82390476D01*
X141333333Y-82723809D01*
X141333333Y-82580952D01*
X141380952Y-82485714D01*
X141428571Y-82438095D01*
X141523809Y-82390476D01*
X141761904Y-82390476D01*
X141857142Y-82438095D01*
X141904761Y-82485714D01*
X141952380Y-82580952D01*
X141952380Y-82866666D01*
X141904761Y-82961904D01*
X141857142Y-83009523D01*
X150688095Y-81552380D02*
X150688095Y-82361904D01*
X150735714Y-82457142D01*
X150783333Y-82504761D01*
X150878571Y-82552380D01*
X151069047Y-82552380D01*
X151164285Y-82504761D01*
X151211904Y-82457142D01*
X151259523Y-82361904D01*
X151259523Y-81552380D01*
X151688095Y-81647619D02*
X151735714Y-81600000D01*
X151830952Y-81552380D01*
X152069047Y-81552380D01*
X152164285Y-81600000D01*
X152211904Y-81647619D01*
X152259523Y-81742857D01*
X152259523Y-81838095D01*
X152211904Y-81980952D01*
X151640476Y-82552380D01*
X152259523Y-82552380D01*
X158857142Y-125952380D02*
X158523809Y-125476190D01*
X158285714Y-125952380D02*
X158285714Y-124952380D01*
X158666666Y-124952380D01*
X158761904Y-125000000D01*
X158809523Y-125047619D01*
X158857142Y-125142857D01*
X158857142Y-125285714D01*
X158809523Y-125380952D01*
X158761904Y-125428571D01*
X158666666Y-125476190D01*
X158285714Y-125476190D01*
X159190476Y-124952380D02*
X159809523Y-124952380D01*
X159476190Y-125333333D01*
X159619047Y-125333333D01*
X159714285Y-125380952D01*
X159761904Y-125428571D01*
X159809523Y-125523809D01*
X159809523Y-125761904D01*
X159761904Y-125857142D01*
X159714285Y-125904761D01*
X159619047Y-125952380D01*
X159333333Y-125952380D01*
X159238095Y-125904761D01*
X159190476Y-125857142D01*
X160714285Y-124952380D02*
X160238095Y-124952380D01*
X160190476Y-125428571D01*
X160238095Y-125380952D01*
X160333333Y-125333333D01*
X160571428Y-125333333D01*
X160666666Y-125380952D01*
X160714285Y-125428571D01*
X160761904Y-125523809D01*
X160761904Y-125761904D01*
X160714285Y-125857142D01*
X160666666Y-125904761D01*
X160571428Y-125952380D01*
X160333333Y-125952380D01*
X160238095Y-125904761D01*
X160190476Y-125857142D01*
X141052380Y-92561904D02*
X141861904Y-92561904D01*
X141957142Y-92514285D01*
X142004761Y-92466666D01*
X142052380Y-92371428D01*
X142052380Y-92180952D01*
X142004761Y-92085714D01*
X141957142Y-92038095D01*
X141861904Y-91990476D01*
X141052380Y-91990476D01*
X142052380Y-90990476D02*
X142052380Y-91561904D01*
X142052380Y-91276190D02*
X141052380Y-91276190D01*
X141195238Y-91371428D01*
X141290476Y-91466666D01*
X141338095Y-91561904D01*
X170047619Y-81571428D02*
X170000000Y-81666666D01*
X169904761Y-81761904D01*
X169761904Y-81904761D01*
X169714285Y-82000000D01*
X169714285Y-82095238D01*
X169952380Y-82047619D02*
X169904761Y-82142857D01*
X169809523Y-82238095D01*
X169619047Y-82285714D01*
X169285714Y-82285714D01*
X169095238Y-82238095D01*
X169000000Y-82142857D01*
X168952380Y-82047619D01*
X168952380Y-81857142D01*
X169000000Y-81761904D01*
X169095238Y-81666666D01*
X169285714Y-81619047D01*
X169619047Y-81619047D01*
X169809523Y-81666666D01*
X169904761Y-81761904D01*
X169952380Y-81857142D01*
X169952380Y-82047619D01*
X169285714Y-80761904D02*
X169952380Y-80761904D01*
X168904761Y-81000000D02*
X169619047Y-81238095D01*
X169619047Y-80619047D01*
X169952380Y-79714285D02*
X169952380Y-80285714D01*
X169952380Y-80000000D02*
X168952380Y-80000000D01*
X169095238Y-80095238D01*
X169190476Y-80190476D01*
X169238095Y-80285714D01*
X161352380Y-70342857D02*
X160876190Y-70676190D01*
X161352380Y-70914285D02*
X160352380Y-70914285D01*
X160352380Y-70533333D01*
X160400000Y-70438095D01*
X160447619Y-70390476D01*
X160542857Y-70342857D01*
X160685714Y-70342857D01*
X160780952Y-70390476D01*
X160828571Y-70438095D01*
X160876190Y-70533333D01*
X160876190Y-70914285D01*
X160685714Y-69485714D02*
X161352380Y-69485714D01*
X160304761Y-69723809D02*
X161019047Y-69961904D01*
X161019047Y-69342857D01*
X160447619Y-69009523D02*
X160400000Y-68961904D01*
X160352380Y-68866666D01*
X160352380Y-68628571D01*
X160400000Y-68533333D01*
X160447619Y-68485714D01*
X160542857Y-68438095D01*
X160638095Y-68438095D01*
X160780952Y-68485714D01*
X161352380Y-69057142D01*
X161352380Y-68438095D01*
X169972380Y-90892857D02*
X169496190Y-91226190D01*
X169972380Y-91464285D02*
X168972380Y-91464285D01*
X168972380Y-91083333D01*
X169020000Y-90988095D01*
X169067619Y-90940476D01*
X169162857Y-90892857D01*
X169305714Y-90892857D01*
X169400952Y-90940476D01*
X169448571Y-90988095D01*
X169496190Y-91083333D01*
X169496190Y-91464285D01*
X169305714Y-90035714D02*
X169972380Y-90035714D01*
X168924761Y-90273809D02*
X169639047Y-90511904D01*
X169639047Y-89892857D01*
X169305714Y-89083333D02*
X169972380Y-89083333D01*
X168924761Y-89321428D02*
X169639047Y-89559523D01*
X169639047Y-88940476D01*
X171685714Y-84202380D02*
X171685714Y-83202380D01*
X172257142Y-84202380D02*
X171828571Y-83630952D01*
X172257142Y-83202380D02*
X171685714Y-83773809D01*
X173114285Y-83535714D02*
X173114285Y-84202380D01*
X172876190Y-83154761D02*
X172638095Y-83869047D01*
X173257142Y-83869047D01*
X174161904Y-84202380D02*
X173590476Y-84202380D01*
X173876190Y-84202380D02*
X173876190Y-83202380D01*
X173780952Y-83345238D01*
X173685714Y-83440476D01*
X173590476Y-83488095D01*
X165585714Y-75652380D02*
X165585714Y-74652380D01*
X165823809Y-74652380D01*
X165966666Y-74700000D01*
X166061904Y-74795238D01*
X166109523Y-74890476D01*
X166157142Y-75080952D01*
X166157142Y-75223809D01*
X166109523Y-75414285D01*
X166061904Y-75509523D01*
X165966666Y-75604761D01*
X165823809Y-75652380D01*
X165585714Y-75652380D01*
X167014285Y-74985714D02*
X167014285Y-75652380D01*
X166776190Y-74604761D02*
X166538095Y-75319047D01*
X167157142Y-75319047D01*
X168061904Y-75652380D02*
X167490476Y-75652380D01*
X167776190Y-75652380D02*
X167776190Y-74652380D01*
X167680952Y-74795238D01*
X167585714Y-74890476D01*
X167490476Y-74938095D01*
X161702380Y-78642857D02*
X161226190Y-78976190D01*
X161702380Y-79214285D02*
X160702380Y-79214285D01*
X160702380Y-78833333D01*
X160750000Y-78738095D01*
X160797619Y-78690476D01*
X160892857Y-78642857D01*
X161035714Y-78642857D01*
X161130952Y-78690476D01*
X161178571Y-78738095D01*
X161226190Y-78833333D01*
X161226190Y-79214285D01*
X161035714Y-77785714D02*
X161702380Y-77785714D01*
X160654761Y-78023809D02*
X161369047Y-78261904D01*
X161369047Y-77642857D01*
X160702380Y-77357142D02*
X160702380Y-76738095D01*
X161083333Y-77071428D01*
X161083333Y-76928571D01*
X161130952Y-76833333D01*
X161178571Y-76785714D01*
X161273809Y-76738095D01*
X161511904Y-76738095D01*
X161607142Y-76785714D01*
X161654761Y-76833333D01*
X161702380Y-76928571D01*
X161702380Y-77214285D01*
X161654761Y-77309523D01*
X161607142Y-77357142D01*
X157452380Y-89738095D02*
X158261904Y-89738095D01*
X158357142Y-89690476D01*
X158404761Y-89642857D01*
X158452380Y-89547619D01*
X158452380Y-89357142D01*
X158404761Y-89261904D01*
X158357142Y-89214285D01*
X158261904Y-89166666D01*
X157452380Y-89166666D01*
X157785714Y-88261904D02*
X158452380Y-88261904D01*
X157404761Y-88500000D02*
X158119047Y-88738095D01*
X158119047Y-88119047D01*
X158452380Y-87214285D02*
X158452380Y-87785714D01*
X158452380Y-87500000D02*
X157452380Y-87500000D01*
X157595238Y-87595238D01*
X157690476Y-87690476D01*
X157738095Y-87785714D01*
X166107142Y-95607142D02*
X166059523Y-95654761D01*
X165916666Y-95702380D01*
X165821428Y-95702380D01*
X165678571Y-95654761D01*
X165583333Y-95559523D01*
X165535714Y-95464285D01*
X165488095Y-95273809D01*
X165488095Y-95130952D01*
X165535714Y-94940476D01*
X165583333Y-94845238D01*
X165678571Y-94750000D01*
X165821428Y-94702380D01*
X165916666Y-94702380D01*
X166059523Y-94750000D01*
X166107142Y-94797619D01*
X166964285Y-95035714D02*
X166964285Y-95702380D01*
X166726190Y-94654761D02*
X166488095Y-95369047D01*
X167107142Y-95369047D01*
X167440476Y-94797619D02*
X167488095Y-94750000D01*
X167583333Y-94702380D01*
X167821428Y-94702380D01*
X167916666Y-94750000D01*
X167964285Y-94797619D01*
X168011904Y-94892857D01*
X168011904Y-94988095D01*
X167964285Y-95130952D01*
X167392857Y-95702380D01*
X168011904Y-95702380D01*
X166107142Y-85607142D02*
X166059523Y-85654761D01*
X165916666Y-85702380D01*
X165821428Y-85702380D01*
X165678571Y-85654761D01*
X165583333Y-85559523D01*
X165535714Y-85464285D01*
X165488095Y-85273809D01*
X165488095Y-85130952D01*
X165535714Y-84940476D01*
X165583333Y-84845238D01*
X165678571Y-84750000D01*
X165821428Y-84702380D01*
X165916666Y-84702380D01*
X166059523Y-84750000D01*
X166107142Y-84797619D01*
X166964285Y-85035714D02*
X166964285Y-85702380D01*
X166726190Y-84654761D02*
X166488095Y-85369047D01*
X167107142Y-85369047D01*
X168011904Y-85702380D02*
X167440476Y-85702380D01*
X167726190Y-85702380D02*
X167726190Y-84702380D01*
X167630952Y-84845238D01*
X167535714Y-84940476D01*
X167440476Y-84988095D01*
X179452380Y-99059523D02*
X180166666Y-99059523D01*
X180309523Y-99107142D01*
X180404761Y-99202380D01*
X180452380Y-99345238D01*
X180452380Y-99440476D01*
X179785714Y-98154761D02*
X180452380Y-98154761D01*
X179404761Y-98392857D02*
X180119047Y-98630952D01*
X180119047Y-98011904D01*
X180452380Y-97107142D02*
X180452380Y-97678571D01*
X180452380Y-97392857D02*
X179452380Y-97392857D01*
X179595238Y-97488095D01*
X179690476Y-97583333D01*
X179738095Y-97678571D01*
X174011904Y-108352380D02*
X174011904Y-109161904D01*
X174059523Y-109257142D01*
X174107142Y-109304761D01*
X174202380Y-109352380D01*
X174392857Y-109352380D01*
X174488095Y-109304761D01*
X174535714Y-109257142D01*
X174583333Y-109161904D01*
X174583333Y-108352380D01*
X174964285Y-108352380D02*
X175583333Y-108352380D01*
X175250000Y-108733333D01*
X175392857Y-108733333D01*
X175488095Y-108780952D01*
X175535714Y-108828571D01*
X175583333Y-108923809D01*
X175583333Y-109161904D01*
X175535714Y-109257142D01*
X175488095Y-109304761D01*
X175392857Y-109352380D01*
X175107142Y-109352380D01*
X175011904Y-109304761D01*
X174964285Y-109257142D01*
X175964285Y-108447619D02*
X176011904Y-108400000D01*
X176107142Y-108352380D01*
X176345238Y-108352380D01*
X176440476Y-108400000D01*
X176488095Y-108447619D01*
X176535714Y-108542857D01*
X176535714Y-108638095D01*
X176488095Y-108780952D01*
X175916666Y-109352380D01*
X176535714Y-109352380D01*
X169847619Y-133371428D02*
X169800000Y-133466666D01*
X169704761Y-133561904D01*
X169561904Y-133704761D01*
X169514285Y-133800000D01*
X169514285Y-133895238D01*
X169752380Y-133847619D02*
X169704761Y-133942857D01*
X169609523Y-134038095D01*
X169419047Y-134085714D01*
X169085714Y-134085714D01*
X168895238Y-134038095D01*
X168800000Y-133942857D01*
X168752380Y-133847619D01*
X168752380Y-133657142D01*
X168800000Y-133561904D01*
X168895238Y-133466666D01*
X169085714Y-133419047D01*
X169419047Y-133419047D01*
X169609523Y-133466666D01*
X169704761Y-133561904D01*
X169752380Y-133657142D01*
X169752380Y-133847619D01*
X168752380Y-133085714D02*
X168752380Y-132466666D01*
X169133333Y-132800000D01*
X169133333Y-132657142D01*
X169180952Y-132561904D01*
X169228571Y-132514285D01*
X169323809Y-132466666D01*
X169561904Y-132466666D01*
X169657142Y-132514285D01*
X169704761Y-132561904D01*
X169752380Y-132657142D01*
X169752380Y-132942857D01*
X169704761Y-133038095D01*
X169657142Y-133085714D01*
X169752380Y-131514285D02*
X169752380Y-132085714D01*
X169752380Y-131800000D02*
X168752380Y-131800000D01*
X168895238Y-131895238D01*
X168990476Y-131990476D01*
X169038095Y-132085714D01*
X162107142Y-95952380D02*
X161773809Y-95476190D01*
X161535714Y-95952380D02*
X161535714Y-94952380D01*
X161916666Y-94952380D01*
X162011904Y-95000000D01*
X162059523Y-95047619D01*
X162107142Y-95142857D01*
X162107142Y-95285714D01*
X162059523Y-95380952D01*
X162011904Y-95428571D01*
X161916666Y-95476190D01*
X161535714Y-95476190D01*
X162964285Y-95285714D02*
X162964285Y-95952380D01*
X162726190Y-94904761D02*
X162488095Y-95619047D01*
X163107142Y-95619047D01*
X164011904Y-95952380D02*
X163440476Y-95952380D01*
X163726190Y-95952380D02*
X163726190Y-94952380D01*
X163630952Y-95095238D01*
X163535714Y-95190476D01*
X163440476Y-95238095D01*
X166107142Y-106357142D02*
X166059523Y-106404761D01*
X165916666Y-106452380D01*
X165821428Y-106452380D01*
X165678571Y-106404761D01*
X165583333Y-106309523D01*
X165535714Y-106214285D01*
X165488095Y-106023809D01*
X165488095Y-105880952D01*
X165535714Y-105690476D01*
X165583333Y-105595238D01*
X165678571Y-105500000D01*
X165821428Y-105452380D01*
X165916666Y-105452380D01*
X166059523Y-105500000D01*
X166107142Y-105547619D01*
X166440476Y-105452380D02*
X167059523Y-105452380D01*
X166726190Y-105833333D01*
X166869047Y-105833333D01*
X166964285Y-105880952D01*
X167011904Y-105928571D01*
X167059523Y-106023809D01*
X167059523Y-106261904D01*
X167011904Y-106357142D01*
X166964285Y-106404761D01*
X166869047Y-106452380D01*
X166583333Y-106452380D01*
X166488095Y-106404761D01*
X166440476Y-106357142D01*
X168011904Y-106452380D02*
X167440476Y-106452380D01*
X167726190Y-106452380D02*
X167726190Y-105452380D01*
X167630952Y-105595238D01*
X167535714Y-105690476D01*
X167440476Y-105738095D01*
X162357142Y-127452380D02*
X162023809Y-126976190D01*
X161785714Y-127452380D02*
X161785714Y-126452380D01*
X162166666Y-126452380D01*
X162261904Y-126500000D01*
X162309523Y-126547619D01*
X162357142Y-126642857D01*
X162357142Y-126785714D01*
X162309523Y-126880952D01*
X162261904Y-126928571D01*
X162166666Y-126976190D01*
X161785714Y-126976190D01*
X162690476Y-126452380D02*
X163309523Y-126452380D01*
X162976190Y-126833333D01*
X163119047Y-126833333D01*
X163214285Y-126880952D01*
X163261904Y-126928571D01*
X163309523Y-127023809D01*
X163309523Y-127261904D01*
X163261904Y-127357142D01*
X163214285Y-127404761D01*
X163119047Y-127452380D01*
X162833333Y-127452380D01*
X162738095Y-127404761D01*
X162690476Y-127357142D01*
X163690476Y-126547619D02*
X163738095Y-126500000D01*
X163833333Y-126452380D01*
X164071428Y-126452380D01*
X164166666Y-126500000D01*
X164214285Y-126547619D01*
X164261904Y-126642857D01*
X164261904Y-126738095D01*
X164214285Y-126880952D01*
X163642857Y-127452380D01*
X164261904Y-127452380D01*
X169752380Y-111642857D02*
X169276190Y-111976190D01*
X169752380Y-112214285D02*
X168752380Y-112214285D01*
X168752380Y-111833333D01*
X168800000Y-111738095D01*
X168847619Y-111690476D01*
X168942857Y-111642857D01*
X169085714Y-111642857D01*
X169180952Y-111690476D01*
X169228571Y-111738095D01*
X169276190Y-111833333D01*
X169276190Y-112214285D01*
X168752380Y-111309523D02*
X168752380Y-110690476D01*
X169133333Y-111023809D01*
X169133333Y-110880952D01*
X169180952Y-110785714D01*
X169228571Y-110738095D01*
X169323809Y-110690476D01*
X169561904Y-110690476D01*
X169657142Y-110738095D01*
X169704761Y-110785714D01*
X169752380Y-110880952D01*
X169752380Y-111166666D01*
X169704761Y-111261904D01*
X169657142Y-111309523D01*
X169085714Y-109833333D02*
X169752380Y-109833333D01*
X168704761Y-110071428D02*
X169419047Y-110309523D01*
X169419047Y-109690476D01*
X159052380Y-129392857D02*
X158576190Y-129726190D01*
X159052380Y-129964285D02*
X158052380Y-129964285D01*
X158052380Y-129583333D01*
X158100000Y-129488095D01*
X158147619Y-129440476D01*
X158242857Y-129392857D01*
X158385714Y-129392857D01*
X158480952Y-129440476D01*
X158528571Y-129488095D01*
X158576190Y-129583333D01*
X158576190Y-129964285D01*
X158052380Y-129059523D02*
X158052380Y-128440476D01*
X158433333Y-128773809D01*
X158433333Y-128630952D01*
X158480952Y-128535714D01*
X158528571Y-128488095D01*
X158623809Y-128440476D01*
X158861904Y-128440476D01*
X158957142Y-128488095D01*
X159004761Y-128535714D01*
X159052380Y-128630952D01*
X159052380Y-128916666D01*
X159004761Y-129011904D01*
X158957142Y-129059523D01*
X158052380Y-128107142D02*
X158052380Y-127488095D01*
X158433333Y-127821428D01*
X158433333Y-127678571D01*
X158480952Y-127583333D01*
X158528571Y-127535714D01*
X158623809Y-127488095D01*
X158861904Y-127488095D01*
X158957142Y-127535714D01*
X159004761Y-127583333D01*
X159052380Y-127678571D01*
X159052380Y-127964285D01*
X159004761Y-128059523D01*
X158957142Y-128107142D01*
X161257142Y-105452380D02*
X160923809Y-104976190D01*
X160685714Y-105452380D02*
X160685714Y-104452380D01*
X161066666Y-104452380D01*
X161161904Y-104500000D01*
X161209523Y-104547619D01*
X161257142Y-104642857D01*
X161257142Y-104785714D01*
X161209523Y-104880952D01*
X161161904Y-104928571D01*
X161066666Y-104976190D01*
X160685714Y-104976190D01*
X161590476Y-104452380D02*
X162209523Y-104452380D01*
X161876190Y-104833333D01*
X162019047Y-104833333D01*
X162114285Y-104880952D01*
X162161904Y-104928571D01*
X162209523Y-105023809D01*
X162209523Y-105261904D01*
X162161904Y-105357142D01*
X162114285Y-105404761D01*
X162019047Y-105452380D01*
X161733333Y-105452380D01*
X161638095Y-105404761D01*
X161590476Y-105357142D01*
X163161904Y-105452380D02*
X162590476Y-105452380D01*
X162876190Y-105452380D02*
X162876190Y-104452380D01*
X162780952Y-104595238D01*
X162685714Y-104690476D01*
X162590476Y-104738095D01*
X169752380Y-130614285D02*
X168752380Y-130614285D01*
X168752380Y-130376190D01*
X168800000Y-130233333D01*
X168895238Y-130138095D01*
X168990476Y-130090476D01*
X169180952Y-130042857D01*
X169323809Y-130042857D01*
X169514285Y-130090476D01*
X169609523Y-130138095D01*
X169704761Y-130233333D01*
X169752380Y-130376190D01*
X169752380Y-130614285D01*
X168752380Y-129709523D02*
X168752380Y-129090476D01*
X169133333Y-129423809D01*
X169133333Y-129280952D01*
X169180952Y-129185714D01*
X169228571Y-129138095D01*
X169323809Y-129090476D01*
X169561904Y-129090476D01*
X169657142Y-129138095D01*
X169704761Y-129185714D01*
X169752380Y-129280952D01*
X169752380Y-129566666D01*
X169704761Y-129661904D01*
X169657142Y-129709523D01*
X169752380Y-128138095D02*
X169752380Y-128709523D01*
X169752380Y-128423809D02*
X168752380Y-128423809D01*
X168895238Y-128519047D01*
X168990476Y-128614285D01*
X169038095Y-128709523D01*
X166107142Y-116187142D02*
X166059523Y-116234761D01*
X165916666Y-116282380D01*
X165821428Y-116282380D01*
X165678571Y-116234761D01*
X165583333Y-116139523D01*
X165535714Y-116044285D01*
X165488095Y-115853809D01*
X165488095Y-115710952D01*
X165535714Y-115520476D01*
X165583333Y-115425238D01*
X165678571Y-115330000D01*
X165821428Y-115282380D01*
X165916666Y-115282380D01*
X166059523Y-115330000D01*
X166107142Y-115377619D01*
X166440476Y-115282380D02*
X167059523Y-115282380D01*
X166726190Y-115663333D01*
X166869047Y-115663333D01*
X166964285Y-115710952D01*
X167011904Y-115758571D01*
X167059523Y-115853809D01*
X167059523Y-116091904D01*
X167011904Y-116187142D01*
X166964285Y-116234761D01*
X166869047Y-116282380D01*
X166583333Y-116282380D01*
X166488095Y-116234761D01*
X166440476Y-116187142D01*
X167440476Y-115377619D02*
X167488095Y-115330000D01*
X167583333Y-115282380D01*
X167821428Y-115282380D01*
X167916666Y-115330000D01*
X167964285Y-115377619D01*
X168011904Y-115472857D01*
X168011904Y-115568095D01*
X167964285Y-115710952D01*
X167392857Y-116282380D01*
X168011904Y-116282380D01*
X157652380Y-114138095D02*
X158461904Y-114138095D01*
X158557142Y-114090476D01*
X158604761Y-114042857D01*
X158652380Y-113947619D01*
X158652380Y-113757142D01*
X158604761Y-113661904D01*
X158557142Y-113614285D01*
X158461904Y-113566666D01*
X157652380Y-113566666D01*
X157652380Y-113185714D02*
X157652380Y-112566666D01*
X158033333Y-112900000D01*
X158033333Y-112757142D01*
X158080952Y-112661904D01*
X158128571Y-112614285D01*
X158223809Y-112566666D01*
X158461904Y-112566666D01*
X158557142Y-112614285D01*
X158604761Y-112661904D01*
X158652380Y-112757142D01*
X158652380Y-113042857D01*
X158604761Y-113138095D01*
X158557142Y-113185714D01*
X158652380Y-111614285D02*
X158652380Y-112185714D01*
X158652380Y-111900000D02*
X157652380Y-111900000D01*
X157795238Y-111995238D01*
X157890476Y-112090476D01*
X157938095Y-112185714D01*
X171885714Y-117702380D02*
X171885714Y-116702380D01*
X172457142Y-117702380D02*
X172028571Y-117130952D01*
X172457142Y-116702380D02*
X171885714Y-117273809D01*
X172790476Y-116702380D02*
X173409523Y-116702380D01*
X173076190Y-117083333D01*
X173219047Y-117083333D01*
X173314285Y-117130952D01*
X173361904Y-117178571D01*
X173409523Y-117273809D01*
X173409523Y-117511904D01*
X173361904Y-117607142D01*
X173314285Y-117654761D01*
X173219047Y-117702380D01*
X172933333Y-117702380D01*
X172838095Y-117654761D01*
X172790476Y-117607142D01*
X174361904Y-117702380D02*
X173790476Y-117702380D01*
X174076190Y-117702380D02*
X174076190Y-116702380D01*
X173980952Y-116845238D01*
X173885714Y-116940476D01*
X173790476Y-116988095D01*
X179452380Y-103559523D02*
X180166666Y-103559523D01*
X180309523Y-103607142D01*
X180404761Y-103702380D01*
X180452380Y-103845238D01*
X180452380Y-103940476D01*
X179452380Y-103178571D02*
X179452380Y-102559523D01*
X179833333Y-102892857D01*
X179833333Y-102750000D01*
X179880952Y-102654761D01*
X179928571Y-102607142D01*
X180023809Y-102559523D01*
X180261904Y-102559523D01*
X180357142Y-102607142D01*
X180404761Y-102654761D01*
X180452380Y-102750000D01*
X180452380Y-103035714D01*
X180404761Y-103130952D01*
X180357142Y-103178571D01*
X180452380Y-101607142D02*
X180452380Y-102178571D01*
X180452380Y-101892857D02*
X179452380Y-101892857D01*
X179595238Y-101988095D01*
X179690476Y-102083333D01*
X179738095Y-102178571D01*
X121161904Y-108452380D02*
X121161904Y-109261904D01*
X121209523Y-109357142D01*
X121257142Y-109404761D01*
X121352380Y-109452380D01*
X121542857Y-109452380D01*
X121638095Y-109404761D01*
X121685714Y-109357142D01*
X121733333Y-109261904D01*
X121733333Y-108452380D01*
X122161904Y-108547619D02*
X122209523Y-108500000D01*
X122304761Y-108452380D01*
X122542857Y-108452380D01*
X122638095Y-108500000D01*
X122685714Y-108547619D01*
X122733333Y-108642857D01*
X122733333Y-108738095D01*
X122685714Y-108880952D01*
X122114285Y-109452380D01*
X122733333Y-109452380D01*
X123114285Y-108547619D02*
X123161904Y-108500000D01*
X123257142Y-108452380D01*
X123495238Y-108452380D01*
X123590476Y-108500000D01*
X123638095Y-108547619D01*
X123685714Y-108642857D01*
X123685714Y-108738095D01*
X123638095Y-108880952D01*
X123066666Y-109452380D01*
X123685714Y-109452380D01*
X128747619Y-120571428D02*
X128700000Y-120666666D01*
X128604761Y-120761904D01*
X128461904Y-120904761D01*
X128414285Y-121000000D01*
X128414285Y-121095238D01*
X128652380Y-121047619D02*
X128604761Y-121142857D01*
X128509523Y-121238095D01*
X128319047Y-121285714D01*
X127985714Y-121285714D01*
X127795238Y-121238095D01*
X127700000Y-121142857D01*
X127652380Y-121047619D01*
X127652380Y-120857142D01*
X127700000Y-120761904D01*
X127795238Y-120666666D01*
X127985714Y-120619047D01*
X128319047Y-120619047D01*
X128509523Y-120666666D01*
X128604761Y-120761904D01*
X128652380Y-120857142D01*
X128652380Y-121047619D01*
X127747619Y-120238095D02*
X127700000Y-120190476D01*
X127652380Y-120095238D01*
X127652380Y-119857142D01*
X127700000Y-119761904D01*
X127747619Y-119714285D01*
X127842857Y-119666666D01*
X127938095Y-119666666D01*
X128080952Y-119714285D01*
X128652380Y-120285714D01*
X128652380Y-119666666D01*
X128652380Y-118714285D02*
X128652380Y-119285714D01*
X128652380Y-119000000D02*
X127652380Y-119000000D01*
X127795238Y-119095238D01*
X127890476Y-119190476D01*
X127938095Y-119285714D01*
X130107142Y-116157142D02*
X130059523Y-116204761D01*
X129916666Y-116252380D01*
X129821428Y-116252380D01*
X129678571Y-116204761D01*
X129583333Y-116109523D01*
X129535714Y-116014285D01*
X129488095Y-115823809D01*
X129488095Y-115680952D01*
X129535714Y-115490476D01*
X129583333Y-115395238D01*
X129678571Y-115300000D01*
X129821428Y-115252380D01*
X129916666Y-115252380D01*
X130059523Y-115300000D01*
X130107142Y-115347619D01*
X130488095Y-115347619D02*
X130535714Y-115300000D01*
X130630952Y-115252380D01*
X130869047Y-115252380D01*
X130964285Y-115300000D01*
X131011904Y-115347619D01*
X131059523Y-115442857D01*
X131059523Y-115538095D01*
X131011904Y-115680952D01*
X130440476Y-116252380D01*
X131059523Y-116252380D01*
X132011904Y-116252380D02*
X131440476Y-116252380D01*
X131726190Y-116252380D02*
X131726190Y-115252380D01*
X131630952Y-115395238D01*
X131535714Y-115490476D01*
X131440476Y-115538095D01*
X128702380Y-111392857D02*
X128226190Y-111726190D01*
X128702380Y-111964285D02*
X127702380Y-111964285D01*
X127702380Y-111583333D01*
X127750000Y-111488095D01*
X127797619Y-111440476D01*
X127892857Y-111392857D01*
X128035714Y-111392857D01*
X128130952Y-111440476D01*
X128178571Y-111488095D01*
X128226190Y-111583333D01*
X128226190Y-111964285D01*
X127797619Y-111011904D02*
X127750000Y-110964285D01*
X127702380Y-110869047D01*
X127702380Y-110630952D01*
X127750000Y-110535714D01*
X127797619Y-110488095D01*
X127892857Y-110440476D01*
X127988095Y-110440476D01*
X128130952Y-110488095D01*
X128702380Y-111059523D01*
X128702380Y-110440476D01*
X128035714Y-109583333D02*
X128702380Y-109583333D01*
X127654761Y-109821428D02*
X128369047Y-110059523D01*
X128369047Y-109440476D01*
X134307142Y-106202380D02*
X133973809Y-105726190D01*
X133735714Y-106202380D02*
X133735714Y-105202380D01*
X134116666Y-105202380D01*
X134211904Y-105250000D01*
X134259523Y-105297619D01*
X134307142Y-105392857D01*
X134307142Y-105535714D01*
X134259523Y-105630952D01*
X134211904Y-105678571D01*
X134116666Y-105726190D01*
X133735714Y-105726190D01*
X134688095Y-105297619D02*
X134735714Y-105250000D01*
X134830952Y-105202380D01*
X135069047Y-105202380D01*
X135164285Y-105250000D01*
X135211904Y-105297619D01*
X135259523Y-105392857D01*
X135259523Y-105488095D01*
X135211904Y-105630952D01*
X134640476Y-106202380D01*
X135259523Y-106202380D01*
X136211904Y-106202380D02*
X135640476Y-106202380D01*
X135926190Y-106202380D02*
X135926190Y-105202380D01*
X135830952Y-105345238D01*
X135735714Y-105440476D01*
X135640476Y-105488095D01*
X129385714Y-126452380D02*
X129385714Y-125452380D01*
X129623809Y-125452380D01*
X129766666Y-125500000D01*
X129861904Y-125595238D01*
X129909523Y-125690476D01*
X129957142Y-125880952D01*
X129957142Y-126023809D01*
X129909523Y-126214285D01*
X129861904Y-126309523D01*
X129766666Y-126404761D01*
X129623809Y-126452380D01*
X129385714Y-126452380D01*
X130338095Y-125547619D02*
X130385714Y-125500000D01*
X130480952Y-125452380D01*
X130719047Y-125452380D01*
X130814285Y-125500000D01*
X130861904Y-125547619D01*
X130909523Y-125642857D01*
X130909523Y-125738095D01*
X130861904Y-125880952D01*
X130290476Y-126452380D01*
X130909523Y-126452380D01*
X131861904Y-126452380D02*
X131290476Y-126452380D01*
X131576190Y-126452380D02*
X131576190Y-125452380D01*
X131480952Y-125595238D01*
X131385714Y-125690476D01*
X131290476Y-125738095D01*
X130107142Y-106357142D02*
X130059523Y-106404761D01*
X129916666Y-106452380D01*
X129821428Y-106452380D01*
X129678571Y-106404761D01*
X129583333Y-106309523D01*
X129535714Y-106214285D01*
X129488095Y-106023809D01*
X129488095Y-105880952D01*
X129535714Y-105690476D01*
X129583333Y-105595238D01*
X129678571Y-105500000D01*
X129821428Y-105452380D01*
X129916666Y-105452380D01*
X130059523Y-105500000D01*
X130107142Y-105547619D01*
X130488095Y-105547619D02*
X130535714Y-105500000D01*
X130630952Y-105452380D01*
X130869047Y-105452380D01*
X130964285Y-105500000D01*
X131011904Y-105547619D01*
X131059523Y-105642857D01*
X131059523Y-105738095D01*
X131011904Y-105880952D01*
X130440476Y-106452380D01*
X131059523Y-106452380D01*
X131440476Y-105547619D02*
X131488095Y-105500000D01*
X131583333Y-105452380D01*
X131821428Y-105452380D01*
X131916666Y-105500000D01*
X131964285Y-105547619D01*
X132011904Y-105642857D01*
X132011904Y-105738095D01*
X131964285Y-105880952D01*
X131392857Y-106452380D01*
X132011904Y-106452380D01*
X139052380Y-115238095D02*
X139861904Y-115238095D01*
X139957142Y-115190476D01*
X140004761Y-115142857D01*
X140052380Y-115047619D01*
X140052380Y-114857142D01*
X140004761Y-114761904D01*
X139957142Y-114714285D01*
X139861904Y-114666666D01*
X139052380Y-114666666D01*
X139147619Y-114238095D02*
X139100000Y-114190476D01*
X139052380Y-114095238D01*
X139052380Y-113857142D01*
X139100000Y-113761904D01*
X139147619Y-113714285D01*
X139242857Y-113666666D01*
X139338095Y-113666666D01*
X139480952Y-113714285D01*
X140052380Y-114285714D01*
X140052380Y-113666666D01*
X140052380Y-112714285D02*
X140052380Y-113285714D01*
X140052380Y-113000000D02*
X139052380Y-113000000D01*
X139195238Y-113095238D01*
X139290476Y-113190476D01*
X139338095Y-113285714D01*
X123285714Y-117752380D02*
X123285714Y-116752380D01*
X123857142Y-117752380D02*
X123428571Y-117180952D01*
X123857142Y-116752380D02*
X123285714Y-117323809D01*
X124238095Y-116847619D02*
X124285714Y-116800000D01*
X124380952Y-116752380D01*
X124619047Y-116752380D01*
X124714285Y-116800000D01*
X124761904Y-116847619D01*
X124809523Y-116942857D01*
X124809523Y-117038095D01*
X124761904Y-117180952D01*
X124190476Y-117752380D01*
X124809523Y-117752380D01*
X125761904Y-117752380D02*
X125190476Y-117752380D01*
X125476190Y-117752380D02*
X125476190Y-116752380D01*
X125380952Y-116895238D01*
X125285714Y-116990476D01*
X125190476Y-117038095D01*
X117054380Y-103139523D02*
X117768666Y-103139523D01*
X117911523Y-103187142D01*
X118006761Y-103282380D01*
X118054380Y-103425238D01*
X118054380Y-103520476D01*
X117149619Y-102710952D02*
X117102000Y-102663333D01*
X117054380Y-102568095D01*
X117054380Y-102330000D01*
X117102000Y-102234761D01*
X117149619Y-102187142D01*
X117244857Y-102139523D01*
X117340095Y-102139523D01*
X117482952Y-102187142D01*
X118054380Y-102758571D01*
X118054380Y-102139523D01*
X118054380Y-101187142D02*
X118054380Y-101758571D01*
X118054380Y-101472857D02*
X117054380Y-101472857D01*
X117197238Y-101568095D01*
X117292476Y-101663333D01*
X117340095Y-101758571D01*
X123385714Y-84202380D02*
X123385714Y-83202380D01*
X123957142Y-84202380D02*
X123528571Y-83630952D01*
X123957142Y-83202380D02*
X123385714Y-83773809D01*
X124909523Y-84202380D02*
X124338095Y-84202380D01*
X124623809Y-84202380D02*
X124623809Y-83202380D01*
X124528571Y-83345238D01*
X124433333Y-83440476D01*
X124338095Y-83488095D01*
X125861904Y-84202380D02*
X125290476Y-84202380D01*
X125576190Y-84202380D02*
X125576190Y-83202380D01*
X125480952Y-83345238D01*
X125385714Y-83440476D01*
X125290476Y-83488095D01*
X117002380Y-99361523D02*
X117716666Y-99361523D01*
X117859523Y-99409142D01*
X117954761Y-99504380D01*
X118002380Y-99647238D01*
X118002380Y-99742476D01*
X118002380Y-98361523D02*
X118002380Y-98932952D01*
X118002380Y-98647238D02*
X117002380Y-98647238D01*
X117145238Y-98742476D01*
X117240476Y-98837714D01*
X117288095Y-98932952D01*
X118002380Y-97409142D02*
X118002380Y-97980571D01*
X118002380Y-97694857D02*
X117002380Y-97694857D01*
X117145238Y-97790095D01*
X117240476Y-97885333D01*
X117288095Y-97980571D01*
X156652380Y-120833333D02*
X157366666Y-120833333D01*
X157509523Y-120880952D01*
X157604761Y-120976190D01*
X157652380Y-121119047D01*
X157652380Y-121214285D01*
X156747619Y-120404761D02*
X156700000Y-120357142D01*
X156652380Y-120261904D01*
X156652380Y-120023809D01*
X156700000Y-119928571D01*
X156747619Y-119880952D01*
X156842857Y-119833333D01*
X156938095Y-119833333D01*
X157080952Y-119880952D01*
X157652380Y-120452380D01*
X157652380Y-119833333D01*
X132202380Y-85388095D02*
X133011904Y-85388095D01*
X133107142Y-85340476D01*
X133154761Y-85292857D01*
X133202380Y-85197619D01*
X133202380Y-85007142D01*
X133154761Y-84911904D01*
X133107142Y-84864285D01*
X133011904Y-84816666D01*
X132202380Y-84816666D01*
X133202380Y-83816666D02*
X133202380Y-84388095D01*
X133202380Y-84102380D02*
X132202380Y-84102380D01*
X132345238Y-84197619D01*
X132440476Y-84292857D01*
X132488095Y-84388095D01*
X133202380Y-82864285D02*
X133202380Y-83435714D01*
X133202380Y-83150000D02*
X132202380Y-83150000D01*
X132345238Y-83245238D01*
X132440476Y-83340476D01*
X132488095Y-83435714D01*
X155233333Y-110152380D02*
X154900000Y-109676190D01*
X154661904Y-110152380D02*
X154661904Y-109152380D01*
X155042857Y-109152380D01*
X155138095Y-109200000D01*
X155185714Y-109247619D01*
X155233333Y-109342857D01*
X155233333Y-109485714D01*
X155185714Y-109580952D01*
X155138095Y-109628571D01*
X155042857Y-109676190D01*
X154661904Y-109676190D01*
X156138095Y-109152380D02*
X155661904Y-109152380D01*
X155614285Y-109628571D01*
X155661904Y-109580952D01*
X155757142Y-109533333D01*
X155995238Y-109533333D01*
X156090476Y-109580952D01*
X156138095Y-109628571D01*
X156185714Y-109723809D01*
X156185714Y-109961904D01*
X156138095Y-110057142D01*
X156090476Y-110104761D01*
X155995238Y-110152380D01*
X155757142Y-110152380D01*
X155661904Y-110104761D01*
X155614285Y-110057142D01*
X157678380Y-116752666D02*
X157202190Y-117086000D01*
X157678380Y-117324095D02*
X156678380Y-117324095D01*
X156678380Y-116943142D01*
X156726000Y-116847904D01*
X156773619Y-116800285D01*
X156868857Y-116752666D01*
X157011714Y-116752666D01*
X157106952Y-116800285D01*
X157154571Y-116847904D01*
X157202190Y-116943142D01*
X157202190Y-117324095D01*
X157011714Y-115895523D02*
X157678380Y-115895523D01*
X156630761Y-116133619D02*
X157345047Y-116371714D01*
X157345047Y-115752666D01*
X157583333Y-85952380D02*
X157250000Y-85476190D01*
X157011904Y-85952380D02*
X157011904Y-84952380D01*
X157392857Y-84952380D01*
X157488095Y-85000000D01*
X157535714Y-85047619D01*
X157583333Y-85142857D01*
X157583333Y-85285714D01*
X157535714Y-85380952D01*
X157488095Y-85428571D01*
X157392857Y-85476190D01*
X157011904Y-85476190D01*
X158535714Y-85952380D02*
X157964285Y-85952380D01*
X158250000Y-85952380D02*
X158250000Y-84952380D01*
X158154761Y-85095238D01*
X158059523Y-85190476D01*
X157964285Y-85238095D01*
X146152380Y-112266666D02*
X145676190Y-112600000D01*
X146152380Y-112838095D02*
X145152380Y-112838095D01*
X145152380Y-112457142D01*
X145200000Y-112361904D01*
X145247619Y-112314285D01*
X145342857Y-112266666D01*
X145485714Y-112266666D01*
X145580952Y-112314285D01*
X145628571Y-112361904D01*
X145676190Y-112457142D01*
X145676190Y-112838095D01*
X145152380Y-111933333D02*
X145152380Y-111314285D01*
X145533333Y-111647619D01*
X145533333Y-111504761D01*
X145580952Y-111409523D01*
X145628571Y-111361904D01*
X145723809Y-111314285D01*
X145961904Y-111314285D01*
X146057142Y-111361904D01*
X146104761Y-111409523D01*
X146152380Y-111504761D01*
X146152380Y-111790476D01*
X146104761Y-111885714D01*
X146057142Y-111933333D01*
X146152380Y-116766666D02*
X145676190Y-117100000D01*
X146152380Y-117338095D02*
X145152380Y-117338095D01*
X145152380Y-116957142D01*
X145200000Y-116861904D01*
X145247619Y-116814285D01*
X145342857Y-116766666D01*
X145485714Y-116766666D01*
X145580952Y-116814285D01*
X145628571Y-116861904D01*
X145676190Y-116957142D01*
X145676190Y-117338095D01*
X145247619Y-116385714D02*
X145200000Y-116338095D01*
X145152380Y-116242857D01*
X145152380Y-116004761D01*
X145200000Y-115909523D01*
X145247619Y-115861904D01*
X145342857Y-115814285D01*
X145438095Y-115814285D01*
X145580952Y-115861904D01*
X146152380Y-116433333D01*
X146152380Y-115814285D01*
X128702380Y-90842857D02*
X128226190Y-91176190D01*
X128702380Y-91414285D02*
X127702380Y-91414285D01*
X127702380Y-91033333D01*
X127750000Y-90938095D01*
X127797619Y-90890476D01*
X127892857Y-90842857D01*
X128035714Y-90842857D01*
X128130952Y-90890476D01*
X128178571Y-90938095D01*
X128226190Y-91033333D01*
X128226190Y-91414285D01*
X128702380Y-89890476D02*
X128702380Y-90461904D01*
X128702380Y-90176190D02*
X127702380Y-90176190D01*
X127845238Y-90271428D01*
X127940476Y-90366666D01*
X127988095Y-90461904D01*
X128035714Y-89033333D02*
X128702380Y-89033333D01*
X127654761Y-89271428D02*
X128369047Y-89509523D01*
X128369047Y-88890476D01*
X133857142Y-74452380D02*
X133523809Y-73976190D01*
X133285714Y-74452380D02*
X133285714Y-73452380D01*
X133666666Y-73452380D01*
X133761904Y-73500000D01*
X133809523Y-73547619D01*
X133857142Y-73642857D01*
X133857142Y-73785714D01*
X133809523Y-73880952D01*
X133761904Y-73928571D01*
X133666666Y-73976190D01*
X133285714Y-73976190D01*
X134809523Y-74452380D02*
X134238095Y-74452380D01*
X134523809Y-74452380D02*
X134523809Y-73452380D01*
X134428571Y-73595238D01*
X134333333Y-73690476D01*
X134238095Y-73738095D01*
X135190476Y-73547619D02*
X135238095Y-73500000D01*
X135333333Y-73452380D01*
X135571428Y-73452380D01*
X135666666Y-73500000D01*
X135714285Y-73547619D01*
X135761904Y-73642857D01*
X135761904Y-73738095D01*
X135714285Y-73880952D01*
X135142857Y-74452380D01*
X135761904Y-74452380D01*
X134957142Y-96502380D02*
X134623809Y-96026190D01*
X134385714Y-96502380D02*
X134385714Y-95502380D01*
X134766666Y-95502380D01*
X134861904Y-95550000D01*
X134909523Y-95597619D01*
X134957142Y-95692857D01*
X134957142Y-95835714D01*
X134909523Y-95930952D01*
X134861904Y-95978571D01*
X134766666Y-96026190D01*
X134385714Y-96026190D01*
X135909523Y-96502380D02*
X135338095Y-96502380D01*
X135623809Y-96502380D02*
X135623809Y-95502380D01*
X135528571Y-95645238D01*
X135433333Y-95740476D01*
X135338095Y-95788095D01*
X136861904Y-96502380D02*
X136290476Y-96502380D01*
X136576190Y-96502380D02*
X136576190Y-95502380D01*
X136480952Y-95645238D01*
X136385714Y-95740476D01*
X136290476Y-95788095D01*
X151304761Y-110147619D02*
X151209523Y-110100000D01*
X151114285Y-110004761D01*
X150971428Y-109861904D01*
X150876190Y-109814285D01*
X150780952Y-109814285D01*
X150828571Y-110052380D02*
X150733333Y-110004761D01*
X150638095Y-109909523D01*
X150590476Y-109719047D01*
X150590476Y-109385714D01*
X150638095Y-109195238D01*
X150733333Y-109100000D01*
X150828571Y-109052380D01*
X151019047Y-109052380D01*
X151114285Y-109100000D01*
X151209523Y-109195238D01*
X151257142Y-109385714D01*
X151257142Y-109719047D01*
X151209523Y-109909523D01*
X151114285Y-110004761D01*
X151019047Y-110052380D01*
X150828571Y-110052380D01*
X151638095Y-109147619D02*
X151685714Y-109100000D01*
X151780952Y-109052380D01*
X152019047Y-109052380D01*
X152114285Y-109100000D01*
X152161904Y-109147619D01*
X152209523Y-109242857D01*
X152209523Y-109338095D01*
X152161904Y-109480952D01*
X151590476Y-110052380D01*
X152209523Y-110052380D01*
X151304761Y-119647619D02*
X151209523Y-119600000D01*
X151114285Y-119504761D01*
X150971428Y-119361904D01*
X150876190Y-119314285D01*
X150780952Y-119314285D01*
X150828571Y-119552380D02*
X150733333Y-119504761D01*
X150638095Y-119409523D01*
X150590476Y-119219047D01*
X150590476Y-118885714D01*
X150638095Y-118695238D01*
X150733333Y-118600000D01*
X150828571Y-118552380D01*
X151019047Y-118552380D01*
X151114285Y-118600000D01*
X151209523Y-118695238D01*
X151257142Y-118885714D01*
X151257142Y-119219047D01*
X151209523Y-119409523D01*
X151114285Y-119504761D01*
X151019047Y-119552380D01*
X150828571Y-119552380D01*
X152209523Y-119552380D02*
X151638095Y-119552380D01*
X151923809Y-119552380D02*
X151923809Y-118552380D01*
X151828571Y-118695238D01*
X151733333Y-118790476D01*
X151638095Y-118838095D01*
X156702380Y-131333333D02*
X157416666Y-131333333D01*
X157559523Y-131380952D01*
X157654761Y-131476190D01*
X157702380Y-131619047D01*
X157702380Y-131714285D01*
X157702380Y-130333333D02*
X157702380Y-130904761D01*
X157702380Y-130619047D02*
X156702380Y-130619047D01*
X156845238Y-130714285D01*
X156940476Y-130809523D01*
X156988095Y-130904761D01*
X128702380Y-72814285D02*
X127702380Y-72814285D01*
X127702380Y-72576190D01*
X127750000Y-72433333D01*
X127845238Y-72338095D01*
X127940476Y-72290476D01*
X128130952Y-72242857D01*
X128273809Y-72242857D01*
X128464285Y-72290476D01*
X128559523Y-72338095D01*
X128654761Y-72433333D01*
X128702380Y-72576190D01*
X128702380Y-72814285D01*
X128702380Y-71290476D02*
X128702380Y-71861904D01*
X128702380Y-71576190D02*
X127702380Y-71576190D01*
X127845238Y-71671428D01*
X127940476Y-71766666D01*
X127988095Y-71861904D01*
X128702380Y-70338095D02*
X128702380Y-70909523D01*
X128702380Y-70623809D02*
X127702380Y-70623809D01*
X127845238Y-70719047D01*
X127940476Y-70814285D01*
X127988095Y-70909523D01*
X140657142Y-89466666D02*
X140704761Y-89514285D01*
X140752380Y-89657142D01*
X140752380Y-89752380D01*
X140704761Y-89895238D01*
X140609523Y-89990476D01*
X140514285Y-90038095D01*
X140323809Y-90085714D01*
X140180952Y-90085714D01*
X139990476Y-90038095D01*
X139895238Y-89990476D01*
X139800000Y-89895238D01*
X139752380Y-89752380D01*
X139752380Y-89657142D01*
X139800000Y-89514285D01*
X139847619Y-89466666D01*
X139847619Y-89085714D02*
X139800000Y-89038095D01*
X139752380Y-88942857D01*
X139752380Y-88704761D01*
X139800000Y-88609523D01*
X139847619Y-88561904D01*
X139942857Y-88514285D01*
X140038095Y-88514285D01*
X140180952Y-88561904D01*
X140752380Y-89133333D01*
X140752380Y-88514285D01*
X150833333Y-92607142D02*
X150785714Y-92654761D01*
X150642857Y-92702380D01*
X150547619Y-92702380D01*
X150404761Y-92654761D01*
X150309523Y-92559523D01*
X150261904Y-92464285D01*
X150214285Y-92273809D01*
X150214285Y-92130952D01*
X150261904Y-91940476D01*
X150309523Y-91845238D01*
X150404761Y-91750000D01*
X150547619Y-91702380D01*
X150642857Y-91702380D01*
X150785714Y-91750000D01*
X150833333Y-91797619D01*
X151785714Y-92702380D02*
X151214285Y-92702380D01*
X151500000Y-92702380D02*
X151500000Y-91702380D01*
X151404761Y-91845238D01*
X151309523Y-91940476D01*
X151214285Y-91988095D01*
X128607142Y-87342857D02*
X128654761Y-87390476D01*
X128702380Y-87533333D01*
X128702380Y-87628571D01*
X128654761Y-87771428D01*
X128559523Y-87866666D01*
X128464285Y-87914285D01*
X128273809Y-87961904D01*
X128130952Y-87961904D01*
X127940476Y-87914285D01*
X127845238Y-87866666D01*
X127750000Y-87771428D01*
X127702380Y-87628571D01*
X127702380Y-87533333D01*
X127750000Y-87390476D01*
X127797619Y-87342857D01*
X128702380Y-86390476D02*
X128702380Y-86961904D01*
X128702380Y-86676190D02*
X127702380Y-86676190D01*
X127845238Y-86771428D01*
X127940476Y-86866666D01*
X127988095Y-86961904D01*
X127797619Y-86009523D02*
X127750000Y-85961904D01*
X127702380Y-85866666D01*
X127702380Y-85628571D01*
X127750000Y-85533333D01*
X127797619Y-85485714D01*
X127892857Y-85438095D01*
X127988095Y-85438095D01*
X128130952Y-85485714D01*
X128702380Y-86057142D01*
X128702380Y-85438095D01*
X130107142Y-95457142D02*
X130059523Y-95504761D01*
X129916666Y-95552380D01*
X129821428Y-95552380D01*
X129678571Y-95504761D01*
X129583333Y-95409523D01*
X129535714Y-95314285D01*
X129488095Y-95123809D01*
X129488095Y-94980952D01*
X129535714Y-94790476D01*
X129583333Y-94695238D01*
X129678571Y-94600000D01*
X129821428Y-94552380D01*
X129916666Y-94552380D01*
X130059523Y-94600000D01*
X130107142Y-94647619D01*
X131059523Y-95552380D02*
X130488095Y-95552380D01*
X130773809Y-95552380D02*
X130773809Y-94552380D01*
X130678571Y-94695238D01*
X130583333Y-94790476D01*
X130488095Y-94838095D01*
X132011904Y-95552380D02*
X131440476Y-95552380D01*
X131726190Y-95552380D02*
X131726190Y-94552380D01*
X131630952Y-94695238D01*
X131535714Y-94790476D01*
X131440476Y-94838095D01*
X128747619Y-68821428D02*
X128700000Y-68916666D01*
X128604761Y-69011904D01*
X128461904Y-69154761D01*
X128414285Y-69250000D01*
X128414285Y-69345238D01*
X128652380Y-69297619D02*
X128604761Y-69392857D01*
X128509523Y-69488095D01*
X128319047Y-69535714D01*
X127985714Y-69535714D01*
X127795238Y-69488095D01*
X127700000Y-69392857D01*
X127652380Y-69297619D01*
X127652380Y-69107142D01*
X127700000Y-69011904D01*
X127795238Y-68916666D01*
X127985714Y-68869047D01*
X128319047Y-68869047D01*
X128509523Y-68916666D01*
X128604761Y-69011904D01*
X128652380Y-69107142D01*
X128652380Y-69297619D01*
X128652380Y-67916666D02*
X128652380Y-68488095D01*
X128652380Y-68202380D02*
X127652380Y-68202380D01*
X127795238Y-68297619D01*
X127890476Y-68392857D01*
X127938095Y-68488095D01*
X128652380Y-66964285D02*
X128652380Y-67535714D01*
X128652380Y-67250000D02*
X127652380Y-67250000D01*
X127795238Y-67345238D01*
X127890476Y-67440476D01*
X127938095Y-67535714D01*
X139152380Y-80583333D02*
X139866666Y-80583333D01*
X140009523Y-80630952D01*
X140104761Y-80726190D01*
X140152380Y-80869047D01*
X140152380Y-80964285D01*
X139152380Y-80202380D02*
X139152380Y-79583333D01*
X139533333Y-79916666D01*
X139533333Y-79773809D01*
X139580952Y-79678571D01*
X139628571Y-79630952D01*
X139723809Y-79583333D01*
X139961904Y-79583333D01*
X140057142Y-79630952D01*
X140104761Y-79678571D01*
X140152380Y-79773809D01*
X140152380Y-80059523D01*
X140104761Y-80154761D01*
X140057142Y-80202380D01*
X139152380Y-68533333D02*
X139866666Y-68533333D01*
X140009523Y-68580952D01*
X140104761Y-68676190D01*
X140152380Y-68819047D01*
X140152380Y-68914285D01*
X139485714Y-67628571D02*
X140152380Y-67628571D01*
X139104761Y-67866666D02*
X139819047Y-68104761D01*
X139819047Y-67485714D01*
X160702380Y-74442857D02*
X160226190Y-74776190D01*
X160702380Y-75014285D02*
X159702380Y-75014285D01*
X159702380Y-74633333D01*
X159750000Y-74538095D01*
X159797619Y-74490476D01*
X159892857Y-74442857D01*
X160035714Y-74442857D01*
X160130952Y-74490476D01*
X160178571Y-74538095D01*
X160226190Y-74633333D01*
X160226190Y-75014285D01*
X160035714Y-73585714D02*
X160702380Y-73585714D01*
X159654761Y-73823809D02*
X160369047Y-74061904D01*
X160369047Y-73442857D01*
X159702380Y-72585714D02*
X159702380Y-73061904D01*
X160178571Y-73109523D01*
X160130952Y-73061904D01*
X160083333Y-72966666D01*
X160083333Y-72728571D01*
X160130952Y-72633333D01*
X160178571Y-72585714D01*
X160273809Y-72538095D01*
X160511904Y-72538095D01*
X160607142Y-72585714D01*
X160654761Y-72633333D01*
X160702380Y-72728571D01*
X160702380Y-72966666D01*
X160654761Y-73061904D01*
X160607142Y-73109523D01*
M02*
